<svg width="23" height="27" viewBox="0 0 23 27" fill="none" xmlns="http://www.w3.org/2000/svg">
<path d="M0.582344 27H16.888C17.2102 27 17.4703 26.7413 17.4703 26.421V22.3684H21.5467C21.8689 22.3684 22.1291 22.1097 22.1291 21.7895V3.26315C22.1291 1.66708 20.8228 0.368408 19.2174 0.368408H2.91172C1.30629 0.368408 0 1.66708 0 3.26315V26.421C0 26.7413 0.260178 27 0.582344 27ZM17.4703 3.26315C17.4703 2.30568 18.2543 1.5263 19.2174 1.5263C20.1805 1.5263 20.9644 2.30568 20.9644 3.26315V21.2105H17.4703V3.26315ZM1.16469 3.26315C1.16469 2.30568 1.94864 1.5263 2.91172 1.5263H16.8891C16.5229 2.01027 16.3056 2.61183 16.3056 3.26315V25.8421H1.16469V3.26315Z" fill="#016F3F"/>
<path d="M13.3935 5H4.076C3.75383 5 3.49365 5.25951 3.49365 5.57895V12.5263C3.49365 12.8458 3.75383 13.1053 4.076 13.1053H13.3935C13.7157 13.1053 13.9758 12.8458 13.9758 12.5263V5.57895C13.9758 5.25951 13.7157 5 13.3935 5ZM12.8112 11.9474H4.65834V6.15789H12.8112V11.9474Z" fill="#016F3F"/>
<path d="M13.3935 15.4211H4.076C3.75383 15.4211 3.49365 15.6798 3.49365 16.0001C3.49365 16.3204 3.75383 16.579 4.076 16.579H13.3935C13.7157 16.579 13.9758 16.3204 13.9758 16.0001C13.9758 15.6798 13.7157 15.4211 13.3935 15.4211Z" fill="#016F3F"/>
<path d="M13.3935 18.8948H4.076C3.75383 18.8948 3.49365 19.1534 3.49365 19.4737C3.49365 19.794 3.75383 20.0527 4.076 20.0527H13.3935C13.7157 20.0527 13.9758 19.794 13.9758 19.4737C13.9758 19.1534 13.7157 18.8948 13.3935 18.8948Z" fill="#016F3F"/>
<path d="M13.3935 22.3684H4.076C3.75383 22.3684 3.49365 22.6271 3.49365 22.9474C3.49365 23.2676 3.75383 23.5263 4.076 23.5263H13.3935C13.7157 23.5263 13.9758 23.2676 13.9758 22.9474C13.9758 22.6271 13.7157 22.3684 13.3935 22.3684Z" fill="#016F3F"/>
</svg>
