<svg width="32" height="32" viewBox="0 0 32 32" fill="none" xmlns="http://www.w3.org/2000/svg">
<path d="M32 15.9993C32.0034 13.6434 31.4849 11.3159 30.4818 9.18412C29.4787 7.05235 28.0159 5.16922 26.1984 3.67004C23.3293 1.29782 19.723 0 16.0002 0C12.2774 0 8.67107 1.29782 5.80202 3.67004C3.2338 5.7934 1.39302 8.66594 0.536857 11.8864C-0.319309 15.1068 -0.148095 18.5142 1.02658 21.6325C0.50398 22.1963 0.162785 22.9041 0.0472252 23.664C-0.0683349 24.424 0.0470685 25.2012 0.378476 25.8948L2.26284 29.823C2.47993 30.2773 2.78454 30.6843 3.15921 31.0207C3.53389 31.3571 3.97126 31.6162 4.44627 31.7833C4.92128 31.9503 5.42458 32.022 5.92734 31.9942C6.4301 31.9663 6.92242 31.8396 7.3761 31.6212L7.77469 31.43C7.8088 31.4131 7.84072 31.3922 7.86974 31.3676C8.21832 31.4822 8.59291 31.4917 8.94685 31.3949C9.30079 31.2982 9.61845 31.0994 9.86026 30.8235C10.1021 30.5475 10.2573 30.2065 10.3067 29.8429C10.3562 29.4793 10.2975 29.1093 10.1381 28.7788L5.82525 19.7968C5.70269 19.5398 5.52298 19.3141 5.29984 19.1371C5.0767 18.9601 4.81605 18.8365 4.53781 18.7757C4.25957 18.7149 3.97111 18.7185 3.69448 18.7862C3.41785 18.854 3.16037 18.9841 2.94172 19.1666C2.3589 16.7578 2.45435 14.2347 3.21749 11.8768C3.98063 9.51898 5.38168 7.41842 7.26539 5.80792C7.45837 5.90943 7.67276 5.96349 7.89081 5.96562C8.18295 5.96503 8.46761 5.87317 8.70498 5.70287C10.8362 4.18868 13.3857 3.37518 16.0001 3.37518C18.6144 3.37518 21.164 4.18868 23.2951 5.70287C23.5022 5.85208 23.7464 5.94113 24.0009 5.96019C24.2554 5.97926 24.5102 5.92758 24.7372 5.81089C26.6199 7.4215 28.0202 9.5218 28.7828 11.8792C29.5454 14.2365 29.6406 16.759 29.0579 19.1671C28.8392 18.9846 28.5817 18.8545 28.3051 18.7868C28.0285 18.719 27.74 18.7154 27.4618 18.7762C27.1835 18.837 26.9229 18.9607 26.6997 19.1377C26.4766 19.3146 26.2969 19.5403 26.1743 19.7974L21.8626 28.7788C21.7013 29.1092 21.6412 29.4799 21.6899 29.8444C21.7385 30.2088 21.8937 30.5508 22.136 30.8274C22.3783 31.1039 22.6969 31.3028 23.0518 31.3989C23.4067 31.4951 23.7821 31.4843 24.1309 31.3679C24.16 31.3923 24.1919 31.4131 24.226 31.43L24.6246 31.6214C25.5411 32.0609 26.5947 32.1184 27.5536 31.7811C28.5126 31.4438 29.2982 30.7395 29.7378 29.823L31.6222 25.8948C31.9536 25.2012 32.069 24.424 31.9534 23.664C31.8379 22.9041 31.4967 22.1963 30.9741 21.6325C31.6553 19.8327 32.0029 17.9238 32 15.9993ZM4.75939 30.8896C4.40123 30.7647 4.07139 30.57 3.78897 30.3168C3.50655 30.0636 3.27714 29.7569 3.11401 29.4144L1.22992 25.486C0.901622 24.8002 0.856846 24.0127 1.1053 23.2941C1.35375 22.5756 1.87541 21.9839 2.55718 21.6474L6.93863 30.7822C6.25474 31.1037 5.47159 31.1423 4.75939 30.8896ZM3.73322 19.7709C3.85803 19.7107 3.99483 19.6794 4.13342 19.6794C4.30859 19.6793 4.48021 19.7287 4.62854 19.8219C4.77688 19.915 4.8959 20.0481 4.97191 20.206L9.28531 29.1879C9.33806 29.2978 9.36864 29.4171 9.3753 29.5388C9.38197 29.6606 9.36459 29.7824 9.32415 29.8975C9.28372 30.0125 9.22102 30.1184 9.13964 30.2092C9.05826 30.3 8.9598 30.3739 8.84986 30.4267C8.73993 30.4794 8.62068 30.51 8.49893 30.5167C8.37718 30.5233 8.2553 30.5059 8.14027 30.4655C8.02523 30.4251 7.91929 30.3624 7.82848 30.281C7.73768 30.1996 7.66379 30.1012 7.61104 29.9912L3.3079 21.026L3.30007 21.0093C3.24725 20.8994 3.2166 20.7802 3.20987 20.6585C3.20315 20.5368 3.22049 20.415 3.26089 20.2999C3.30129 20.1849 3.36397 20.079 3.44534 19.9882C3.52671 19.8975 3.62518 19.8236 3.73511 19.7709H3.73322ZM1.62013 15.9993C1.61946 17.4666 1.84359 18.9254 2.28471 20.3248C2.2636 20.4614 2.2578 20.6 2.26743 20.7379L2.17588 20.7817C2.04545 20.8449 1.91869 20.9154 1.7962 20.9928C0.800066 18.1583 0.675198 15.0905 1.43767 12.1844C2.20015 9.27826 3.81506 6.66688 6.0745 4.68646L6.54842 5.179C4.99991 6.5244 3.75851 8.18676 2.90825 10.0536C2.05799 11.9204 1.6187 13.948 1.62013 15.9993ZM23.8431 4.933C21.5519 3.30483 18.8107 2.43007 15.9999 2.43007C13.1891 2.43007 10.448 3.30483 8.1568 4.933C8.07024 4.99639 7.96367 5.02633 7.85676 5.01729C7.74986 5.00826 7.64982 4.96087 7.57512 4.88385L6.80226 4.07969C9.43754 2.04719 12.6719 0.944821 15.9999 0.944821C19.328 0.944821 22.5623 2.04719 25.1976 4.07969L24.4253 4.88358C24.3506 4.96078 24.2505 5.00831 24.1434 5.0174C24.0364 5.02648 23.9297 4.9965 23.8431 4.933ZM25.4514 5.179L25.9248 4.68646C28.1844 6.66675 29.7996 9.27807 30.5622 12.1842C31.3249 15.0903 31.2002 18.1582 30.2042 20.9928C30.0817 20.9154 29.9549 20.8449 29.8245 20.7817L29.733 20.7376C29.7426 20.5998 29.7368 20.4613 29.7157 20.3248C30.556 17.6591 30.6001 14.8062 29.8426 12.1159C29.0852 9.42555 27.5591 7.01471 25.4514 5.179ZM23.149 30.4273C22.9273 30.3206 22.757 30.1303 22.6755 29.8981C22.5939 29.6659 22.6078 29.4109 22.714 29.189L27.0261 20.207C27.1021 20.0492 27.2211 19.9161 27.3694 19.8229C27.5178 19.7298 27.6894 19.6804 27.8645 19.6805C28.0214 19.6807 28.1756 19.7207 28.3128 19.7967C28.45 19.8726 28.5657 19.9822 28.6491 20.115C28.7325 20.2478 28.7809 20.3996 28.7898 20.5562C28.7987 20.7127 28.7677 20.869 28.6998 21.0104L28.692 21.0271L24.3877 29.9923C24.335 30.1023 24.2611 30.2007 24.1703 30.2821C24.0795 30.3635 23.9736 30.4261 23.8586 30.4665C23.7435 30.5069 23.6216 30.5243 23.4999 30.5176C23.3782 30.5108 23.2589 30.4802 23.149 30.4273ZM30.7694 25.4857L28.8853 29.4142C28.5565 30.0999 27.9703 30.6283 27.2542 30.8844C26.5381 31.1405 25.7498 31.1036 25.0607 30.7819L29.4427 21.6474C30.1247 21.9837 30.6466 22.5752 30.8954 23.2938C31.1441 24.0124 31.0995 24.8 30.7713 25.486L30.7694 25.4857Z" fill="white"/>
</svg>
