<svg width="25" height="25" viewBox="0 0 25 25" fill="none" xmlns="http://www.w3.org/2000/svg">
<path d="M25 12.4995C25.0027 10.6589 24.5976 8.84053 23.8139 7.17509C23.0302 5.50965 21.8874 4.03846 20.4675 2.86722C18.226 1.01392 15.4086 0 12.5002 0C9.59172 0 6.77427 1.01392 4.53283 2.86722C2.52641 4.52609 1.0883 6.77027 0.41942 9.28621C-0.24946 11.8022 -0.115699 14.4642 0.802015 16.9004C0.393734 17.3409 0.127176 17.8938 0.0368947 18.4875C-0.0533867 19.0813 0.0367723 19.6884 0.295684 20.2303L1.76784 23.2992C1.93744 23.6542 2.17542 23.9721 2.46813 24.2349C2.76085 24.4977 3.10255 24.7002 3.47365 24.8307C3.84475 24.9612 4.23795 25.0172 4.63073 24.9954C5.02351 24.9737 5.40814 24.8747 5.76258 24.704L6.07397 24.5547C6.10062 24.5415 6.12556 24.5252 6.14824 24.5059C6.42056 24.5955 6.71321 24.6029 6.98972 24.5273C7.26624 24.4517 7.51441 24.2964 7.70332 24.0808C7.89224 23.8652 8.01355 23.5988 8.05215 23.3148C8.09074 23.0307 8.04492 22.7416 7.92039 22.4834L4.55097 15.4663C4.45523 15.2654 4.31483 15.0891 4.1405 14.9509C3.96617 14.8126 3.76254 14.716 3.54517 14.6685C3.32779 14.621 3.10243 14.6238 2.88631 14.6767C2.67019 14.7297 2.46904 14.8313 2.29822 14.9739C1.84289 13.092 1.91746 11.1209 2.51366 9.27878C3.10987 7.4367 4.20444 5.79564 5.67608 4.53744C5.82685 4.61674 5.99435 4.65898 6.16469 4.66064C6.39293 4.66018 6.61532 4.58841 6.80077 4.45537C8.46575 3.27241 10.4576 2.63686 12.5001 2.63686C14.5425 2.63686 16.5343 3.27241 18.1993 4.45537C18.3611 4.57193 18.5519 4.64151 18.7507 4.6564C18.9495 4.67129 19.1486 4.63092 19.3259 4.53976C20.7968 5.79805 21.8908 7.4389 22.4865 9.2806C23.0823 11.1223 23.1567 13.093 22.7015 14.9743C22.5306 14.8317 22.3295 14.7301 22.1134 14.6772C21.8972 14.6242 21.6719 14.6214 21.4545 14.6689C21.2371 14.7164 21.0335 14.813 20.8592 14.9513C20.6849 15.0896 20.5445 15.2659 20.4487 15.4667L17.0801 22.4834C16.9541 22.7416 16.9072 23.0312 16.9452 23.3159C16.9832 23.6006 17.1045 23.8678 17.2938 24.0839C17.4831 24.2999 17.732 24.4553 18.0093 24.5304C18.2865 24.6055 18.5798 24.5971 18.8523 24.5062C18.875 24.5252 18.8999 24.5415 18.9265 24.5547L19.2379 24.7042C19.954 25.0476 20.7771 25.0925 21.5263 24.829C22.2754 24.5655 22.8892 24.0152 23.2327 23.2992L24.7048 20.2303C24.9637 19.6884 25.0539 19.0813 24.9636 18.4875C24.8733 17.8938 24.6068 17.3409 24.1985 16.9004C24.7307 15.4943 25.0023 14.003 25 12.4995ZM3.71827 24.1325C3.43846 24.0349 3.18078 23.8828 2.96013 23.685C2.73949 23.4872 2.56026 23.2476 2.43282 22.98L0.960876 19.9109C0.704393 19.3752 0.669411 18.7599 0.863515 18.1985C1.05762 17.6372 1.46516 17.1749 1.9978 16.912L5.42081 24.0486C4.88652 24.2998 4.27468 24.3299 3.71827 24.1325ZM2.91658 15.446C3.01408 15.399 3.12096 15.3745 3.22924 15.3745C3.36608 15.3745 3.50016 15.413 3.61605 15.4858C3.73193 15.5586 3.82492 15.6626 3.8843 15.7859L7.25415 22.803C7.29536 22.8889 7.31925 22.9821 7.32446 23.0772C7.32966 23.1723 7.31608 23.2675 7.28449 23.3574C7.25291 23.4473 7.20392 23.53 7.14035 23.601C7.07677 23.6719 6.99984 23.7296 6.91396 23.7708C6.82807 23.812 6.73491 23.8359 6.63979 23.8411C6.54467 23.8463 6.44946 23.8328 6.35958 23.8012C6.26971 23.7696 6.18694 23.7206 6.116 23.657C6.04506 23.5935 5.98734 23.5165 5.94613 23.4307L2.5843 16.4266L2.57818 16.4135C2.53691 16.3277 2.51297 16.2346 2.50771 16.1395C2.50246 16.0444 2.516 15.9492 2.54757 15.8593C2.57914 15.7695 2.6281 15.6867 2.69167 15.6158C2.75525 15.5449 2.83217 15.4872 2.91806 15.446H2.91658ZM1.26573 12.4995C1.2652 13.6458 1.4403 14.7854 1.78493 15.8787C1.76844 15.9855 1.76391 16.0937 1.77143 16.2015L1.69991 16.2357C1.59801 16.285 1.49898 16.3401 1.40328 16.4007C0.625052 14.1862 0.527498 11.7894 1.12318 9.51904C1.71887 7.24864 2.98052 5.2085 4.7457 3.6613L5.11595 4.0461C3.90618 5.09719 2.93634 6.39591 2.27207 7.85434C1.6078 9.31278 1.26461 10.8969 1.26573 12.4995ZM18.6274 3.85391C16.8374 2.5819 14.6959 1.89849 12.4999 1.89849C10.304 1.89849 8.16249 2.5819 6.3725 3.85391C6.30487 3.90343 6.22162 3.92682 6.1381 3.91976C6.05457 3.9127 5.97642 3.87568 5.91807 3.81551L5.31427 3.18726C7.37308 1.59936 9.8999 0.738141 12.4999 0.738141C15.1 0.738141 17.6268 1.59936 19.6856 3.18726L19.0822 3.8153C19.0239 3.87561 18.9457 3.91275 18.8621 3.91984C18.7784 3.92694 18.6951 3.90352 18.6274 3.85391ZM19.8839 4.0461L20.2538 3.6613C22.0191 5.2084 23.2809 7.24849 23.8767 9.5189C24.4726 11.7893 24.3752 14.1861 23.597 16.4007C23.5013 16.3401 23.4023 16.285 23.3004 16.2357L23.2289 16.2013C23.2364 16.0936 23.2319 15.9854 23.2154 15.8787C23.8718 13.7962 23.9063 11.5674 23.3146 9.46554C22.7228 7.36371 21.5305 5.48024 19.8839 4.0461ZM18.0852 23.7714C17.912 23.688 17.7789 23.5393 17.7152 23.3579C17.6515 23.1765 17.6623 22.9773 17.7453 22.8039L21.1141 15.7867C21.1735 15.6635 21.2665 15.5594 21.3824 15.4867C21.4983 15.4139 21.6323 15.3753 21.7692 15.3754C21.8917 15.3755 22.0122 15.4068 22.1194 15.4661C22.2266 15.5255 22.317 15.6111 22.3821 15.7148C22.4473 15.8186 22.4851 15.9372 22.492 16.0595C22.4989 16.1818 22.4748 16.3039 22.4217 16.4144L22.4156 16.4274L19.0529 23.4315C19.0117 23.5174 18.954 23.5943 18.8831 23.6579C18.8121 23.7215 18.7294 23.7704 18.6395 23.802C18.5496 23.8335 18.4544 23.8471 18.3593 23.8418C18.2642 23.8366 18.171 23.8126 18.0852 23.7714ZM24.0386 19.9107L22.5666 22.9798C22.3098 23.5156 21.8518 23.9283 21.2924 24.1284C20.7329 24.3285 20.117 24.2997 19.5787 24.0484L23.0021 16.912C23.5349 17.1748 23.9427 17.6369 24.137 18.1983C24.3313 18.7597 24.2965 19.375 24.0401 19.9109L24.0386 19.9107Z" fill="#016F3F"/>
</svg>
