<svg width="39" height="25" viewBox="0 0 39 25" fill="none" xmlns="http://www.w3.org/2000/svg">
<path d="M3.64864 22.1732H34.5365C35.1756 22.1732 35.6948 21.6536 35.6948 21.0149V1.1583C35.6948 0.51958 35.1756 0 34.5365 0H3.64864C3.00992 0 2.49034 0.51958 2.49034 1.1583V21.0149C2.49034 21.6536 3.01025 22.1732 3.64864 22.1732ZM3.48317 1.1583C3.48317 1.06696 3.5573 0.992828 3.64864 0.992828H34.5365C34.6279 0.992828 34.702 1.06696 34.702 1.1583V21.0149C34.702 21.1062 34.6279 21.1803 34.5365 21.1803H3.64864C3.5573 21.1803 3.48317 21.1062 3.48317 21.0149V1.1583ZM38.1852 23.0594V23.9864C38.1852 24.232 37.9859 24.4312 37.7404 24.4312H0.444787C0.199227 24.4312 0 24.232 0 23.9864V23.0594H15.6824C15.7598 23.3179 15.9968 23.5075 16.2804 23.5075H21.9051C22.1884 23.5075 22.4253 23.3182 22.5031 23.0594H38.1852Z" fill="white"/>
</svg>
