<svg width="27" height="18" viewBox="0 0 27 18" fill="none" xmlns="http://www.w3.org/2000/svg">
<path d="M2.57989 16.4127H24.4201C24.872 16.4127 25.2391 16.0474 25.2391 15.5985V1.64016C25.2391 1.19117 24.872 0.825928 24.4201 0.825928H2.57989C2.12826 0.825928 1.76087 1.19117 1.76087 1.64016V15.5985C1.76087 16.0474 2.12849 16.4127 2.57989 16.4127ZM2.46288 1.64016C2.46288 1.57595 2.5153 1.52384 2.57989 1.52384H24.4201C24.4847 1.52384 24.5371 1.57595 24.5371 1.64016V15.5985C24.5371 15.6627 24.4847 15.7148 24.4201 15.7148H2.57989C2.5153 15.7148 2.46288 15.6627 2.46288 15.5985V1.64016ZM27 17.0357V17.6873C27 17.8599 26.8591 18 26.6855 18H0.3145C0.14087 18 0 17.8599 0 17.6873V17.0357H11.0887C11.1435 17.2174 11.311 17.3507 11.5116 17.3507H15.4887C15.689 17.3507 15.8565 17.2176 15.9115 17.0357H27Z" fill="#016F3F"/>
</svg>
