<svg width="25" height="25" viewBox="0 0 25 25" fill="none" xmlns="http://www.w3.org/2000/svg">
<path d="M22.7878 16.8537C21.8541 16.3179 20.7791 16.1439 19.7315 16.3537L15.9396 12.5855L19.7344 8.81447C20.0177 8.87034 20.3021 8.89755 20.5842 8.8975C22.124 8.89745 23.5925 8.08761 24.3898 6.71517C24.9763 5.7058 25.132 4.52993 24.8285 3.40411C24.5249 2.27833 23.7984 1.33744 22.7827 0.754721C20.6862 -0.448019 17.9957 0.268367 16.7853 2.35186C16.2462 3.27975 16.071 4.3481 16.2821 5.38909L12.49 9.15741L12.1821 8.85148C11.9915 8.66209 11.6826 8.66218 11.4922 8.85162C11.3017 9.04106 11.3018 9.34816 11.4923 9.5375L11.7999 9.84315L9.73036 11.8998L6.09116 8.2833L8.15892 6.22494L8.38708 6.45167C8.57764 6.64101 8.88649 6.64092 9.07699 6.45153C9.26744 6.26209 9.2674 5.95499 9.07684 5.76564L8.69501 5.38623C9.05801 3.56857 8.21658 1.69745 6.58246 0.759862C5.31651 0.033581 3.77523 -0.019429 2.45967 0.618243C2.02324 0.829749 1.79606 1.10324 1.78454 1.43114C1.77323 1.75299 1.96914 2.03186 2.36678 2.26L3.67649 3.0114C3.89948 3.13935 3.89948 3.20133 3.89948 3.31375V3.87116C3.89948 4.21875 3.86475 4.27846 3.5618 4.45228L3.07605 4.73096C2.98117 4.78547 2.92385 4.81835 2.70061 4.69026L1.39095 3.93886C0.993314 3.71067 0.65241 3.68162 0.377756 3.85229C0.0979301 4.02616 -0.0267622 4.35838 0.00709401 4.83974C0.109297 6.29094 0.926138 7.59102 2.19214 8.31735C3.12581 8.85308 4.20097 9.02709 5.24836 8.81733L9.04026 12.5856L5.24553 16.3565C3.41657 15.9956 1.53365 16.8319 0.590162 18.4558C0.00372794 19.4652 -0.15204 20.641 0.151495 21.7669C0.455079 22.8926 1.18157 23.8335 2.19721 24.4162C2.88692 24.8119 3.64054 25 4.38498 24.9999C5.90339 24.9998 7.38242 24.2172 8.19463 22.8192C8.73375 21.8913 8.90888 20.823 8.69784 19.782L12.4899 16.0136L16.2848 19.7848C15.9218 21.6025 16.7633 23.4736 18.3973 24.4111C19.0755 24.8003 19.8325 24.9961 20.5917 24.9961C21.2496 24.9961 21.9093 24.8489 22.5201 24.5528C22.9566 24.3413 23.1838 24.0678 23.1953 23.7399C23.2065 23.418 23.0107 23.1392 22.613 22.911L21.3034 22.1597C21.0804 22.0317 21.0803 21.9697 21.0803 21.8573V21.2999C21.0803 20.9523 21.1151 20.8926 21.418 20.7187L21.9038 20.4401C21.9987 20.3856 22.056 20.3527 22.2791 20.4807L23.5889 21.2322C23.9864 21.4603 24.3274 21.4894 24.6021 21.3187C24.8819 21.1448 25.0066 20.8126 24.9727 20.3313C24.8707 18.8801 24.0539 17.58 22.7878 16.8537ZM2.67983 7.47724C1.71083 6.92129 1.08015 5.93297 0.98463 4.82568L2.21297 5.53042C2.51806 5.70551 2.99015 5.90023 3.56375 5.57111L4.04954 5.29243C4.65139 4.94712 4.87516 4.56193 4.87521 3.8712V3.31375C4.87521 2.65537 4.46948 2.34643 4.16423 2.1713L2.93629 1.46679C3.94924 0.995424 5.12572 1.04402 6.09482 1.59997C7.39413 2.34546 8.04891 3.84933 7.71738 5.2918L5.1528 7.84467C4.3081 8.03872 3.43467 7.9103 2.67983 7.47724ZM17.6302 2.837C18.5717 1.21653 20.6642 0.659322 22.2951 1.59493C23.0849 2.04811 23.6499 2.77987 23.886 3.65533C24.1221 4.53075 24.0009 5.44516 23.545 6.23003C22.9246 7.2977 21.7827 7.92766 20.585 7.92756C20.3343 7.92756 20.0809 7.89972 19.8295 7.84269L17.2604 5.29399C17.0653 4.4547 17.1945 3.5869 17.6302 2.837ZM7.34984 22.3341C6.40835 23.9545 4.31571 24.5117 2.68495 23.5761C1.89504 23.1229 1.33002 22.3911 1.09396 21.5157C0.857889 20.6403 0.979069 19.7259 1.43505 18.9409C2.05534 17.8733 3.19733 17.2434 4.39493 17.2434C4.64573 17.2434 4.89907 17.2712 5.15045 17.3283L7.71962 19.877C7.91466 20.7164 7.78553 21.5841 7.34984 22.3341ZM8.16073 18.9443L6.0894 16.8895L16.8193 6.22668L18.8906 8.28151L8.16073 18.9443ZM13.18 15.3279L15.2496 13.2712L18.8888 16.8877L16.821 18.9461L13.18 15.3279ZM22.767 19.6406C22.4619 19.4655 21.9899 19.2708 21.4163 19.5999L20.9305 19.8786C20.3286 20.2239 20.1048 20.6091 20.1048 21.2997V21.8573C20.1049 22.5156 20.5106 22.8246 20.8159 22.9998L22.0437 23.7042C21.0309 24.1756 19.8542 24.127 18.8852 23.571C17.5859 22.8255 16.9311 21.3216 17.2626 19.8791L19.8271 17.3263C20.672 17.1323 21.5454 17.2607 22.3002 17.6938C23.2692 18.2497 23.8999 19.238 23.9954 20.3453L22.767 19.6406Z" fill="#016F3F"/>
<path d="M18.8807 5.79321L20.3443 6.63289C20.4197 6.6762 20.5039 6.69783 20.5881 6.69783C20.6723 6.69783 20.7565 6.6762 20.8319 6.63289L22.2954 5.79321C22.4464 5.70659 22.5394 5.54645 22.5394 5.37316V3.69381C22.5394 3.52053 22.4464 3.36038 22.2954 3.27376L20.8319 2.43409C20.6811 2.34752 20.4952 2.34747 20.3443 2.43409L18.8807 3.27376C18.7297 3.36038 18.6367 3.52053 18.6367 3.69381V5.37316C18.6367 5.54645 18.7297 5.70655 18.8807 5.79321ZM19.6124 3.97385L20.5881 3.41407L21.5637 3.97385V5.09303L20.5881 5.65281L19.6124 5.09303V3.97385Z" fill="#016F3F"/>
<path d="M6.10012 19.3777L4.63659 18.5381C4.48566 18.4515 4.29984 18.4515 4.1489 18.5381L2.68538 19.3777C2.53439 19.4644 2.44141 19.6245 2.44141 19.7978V21.4771C2.44141 21.6504 2.53444 21.8105 2.68538 21.8972L4.1489 22.7368C4.22437 22.7801 4.30852 22.8018 4.39277 22.8018C4.47702 22.8018 4.56117 22.7801 4.63664 22.7368L6.10017 21.8972C6.25115 21.8105 6.34414 21.6504 6.34414 21.4771V19.7978C6.34409 19.6245 6.25106 19.4644 6.10012 19.3777ZM5.36841 21.197L4.39272 21.7568L3.41704 21.197V20.0778L4.39272 19.5181L5.36841 20.0778V21.197Z" fill="#016F3F"/>
<path d="M10.2849 8.13674C10.5543 8.13674 10.7727 7.91961 10.7727 7.65174C10.7727 7.38388 10.5543 7.16675 10.2849 7.16675H10.2845C10.0151 7.16675 9.79688 7.38388 9.79688 7.65174C9.79688 7.91961 10.0154 8.13674 10.2849 8.13674Z" fill="#016F3F"/>
</svg>
