<svg width="25" height="25" viewBox="0 0 25 25" fill="none" xmlns="http://www.w3.org/2000/svg">
<path d="M22.6549 16.6825C21.7266 16.1468 20.6579 15.9728 19.6164 16.1825L15.8467 12.4144L19.6193 8.64333C19.9009 8.6992 20.1837 8.72641 20.4642 8.72636C21.9949 8.72631 23.4548 7.91647 24.2476 6.54403C24.8306 5.53465 24.9854 4.35878 24.6836 3.23296C24.3818 2.10719 23.6596 1.1663 22.6498 0.583578C20.5655 -0.619162 17.8907 0.0972248 16.6874 2.18072C16.1514 3.10861 15.9773 4.17696 16.1871 5.21795L12.4171 8.98627L12.111 8.68033C11.9215 8.49094 11.6145 8.49104 11.4252 8.68048C11.2358 8.86992 11.2359 9.17702 11.4253 9.36636L11.7311 9.672L9.6736 11.7286L6.05563 8.11216L8.11133 6.05379L8.33816 6.28053C8.5276 6.46987 8.83465 6.46977 9.02404 6.28038C9.21338 6.09094 9.21334 5.78384 9.0239 5.5945L8.64429 5.21509C9.00517 3.39742 8.16865 1.52631 6.54406 0.588719C5.2855 -0.137562 3.75321 -0.190572 2.44532 0.4471C2.01144 0.658607 1.78558 0.932096 1.77413 1.26C1.76288 1.58184 1.95766 1.86072 2.35298 2.08886L3.65504 2.84026C3.87674 2.9682 3.87674 3.03019 3.87674 3.14261V3.70001C3.87674 4.04761 3.8422 4.10731 3.54102 4.28113L3.05811 4.55981C2.96378 4.61433 2.90679 4.64721 2.68486 4.51912L1.38284 3.76772C0.98752 3.53953 0.648605 3.51048 0.375552 3.68115C0.0973588 3.85502 -0.0266061 4.18724 0.00705263 4.6686C0.108659 6.1198 0.920736 7.41988 2.17935 8.14621C3.10758 8.68193 4.17646 8.85595 5.21775 8.64619L8.98752 12.4144L5.21493 16.1854C3.39664 15.8245 1.5247 16.6607 0.586719 18.2847C0.00370619 19.294 -0.151153 20.4699 0.150611 21.5957C0.452424 22.7215 1.17468 23.6624 2.18439 24.2451C2.87008 24.6408 3.6193 24.8288 4.3594 24.8287C5.86895 24.8286 7.33936 24.0461 8.14683 22.6481C8.6828 21.7202 8.85691 20.6518 8.6471 19.6108L12.417 15.8425L16.1898 19.6136C15.8289 21.4313 16.6655 23.3025 18.29 24.24C18.9642 24.6291 19.7168 24.825 20.4715 24.825C21.1257 24.8249 21.7815 24.6777 22.3888 24.3817C22.8226 24.1702 23.0485 23.8966 23.06 23.5687C23.0712 23.2469 22.8765 22.9681 22.4811 22.7399L21.1791 21.9885C20.9574 21.8605 20.9574 21.7986 20.9574 21.6862V21.1287C20.9574 20.7812 20.9919 20.7214 21.2931 20.5476L21.776 20.2689C21.8704 20.2144 21.9273 20.1816 22.1492 20.3096L23.4513 21.061C23.8465 21.2892 24.1855 21.3183 24.4586 21.1476C24.7367 20.9737 24.8607 20.6414 24.827 20.1601C24.7256 18.7089 23.9135 17.4089 22.6549 16.6825ZM2.6642 7.3061C1.70085 6.75015 1.07385 5.76183 0.978887 4.65453L2.20006 5.35928C2.50337 5.53436 2.9727 5.72909 3.54296 5.39997L4.02592 5.12129C4.62426 4.77598 4.84673 4.39079 4.84677 3.70006V3.14261C4.84677 2.48423 4.4434 2.17528 4.13994 2.00015L2.91916 1.29565C3.9262 0.824281 5.09582 0.872878 6.05926 1.42883C7.351 2.17431 8.00196 3.67819 7.67236 5.12066L5.12274 7.67353C4.28297 7.86758 3.41463 7.73915 2.6642 7.3061ZM17.5273 2.66586C18.4634 1.04539 20.5437 0.48818 22.165 1.42378C22.9503 1.87696 23.512 2.60873 23.7467 3.48419C23.9814 4.35961 23.8609 5.27402 23.4076 6.05889C22.7909 7.12655 21.6556 7.75651 20.4649 7.75642C20.2157 7.75642 19.9638 7.72858 19.7139 7.67154L17.1597 5.12284C16.9658 4.28356 17.0942 3.41576 17.5273 2.66586ZM7.30696 22.1629C6.37097 23.7834 4.29053 24.3405 2.66929 23.4049C1.88399 22.9518 1.32226 22.22 1.08757 21.3445C0.852885 20.4691 0.973358 19.5547 1.42668 18.7698C2.04335 17.7021 3.17868 17.0723 4.3693 17.0723C4.61863 17.0723 4.87049 17.1001 5.12041 17.1571L7.67459 19.7058C7.86849 20.5452 7.74011 21.413 7.30696 22.1629ZM8.11312 18.7731L6.05388 16.7183L16.7212 6.05554L18.7804 8.11037L8.11312 18.7731ZM13.1031 15.1567L15.1606 13.1001L18.7786 16.7166L16.7229 18.7749L13.1031 15.1567ZM22.6342 19.4695C22.3309 19.2944 21.8616 19.0997 21.2913 19.4288L20.8084 19.7074C20.21 20.0527 19.9876 20.438 19.9876 21.1286V21.6862C19.9877 22.3445 20.391 22.6534 20.6944 22.8286L21.9151 23.533C20.9082 24.0045 19.7384 23.9558 18.775 23.3999C17.4833 22.6544 16.8323 21.1505 17.1619 19.708L19.7115 17.1551C20.5514 16.9612 21.4197 17.0896 22.1701 17.5226C23.1334 18.0786 23.7604 19.0669 23.8554 20.1742L22.6342 19.4695Z" fill="white"/>
<path d="M18.7699 5.62216L20.2249 6.46184C20.2999 6.50515 20.3836 6.52678 20.4673 6.52678C20.551 6.52678 20.6347 6.50515 20.7097 6.46184L22.1647 5.62216C22.3148 5.53554 22.4073 5.3754 22.4073 5.20211V3.52276C22.4073 3.34948 22.3148 3.18933 22.1647 3.10271L20.7097 2.26304C20.5598 2.17646 20.3749 2.17642 20.2249 2.26304L18.7699 3.10271C18.6198 3.18933 18.5273 3.34948 18.5273 3.52276V5.20211C18.5273 5.3754 18.6198 5.5355 18.7699 5.62216ZM19.4973 3.8028L20.4673 3.24302L21.4373 3.8028V4.92198L20.4673 5.48176L19.4973 4.92198V3.8028Z" fill="white"/>
<path d="M6.06413 19.2066L4.60914 18.367C4.45908 18.2804 4.27435 18.2804 4.12429 18.367L2.6693 19.2066C2.5192 19.2933 2.42676 19.4534 2.42676 19.6267V21.306C2.42676 21.4793 2.51925 21.6394 2.6693 21.726L4.12429 22.5657C4.19932 22.609 4.28298 22.6307 4.36674 22.6307C4.4505 22.6307 4.53416 22.609 4.60919 22.5657L6.06418 21.726C6.21428 21.6394 6.30672 21.4793 6.30672 21.306V19.6267C6.30667 19.4534 6.21418 19.2933 6.06413 19.2066ZM5.33668 21.0259L4.36669 21.5857L3.3967 21.0259V19.9067L4.36669 19.3469L5.33668 19.9067V21.0259Z" fill="white"/>
<path d="M10.2249 7.9655C10.4928 7.9655 10.7099 7.74837 10.7099 7.48051C10.7099 7.21265 10.4928 6.99551 10.2249 6.99551H10.2245C9.95668 6.99551 9.73975 7.21265 9.73975 7.48051C9.73975 7.74837 9.95702 7.9655 10.2249 7.9655Z" fill="white"/>
</svg>
