<svg width="36" height="36" viewBox="0 0 36 36" fill="none" xmlns="http://www.w3.org/2000/svg">
<path d="M13.0149 11.0805C13.0149 11.708 12.8321 12.2317 12.4664 12.6515C12.1007 13.0669 11.5861 13.3468 10.9224 13.4913V13.5454C11.717 13.6447 12.3129 13.893 12.7102 14.2903C13.1075 14.6831 13.3061 15.2068 13.3061 15.8614C13.3061 16.8139 12.9698 17.5498 12.2971 18.069C11.6244 18.5836 10.6673 18.841 9.42585 18.841C8.32882 18.841 7.40334 18.6626 6.64941 18.306V16.8907C7.06927 17.0984 7.51395 17.2586 7.98346 17.3715C8.45297 17.4844 8.90442 17.5408 9.33782 17.5408C10.1053 17.5408 10.6786 17.3986 11.0579 17.1142C11.4371 16.8297 11.6267 16.3896 11.6267 15.7937C11.6267 15.2655 11.4168 14.8772 10.9969 14.6289C10.5771 14.3806 9.91794 14.2565 9.01954 14.2565H8.15953V12.963H9.03309C10.6132 12.963 11.4032 12.4168 11.4032 11.3243C11.4032 10.8999 11.2655 10.5726 10.9901 10.3424C10.7148 10.1121 10.3084 9.997 9.77121 9.997C9.39651 9.997 9.03535 10.0512 8.68773 10.1595C8.34011 10.2634 7.92928 10.4688 7.45526 10.7758L6.6765 9.66518C7.58392 8.99703 8.63807 8.66296 9.83893 8.66296C10.8366 8.66296 11.6154 8.8774 12.1752 9.30628C12.735 9.73516 13.0149 10.3266 13.0149 11.0805Z" fill="#4F4F4F"/>
<path d="M14.6266 14.4867C14.6266 10.6132 16.2044 8.6765 19.3601 8.6765C19.8567 8.6765 20.2765 8.71487 20.6196 8.79162V10.1189C20.2765 10.0196 19.8793 9.96991 19.4278 9.96991C18.3669 9.96991 17.5701 10.2543 17.0374 10.8232C16.5046 11.392 16.2157 12.3039 16.1706 13.559H16.2518C16.464 13.1933 16.762 12.9111 17.1457 12.7125C17.5294 12.5093 17.9809 12.4078 18.5001 12.4078C19.3985 12.4078 20.0982 12.6831 20.5993 13.2339C21.1004 13.7847 21.351 14.5318 21.351 15.4754C21.351 16.5137 21.0598 17.3354 20.4774 17.9403C19.8996 18.5408 19.1095 18.841 18.1073 18.841C17.3985 18.841 16.7823 18.6717 16.2586 18.3331C15.7349 17.99 15.3309 17.4934 15.0464 16.8433C14.7665 16.1887 14.6266 15.4032 14.6266 14.4867ZM18.0802 17.5272C18.6265 17.5272 19.0463 17.3512 19.3398 16.999C19.6377 16.6469 19.7867 16.1435 19.7867 15.4889C19.7867 14.9201 19.6468 14.4732 19.3669 14.1481C19.0915 13.8231 18.6761 13.6605 18.1208 13.6605C17.7777 13.6605 17.4617 13.735 17.1728 13.884C16.8839 14.0285 16.6559 14.2294 16.4888 14.4867C16.3218 14.7395 16.2383 14.9991 16.2383 15.2655C16.2383 15.902 16.4098 16.4392 16.7529 16.8771C17.1006 17.3105 17.543 17.5272 18.0802 17.5272Z" fill="#4F4F4F"/>
<path d="M29.2334 13.7554C29.2334 15.4754 28.9557 16.753 28.4004 17.5882C27.8497 18.4234 27.0054 18.841 25.8678 18.841C24.7662 18.841 23.9311 18.4098 23.3622 17.5476C22.7934 16.6853 22.509 15.4212 22.509 13.7554C22.509 12.0082 22.7844 10.7216 23.3351 9.89543C23.8904 9.06475 24.7346 8.64941 25.8678 8.64941C26.9738 8.64941 27.8113 9.08281 28.3801 9.9496C28.949 10.8164 29.2334 12.085 29.2334 13.7554ZM24.1207 13.7554C24.1207 15.1052 24.2584 16.069 24.5337 16.6469C24.8136 17.2248 25.2583 17.5137 25.8678 17.5137C26.4772 17.5137 26.9219 17.2203 27.2018 16.6334C27.4862 16.0465 27.6285 15.0871 27.6285 13.7554C27.6285 12.4281 27.4862 11.4687 27.2018 10.8773C26.9219 10.2814 26.4772 9.98346 25.8678 9.98346C25.2583 9.98346 24.8136 10.2746 24.5337 10.857C24.2584 11.4394 24.1207 12.4055 24.1207 13.7554Z" fill="#4F4F4F"/>
<path d="M32.0705 7.07068C33.3041 7.07068 34.3041 6.07067 34.3041 4.8371C34.3041 3.60352 33.3041 2.60352 32.0705 2.60352C30.8369 2.60352 29.8369 3.60352 29.8369 4.8371C29.8369 6.07067 30.8369 7.07068 32.0705 7.07068Z" stroke="#4F4F4F"/>
<path d="M5.11578 14.7866C5.34501 14.6326 5.40599 14.322 5.25201 14.0928C5.09802 13.8635 4.78737 13.8026 4.55814 13.9565L5.11578 14.7866ZM15.5805 26.9976C15.8517 27.0499 16.1139 26.8726 16.1662 26.6014C16.2186 26.3303 16.0412 26.0681 15.7701 26.0157L15.5805 26.9976ZM4.55814 13.9565C3.55028 14.6336 2.5569 15.5521 1.93828 16.6279C1.31308 17.7151 1.05935 18.9906 1.6078 20.3064C2.14672 21.5994 3.4219 22.8361 5.63393 23.9593C7.85186 25.0856 11.0663 26.1262 15.5805 26.9976L15.7701 26.0157C11.3039 25.1536 8.18958 24.1355 6.0867 23.0677C3.97792 21.9969 2.94028 20.9041 2.53084 19.9217C2.13093 18.9622 2.29333 18.0165 2.80518 17.1264C3.32361 16.2248 4.18824 15.4097 5.11578 14.7866L4.55814 13.9565Z" fill="#4F4F4F"/>
<path d="M30.4946 14.7866C30.2653 14.6326 30.2044 14.322 30.3583 14.0928C30.5123 13.8635 30.823 13.8026 31.0522 13.9565L30.4946 14.7866ZM20.0298 26.9976C19.7587 27.0499 19.4965 26.8726 19.4441 26.6014C19.3918 26.3303 19.5692 26.0681 19.8403 26.0157L20.0298 26.9976ZM31.0522 13.9565C32.0601 14.6336 33.0534 15.5521 33.6721 16.6279C34.2973 17.7151 34.551 18.9906 34.0025 20.3064C33.4636 21.5994 32.1885 22.8361 29.9764 23.9593C27.7585 25.0856 24.544 26.1262 20.0298 26.9976L19.8403 26.0157C24.3064 25.1536 27.4208 24.1355 29.5237 23.0677C31.6324 21.9969 32.6701 20.9041 33.0795 19.9217C33.4794 18.9622 33.317 18.0165 32.8052 17.1264C32.2867 16.2248 31.4221 15.4097 30.4946 14.7866L31.0522 13.9565Z" fill="#4F4F4F"/>
<path d="M14.2687 22.7396C14.1031 22.5186 13.7897 22.4739 13.5687 22.6396C13.3478 22.8052 13.3031 23.1186 13.4687 23.3396L14.2687 22.7396ZM16.4691 26.5067L16.7691 26.9067C16.99 26.741 17.0348 26.4276 16.8691 26.2067L16.4691 26.5067ZM12.702 28.7071C12.481 28.8728 12.4363 29.1862 12.602 29.4071C12.7676 29.628 13.081 29.6728 13.302 29.5071L12.702 28.7071ZM13.4687 23.3396L16.0691 26.8067L16.8691 26.2067L14.2687 22.7396L13.4687 23.3396ZM16.1691 26.1067L12.702 28.7071L13.302 29.5071L16.7691 26.9067L16.1691 26.1067Z" fill="#4F4F4F"/>
</svg>
