<svg width="34" height="32" viewBox="0 0 34 32" fill="none" xmlns="http://www.w3.org/2000/svg">
<path d="M12.8225 30.4091C13.5697 30.4091 14.1754 29.8034 14.1754 29.0563C14.1754 28.3091 13.5697 27.7035 12.8225 27.7035C12.0754 27.7035 11.4697 28.3091 11.4697 29.0563C11.4697 29.8034 12.0754 30.4091 12.8225 30.4091Z" stroke="#18824E" stroke-width="3" stroke-linecap="round" stroke-linejoin="round"/>
<path d="M27.7034 30.4091C28.4505 30.4091 29.0562 29.8034 29.0562 29.0563C29.0562 28.3091 28.4505 27.7035 27.7034 27.7035C26.9563 27.7035 26.3506 28.3091 26.3506 29.0563C26.3506 29.8034 26.9563 30.4091 27.7034 30.4091Z" stroke="#18824E" stroke-width="3" stroke-linecap="round" stroke-linejoin="round"/>
<path d="M2 2H7.41125L11.0368 20.1142C11.1605 20.737 11.4993 21.2965 11.994 21.6947C12.4886 22.0929 13.1075 22.3044 13.7424 22.2922H26.8918C27.5267 22.3044 28.1456 22.0929 28.6402 21.6947C29.1349 21.2965 29.4737 20.737 29.5974 20.1142L31.7619 8.76407H8.76407" stroke="#18824E" stroke-width="3" stroke-linecap="round" stroke-linejoin="round"/>
</svg>
