<svg width="16" height="16" viewBox="0 0 16 16" fill="none" xmlns="http://www.w3.org/2000/svg">
<path d="M13.6001 6.66669C13.6001 11.3334 7.6001 15.3334 7.6001 15.3334C7.6001 15.3334 1.6001 11.3334 1.6001 6.66669C1.6001 5.07539 2.23224 3.54926 3.35746 2.42405C4.48268 1.29883 6.0088 0.666687 7.6001 0.666687C9.1914 0.666687 10.7175 1.29883 11.8427 2.42405C12.968 3.54926 13.6001 5.07539 13.6001 6.66669Z" fill="#575757"/>
<path d="M7.6001 8.66669C8.70467 8.66669 9.6001 7.77126 9.6001 6.66669C9.6001 5.56212 8.70467 4.66669 7.6001 4.66669C6.49553 4.66669 5.6001 5.56212 5.6001 6.66669C5.6001 7.77126 6.49553 8.66669 7.6001 8.66669Z" fill="white"/>
</svg>
