<svg width="16" height="19" viewBox="0 0 16 19" fill="none" xmlns="http://www.w3.org/2000/svg">
<path d="M14.2998 7.9165C14.2998 13.4582 7.5498 18.2082 7.5498 18.2082C7.5498 18.2082 0.799805 13.4582 0.799805 7.9165C0.799805 6.02684 1.51096 4.21456 2.77683 2.87837C4.0427 1.54217 5.75959 0.791504 7.5498 0.791504C9.34002 0.791504 11.0569 1.54217 12.3228 2.87837C13.5886 4.21456 14.2998 6.02684 14.2998 7.9165Z" stroke="#007DFF" stroke-width="1.5" stroke-linecap="round" stroke-linejoin="round"/>
<path d="M7.5498 10.2915C8.79245 10.2915 9.7998 9.22818 9.7998 7.9165C9.7998 6.60483 8.79245 5.5415 7.5498 5.5415C6.30716 5.5415 5.2998 6.60483 5.2998 7.9165C5.2998 9.22818 6.30716 10.2915 7.5498 10.2915Z" stroke="#007DFF" stroke-width="1.5" stroke-linecap="round" stroke-linejoin="round"/>
</svg>
