<svg width="16" height="16" viewBox="0 0 16 16" fill="none" xmlns="http://www.w3.org/2000/svg">
<path d="M13.6569 2.34313C12.1459 0.832125 10.1369 0 8 0C5.86312 0 3.85413 0.832125 2.34313 2.34313C0.832156 3.85413 0 5.86312 0 8C0 10.1369 0.832156 12.1459 2.34313 13.6569C3.85413 15.1679 5.86312 16 8 16C10.1369 16 12.1459 15.1679 13.6569 13.6569C15.1678 12.1459 16 10.1369 16 8C16 5.86312 15.1678 3.85413 13.6569 2.34313ZM8 15.0625C4.10572 15.0625 0.9375 11.8943 0.9375 8C0.9375 4.10572 4.10572 0.9375 8 0.9375C11.8943 0.9375 15.0625 4.10572 15.0625 8C15.0625 11.8943 11.8943 15.0625 8 15.0625Z" fill="#4F4F4F"/>
<path d="M8.5026 7.53141H7.49841C6.92632 7.53141 6.46091 7.06601 6.46091 6.49395C6.46091 5.92185 6.92635 5.45645 7.49841 5.45645H9.50676C9.76564 5.45645 9.97551 5.24657 9.97551 4.9877C9.97551 4.72882 9.76564 4.51895 9.50676 4.51895H8.46926V3.48145C8.46926 3.22257 8.25938 3.0127 8.00051 3.0127C7.74163 3.0127 7.53175 3.22257 7.53175 3.48145V4.51895H7.49844C6.40941 4.51895 5.52344 5.40495 5.52344 6.49395C5.52344 7.58294 6.40944 8.46891 7.49844 8.46891H8.50263C9.0747 8.46891 9.5401 8.93435 9.5401 9.50641C9.5401 10.0785 9.0747 10.5439 8.50263 10.5439H6.49428C6.23541 10.5439 6.02553 10.7538 6.02553 11.0127C6.02553 11.2715 6.23541 11.4814 6.49428 11.4814H7.53175V12.5189C7.53175 12.7778 7.74163 12.9877 8.00051 12.9877C8.25938 12.9877 8.46926 12.7778 8.46926 12.5189V11.4814H8.5026C9.5916 11.4814 10.4776 10.5954 10.4776 9.50641C10.4776 8.41741 9.5916 7.53141 8.5026 7.53141Z" fill="#4F4F4F"/>
</svg>
