<svg width="16" height="16" viewBox="0 0 16 16" fill="none" xmlns="http://www.w3.org/2000/svg">
<path d="M11.5821 0.00332907L9.53486 0C7.23485 0 5.74848 1.54552 5.74848 3.93762V5.75313H3.69007C3.5122 5.75313 3.36816 5.89927 3.36816 6.07954V8.71001C3.36816 8.89028 3.51237 9.03625 3.69007 9.03625H5.74848V15.6738C5.74848 15.854 5.89252 16 6.07039 16H8.75604C8.93391 16 9.07794 15.8539 9.07794 15.6738V9.03625H11.4847C11.6626 9.03625 11.8066 8.89028 11.8066 8.71001L11.8076 6.07954C11.8076 5.99299 11.7736 5.91009 11.7133 5.84884C11.6531 5.78758 11.5709 5.75313 11.4855 5.75313H9.07794V4.2141C9.07794 3.47438 9.25187 3.09886 10.2027 3.09886L11.5818 3.09836C11.7595 3.09836 11.9035 2.95222 11.9035 2.77211V0.329578C11.9035 0.149642 11.7596 0.00366197 11.5821 0.00332907Z" fill="#52575C"/>
</svg>
