<svg width="17" height="16" viewBox="0 0 17 16" fill="none" xmlns="http://www.w3.org/2000/svg">
<g clip-path="url(#clip0)">
<path d="M12.0086 0H4.94804C2.55032 0 0.599609 1.98081 0.599609 4.41542V11.5846C0.599609 14.0193 2.55032 16 4.94804 16H12.0086C14.4065 16 16.3572 14.0192 16.3572 11.5846V4.41542C16.3573 1.98081 14.4065 0 12.0086 0ZM14.9592 11.5846C14.9592 13.2365 13.6356 14.5804 12.0087 14.5804H4.94804C3.32122 14.5805 1.9977 13.2365 1.9977 11.5846V4.41542C1.9977 2.76358 3.32122 1.4196 4.94804 1.4196H12.0086C13.6355 1.4196 14.9591 2.76358 14.9591 4.41542V11.5846H14.9592Z" fill="#52575C"/>
<path d="M8.4783 3.87695C6.2394 3.87695 4.41797 5.7264 4.41797 7.99975C4.41797 10.273 6.2394 12.1224 8.4783 12.1224C10.7172 12.1224 12.5386 10.273 12.5386 7.99975C12.5386 5.7264 10.7172 3.87695 8.4783 3.87695ZM8.4783 10.7027C7.0104 10.7027 5.81606 9.49014 5.81606 7.99965C5.81606 6.50908 7.0103 5.29646 8.4783 5.29646C9.94629 5.29646 11.1405 6.50908 11.1405 7.99965C11.1405 9.49014 9.9462 10.7027 8.4783 10.7027Z" fill="#52575C"/>
<path d="M12.7089 2.67383C12.4395 2.67383 12.1749 2.78456 11.9846 2.97857C11.7935 3.17163 11.6836 3.44041 11.6836 3.71487C11.6836 3.98847 11.7936 4.25715 11.9846 4.45116C12.1748 4.64423 12.4395 4.7559 12.7089 4.7559C12.9792 4.7559 13.2429 4.64423 13.434 4.45116C13.6251 4.25715 13.7341 3.98838 13.7341 3.71487C13.7341 3.44041 13.6251 3.17163 13.434 2.97857C13.2439 2.78456 12.9792 2.67383 12.7089 2.67383Z" fill="#52575C"/>
</g>
<defs>
<clipPath id="clip0">
<rect width="15.7576" height="16" fill="white" transform="translate(0.599609)"/>
</clipPath>
</defs>
</svg>
