<svg width="79" height="64" viewBox="0 0 79 64" fill="none" xmlns="http://www.w3.org/2000/svg">
<ellipse opacity="0.1" cx="49.2564" cy="32" rx="29.7398" ry="32" fill="#246EBC"/>
<g clip-path="url(#clip0)">
<path d="M58.1876 29.5661C57.2955 28.6806 56.082 28.1336 54.858 28.0651C53.468 27.9878 52.1658 28.5211 51.196 29.5651L44.5695 36.6204C44.4385 36.3763 44.2889 36.1458 44.1212 35.932C43.3059 34.8904 42.1137 34.3171 40.7647 34.3171H31.4883C29.7391 34.3171 28.0327 34.0729 26.4168 33.592C22.2037 32.3381 18.1789 33.254 14.7765 36.2422C13.3929 37.4575 12.3835 38.7794 11.7451 39.7432L10.0819 38.0064C9.86322 37.7779 9.56677 37.6483 9.26168 37.6483C9.25895 37.6483 9.25668 37.6483 9.25395 37.6483C8.93795 37.6507 8.6324 37.7921 8.41324 38.0367L0.327651 47.0685C0.111223 47.3102 -0.00653965 47.6351 0.000280561 47.9707C0.00710078 48.3068 0.137594 48.6258 0.363571 48.8572L14.039 62.8684C14.2659 63.1008 14.5569 63.2168 14.8474 63.2168C15.1525 63.2168 15.4576 63.0891 15.6872 62.8357L23.6973 53.9932C23.916 53.7515 24.0374 53.4213 24.0315 53.0837C24.0256 52.751 23.896 52.4301 23.6742 52.1982L22.9767 51.4702L24.5731 51.2769C25.5388 51.1561 26.5209 51.0949 27.493 51.0949H41.6068C43.9002 51.0949 45.848 50.5553 47.3967 49.4907C47.4094 49.4819 47.4221 49.4726 47.4349 49.4633C47.9896 49.0485 48.4929 48.5568 48.9303 48.0025L58.4413 35.9629C60.0691 33.9027 59.9673 31.3317 58.1876 29.5661ZM14.817 60.182L2.83431 47.9051L9.28941 40.6943L21.2021 53.1331L14.817 60.182ZM56.6549 34.3288L47.1439 46.3689C46.842 46.751 46.496 47.0905 46.1145 47.3782C44.9519 48.1703 43.4355 48.5724 41.6068 48.5724H27.4926C26.4309 48.5724 25.3574 48.6395 24.3066 48.7711L20.7974 49.1948L13.4497 41.5225C13.9604 40.708 14.8993 39.3914 16.2592 38.1967C19.0864 35.7133 22.2937 34.9819 25.7916 36.0235C27.6112 36.5651 29.5277 36.8401 31.4883 36.8401H40.7647C42.4307 36.8401 42.8753 38.3929 42.8753 39.3102C42.8753 39.9805 42.6753 40.6184 42.3265 41.0607C41.9482 41.5397 41.4104 41.7823 40.7279 41.7823H32.6527C32.0053 41.7823 31.4806 42.3474 31.4806 43.0441C31.4806 43.7407 32.0053 44.3053 32.6527 44.3053H40.7279C42.091 44.3053 43.2932 43.7329 44.1134 42.6938C44.7959 41.8298 45.1851 40.6938 45.2179 39.4795L52.8497 31.3538C53.9405 30.1801 55.6446 30.4746 56.5981 31.4208C57.0909 31.91 57.7539 32.9379 56.6549 34.3288Z" fill="url(#paint0_linear)"/>
<path d="M28.9965 42.7079C28.8487 42.0293 28.2181 41.6091 27.5874 41.7676C26.9572 41.9266 26.5658 42.6051 26.714 43.2837L26.7249 43.3351C26.8517 43.9163 27.3333 44.3087 27.8652 44.3087C27.9539 44.3087 28.0439 44.2979 28.1339 44.2754C28.7646 44.1164 29.1556 43.4373 29.0078 42.7592L28.9965 42.7079Z" fill="url(#paint1_linear)"/>
<path d="M7.92451 26.6771H19.3479C19.9699 26.6771 20.5455 26.4599 21.0139 26.093C21.4822 26.4599 22.0578 26.6771 22.6798 26.6771H34.1037C34.7257 26.6771 35.3013 26.4599 35.7696 26.093C36.2379 26.4599 36.8136 26.6771 37.4356 26.6771H48.859C50.424 26.6771 51.6971 25.3068 51.6971 23.6228V17.8909C51.6971 15.3165 50.3581 13.0802 48.3538 11.977C49.325 10.7167 49.9098 9.10029 49.9098 7.33904C49.9098 3.32681 46.8761 0.0626221 43.1473 0.0626221C39.4184 0.0626221 36.3848 3.32681 36.3848 7.33904C36.3848 9.10029 36.9695 10.7172 37.9407 11.977C37.0746 12.4545 36.333 13.1438 35.7696 13.9799C35.2063 13.1433 34.4647 12.454 33.5981 11.977C34.5693 10.7172 35.154 9.10029 35.154 7.33904C35.154 3.32681 32.1204 0.0626221 28.3915 0.0626221C24.6627 0.0626221 21.629 3.32681 21.629 7.33904C21.629 9.10029 22.2142 10.7172 23.1854 11.9775C22.3188 12.4545 21.5772 13.1438 21.0139 13.9804C20.4505 13.1438 19.7089 12.4545 18.8423 11.977C19.8135 10.7172 20.3982 9.10029 20.3982 7.33953C20.3982 3.32681 17.3646 0.0626221 13.6358 0.0626221C9.90737 0.0626221 6.87374 3.32681 6.87374 7.33953C6.87374 9.10029 7.45846 10.7172 8.42966 11.9775C6.42543 13.0807 5.08594 15.3175 5.08594 17.8914V23.6228C5.08594 25.3068 6.3595 26.6771 7.92451 26.6771ZM43.1477 2.58562C45.5835 2.58562 47.5654 4.71771 47.5654 7.33904C47.5654 9.95988 45.5835 12.0925 43.1477 12.0925C40.7116 12.0925 38.7301 9.96037 38.7301 7.33904C38.7296 4.71771 40.7116 2.58562 43.1477 2.58562ZM40.1018 13.8327C41.018 14.3322 42.0524 14.6155 43.1473 14.6155C44.2426 14.6155 45.277 14.3322 46.1927 13.8327C48.0146 14.1742 49.3528 15.8635 49.3528 17.8909V23.6228C49.3528 23.9159 49.1313 24.1541 48.859 24.1541H37.4356C37.1637 24.1541 36.9422 23.9159 36.9422 23.6228V17.8909C36.9418 15.864 38.2804 14.1742 40.1018 13.8327ZM28.392 2.58562C30.8277 2.58562 32.8097 4.71771 32.8097 7.33904C32.8097 9.95988 30.8277 12.0925 28.392 12.0925C25.9558 12.0925 23.9743 9.96037 23.9743 7.33904C23.9743 4.71771 25.9558 2.58562 28.392 2.58562ZM25.3465 13.8327C26.2622 14.3322 27.2966 14.6155 28.392 14.6155C29.4873 14.6155 30.5212 14.3322 31.4374 13.8327C33.2589 14.1742 34.5975 15.8635 34.5975 17.8909V23.6228C34.5975 23.9159 34.376 24.1541 34.1037 24.1541H22.6803C22.4079 24.1541 22.1865 23.9159 22.1865 23.6228V17.8909C22.1865 15.864 23.5251 14.1742 25.3465 13.8327ZM13.6362 2.58562C16.0719 2.58562 18.0539 4.71771 18.0539 7.33904C18.0539 9.95988 16.0719 12.0925 13.6362 12.0925C11.2005 12.0925 9.21853 9.95988 9.21853 7.33904C9.21853 4.71771 11.2005 2.58562 13.6362 2.58562ZM7.43073 17.8909C7.43073 15.864 8.76931 14.1742 10.5908 13.8327C11.5069 14.3322 12.5409 14.6155 13.6362 14.6155C14.7315 14.6155 15.7655 14.3322 16.6817 13.8327C18.5036 14.1742 19.8417 15.8635 19.8417 17.8909V23.6228C19.8417 23.9159 19.6203 24.1541 19.3479 24.1541H7.92451C7.65216 24.1541 7.43073 23.9159 7.43073 23.6228V17.8909Z" fill="url(#paint2_linear)"/>
</g>
<defs>
<linearGradient id="paint0_linear" x1="53.7407" y1="41.1168" x2="3.67385" y2="42.8175" gradientUnits="userSpaceOnUse">
<stop stop-color="#14429C"/>
<stop offset="1" stop-color="#2C66C0"/>
</linearGradient>
<linearGradient id="paint1_linear" x1="28.8075" y1="42.6904" x2="26.8263" y2="42.7267" gradientUnits="userSpaceOnUse">
<stop stop-color="#14429C"/>
<stop offset="1" stop-color="#2C66C0"/>
</linearGradient>
<linearGradient id="paint2_linear" x1="47.1178" y1="9.948" x2="7.96238" y2="11.3222" gradientUnits="userSpaceOnUse">
<stop stop-color="#14429C"/>
<stop offset="1" stop-color="#2C66C0"/>
</linearGradient>
<clipPath id="clip0">
<rect width="59.4796" height="64" fill="white"/>
</clipPath>
</defs>
</svg>
