<svg id="Layer_2" data-name="Layer 2" xmlns="http://www.w3.org/2000/svg" width="54.614" height="51.074" viewBox="0 0 54.614 51.074">
  <g id="Layer_1" data-name="Layer 1">
    <rect id="Rectangle_3" data-name="Rectangle 3" width="11.053" height="38.239" transform="translate(0 12.827)" fill="#c5013c"/>
    <rect id="Rectangle_4" data-name="Rectangle 4" width="11.053" height="7.471" transform="translate(0 2.44)" fill="#c5013c"/>
    <rect id="Rectangle_5" data-name="Rectangle 5" width="8.729" height="7.471" transform="translate(31.126 2.44)" fill="#c5013c"/>
    <path id="Path_1" data-name="Path 1" d="M47.78,34.533a23.68,23.68,0,0,0,3.781,2.624,14.018,14.018,0,0,0-3.8,2.449A22.488,22.488,0,0,0,44.99,43.72s-2-2.857-3.007-4a18.1,18.1,0,0,0-3.573-2.574,26.2,26.2,0,0,0,3.606-2.624,38.4,38.4,0,0,0,2.965-3.965,39.27,39.27,0,0,0,2.8,3.965" transform="translate(-6.418 -5.106)" fill="#c5013c"/>
    <path id="Path_2" data-name="Path 2" d="M50.778,35.921A12.652,12.652,0,0,1,58.549,24.26a19.032,19.032,0,1,0-1.416,22.63,12.644,12.644,0,0,1-6.355-10.969m-8.2,5.414A6.73,6.73,0,1,1,49.3,34.6a6.73,6.73,0,0,1-6.722,6.73" transform="translate(-3.935 -2.604)" fill="#c5013c"/>
    <path id="Path_3" data-name="Path 3" d="M20.012,32.1A21.456,21.456,0,0,1,30.448,13.71V0H17.08V51.074H30.448v-.583A21.439,21.439,0,0,1,20.012,32.1" transform="translate(-2.854)" fill="#c5013c"/>
    <path id="Path_4" data-name="Path 4" d="M35.683,28.48l2.39,2.141-.491.541L35.2,29.03Z" transform="translate(-5.882 -4.759)" fill="#fff"/>
    <path id="Path_5" data-name="Path 5" d="M32.621,32.646l2.682-.175v-.017L33.3,31.38l.325-.6,2.815,1.508-.358.675-2.615.175-.008.008,1.966,1.049-.317.591-2.824-1.5Z" transform="translate(-5.394 -5.143)" fill="#fff"/>
    <path id="Path_6" data-name="Path 6" d="M34.4,38.482l-2.632-.092.025-.733,2.624.092L34.46,36.7l.566.017-.1,2.84-.566-.025Z" transform="translate(-5.308 -6.132)" fill="#fff"/>
    <path id="Path_7" data-name="Path 7" d="M37.265,40.21l-.425.908.133.491.508-.641Z" transform="translate(-6.156 -6.719)" fill="#fff"/>
    <path id="Path_8" data-name="Path 8" d="M31.93,41l.217.741.691.058.366,1.241-.575.391.225.775,2.732-2.074-.233-.833Zm1.724,1.666-.242-.833,1.333.075Z" transform="translate(-5.335 -6.851)" fill="#fff"/>
    <path id="Path_9" data-name="Path 9" d="M33.35,45.3l2.782-1.6.35.641-2.765,1.591Z" transform="translate(-5.572 -7.302)" fill="#fff"/>
    <path id="Path_10" data-name="Path 10" d="M37.111,49.448a1.5,1.5,0,0,1-.2-2.3,1.533,1.533,0,0,1,2.315-.308,1.358,1.358,0,0,1,.466,1.816l-.575-.458a.683.683,0,0,0-.258-.916c-.267-.217-.833-.375-1.374.341-.358.45-.483,1,0,1.391a.725.725,0,0,0,.983,0l.575.466a1.441,1.441,0,0,1-1.924,0" transform="translate(-6.093 -7.761)" fill="#fff"/>
    <path id="Path_11" data-name="Path 11" d="M41.994,51.875l.475-1.358-1.291-.45L40.7,51.425l-.683-.242,1.041-3.023.683.242-.4,1.141,1.291.45.408-1.149.691.242-1.049,3.023Z" transform="translate(-6.687 -8.047)" fill="#fff"/>
    <path id="Path_12" data-name="Path 12" d="M46.478,47.987,45.7,47.92l-.533.616.508.042Z" transform="translate(-7.547 -8.007)" fill="#fff"/>
    <path id="Path_13" data-name="Path 13" d="M44.59,52.392l.725.075.292-3.19-.725-.067Z" transform="translate(-7.451 -8.223)" fill="#fff"/>
    <path id="Path_14" data-name="Path 14" d="M48.875,52.185l-1.741-2.032h-.017l.333,2.249-.658.1-.483-3.157.758-.117,1.707,1.991h.008l-.341-2.191.675-.108.483,3.157Z" transform="translate(-7.738 -8.174)" fill="#fff"/>
    <path id="Path_15" data-name="Path 15" d="M52.5,47.185a4.889,4.889,0,0,0-.7.333h0l.583,1.1a13.042,13.042,0,0,0-1.183.6h0c0-.058-.525-1.041-.525-1.041a5.389,5.389,0,0,0-.691.333c0,.05,1.508,2.857,1.508,2.857a4.514,4.514,0,0,0,.683-.333c0-.075-.666-1.3-.666-1.316a12.111,12.111,0,0,0,1.191-.6h0c0,.058.633,1.233.633,1.233a5.905,5.905,0,0,0,.691-.325c0-.058-1.5-2.865-1.5-2.865" transform="translate(-8.351 -7.88)" fill="#fff"/>
    <path id="Path_16" data-name="Path 16" d="M37.716,23.566l.558,1.108,2.082-1.058.433.875L38.707,25.54l1.041,2.049-.983.508L36.3,23.2l3.357-1.7.433.858Z" transform="translate(-6.065 -3.592)" fill="#fff"/>
    <path id="Path_17" data-name="Path 17" d="M46.807,24.343l-1.274-.058-.142,1.974L44.3,26.184l.375-5.464,2.424.167a1.591,1.591,0,0,1,1.516,1.874A1.666,1.666,0,0,1,46.8,24.376m-.25-2.59-.833-.083L45.6,23.31l1.033.075a.741.741,0,0,0,.883-.833c0-.533-.233-.775-.916-.833" transform="translate(-7.402 -3.462)" fill="#fff"/>
    <path id="Path_18" data-name="Path 18" d="M51.971,28.7c-1.116-.833-1.324-2.249-.175-3.756s2.615-1.666,3.7-.833a2.141,2.141,0,0,1,.641,2.932l-.891-.666a1.083,1.083,0,0,0-.358-1.474c-.425-.317-1.258-.491-2.2.741-.591.783-.833,1.707-.092,2.274a1.141,1.141,0,0,0,1.558-.1l.883.666a2.224,2.224,0,0,1-3.065.217" transform="translate(-8.526 -3.945)" fill="#fff"/>
    <path id="Path_19" data-name="Path 19" d="M54.825,45.241a15.584,15.584,0,1,1,1.083-18.782,13.234,13.234,0,0,1,1.066-.833,16.916,16.916,0,1,0-1.191,20.5,10.721,10.721,0,0,1-.966-.908" transform="translate(-4.351 -3.037)" fill="#fff"/>
  </g>
</svg>
