<svg width="22" height="27" viewBox="0 0 22 27" fill="none" xmlns="http://www.w3.org/2000/svg">
<path d="M0.578947 26.6316H16.7895C17.1098 26.6316 17.3684 26.3729 17.3684 26.0526V22H21.4211C21.7413 22 22 21.7413 22 21.4211V2.89474C22 1.29867 20.7013 0 19.1053 0H2.89474C1.29867 0 0 1.29867 0 2.89474V26.0526C0 26.3729 0.258661 26.6316 0.578947 26.6316ZM17.3684 2.89474C17.3684 1.93727 18.1478 1.15789 19.1053 1.15789C20.0627 1.15789 20.8421 1.93727 20.8421 2.89474V20.8421H17.3684V2.89474ZM1.15789 2.89474C1.15789 1.93727 1.93727 1.15789 2.89474 1.15789H16.7906C16.4265 1.64186 16.2105 2.24342 16.2105 2.89474V25.4737H1.15789V2.89474Z" fill="white"/>
<path d="M13.3157 4.63162H4.05258C3.73229 4.63162 3.47363 4.89113 3.47363 5.21057V12.1579C3.47363 12.4774 3.73229 12.7369 4.05258 12.7369H13.3157C13.636 12.7369 13.8947 12.4774 13.8947 12.1579V5.21057C13.8947 4.89113 13.636 4.63162 13.3157 4.63162ZM12.7368 11.579H4.63153V5.78952H12.7368V11.579Z" fill="white"/>
<path d="M13.3157 15.0527H4.05258C3.73229 15.0527 3.47363 15.3113 3.47363 15.6316C3.47363 15.9519 3.73229 16.2106 4.05258 16.2106H13.3157C13.636 16.2106 13.8947 15.9519 13.8947 15.6316C13.8947 15.3113 13.636 15.0527 13.3157 15.0527Z" fill="white"/>
<path d="M13.3157 18.5263H4.05258C3.73229 18.5263 3.47363 18.785 3.47363 19.1053C3.47363 19.4255 3.73229 19.6842 4.05258 19.6842H13.3157C13.636 19.6842 13.8947 19.4255 13.8947 19.1053C13.8947 18.785 13.636 18.5263 13.3157 18.5263Z" fill="white"/>
<path d="M13.3157 22H4.05258C3.73229 22 3.47363 22.2587 3.47363 22.5789C3.47363 22.8992 3.73229 23.1579 4.05258 23.1579H13.3157C13.636 23.1579 13.8947 22.8992 13.8947 22.5789C13.8947 22.2587 13.636 22 13.3157 22Z" fill="white"/>
</svg>
