<svg width="11" height="31" viewBox="0 0 11 31" fill="none" xmlns="http://www.w3.org/2000/svg">
<path d="M9.74514 8.26904H0.622409C0.266747 8.26904 0 8.55191 0 8.88782V23.9153C0 24.2512 0.28453 24.5341 0.622409 24.5341H9.76292C10.1186 24.5341 10.3853 24.2512 10.3853 23.9153V8.88782C10.3853 8.55191 10.1008 8.26904 9.74514 8.26904ZM3.64554 21.228L5.19267 16.9496H2.22289L6.65088 11.5928L5.60168 15.4822H8.14466L3.64554 21.228Z" fill="#016F3F"/>
<path d="M8.94462 0.879098C8.99797 0.879098 9.03354 0.914456 9.03354 0.967494V10.2315C9.03354 10.2845 8.99797 10.3199 8.94462 10.3199H1.42237C1.36902 10.3199 1.33345 10.2845 1.33345 10.2315V0.967494C1.33345 0.914456 1.36902 0.879098 1.42237 0.879098H8.94462ZM8.94462 0.419434H1.42237C1.12006 0.419434 0.871094 0.666945 0.871094 0.967494V10.2315C0.871094 10.532 1.12006 10.7795 1.42237 10.7795H8.94462C9.24693 10.7795 9.4959 10.532 9.4959 10.2315V0.967494C9.4959 0.666945 9.24693 0.419434 8.94462 0.419434Z" fill="#016F3F"/>
<path d="M6.83516 23.0718H4.55664V31.0001H6.83516V23.0718Z" fill="#016F3F"/>
</svg>
