<svg width="11" height="31" viewBox="0 0 11 31" fill="none" xmlns="http://www.w3.org/2000/svg">
<path d="M9.68829 7.84964H0.618778C0.265191 7.84964 0 8.13251 0 8.46842V23.4959C0 23.8318 0.28287 24.1147 0.618778 24.1147H9.70597C10.0596 24.1147 10.3248 23.8318 10.3248 23.4959V8.46842C10.3248 8.13251 10.0419 7.84964 9.68829 7.84964ZM3.62427 20.8086L5.16238 16.5302H2.20992L6.61208 11.1734L5.569 15.0628H8.09715L3.62427 20.8086Z" fill="white"/>
<path d="M8.89264 0.459664C8.94568 0.459664 8.98104 0.495023 8.98104 0.548061V9.81205C8.98104 9.86509 8.94568 9.90045 8.89264 9.90045H1.41427C1.36123 9.90045 1.32587 9.86509 1.32587 9.81205V0.548061C1.32587 0.495023 1.36123 0.459664 1.41427 0.459664H8.89264ZM8.89264 0H1.41427C1.11372 0 0.866211 0.247512 0.866211 0.548061V9.81205C0.866211 10.1126 1.11372 10.3601 1.41427 10.3601H8.89264C9.19319 10.3601 9.4407 10.1126 9.4407 9.81205V0.548061C9.4407 0.247512 9.19319 0 8.89264 0Z" fill="white"/>
<path d="M6.7955 22.6523H4.53027V30.5805H6.7955V22.6523Z" fill="white"/>
</svg>
