<svg width="29" height="28" viewBox="0 0 29 28" fill="none" xmlns="http://www.w3.org/2000/svg">
<path d="M23.0151 9.97432C24.0487 9.08274 24.3393 7.55184 23.6322 6.32714C22.9251 5.1025 21.454 4.58866 20.1651 5.03801L17.8587 1.04326C17.5803 0.561013 17.1307 0.216047 16.5929 0.0719172C16.0549 -0.0721584 15.4932 0.00172791 15.011 0.280202C14.1054 0.803006 13.7406 1.90722 14.1146 2.85182L10.9803 5.74399C10.7596 5.94759 10.7458 6.29158 10.9494 6.51226C11.153 6.733 11.497 6.74675 11.7176 6.54314L14.6549 3.83284L21.3037 15.3489L8.82845 19.2347L5.05204 12.6937L8.1221 9.86091C8.34278 9.6573 8.35659 9.31331 8.15298 9.09263C7.94937 8.8719 7.60538 8.85814 7.38476 9.06175L4.32367 11.8863C4.16643 11.7893 3.99419 11.7146 3.81076 11.6654C3.31666 11.5329 2.8006 11.6009 2.35766 11.8568C1.44324 12.3847 1.12877 13.5582 1.65674 14.4726L1.90629 14.9049C0.506421 15.9333 0.0729435 17.8778 0.961265 19.4163C1.42285 20.2158 2.16813 20.7877 3.05988 21.0266C3.35765 21.1064 3.65978 21.1458 3.96 21.1458C4.43365 21.1458 4.90231 21.0472 5.34111 20.854L5.5905 21.2859C5.84625 21.7288 6.25917 22.0457 6.75327 22.1781C6.91828 22.2223 7.08562 22.2442 7.25199 22.2442C7.5838 22.2442 7.91131 22.1571 8.20637 21.9868C8.46293 21.8387 8.6722 21.6397 8.82894 21.41L12.2212 27.2855C12.4197 27.6294 12.7811 27.8218 13.1522 27.8218C13.3342 27.8218 13.5184 27.7755 13.687 27.6782L16.1903 26.233C16.4922 26.0586 16.6912 25.7471 16.7225 25.3999C16.7538 25.0526 16.6136 24.7106 16.3476 24.4851L14.5287 22.9436L12.4023 19.2606L21.8838 16.3072C22.2866 16.8154 22.8959 17.0958 23.5198 17.0958C23.8732 17.0958 24.2312 17.006 24.5586 16.8169C25.5541 16.2422 25.8964 14.9646 25.3216 13.9691L23.0151 9.97432ZM3.34123 19.9763C2.73003 19.8125 2.21924 19.4206 1.90287 18.8726C1.31482 17.8541 1.57171 16.5756 2.45449 15.8544L4.7927 19.9042C4.33117 20.08 3.82756 20.1065 3.34123 19.9763ZM8.0481 20.5426C7.99091 20.7561 7.85395 20.9346 7.66252 21.0451C7.47109 21.1557 7.24797 21.185 7.03457 21.1278C6.82107 21.0706 6.64263 20.9337 6.53205 20.7422L2.59835 13.9288C2.48781 13.7374 2.45846 13.5144 2.51565 13.3009C2.57285 13.0873 2.7098 12.9089 2.90123 12.7984C3.02878 12.7248 3.1703 12.6871 3.31367 12.6871C3.38554 12.6871 3.45791 12.6966 3.52918 12.7157C3.74269 12.7729 3.92112 12.9098 4.03171 13.1013L7.96541 19.9146C8.07599 20.1061 8.10535 20.3291 8.0481 20.5426ZM13.6341 23.569C13.6654 23.6232 13.7057 23.6715 13.7534 23.712L15.6288 25.3015L13.1556 26.7294L9.38583 20.2001L11.3379 19.592L13.6341 23.569ZM22.6905 6.87082C23.0961 7.57326 22.977 8.43695 22.4557 9.00537L20.7246 6.00702C21.4774 5.83978 22.285 6.16838 22.6905 6.87082ZM24.4795 15.2696C24.4105 15.5269 24.2455 15.742 24.0148 15.8752C23.7841 16.0085 23.5153 16.0439 23.258 15.9748C23.0007 15.9059 22.7856 15.7408 22.6524 15.5101L15.1896 2.58422C14.9146 2.10795 15.0784 1.4968 15.5547 1.2218C15.7084 1.13308 15.8789 1.08773 16.0518 1.08773C16.1384 1.08773 16.2256 1.09915 16.3115 1.12215C16.5688 1.19114 16.7838 1.35615 16.9171 1.58689L24.3799 14.5128C24.513 14.7435 24.5484 15.0122 24.4795 15.2696Z" fill="#004FA8"/>
<path d="M25.054 6.06965C25.1462 6.06965 25.2398 6.0461 25.3254 5.99668L27.1617 4.9365C27.4217 4.78634 27.5108 4.45388 27.3607 4.19384C27.2105 3.93379 26.878 3.84463 26.618 3.99485L24.7817 5.05503C24.5217 5.20519 24.4325 5.53765 24.5827 5.7977C24.6834 5.97211 24.8661 6.06965 25.054 6.06965Z" fill="#004FA8"/>
<path d="M22.2542 3.62124C22.3013 3.63385 22.3487 3.63994 22.3953 3.63994C22.6353 3.63994 22.855 3.47972 22.9201 3.2368L23.4823 1.13862C23.5601 0.848622 23.3879 0.550521 23.0979 0.472774C22.8078 0.395028 22.5097 0.567157 22.432 0.857212L21.8697 2.95539C21.792 3.24539 21.9641 3.54349 22.2542 3.62124Z" fill="#004FA8"/>
<path d="M27.9317 9.06136L25.9282 8.52453C25.6383 8.44679 25.34 8.61892 25.2623 8.90897C25.1846 9.19897 25.3567 9.49707 25.6468 9.57482L27.6503 10.1116C27.6974 10.1243 27.7448 10.1304 27.7914 10.1304C28.0314 10.1304 28.2511 9.97013 28.3162 9.72721C28.3939 9.43721 28.2218 9.13911 27.9317 9.06136Z" fill="#004FA8"/>
<path d="M9.55099 8.3471C9.69397 8.3471 9.83424 8.28892 9.93536 8.1878C10.0365 8.08668 10.0947 7.94642 10.0947 7.80343C10.0947 7.66045 10.0365 7.52018 9.93536 7.41906C9.83424 7.31745 9.69397 7.25977 9.55099 7.25977C9.40801 7.25977 9.26774 7.31745 9.16662 7.41906C9.0655 7.52018 9.00732 7.65996 9.00732 7.80343C9.00732 7.94642 9.0655 8.08668 9.16662 8.1878C9.26774 8.28892 9.40801 8.3471 9.55099 8.3471Z" fill="#004FA8"/>
</svg>
