<svg width="25" height="23" viewBox="0 0 25 23" fill="none" xmlns="http://www.w3.org/2000/svg">
<path d="M12.4806 1.90051C12.7499 1.90051 12.9685 1.68272 12.9685 1.41546C12.9685 1.14767 12.7499 0.93042 12.4806 0.93042C12.2117 0.93042 11.9932 1.14767 11.9932 1.41546C11.9931 1.68272 12.2117 1.90051 12.4806 1.90051Z" fill="#016F3F"/>
<path d="M24.7881 2.41179C24.6652 2.1227 24.489 1.86369 24.2651 1.64101C24.0412 1.41837 23.7806 1.24332 23.4898 1.12104C23.1893 0.994446 22.8697 0.93042 22.5404 0.93042H14.6786C14.4093 0.93042 14.1907 1.14767 14.1907 1.41546C14.1907 1.68272 14.4093 1.90051 14.6786 1.90051H22.5405C23.346 1.90196 24.0027 2.55483 24.0041 3.35563V14.5116H0.975778V3.35563C0.977241 2.55483 1.63394 1.90196 2.43944 1.90051H10.2876C10.5564 1.90051 10.775 1.68272 10.775 1.41546C10.775 1.14767 10.5564 0.93042 10.2876 0.93042H2.43944C2.11012 0.93042 1.79055 0.994397 1.49001 1.12104C1.19923 1.24332 0.938698 1.41837 0.714708 1.64101C0.490816 1.86369 0.314688 2.1227 0.19174 2.41179C0.0643525 2.71058 0 3.02828 0 3.35568V16.4518C0 17.7891 1.09433 18.8771 2.43944 18.8771H10.5384V20.0897H8.83079C7.48568 20.0897 6.39134 21.1776 6.39134 22.5149C6.39134 22.7827 6.60982 22.9999 6.87923 22.9999H18.1007C18.3701 22.9999 18.5886 22.7827 18.5886 22.5149C18.5886 21.1776 17.4942 20.0897 16.1491 20.0897H14.4415V18.8771H22.5405C23.8856 18.8771 24.9799 17.7891 24.9799 16.4518V3.35568C24.9799 3.02828 24.9155 2.71058 24.7881 2.41179ZM13.9536 21.0597H16.1491C16.7852 21.0597 17.3278 21.4652 17.5292 22.0298H7.45075C7.6521 21.4652 8.19473 21.0597 8.83079 21.0597H11.0263C11.2957 21.0597 11.5142 20.8425 11.5142 20.5747V18.8771H13.4657V20.5747C13.4657 20.8425 13.6842 21.0597 13.9536 21.0597ZM24.0041 16.4518C24.0041 17.2542 23.3475 17.907 22.5405 17.907H2.43944C1.63238 17.907 0.975778 17.2542 0.975778 16.4518V15.4818H24.0041V16.4518Z" fill="#016F3F"/>
<path d="M6.4394 6.26605V8.49836L4.90328 6.01892C4.78882 5.83421 4.56507 5.74759 4.35489 5.80662C4.1449 5.86574 4 6.05627 4 6.27328V10.1464C4 10.4142 4.21848 10.6314 4.48789 10.6314C4.7573 10.6314 4.97578 10.4142 4.97578 10.1464V7.98567L6.42198 10.3199C6.55424 10.533 6.79653 10.6328 7.02467 10.5684C7.26193 10.5015 7.41527 10.2845 7.41527 10.0156V6.26605C7.41527 5.99821 7.19679 5.78101 6.92738 5.78101C6.65797 5.78101 6.4394 5.99821 6.4394 6.26605Z" fill="#016F3F"/>
<path d="M8.87803 5.78101C8.60861 5.78101 8.39014 5.99821 8.39014 6.26605V10.1464C8.39014 10.4142 8.60861 10.6314 8.87803 10.6314H10.5368C10.8063 10.6314 11.0247 10.4142 11.0247 10.1464C11.0247 9.87855 10.8063 9.66135 10.5368 9.66135H9.36591V8.69126H10.5368C10.8063 8.69126 11.0247 8.47406 11.0247 8.20622C11.0247 7.93838 10.8063 7.72118 10.5368 7.72118H9.36591V6.75109H10.5368C10.8063 6.75109 11.0247 6.53389 11.0247 6.26605C11.0247 5.99821 10.8063 5.78101 10.5368 5.78101H8.87803Z" fill="#016F3F"/>
<path d="M19.586 9.66134C19.3424 9.66134 19.1005 9.52388 18.9389 9.29363C18.7846 9.0739 18.4805 9.02016 18.2595 9.17338C18.0386 9.3267 17.9844 9.62908 18.1386 9.84876C18.4826 10.3388 19.0237 10.6314 19.586 10.6314C20.2313 10.6314 20.7883 10.1666 20.9404 9.50093C21.1008 8.79903 20.7543 8.13112 20.0577 7.79935C19.9674 7.75633 19.3776 7.47976 19.277 7.39992C19.2193 7.35423 19.1732 7.22734 19.1967 7.07349C19.205 7.01907 19.2436 6.83703 19.3935 6.77873C19.7009 6.65931 20.0216 6.98293 20.0338 6.99544C20.2161 7.19024 20.5227 7.20261 20.7205 7.02265C20.9192 6.84173 20.9327 6.53485 20.7507 6.33734C20.4664 6.0289 19.786 5.5845 19.038 5.87538C18.6082 6.04258 18.3069 6.43619 18.2319 6.92827C18.1578 7.41457 18.3251 7.88589 18.6683 8.15819C18.8581 8.30879 19.5478 8.63222 19.6361 8.67432C20.0226 8.8584 20.023 9.13662 19.9888 9.28611C19.9463 9.47251 19.7942 9.66134 19.586 9.66134Z" fill="#016F3F"/>
<path d="M10.3898 5.79073C10.1259 5.84462 9.95587 6.10106 10.0101 6.36347C10.0101 6.36347 10.8114 10.2329 10.8199 10.2557C10.9034 10.4808 11.1216 10.6313 11.3639 10.6313H11.3679C11.6117 10.6296 11.8298 10.4757 11.9105 10.2483C11.9121 10.2439 12.6836 7.85794 12.6836 7.85794C12.6836 7.85794 13.4532 10.2491 13.4556 10.2557C13.5391 10.4808 13.7573 10.6313 13.9995 10.6313H14.0036C14.2474 10.6296 14.4655 10.4757 14.5462 10.2483C14.5535 10.2276 14.5939 10.0409 14.5939 10.0409L15.3567 6.37109C15.4113 6.10878 15.2416 5.85219 14.9777 5.79796C14.7143 5.74373 14.4557 5.91243 14.4012 6.17484L13.9165 8.50605C13.9165 8.50605 13.1374 6.0901 13.1317 6.08254C13.078 5.95783 12.9728 5.85592 12.8327 5.81115C12.5763 5.72913 12.3014 5.8695 12.2189 6.12454L11.4489 8.50629L10.9659 6.16824C10.9117 5.90583 10.6536 5.73699 10.3898 5.79073Z" fill="#016F3F"/>
</svg>
