<svg width="25" height="23" viewBox="0 0 25 23" fill="none" xmlns="http://www.w3.org/2000/svg">
<path d="M12.4099 0.970116C12.6776 0.970116 12.8949 0.752332 12.8949 0.485073C12.8949 0.217281 12.6776 3.05176e-05 12.4099 3.05176e-05C12.1426 3.05176e-05 11.9253 0.217281 11.9253 0.485073C11.9252 0.752332 12.1426 0.970116 12.4099 0.970116Z" fill="white"/>
<path d="M24.6435 1.48137C24.5213 1.19228 24.3462 0.933271 24.1236 0.710588C23.9009 0.487953 23.6419 0.312901 23.3528 0.190622C23.054 0.0640257 22.7363 0 22.4089 0H14.5929C14.3252 0 14.1079 0.217251 14.1079 0.485043C14.1079 0.752301 14.3252 0.970086 14.5929 0.970086H22.409C23.2098 0.971541 23.8627 1.62441 23.8641 2.42521V13.5812H0.970086V2.42521C0.971541 1.62441 1.62441 0.971541 2.42521 0.970086H10.2276C10.4949 0.970086 10.7121 0.752301 10.7121 0.485043C10.7121 0.217251 10.4949 0 10.2276 0H2.42521C2.09781 0 1.78011 0.0639772 1.48132 0.190622C1.19224 0.312901 0.933222 0.487953 0.710539 0.710588C0.487953 0.933271 0.312853 1.19228 0.190622 1.48137C0.0639771 1.78016 0 2.09786 0 2.42526V15.5214C0 16.8587 1.08795 17.9466 2.42521 17.9466H10.4769V19.1592H8.77927C7.44201 19.1592 6.35406 20.2472 6.35406 21.5845C6.35406 21.8523 6.57126 22.0695 6.8391 22.0695H17.9951C18.2629 22.0695 18.4801 21.8523 18.4801 21.5845C18.4801 20.2472 17.3922 19.1592 16.0549 19.1592H14.3573V17.9466H22.409C23.7462 17.9466 24.8342 16.8587 24.8342 15.5214V2.42526C24.8342 2.09786 24.7702 1.78016 24.6435 1.48137ZM13.8722 20.1293H16.0549C16.6873 20.1293 17.2267 20.5348 17.4269 21.0994H7.40728C7.60746 20.5348 8.14692 20.1293 8.77927 20.1293H10.962C11.2298 20.1293 11.447 19.9121 11.447 19.6443V17.9466H13.3872V19.6443C13.3872 19.9121 13.6044 20.1293 13.8722 20.1293ZM23.8641 15.5214C23.8641 16.3238 23.2113 16.9765 22.409 16.9765H2.42521C1.62286 16.9765 0.970086 16.3238 0.970086 15.5214V14.5513H23.8641V15.5214Z" fill="white"/>
<path d="M6.4027 5.33554V7.56785L4.87555 5.08841C4.76176 4.9037 4.53932 4.81707 4.33036 4.8761C4.1216 4.93523 3.97754 5.12576 3.97754 5.34276V9.21588C3.97754 9.48372 4.19474 9.70092 4.46258 9.70092C4.73042 9.70092 4.94762 9.48372 4.94762 9.21588V7.05516L6.38539 9.38938C6.51688 9.60246 6.75776 9.70228 6.98456 9.63792C7.22044 9.57098 7.37289 9.35397 7.37289 9.08511V5.33554C7.37289 5.0677 7.15569 4.85049 6.88784 4.85049C6.62 4.85049 6.4027 5.0677 6.4027 5.33554Z" fill="white"/>
<path d="M8.82782 4.85049C8.55998 4.85049 8.34277 5.0677 8.34277 5.33554V9.21588C8.34277 9.48372 8.55998 9.70092 8.82782 9.70092H10.477C10.7448 9.70092 10.962 9.48372 10.962 9.21588C10.962 8.94804 10.7448 8.73084 10.477 8.73084H9.31286V7.76075H10.477C10.7448 7.76075 10.962 7.54355 10.962 7.27571C10.962 7.00787 10.7448 6.79067 10.477 6.79067H9.31286V5.82058H10.477C10.7448 5.82058 10.962 5.60338 10.962 5.33554C10.962 5.0677 10.7448 4.85049 10.477 4.85049H8.82782Z" fill="white"/>
<path d="M19.4726 8.73079C19.2304 8.73079 18.9899 8.59333 18.8292 8.36308C18.6759 8.14336 18.3735 8.08962 18.1538 8.24284C17.9341 8.39616 17.8803 8.69854 18.0336 8.91821C18.3756 9.4083 18.9135 9.70088 19.4725 9.70088C20.1141 9.70088 20.6678 9.23601 20.819 8.57039C20.9785 7.86848 20.6341 7.20058 19.9415 6.86881C19.8518 6.82579 19.2654 6.54922 19.1653 6.46938C19.108 6.42369 19.0622 6.2968 19.0855 6.14295C19.0937 6.08852 19.1322 5.90649 19.2812 5.84819C19.5868 5.72877 19.9056 6.05239 19.9178 6.0649C20.099 6.25969 20.4038 6.27206 20.6004 6.09211C20.7979 5.91119 20.8114 5.60431 20.6304 5.4068C20.3479 5.09836 19.6714 4.65396 18.9278 4.94484C18.5004 5.11204 18.2009 5.50565 18.1264 5.99772C18.0527 6.48403 18.219 6.95534 18.5602 7.22765C18.7489 7.37825 19.4345 7.70168 19.5224 7.74378C19.9066 7.92785 19.907 8.20608 19.873 8.35557C19.8308 8.54197 19.6795 8.73079 19.4726 8.73079Z" fill="white"/>
<path d="M12.3197 4.86037C12.0573 4.91426 11.8883 5.1707 11.9421 5.43311C11.9421 5.43311 12.7388 9.30249 12.7473 9.32539C12.8303 9.55045 13.0472 9.70091 13.288 9.70091H13.2921C13.5344 9.69921 13.7513 9.54531 13.8315 9.31792C13.833 9.31355 14.6 6.92758 14.6 6.92758C14.6 6.92758 15.3651 9.31874 15.3676 9.32539C15.4506 9.55045 15.6675 9.70091 15.9083 9.70091H15.9124C16.1547 9.69921 16.3716 9.54531 16.4518 9.31792C16.4591 9.29721 16.4992 9.11056 16.4992 9.11056L17.2576 5.44073C17.3119 5.17842 17.1432 4.92183 16.8807 4.8676C16.619 4.81337 16.3619 4.98207 16.3076 5.24448L15.8258 7.57569C15.8258 7.57569 15.0512 5.15974 15.0455 5.15218C14.9922 5.02747 14.8876 4.92556 14.7483 4.8808C14.4934 4.79877 14.2201 4.93915 14.1381 5.19418L13.3726 7.57594L12.8924 5.23788C12.8385 4.97548 12.582 4.80663 12.3197 4.86037Z" fill="white"/>
</svg>
