<svg width="29" height="25" viewBox="0 0 29 25" fill="none" xmlns="http://www.w3.org/2000/svg">
<path d="M14.4093 1.0989C14.7126 1.0989 14.9587 0.852196 14.9587 0.549449C14.9587 0.246098 14.7126 0 14.4093 0C14.1065 0 13.8604 0.246098 13.8604 0.549449C13.8603 0.852196 14.1065 1.0989 14.4093 1.0989Z" fill="#004FA8"/>
<path d="M28.2674 1.67807C28.1289 1.3506 27.9306 1.0572 27.6784 0.804943C27.4262 0.552746 27.1328 0.35445 26.8053 0.215934C26.4668 0.0725273 26.1069 0 25.7361 0H16.8822C16.5789 0 16.3328 0.246098 16.3328 0.549449C16.3328 0.852196 16.5789 1.0989 16.8822 1.0989H25.7361C26.6433 1.10055 27.3828 1.84011 27.3845 2.74725V15.3846H1.45046V2.74725C1.45211 1.84011 2.19167 1.10055 3.09881 1.0989H11.9372C12.24 1.0989 12.4861 0.852196 12.4861 0.549449C12.4861 0.246098 12.24 0 11.9372 0H3.09881C2.72793 0 2.36804 0.0724724 2.02958 0.215934C1.70211 0.35445 1.4087 0.552746 1.15645 0.804943C0.904308 1.0572 0.705957 1.3506 0.567496 1.67807C0.424035 2.01653 0.351562 2.37642 0.351562 2.7473V17.5824C0.351562 19.0973 1.58398 20.3297 3.09881 20.3297H12.2197V21.7033H10.2966C8.78176 21.7033 7.54935 22.9357 7.54935 24.4506C7.54935 24.754 7.79539 25 8.0988 25H20.7361C21.0395 25 21.2856 24.754 21.2856 24.4506C21.2856 22.9357 20.0532 21.7033 18.5383 21.7033H16.6153V20.3297H25.7361C27.251 20.3297 28.4834 19.0973 28.4834 17.5824V2.7473C28.4834 2.37642 28.4108 2.01653 28.2674 1.67807ZM16.0658 22.8022H18.5383C19.2547 22.8022 19.8658 23.2615 20.0925 23.9011H8.74242C8.96918 23.2615 9.58028 22.8022 10.2966 22.8022H12.7691C13.0725 22.8022 13.3186 22.5562 13.3186 22.2528V20.3297H15.5164V22.2528C15.5164 22.5562 15.7624 22.8022 16.0658 22.8022ZM27.3845 17.5824C27.3845 18.4913 26.645 19.2308 25.7361 19.2308H3.09881C2.18991 19.2308 1.45046 18.4913 1.45046 17.5824V16.4835H27.3845V17.5824Z" fill="#004FA8"/>
<path d="M7.60461 6.04359V8.57232L5.87467 5.76365C5.74577 5.55442 5.49379 5.45628 5.25709 5.52315C5.02061 5.59013 4.85742 5.80595 4.85742 6.05178V10.4392C4.85742 10.7426 5.10347 10.9886 5.40687 10.9886C5.71028 10.9886 5.95632 10.7426 5.95632 10.4392V7.99155L7.585 10.6357C7.73395 10.8771 8.00681 10.9902 8.26373 10.9173C8.53093 10.8414 8.70362 10.5956 8.70362 10.2911V6.04359C8.70362 5.74018 8.45758 5.49414 8.15417 5.49414C7.85077 5.49414 7.60461 5.74018 7.60461 6.04359Z" fill="#004FA8"/>
<path d="M10.3517 5.49414C10.0483 5.49414 9.80225 5.74018 9.80225 6.04359V10.4392C9.80225 10.7426 10.0483 10.9886 10.3517 10.9886H12.2198C12.5232 10.9886 12.7693 10.7426 12.7693 10.4392C12.7693 10.1358 12.5232 9.88973 12.2198 9.88973H10.9011V8.79084H12.2198C12.5232 8.79084 12.7693 8.54479 12.7693 8.24139C12.7693 7.93798 12.5232 7.69194 12.2198 7.69194H10.9011V6.59304H12.2198C12.5232 6.59304 12.7693 6.347 12.7693 6.04359C12.7693 5.74018 12.5232 5.49414 12.2198 5.49414H10.3517Z" fill="#004FA8"/>
<path d="M22.4096 9.89C22.1353 9.89 21.8628 9.73428 21.6808 9.47346C21.5071 9.22456 21.1646 9.16368 20.9158 9.33725C20.6669 9.51093 20.6059 9.85346 20.7795 10.1023C21.167 10.6575 21.7763 10.9889 22.4095 10.9889C23.1364 10.9889 23.7636 10.4623 23.9349 9.70829C24.1155 8.91319 23.7254 8.1566 22.9409 7.78077C22.8392 7.73204 22.1749 7.41874 22.0616 7.3283C21.9966 7.27654 21.9448 7.13281 21.9711 6.95852C21.9805 6.89687 22.024 6.69067 22.1928 6.62462C22.539 6.48935 22.9001 6.85594 22.9139 6.87011C23.1192 7.09077 23.4645 7.10478 23.6872 6.90094C23.911 6.69599 23.9262 6.34836 23.7212 6.12462C23.4011 5.77523 22.6348 5.27182 21.7925 5.60133C21.3084 5.79072 20.969 6.2366 20.8847 6.79402C20.8012 7.34489 20.9895 7.87879 21.3761 8.18725C21.5898 8.35786 22.3665 8.72423 22.466 8.77192C22.9013 8.98044 22.9017 9.2956 22.8632 9.46494C22.8154 9.6761 22.644 9.89 22.4096 9.89Z" fill="#004FA8"/>
<path d="M14.3072 5.50544C14.0099 5.56648 13.8185 5.85697 13.8795 6.15423C13.8795 6.15423 14.782 10.5374 14.7915 10.5633C14.8855 10.8183 15.1313 10.9887 15.4041 10.9887H15.4087C15.6832 10.9868 15.9288 10.8125 16.0198 10.5549C16.0215 10.5499 16.8903 7.84713 16.8903 7.84713C16.8903 7.84713 17.757 10.5558 17.7598 10.5633C17.8538 10.8183 18.0996 10.9887 18.3724 10.9887H18.3769C18.6515 10.9868 18.8971 10.8125 18.988 10.5549C18.9963 10.5314 19.0417 10.32 19.0417 10.32L19.9008 6.16285C19.9622 5.86571 19.7711 5.57505 19.4739 5.51362C19.1774 5.4522 18.8861 5.64329 18.8247 5.94055L18.2789 8.58131C18.2789 8.58131 17.4014 5.84456 17.395 5.83599C17.3346 5.69472 17.216 5.57928 17.0583 5.52857C16.7695 5.43566 16.4599 5.59467 16.3671 5.88357L15.4999 8.58158L14.9559 5.93307C14.8949 5.63582 14.6043 5.44456 14.3072 5.50544Z" fill="#004FA8"/>
</svg>
