<svg width="25" height="25" viewBox="0 0 25 25" fill="none" xmlns="http://www.w3.org/2000/svg">
<path d="M20.206 9.07702C21.1336 8.28158 21.3944 6.91575 20.7598 5.82311C20.1253 4.73052 18.8052 4.27209 17.6484 4.67299L15.5787 1.10899C15.3288 0.678742 14.9254 0.370974 14.4427 0.242385C13.9599 0.113845 13.4559 0.179764 13.0231 0.42821C12.2105 0.894641 11.8831 1.87979 12.2187 2.72253L9.40595 5.30284C9.20791 5.48449 9.19552 5.79139 9.37823 5.98827C9.56096 6.18521 9.86965 6.19748 10.0676 6.01583L12.7035 3.59777L18.6702 13.8721L7.47488 17.3389L4.0859 11.5032L6.84099 8.97584C7.03903 8.79418 7.05142 8.48729 6.8687 8.2904C6.68599 8.09347 6.37729 8.0812 6.1793 8.26285L3.43226 10.7829C3.29115 10.6963 3.13659 10.6296 2.97197 10.5858C2.52856 10.4676 2.06544 10.5282 1.66795 10.7565C0.847345 11.2275 0.565141 12.2744 1.03894 13.0902L1.26289 13.4759C0.00663873 14.3935 -0.382367 16.1283 0.414819 17.5009C0.829048 18.2142 1.49787 18.7244 2.29813 18.9376C2.56535 19.0088 2.83648 19.0439 3.1059 19.0439C3.53096 19.0439 3.95153 18.9559 4.34532 18.7835L4.56912 19.1689C4.79863 19.5641 5.16919 19.8468 5.6126 19.9649C5.76068 20.0043 5.91085 20.0238 6.06015 20.0238C6.35792 20.0238 6.65183 19.9462 6.91662 19.7942C7.14686 19.662 7.33465 19.4846 7.47532 19.2796L10.5195 24.5216C10.6977 24.8283 11.022 25 11.3551 25C11.5183 25 11.6837 24.9588 11.8349 24.8719L14.0814 23.5825C14.3524 23.427 14.531 23.1491 14.559 22.8393C14.5871 22.5294 14.4613 22.2243 14.2226 22.0231L12.5903 20.6478L10.6821 17.3619L19.1908 14.7271C19.5523 15.1804 20.0991 15.4306 20.6589 15.4306C20.9761 15.4306 21.2974 15.3505 21.5912 15.1818C22.4846 14.669 22.7917 13.5292 22.276 12.6411L20.206 9.07702ZM2.55061 18.0005C2.00211 17.8544 1.54373 17.5047 1.25982 17.0158C0.732102 16.1071 0.962636 14.9665 1.75484 14.3231L3.85317 17.9362C3.43899 18.093 2.98704 18.1167 2.55061 18.0005ZM6.77459 18.5057C6.72326 18.6962 6.60036 18.8554 6.42857 18.954C6.25678 19.0527 6.05654 19.0788 5.86504 19.0278C5.67344 18.9768 5.51331 18.8547 5.41407 18.6838L1.88394 12.6051C1.78475 12.4343 1.75841 12.2354 1.80973 12.0449C1.86106 11.8544 1.98396 11.6952 2.15575 11.5966C2.27022 11.5309 2.39722 11.4973 2.52588 11.4973C2.59038 11.4973 2.65532 11.5058 2.71928 11.5228C2.91088 11.5738 3.07101 11.6959 3.17025 11.8668L6.70038 17.9455C6.79962 18.1163 6.82596 18.3152 6.77459 18.5057ZM11.7875 21.2058C11.8156 21.2541 11.8518 21.2973 11.8945 21.3333L13.5776 22.7515L11.358 24.0254L7.97507 18.2001L9.72689 17.6576L11.7875 21.2058ZM19.9148 6.30817C20.2787 6.93486 20.1718 7.70542 19.704 8.21255L18.1505 5.53751C18.8261 5.38831 19.5509 5.68148 19.9148 6.30817ZM21.5202 13.8013C21.4583 14.0309 21.3102 14.2227 21.1032 14.3416C20.8962 14.4605 20.6549 14.4921 20.4241 14.4305C20.1931 14.369 20.0001 14.2217 19.8806 14.0159L13.1834 2.48379C12.9367 2.05888 13.0836 1.51362 13.511 1.26828C13.6489 1.18912 13.802 1.14867 13.9571 1.14867C14.0348 1.14867 14.1131 1.15885 14.1902 1.17937C14.4211 1.24092 14.6141 1.38814 14.7337 1.594L21.4308 13.1261C21.5503 13.3319 21.5821 13.5717 21.5202 13.8013Z" fill="#016F3F"/>
<path d="M22.0358 5.59367C22.1185 5.59367 22.2025 5.57267 22.2793 5.52857L23.9272 4.58271C24.1606 4.44874 24.2405 4.15213 24.1058 3.92013C23.9711 3.68812 23.6726 3.60857 23.4393 3.74259L21.7914 4.68846C21.558 4.82243 21.4781 5.11904 21.6128 5.35104C21.7032 5.50665 21.8672 5.59367 22.0358 5.59367Z" fill="#016F3F"/>
<path d="M19.5229 3.40888C19.5652 3.42013 19.6077 3.42556 19.6495 3.42556C19.8649 3.42556 20.0621 3.28262 20.1205 3.06589L20.625 1.19396C20.6948 0.935231 20.5403 0.669274 20.28 0.599911C20.0197 0.530548 19.7522 0.684117 19.6824 0.942895L19.1779 2.81483C19.1081 3.07356 19.2626 3.33951 19.5229 3.40888Z" fill="#016F3F"/>
<path d="M24.6179 8.26221L22.8199 7.78326C22.5597 7.7139 22.292 7.86747 22.2223 8.12624C22.1526 8.38497 22.307 8.65093 22.5673 8.72029L24.3653 9.19924C24.4076 9.21049 24.4501 9.21593 24.4919 9.21593C24.7073 9.21593 24.9045 9.07298 24.9629 8.85626C25.0326 8.59753 24.8782 8.33157 24.6179 8.26221Z" fill="#016F3F"/>
<path d="M8.12363 7.62438C8.25195 7.62438 8.37782 7.57248 8.46857 7.48226C8.55932 7.39205 8.61152 7.26691 8.61152 7.13934C8.61152 7.01177 8.55932 6.88663 8.46857 6.79641C8.37782 6.70576 8.25195 6.6543 8.12363 6.6543C7.99532 6.6543 7.86944 6.70576 7.77869 6.79641C7.68795 6.88663 7.63574 7.01134 7.63574 7.13934C7.63574 7.26691 7.68795 7.39205 7.77869 7.48226C7.86944 7.57248 7.99532 7.62438 8.12363 7.62438Z" fill="#016F3F"/>
</svg>
