<svg width="25" height="25" viewBox="0 0 25 25" fill="none" xmlns="http://www.w3.org/2000/svg">
<path d="M20.0882 8.8988C21.0103 8.10335 21.2696 6.73753 20.6387 5.64489C20.0079 4.5523 18.6955 4.09387 17.5455 4.49477L15.4878 0.930765C15.2394 0.50052 14.8383 0.192751 14.3585 0.0641625C13.8785 -0.0643777 13.3774 0.00154159 12.9471 0.249988C12.1392 0.716419 11.8138 1.70157 12.1474 2.54431L9.35108 5.12462C9.15419 5.30627 9.14187 5.61317 9.32353 5.81005C9.50518 6.00698 9.81208 6.01926 10.0089 5.8376L12.6294 3.41954L18.5613 13.6938L7.43127 17.1607L4.06207 11.325L6.80109 8.79762C6.99797 8.61596 7.01029 8.30907 6.82864 8.11218C6.64698 7.91525 6.34009 7.90298 6.14325 8.08463L3.41223 10.6046C3.27196 10.5181 3.11829 10.4514 2.95463 10.4076C2.51381 10.2894 2.0534 10.35 1.65822 10.5783C0.842402 11.0493 0.561845 12.0962 1.03288 12.912L1.25552 13.2977C0.0066 14.2153 -0.380136 15.9501 0.412399 17.3227C0.824212 18.036 1.48913 18.5462 2.28472 18.7593C2.55038 18.8305 2.81993 18.8657 3.08778 18.8657C3.51036 18.8657 3.92848 18.7777 4.31997 18.6053L4.54247 18.9907C4.77064 19.3858 5.13904 19.6686 5.57986 19.7866C5.72707 19.8261 5.87637 19.8456 6.0248 19.8456C6.32083 19.8456 6.61303 19.768 6.87627 19.616C7.10517 19.4838 7.29187 19.3063 7.43171 19.1013L10.4582 24.3434C10.6353 24.6501 10.9577 24.8218 11.2888 24.8218C11.4511 24.8218 11.6155 24.7805 11.7659 24.6937L13.9993 23.4043C14.2687 23.2487 14.4462 22.9708 14.4741 22.661C14.502 22.3512 14.3769 22.0461 14.1396 21.8449L12.5169 20.4696L10.6197 17.1837L19.0788 14.5488C19.4383 15.0022 19.9818 15.2524 20.5384 15.2524C20.8537 15.2524 21.1731 15.1722 21.4652 15.0035C22.3534 14.4908 22.6588 13.351 22.146 12.4629L20.0882 8.8988ZM2.53574 17.8222C1.99043 17.6761 1.53472 17.3265 1.25247 16.8376C0.727831 15.9289 0.957021 14.7883 1.74461 14.1448L3.83069 17.758C3.41893 17.9147 2.96962 17.9385 2.53574 17.8222ZM6.73507 18.3275C6.68404 18.518 6.56186 18.6772 6.39107 18.7758C6.22028 18.8745 6.02121 18.9006 5.83083 18.8496C5.64034 18.7986 5.48115 18.6764 5.38249 18.5056L1.87295 12.4269C1.77434 12.2561 1.74815 12.0571 1.79918 11.8667C1.8502 11.6761 1.97239 11.5169 2.14318 11.4183C2.25697 11.3527 2.38323 11.3191 2.51114 11.3191C2.57527 11.3191 2.63983 11.3275 2.70342 11.3446C2.8939 11.3956 3.0531 11.5177 3.15176 11.6886L6.66129 17.7672C6.75995 17.9381 6.78615 18.137 6.73507 18.3275ZM11.7187 21.0276C11.7466 21.0759 11.7826 21.119 11.8252 21.1551L13.4984 22.5732L11.2918 23.8472L7.92855 18.0219L9.67015 17.4794L11.7187 21.0276ZM19.7986 6.12995C20.1604 6.75664 20.0542 7.5272 19.5891 8.03433L18.0447 5.35929C18.7163 5.21008 19.4368 5.50325 19.7986 6.12995ZM21.3947 13.6231C21.3332 13.8526 21.1859 14.0445 20.9801 14.1634C20.7743 14.2823 20.5344 14.3139 20.3049 14.2523C20.0753 14.1908 19.8835 14.0435 19.7646 13.8377L13.1065 2.30556C12.8612 1.88065 13.0073 1.3354 13.4322 1.09006C13.5693 1.0109 13.7215 0.970443 13.8757 0.970443C13.953 0.970443 14.0308 0.980629 14.1074 1.00115C14.337 1.0627 14.5288 1.20992 14.6477 1.41577L21.3058 12.9479C21.4246 13.1537 21.4562 13.3935 21.3947 13.6231Z" fill="white"/>
<path d="M21.907 5.41548C21.9892 5.41548 22.0727 5.39447 22.1491 5.35038L23.7873 4.40452C24.0193 4.27055 24.0988 3.97394 23.9649 3.74193C23.8309 3.50993 23.5342 3.43038 23.3023 3.5644L21.664 4.51026C21.432 4.64424 21.3525 4.94085 21.4865 5.17285C21.5763 5.32846 21.7393 5.41548 21.907 5.41548Z" fill="white"/>
<path d="M19.409 3.23059C19.451 3.24185 19.4933 3.24728 19.5348 3.24728C19.749 3.24728 19.945 3.10433 20.0031 2.88761L20.5047 1.01568C20.574 0.756948 20.4204 0.490991 20.1617 0.421628C19.9029 0.352264 19.6369 0.505833 19.5676 0.764611L19.066 2.63654C18.9966 2.89527 19.1502 3.16123 19.409 3.23059Z" fill="white"/>
<path d="M24.4744 8.08401L22.6869 7.60507C22.4282 7.53571 22.1621 7.68927 22.0928 7.94805C22.0235 8.20678 22.177 8.47274 22.4358 8.5421L24.2233 9.02105C24.2654 9.0323 24.3076 9.03773 24.3492 9.03773C24.5633 9.03773 24.7593 8.89479 24.8174 8.67806C24.8868 8.41933 24.7332 8.15338 24.4744 8.08401Z" fill="white"/>
<path d="M8.07586 7.44619C8.20343 7.44619 8.32857 7.39429 8.41879 7.30407C8.50901 7.21385 8.56091 7.08871 8.56091 6.96115C8.56091 6.83358 8.50901 6.70844 8.41879 6.61822C8.32857 6.52757 8.20343 6.4761 8.07586 6.4761C7.9483 6.4761 7.82316 6.52757 7.73294 6.61822C7.64272 6.70844 7.59082 6.83314 7.59082 6.96115C7.59082 7.08871 7.64272 7.21385 7.73294 7.30407C7.82316 7.39429 7.9483 7.44619 8.07586 7.44619Z" fill="white"/>
</svg>
