<svg width="17" height="31" viewBox="0 0 17 31" fill="none" xmlns="http://www.w3.org/2000/svg">
<path d="M14.5 0H2.5C1.83719 0.000744409 1.20173 0.264376 0.733055 0.733055C0.264375 1.20173 0.000744409 1.83719 0 2.5V28.5C0.000744409 29.1628 0.264375 29.7983 0.733055 30.2669C1.20173 30.7356 1.83719 30.9993 2.5 31H14.5C15.1628 30.9993 15.7983 30.7356 16.2669 30.2669C16.7356 29.7983 16.9993 29.1628 17 28.5V2.5C16.9993 1.83719 16.7356 1.20173 16.2669 0.733055C15.7983 0.264376 15.1628 0.000744409 14.5 0ZM11.8901 1L11.5901 2.5H5.40994L5.10994 1H11.8901ZM16 28.5C15.9996 28.8977 15.8414 29.279 15.5602 29.5602C15.279 29.8414 14.8977 29.9996 14.5 30H2.5C2.10231 29.9996 1.72104 29.8414 1.43983 29.5602C1.15862 29.279 1.00045 28.8977 1 28.5V2.5C1.00045 2.10231 1.15862 1.72104 1.43983 1.43983C1.72104 1.15863 2.10231 1.00045 2.5 1H4.09006L4.50969 3.09806C4.53236 3.21141 4.5936 3.3134 4.68299 3.38668C4.77239 3.45996 4.88441 3.50001 5 3.5H12C12.1156 3.50001 12.2276 3.45996 12.317 3.38668C12.4064 3.3134 12.4676 3.21141 12.4903 3.09806L12.9099 1H14.5C14.8977 1.00045 15.279 1.15863 15.5602 1.43983C15.8414 1.72104 15.9996 2.10231 16 2.5V28.5Z" fill="white"/>
<path d="M5.5 28H2.5C2.36739 28 2.24021 28.0527 2.14645 28.1464C2.05268 28.2402 2 28.3674 2 28.5C2 28.6326 2.05268 28.7598 2.14645 28.8536C2.24021 28.9473 2.36739 29 2.5 29H5.5C5.63261 29 5.75979 28.9473 5.85355 28.8536C5.94732 28.7598 6 28.6326 6 28.5C6 28.3674 5.94732 28.2402 5.85355 28.1464C5.75979 28.0527 5.63261 28 5.5 28Z" fill="white"/>
<path d="M7.5 28H7C6.86739 28 6.74021 28.0527 6.64645 28.1464C6.55268 28.2402 6.5 28.3674 6.5 28.5C6.5 28.6326 6.55268 28.7598 6.64645 28.8536C6.74021 28.9473 6.86739 29 7 29H7.5C7.63261 29 7.75979 28.9473 7.85355 28.8536C7.94732 28.7598 8 28.6326 8 28.5C8 28.3674 7.94732 28.2402 7.85355 28.1464C7.75979 28.0527 7.63261 28 7.5 28Z" fill="white"/>
</svg>
