<svg width="17" height="29" viewBox="0 0 17 29" fill="none" xmlns="http://www.w3.org/2000/svg">
<path d="M13.8863 0H2.59462C1.97093 0.000696382 1.37299 0.247319 0.931972 0.685761C0.490958 1.1242 0.242888 1.71866 0.242188 2.33871V26.6613C0.242888 27.2813 0.490958 27.8758 0.931972 28.3142C1.37299 28.7527 1.97093 28.9993 2.59462 29H13.8863C14.51 28.9993 15.1079 28.7527 15.5489 28.3142C15.99 27.8758 16.238 27.2813 16.2387 26.6613V2.33871C16.238 1.71866 15.99 1.1242 15.5489 0.685761C15.1079 0.247319 14.51 0.000696382 13.8863 0ZM11.4305 0.935484L11.1482 2.33871H5.33279L5.0505 0.935484H11.4305ZM15.2978 26.6613C15.2973 27.0333 15.1485 27.39 14.8839 27.6531C14.6193 27.9161 14.2605 28.0641 13.8863 28.0645H2.59462C2.22041 28.0641 1.86164 27.9161 1.59703 27.6531C1.33242 27.39 1.18358 27.0333 1.18316 26.6613V2.33871C1.18358 1.96668 1.33242 1.61001 1.59703 1.34694C1.86164 1.08388 2.22041 0.935902 2.59462 0.935484H4.09083L4.48568 2.89819C4.50701 3.00422 4.56464 3.09963 4.64876 3.16818C4.73287 3.23674 4.83828 3.2742 4.94705 3.27419H11.5339C11.6426 3.2742 11.748 3.23674 11.8322 3.16818C11.9163 3.09963 11.9739 3.00422 11.9952 2.89819L12.3901 0.935484H13.8863C14.2605 0.935902 14.6193 1.08388 14.8839 1.34694C15.1485 1.61001 15.2973 1.96668 15.2978 2.33871V26.6613Z" fill="#016F3F"/>
<path d="M5.41743 26.1936H2.59451C2.46973 26.1936 2.35006 26.2429 2.26183 26.3306C2.17359 26.4183 2.12402 26.5373 2.12402 26.6613C2.12402 26.7854 2.17359 26.9044 2.26183 26.9921C2.35006 27.0798 2.46973 27.1291 2.59451 27.1291H5.41743C5.54221 27.1291 5.66188 27.0798 5.75011 26.9921C5.83835 26.9044 5.88792 26.7854 5.88792 26.6613C5.88792 26.5373 5.83835 26.4183 5.75011 26.3306C5.66188 26.2429 5.54221 26.1936 5.41743 26.1936Z" fill="#016F3F"/>
<path d="M7.29839 26.1936H6.82791C6.70313 26.1936 6.58346 26.2429 6.49522 26.3306C6.40699 26.4183 6.35742 26.5373 6.35742 26.6613C6.35742 26.7854 6.40699 26.9044 6.49522 26.9921C6.58346 27.0798 6.70313 27.1291 6.82791 27.1291H7.29839C7.42318 27.1291 7.54285 27.0798 7.63108 26.9921C7.71931 26.9044 7.76888 26.7854 7.76888 26.6613C7.76888 26.5373 7.71931 26.4183 7.63108 26.3306C7.54285 26.2429 7.42318 26.1936 7.29839 26.1936Z" fill="#016F3F"/>
</svg>
