<svg width="22" height="29" viewBox="0 0 22 29" fill="none" xmlns="http://www.w3.org/2000/svg">
<path d="M18.6727 0H2.39394C1.07248 0.00155606 0.00155606 1.07248 0 2.39394V26.3333C0.00155606 27.6548 1.07248 28.7257 2.39394 28.7273H18.6727C19.9942 28.7257 21.0651 27.6548 21.0667 26.3333V2.39394C21.0651 1.07248 19.9942 0.00155606 18.6727 0ZM20.1091 26.3333C20.1091 27.1266 19.466 27.7697 18.6727 27.7697H2.39394C1.60065 27.7697 0.957576 27.1266 0.957576 26.3333V2.39394C0.957576 1.60065 1.60065 0.957576 2.39394 0.957576H18.6727C19.466 0.957576 20.1091 1.60065 20.1091 2.39394V26.3333Z" fill="white"/>
<path d="M1.43652 3.83032V23.9394H19.6305V3.83032H1.43652ZM18.6729 22.9818H2.3941V4.7879H18.6729V22.9818Z" fill="white"/>
<path d="M10.5335 24.4182C9.74024 24.4182 9.09717 25.0613 9.09717 25.8545C9.09717 26.6478 9.74024 27.2909 10.5335 27.2909C11.3268 27.2909 11.9699 26.6478 11.9699 25.8545C11.9699 25.0613 11.3268 24.4182 10.5335 24.4182ZM10.5335 26.3333C10.2691 26.3333 10.0547 26.119 10.0547 25.8545C10.0547 25.5901 10.2691 25.3758 10.5335 25.3758C10.7979 25.3758 11.0123 25.5901 11.0123 25.8545C11.0123 26.119 10.7979 26.3333 10.5335 26.3333Z" fill="white"/>
<path d="M10.5333 3.35149C11.0621 3.35149 11.4908 2.92277 11.4908 2.39392C11.4908 1.86506 11.0621 1.43634 10.5333 1.43634C10.0044 1.43634 9.57568 1.86506 9.57568 2.39392C9.57568 2.92277 10.0044 3.35149 10.5333 3.35149Z" fill="white"/>
</svg>
