<svg width="18" height="24" viewBox="0 0 18 24" fill="none" xmlns="http://www.w3.org/2000/svg">
<path d="M15.6915 0H2.01174C0.901257 0.0013 0.00130763 0.896 0 2V22C0.00130763 23.104 0.901257 23.9987 2.01174 24H15.6915C16.802 23.9987 17.702 23.104 17.7033 22V2C17.702 0.896 16.802 0.0013 15.6915 0ZM16.8986 22C16.8986 22.6628 16.3582 23.2 15.6915 23.2H2.01174C1.3451 23.2 0.804694 22.6628 0.804694 22V2C0.804694 1.33725 1.3451 0.8 2.01174 0.8H15.6915C16.3582 0.8 16.8986 1.33725 16.8986 2V22Z" fill="#016F3F"/>
<path d="M1.20703 3.19995V20H16.4962V3.19995H1.20703ZM15.6915 19.2H2.01173V3.99995H15.6915V19.2Z" fill="#016F3F"/>
<path d="M11.207 20.3999C10.5404 20.3999 10 20.9372 10 21.5999C10 22.2627 10.5404 22.7999 11.207 22.7999C11.8737 22.7999 12.4141 22.2627 12.4141 21.5999C12.4141 20.9372 11.8737 20.3999 11.207 20.3999ZM11.207 21.9999C10.9848 21.9999 10.8047 21.8208 10.8047 21.5999C10.8047 21.379 10.9848 21.1999 11.207 21.1999C11.4292 21.1999 11.6094 21.379 11.6094 21.5999C11.6094 21.8208 11.4292 21.9999 11.207 21.9999Z" fill="#016F3F"/>
<path d="M8.85206 2.79995C9.29648 2.79995 9.65675 2.44178 9.65675 1.99995C9.65675 1.55812 9.29648 1.19995 8.85206 1.19995C8.40764 1.19995 8.04736 1.55812 8.04736 1.99995C8.04736 2.44178 8.40764 2.79995 8.85206 2.79995Z" fill="#016F3F"/>
</svg>
