<svg width="25" height="25" viewBox="0 0 25 25" fill="none" xmlns="http://www.w3.org/2000/svg">
<path d="M20.5921 4.5606C19.9566 3.84947 19.2909 3.28964 18.5798 2.80546C17.1726 1.85223 15.6142 1.24701 13.9347 0.959527C13.738 0.929266 13.6169 0.929266 13.6321 1.18649C13.6472 1.47397 13.4505 1.62527 13.1933 1.70093C13.042 1.74632 12.8907 1.77658 12.7394 1.80684C12.0131 1.92788 11.3625 2.21536 10.8026 2.68441C10.4849 2.94163 10.1974 2.9265 9.84942 2.7298C9.25933 2.41206 8.6541 2.13971 8.06401 1.82197C7.88244 1.73119 7.74627 1.73119 7.5647 1.80684C5.3859 2.80546 3.67614 4.33364 2.43544 6.37627C2.32952 6.55784 2.32952 6.66375 2.45057 6.84532C2.85909 7.4808 3.23736 8.14655 3.63075 8.78203C3.78206 9.03925 3.7518 9.23595 3.53997 9.43265C3.52484 9.44778 3.52484 9.44778 3.50971 9.46291C2.70779 10.053 2.31439 10.8095 2.48083 11.8384C2.54135 12.2167 2.34465 12.3528 1.95126 12.3528C1.67891 12.3528 1.40656 12.368 1.13421 12.3528C0.90725 12.3377 0.816466 12.4134 0.831597 12.6555C0.90725 13.5179 0.982903 14.3652 1.25525 15.1974C1.40656 15.6513 1.04342 15.5908 0.816466 15.7118C0.513855 15.8631 0.498724 15.6362 0.453333 15.4546C-0.620938 11.2786 0.211244 7.51106 2.98014 4.2126C4.9925 1.85223 7.59496 0.490479 10.6362 0.0970845C16.6279 -0.659444 22.2111 3.07781 23.8603 8.78203C25.7214 15.2125 22.0144 21.9759 15.5536 23.837C13.1479 24.533 10.7421 24.4724 8.35149 23.6705C8.1094 23.5949 7.9127 23.5949 7.65549 23.7008C6.29373 24.2909 4.90172 24.7599 3.38866 24.7145C1.573 24.6691 0.347419 23.61 0.12046 21.9608C-0.0459762 20.8108 0.150721 19.7063 0.498724 18.632C1.34604 15.9237 2.85909 13.5936 4.56885 11.3845C4.87146 10.9911 5.1892 10.628 5.49181 10.2497C5.61286 10.0833 5.70364 10.0833 5.85495 10.2194C6.33913 10.6734 6.38452 10.4767 5.9306 11.0214C4.11493 13.2153 2.52622 15.5303 1.51247 18.2084C1.08882 19.3129 0.816466 20.4326 0.90725 21.6279C0.998033 22.8535 1.76969 23.731 3.0104 23.8672C4.35702 24.0185 5.62799 23.6554 6.92922 23.1258C6.68713 22.9896 6.50556 22.8989 6.30886 22.7929C4.6445 21.87 3.26762 20.6141 2.17822 19.0406C2.0723 18.8741 1.96639 18.7228 2.23874 18.632C2.43544 18.5715 2.58674 18.1479 2.87422 18.5715C4.56885 21.0075 6.88383 22.5509 9.77377 23.2166C15.2056 24.4724 20.804 21.4312 22.8012 16.1809C23.3156 14.8191 23.5426 13.412 23.5577 11.9595C23.5577 11.6266 23.4518 11.4753 23.1189 11.5358C22.9979 11.5509 22.8617 11.5358 22.7407 11.5358C21.4092 11.5055 21.7874 11.7174 21.1066 10.5674C20.7888 10.0227 20.4711 9.47804 20.1685 8.93334C20.0626 8.75177 19.9415 8.64586 19.7146 8.66099C19.2455 8.67612 18.7613 8.67612 18.2923 8.66099C18.0956 8.66099 17.9291 8.70638 17.8535 8.88795C17.5055 9.75039 16.8549 9.97735 15.9622 9.9017C14.9636 9.81091 14.8879 10.0227 14.903 8.82742C14.9182 8.17681 14.903 7.51107 14.903 6.86045C14.903 6.28549 15.0089 6.17957 15.5688 6.17957C16.1437 6.17957 16.7338 6.16444 17.3088 6.17957C17.5357 6.17957 17.6871 6.11905 17.8535 5.95262C18.1864 5.60461 18.5495 5.27174 18.8824 4.90861C19.1245 4.63626 19.3968 4.50008 19.7599 4.54547C19.9566 4.59086 20.2139 4.5606 20.5921 4.5606ZM18.9732 7.84394C19.306 7.84394 19.6389 7.85907 19.9718 7.84394C20.3046 7.82881 20.5165 7.94985 20.6829 8.25246C20.9855 8.82743 21.3638 9.34186 21.621 9.93196C21.9085 10.6128 22.3473 10.8549 23.0735 10.7641C23.3913 10.7187 23.4367 10.6431 23.3762 10.3707C23.1038 8.85769 22.5742 7.43541 21.7723 6.10392C21.4546 5.55922 21.0914 5.22635 20.4257 5.36252C20.2593 5.39279 20.0928 5.37765 19.9264 5.36252C19.6692 5.33226 19.4573 5.42305 19.2758 5.61974C18.9126 6.01314 18.5192 6.3914 18.141 6.76967C17.9745 6.95123 17.7778 7.02689 17.5206 7.02689C16.991 7.01176 16.4615 7.02689 15.9319 7.01176C15.7201 7.01176 15.6293 7.07228 15.6444 7.29924C15.6596 7.79855 15.6444 8.29785 15.6444 8.81229C15.6444 8.90308 15.6293 8.99386 15.7201 9.05438C15.947 9.19056 16.6884 9.03925 16.8397 8.82742C17.6417 7.6775 17.218 7.85907 18.7159 7.84394C18.8218 7.84394 18.8975 7.84394 18.9732 7.84394ZM1.89074 7.49593C1.39143 8.37351 0.92238 10.2648 0.892119 11.2483C0.876989 11.5509 1.01316 11.5661 1.22499 11.5509C1.43682 11.5358 1.73943 11.6417 1.66378 11.2332C1.51247 10.4313 1.81508 9.81091 2.4657 9.35699C2.54135 9.3116 2.58674 9.23595 2.6624 9.17543C2.76831 9.08464 2.78344 8.99386 2.70779 8.87282C2.43544 8.4189 2.17822 7.96498 1.89074 7.49593ZM12.7394 0.929266C11.4533 0.793091 10.2126 0.914135 8.92645 1.32266C9.3955 1.54962 9.77377 1.73119 10.1369 1.94301C10.2731 2.01867 10.379 1.98841 10.4849 1.89762C11.0901 1.39831 11.8013 1.12596 12.5729 0.989788C12.6334 0.989788 12.6788 0.944396 12.7394 0.929266Z" fill="#004FA8"/>
<path d="M9.789 8.58542C9.71335 8.66108 9.65283 8.70647 9.60744 8.73673C9.21404 9.00908 9.15352 9.34195 9.27456 9.82613C9.60744 11.0517 9.66796 10.7188 8.76012 11.6418C8.29108 12.1108 8.04899 12.1108 7.77664 11.5208C7.17141 10.2498 6.26358 9.34195 4.99261 8.73673C4.41765 8.46438 4.41765 8.23742 4.87157 7.7835C5.83992 6.84541 5.46166 6.93619 6.74776 7.25393C6.95959 7.29933 7.18654 7.49602 7.39837 7.29933C7.57994 7.14802 7.83716 6.96645 7.86742 6.76976C7.89768 6.61845 7.53455 6.57306 7.33785 6.48227C6.55106 6.11914 5.74914 5.77114 4.94722 5.408C4.46304 5.18105 4.46304 4.98435 4.78078 4.56069C5.34061 3.81929 5.96097 3.63773 6.85367 4.01599C7.68585 4.37912 8.59369 4.54556 9.45613 4.81791C9.69822 4.89356 9.84952 4.8633 10.0311 4.68174C10.3942 4.30347 10.7422 3.91008 11.1659 3.59234C11.7106 3.18381 12.3309 2.95685 13.0269 2.92659C13.4809 2.91146 13.6473 3.10816 13.6019 3.56207C13.5263 4.57582 13.0875 5.43827 12.3007 6.05862C11.6955 6.52767 11.5895 7.01185 11.8619 7.72298C12.2099 8.61569 12.4217 9.55378 12.7092 10.4767C12.8151 10.8096 12.7546 11.0517 12.4822 11.2484C12.2855 11.3997 12.0888 11.5813 11.9073 11.7628C11.5139 12.1108 11.2718 12.0655 11.06 11.5813C10.6514 10.5827 10.2278 9.6143 9.789 8.58542ZM6.08201 7.93481C5.90045 7.85916 5.79453 7.99533 5.73401 8.10125C5.64323 8.26768 5.82479 8.29794 5.91558 8.3282C6.95959 8.79725 7.73125 9.55378 8.20029 10.6129C8.23055 10.6886 8.27595 10.8853 8.41212 10.8096C8.5483 10.734 8.66934 10.6281 8.59369 10.4011C8.48777 10.0834 8.44238 9.75048 8.33647 9.43274C8.21542 9.08473 8.30621 8.82751 8.57856 8.58542C9.71335 7.48089 10.833 6.36123 11.9678 5.2567C12.3309 4.9087 12.5882 4.50017 12.7243 4.01599C12.7849 3.83442 12.7243 3.74364 12.5125 3.80416C12.0586 3.95547 11.6803 4.18243 11.3475 4.5153C10.1975 5.66522 9.03247 6.83028 7.88255 7.9802C7.68585 8.1769 7.50429 8.28281 7.20168 8.1769C6.82341 8.08612 6.44515 8.02559 6.08201 7.93481ZM10.9692 7.4355C10.3942 7.90455 10.3942 7.90455 10.6514 8.49464C10.9541 9.19065 11.2415 9.88665 11.5593 10.5675C11.5895 10.6583 11.5744 10.8399 11.756 10.7794C11.9073 10.7188 11.9073 10.5827 11.877 10.4465C11.5744 9.463 11.2718 8.47951 10.9692 7.4355ZM6.03662 4.65148C5.90045 4.62121 5.80966 4.68174 5.7794 4.78765C5.74914 4.9087 5.87018 4.92383 5.94584 4.95409C6.68724 5.28696 7.45889 5.6047 8.18516 5.96784C8.51803 6.13427 8.71473 6.05862 8.92656 5.8014C9.07787 5.63496 9.12326 5.55931 8.85091 5.48366C8.42725 5.37774 8.01873 5.24157 7.59507 5.10539C7.0655 4.95409 6.53593 4.78765 6.03662 4.65148Z" fill="#004FA8"/>
<path d="M15.6755 18.012C15.6755 17.3463 15.6604 16.6805 15.6755 15.9997C15.6906 15.7273 15.5847 15.6365 15.3275 15.6668C15.0703 15.6819 14.8131 15.6668 14.5558 15.6668C14.2078 15.6668 14.0263 15.5155 14.0414 15.1523C14.0565 14.1235 14.0565 13.0946 14.0414 12.0657C14.0414 11.7026 14.2078 11.5361 14.5558 11.5361C15.8722 11.5361 17.1734 11.5361 18.4898 11.5361C18.7319 11.5361 18.8832 11.6572 19.0042 11.8841C19.2917 12.4894 19.6246 13.0946 19.9121 13.7149C20.018 13.957 20.1542 14.0327 20.4114 14.0175C20.7291 14.0024 21.062 14.0024 21.3797 14.0175C21.8488 14.0478 22.0152 14.3656 21.758 14.7589C21.3646 15.3793 20.9561 15.9845 20.5324 16.5897C20.3206 16.8924 20.1995 17.195 20.2449 17.5581C20.3811 18.3903 20.018 18.9652 19.4581 19.5856C18.7016 20.4026 17.9148 20.7658 16.8103 20.675C15.7209 20.5842 15.7058 20.6599 15.7058 19.5553C15.6755 19.0106 15.6755 18.5113 15.6755 18.012ZM16.5077 17.3917C16.5077 18.1028 16.5077 18.7988 16.5077 19.5099C16.5077 19.6915 16.5379 19.7823 16.7498 19.7974C17.5366 19.8579 18.2477 19.7974 18.7319 19.056C18.8378 18.8896 19.0042 18.7534 19.1707 18.6172C19.3371 18.4811 19.4128 18.3146 19.3674 18.1028C19.2161 17.1647 19.5187 16.3628 20.1239 15.6668C20.2449 15.5306 20.3357 15.3793 20.4265 15.2129C20.487 15.1069 20.6383 15.0162 20.5627 14.88C20.5022 14.7892 20.3509 14.8195 20.2449 14.8497C19.7154 14.9405 19.4128 14.7136 19.2161 14.2142C18.9891 13.6695 18.7016 13.1551 18.4444 12.6255C18.3687 12.4894 18.3234 12.3532 18.1115 12.3532C17.1129 12.3683 16.0992 12.3532 15.1005 12.3532C14.919 12.3532 14.8585 12.4288 14.8585 12.5953C14.8585 13.261 14.8585 13.9268 14.8585 14.6076C14.8585 14.7741 14.919 14.8346 15.0854 14.8346C15.388 14.8195 15.6755 14.8346 15.9781 14.8346C16.3715 14.8497 16.5077 14.9708 16.5228 15.3642C16.5077 16.045 16.5077 16.7108 16.5077 17.3917Z" fill="#004FA8"/>
<path d="M7.86782 19.4781C7.86782 19.1301 7.88295 18.7821 7.86782 18.4341C7.85269 18.0709 8.01912 17.617 7.80729 17.3901C7.59547 17.1631 7.12642 17.3447 6.77841 17.3144C6.62711 17.2993 6.4758 17.3144 6.30937 17.3144C5.96136 17.3295 5.81006 17.148 5.81006 16.8302C5.81006 15.9375 5.81006 15.0297 5.81006 14.137C5.81006 13.789 5.97649 13.6074 6.3245 13.6074C6.94485 13.6074 7.5652 13.6074 8.17043 13.6074C8.38226 13.6074 8.56382 13.6831 8.66974 13.8495C9.29009 14.7573 10.1525 15.0146 11.1965 14.8633C11.4386 14.833 11.6807 14.8633 11.9228 14.8633C12.2254 14.8633 12.3767 15.0297 12.3919 15.3172C12.407 15.9678 12.3919 16.6335 12.3919 17.2842C12.3919 17.496 12.2708 17.6322 12.1044 17.7683C11.6051 18.1617 11.1209 18.5551 10.6216 18.9334C10.4098 19.0998 10.2736 19.2663 10.319 19.5386C10.4249 20.1892 10.1979 20.628 9.60783 20.9609C9.2447 21.1576 8.92696 21.4602 8.59408 21.7174C8.42765 21.8385 8.26121 21.9141 8.06451 21.8082C7.88295 21.7023 7.85269 21.5358 7.85269 21.3543C7.86782 20.7037 7.86782 20.0833 7.86782 19.4781ZM8.68487 20.5524C9.27496 20.28 9.62296 19.932 9.50192 19.2814C9.42627 18.9183 9.5927 18.6459 9.91044 18.4341C10.2131 18.2374 10.4551 17.9499 10.7578 17.7683C11.4538 17.3749 11.711 16.8 11.5748 16.0283C11.5748 15.9981 11.5748 15.9527 11.5748 15.9073C11.5899 15.7257 11.5143 15.6652 11.3327 15.6652C10.8788 15.6803 10.4249 15.6349 9.9861 15.6803C9.53218 15.7106 9.16905 15.6047 8.91183 15.2264C8.42765 14.5153 7.7619 14.3337 6.94485 14.4245C6.6725 14.4547 6.61198 14.5304 6.61198 14.7876C6.62711 15.2264 6.62711 15.6652 6.61198 16.104C6.59685 16.3914 6.6725 16.5276 6.99024 16.4974C7.29285 16.4671 7.6106 16.4974 7.91321 16.4974C8.60921 16.4974 8.68487 16.573 8.68487 17.269C8.68487 18.3433 8.68487 19.4327 8.68487 20.5524Z" fill="#004FA8"/>
</svg>
