<svg width="28" height="27" viewBox="0 0 28 27" fill="none" xmlns="http://www.w3.org/2000/svg">
<path d="M5.79338 27.0004C4.49305 26.9919 3.07451 26.8315 1.74041 26.232C1.25912 26.0209 0.820047 25.7423 0.473856 25.3454C-0.201639 24.5939 -0.150977 23.6736 0.600511 22.9474C1.25912 22.3141 2.0866 22.0017 2.94785 21.7822C3.27716 21.6977 3.26871 21.6049 3.13362 21.3431C2.01905 19.2322 1.03114 17.0706 0.296538 14.7824C-0.733591 11.5991 1.12402 8.3145 4.20596 7.42792C7.78609 6.39779 11.2818 8.8549 11.6617 12.4266C11.8137 13.8536 11.3071 15.137 10.8427 16.4289C10.2263 18.1176 9.44105 19.7388 8.58824 21.3178C8.42781 21.6217 8.44469 21.7231 8.79933 21.8075C9.52548 21.9764 10.2179 22.255 10.8174 22.711C11.1382 22.9559 11.4 23.2429 11.5604 23.6145C11.6195 23.7496 11.6786 23.8424 11.8391 23.8931C12.0333 23.9522 12.1684 24.1211 12.143 24.3491C12.1177 24.5517 11.9995 24.6868 11.8053 24.729C11.6871 24.7544 11.5942 24.7881 11.5351 24.8979C11.0876 25.7254 10.3192 26.1053 9.49171 26.4178C8.34337 26.8484 7.14437 26.975 5.79338 27.0004ZM0.904484 13.0261C0.870709 13.4736 0.98892 13.9464 1.13246 14.4193C2.05282 17.4168 3.4207 20.2117 5.03344 22.8883C5.45563 23.5807 6.23245 23.5722 6.66308 22.8714C8.19138 20.3383 9.47482 17.6954 10.4205 14.8837C10.6316 14.2504 10.8005 13.5918 10.792 12.9079C10.716 9.92725 7.99718 7.67279 5.05878 8.17096C2.66077 8.56782 0.921371 10.5859 0.904484 13.0261ZM6.08046 26.0885C6.47731 26.1053 7.13592 26.0462 7.78609 25.9196C8.67267 25.7592 9.54237 25.5312 10.2854 24.9823C10.9609 24.4842 10.9525 23.9607 10.2854 23.4456C9.69436 22.9896 8.99353 22.787 8.28426 22.5928C7.99718 22.5168 7.84519 22.5843 7.71854 22.8461C7.61721 23.0656 7.48211 23.2598 7.35546 23.4625C6.61241 24.5686 5.08411 24.5686 4.34106 23.4709C4.18063 23.2345 4.03709 22.9981 3.90199 22.7532C3.80911 22.5674 3.69934 22.5337 3.49669 22.5759C2.92252 22.711 2.34835 22.8714 1.83329 23.1669C1.4111 23.4118 0.904484 23.6482 0.921371 24.2224C0.929815 24.8135 1.43644 25.0583 1.89239 25.2779C3.12517 25.9027 4.45927 26.08 6.08046 26.0885Z" fill="#004FA8"/>
<path d="M22.723 13.9292C21.676 13.9039 20.5023 13.6252 19.565 12.7218C19.4046 12.5613 19.2611 12.3925 19.1597 12.1898C19.0415 11.9449 18.9402 11.7085 18.6447 11.5819C18.3576 11.4552 18.4082 10.9992 18.7122 10.8642C18.9318 10.7713 19.0246 10.6277 19.1175 10.4335C19.3877 9.85091 19.8183 9.40339 20.3925 9.1332C20.6458 9.01498 20.6289 8.91366 20.5276 8.70257C19.9197 7.41913 19.3033 6.14413 18.9909 4.74248C18.5265 2.65689 20.0548 0.410872 22.1657 0.0646806C24.5975 -0.340616 26.6746 1.19613 26.9786 3.62791C27.0968 4.56516 26.759 5.42642 26.4382 6.28767C26.1258 7.11516 25.7711 7.92575 25.3658 8.71101C25.2476 8.94743 25.2898 9.04032 25.5094 9.15008C25.7374 9.25985 25.9485 9.41184 26.1342 9.57227C27.3079 10.5602 27.2741 12.004 26.0751 12.9666C25.3067 13.5999 24.1246 13.963 22.723 13.9292ZM22.9678 0.900605C20.916 0.892161 19.3962 2.78355 19.9197 4.75937C20.4685 6.81118 21.4311 8.68568 22.5288 10.4926C22.7736 10.8979 23.1452 10.8895 23.39 10.4842C24.4624 8.68568 25.4165 6.81963 25.9738 4.79314C26.5226 2.81732 25.0196 0.900605 22.9678 0.900605ZM23.0354 13.0257C24.437 12.916 25.2307 12.6035 25.7627 12.0294C26.2102 11.5396 26.2271 10.9908 25.7965 10.4757C25.5938 10.2309 25.3405 10.062 25.0703 9.91001C24.9014 9.80869 24.8001 9.84247 24.6988 10.0198C24.5384 10.3322 24.3526 10.6277 24.1668 10.9317C23.5504 11.9365 22.3599 11.9365 21.7519 10.9317C21.5662 10.6277 21.3973 10.3238 21.22 10.0198C21.1609 9.91001 21.1102 9.78336 20.9414 9.87624C20.4347 10.1464 19.9619 10.4589 19.8437 11.0752C19.7339 11.6579 20.0801 12.0378 20.5107 12.3418C21.3213 12.916 22.2586 13.0511 23.0354 13.0257Z" fill="#004FA8"/>
<path d="M16.6691 10.7878C16.8211 10.7878 16.9815 10.7709 17.1335 10.7878C17.3615 10.8216 17.5219 10.9482 17.5388 11.1931C17.5557 11.4379 17.429 11.6068 17.2011 11.6575C16.8464 11.7335 16.4749 11.7335 16.1203 11.6575C15.8838 11.6068 15.7656 11.4295 15.791 11.1846C15.8163 10.9398 15.9767 10.8131 16.2132 10.7878C16.3651 10.7709 16.5171 10.7878 16.6691 10.7878Z" fill="#004FA8"/>
<path d="M17.7666 14.8407C17.9101 14.8407 18.0452 14.8322 18.1888 14.8407C18.4421 14.8576 18.611 15.0011 18.6363 15.2544C18.6616 15.5246 18.5012 15.6766 18.2479 15.7188C17.927 15.7779 17.6062 15.7695 17.2853 15.7273C17.0404 15.6935 16.8631 15.5584 16.88 15.2797C16.8969 15.0011 17.0658 14.8576 17.3444 14.8407C17.4795 14.8322 17.6231 14.8407 17.7666 14.8407Z" fill="#004FA8"/>
<path d="M13.7304 14.2006C13.7304 14.4286 13.6038 14.5721 13.4096 14.6481C13.2069 14.7241 13.0381 14.6312 12.9367 14.4792C12.7172 14.1499 12.6159 13.7615 12.6074 13.3731C12.6074 13.1367 12.7594 12.9763 12.9874 12.934C13.1816 12.9003 13.3674 12.9847 13.4349 13.1705C13.5531 13.4998 13.6291 13.8544 13.7304 14.2006Z" fill="#004FA8"/>
<path d="M14.4228 10.8818C14.6507 10.8987 14.7858 10.9832 14.8703 11.1689C14.9547 11.3716 14.904 11.5489 14.7521 11.6587C14.465 11.8613 14.161 12.0217 13.857 12.1822C13.6713 12.275 13.5024 12.2075 13.3673 12.0555C13.2322 11.9035 13.2069 11.7093 13.3251 11.5489C13.6037 11.1858 14.009 11.0085 14.4228 10.8818Z" fill="#004FA8"/>
<path d="M20.4096 14.8407C20.5532 14.8407 20.6883 14.8322 20.8318 14.8407C21.0851 14.8576 21.254 14.9927 21.2878 15.2544C21.3131 15.5246 21.1611 15.685 20.9078 15.7273C20.5785 15.7864 20.2323 15.7864 19.903 15.7273C19.6497 15.685 19.4893 15.5077 19.523 15.2544C19.5568 15.0095 19.7172 14.8576 19.9874 14.8491C20.131 14.8407 20.2745 14.8407 20.4096 14.8407Z" fill="#004FA8"/>
<path d="M25.0277 15.9551C25.3317 15.9973 25.509 16.2591 25.7032 16.4617C26.1254 16.9092 26.1845 17.1625 25.9058 17.3821C25.4921 17.6945 25.281 17.3483 25.053 17.0865C24.9264 16.943 24.7828 16.8079 24.6562 16.6559C24.5464 16.5292 24.5295 16.3773 24.6139 16.2253C24.6984 16.0648 24.8335 15.972 25.0277 15.9551Z" fill="#004FA8"/>
<path d="M24.0907 24.2813C23.8628 24.2729 23.7108 24.1969 23.6348 24.0027C23.5588 23.8085 23.601 23.6227 23.7614 23.513C24.0316 23.3188 24.3187 23.133 24.6143 22.981C24.8169 22.8797 25.028 22.9304 25.1631 23.1414C25.3066 23.361 25.2475 23.5467 25.0702 23.6987C24.7747 23.9605 24.4454 24.1716 24.0907 24.2813Z" fill="#004FA8"/>
<path d="M26.7589 21.3168C26.6491 21.663 26.514 22.0345 26.2692 22.3385C26.1341 22.5074 25.9314 22.5327 25.7372 22.4314C25.5346 22.3216 25.4501 22.1443 25.5261 21.9332C25.6528 21.6039 25.7963 21.2915 25.9652 20.9875C26.075 20.7933 26.2861 20.768 26.4887 20.8524C26.6829 20.92 26.7673 21.0804 26.7589 21.3168Z" fill="#004FA8"/>
<path d="M15.0818 14.8408C15.2338 14.8408 15.3942 14.8239 15.5462 14.8408C15.7995 14.8661 15.9599 15.0096 15.9684 15.2714C15.9768 15.5247 15.8417 15.6598 15.6053 15.7105C15.2253 15.7949 14.8538 15.7442 14.4907 15.6429C14.2881 15.5838 14.1952 15.3896 14.229 15.1785C14.2627 14.9674 14.3894 14.8239 14.6258 14.8154C14.7778 14.8154 14.9298 14.8154 15.0902 14.8154C15.0818 14.8323 15.0818 14.8323 15.0818 14.8408Z" fill="#004FA8"/>
<path d="M23.3987 15.9551C23.1201 15.8876 22.7739 15.8369 22.4446 15.7272C22.225 15.6512 22.1322 15.4485 22.1913 15.2121C22.2504 14.9926 22.4192 14.8744 22.6303 14.8912C22.9765 14.9166 23.3227 14.9841 23.652 15.1277C23.8716 15.2205 23.956 15.4063 23.8969 15.6427C23.8462 15.8538 23.6942 15.9636 23.3987 15.9551Z" fill="#004FA8"/>
<path d="M25.9653 18.6323C25.9653 18.438 26.0498 18.2607 26.2946 18.2101C26.5395 18.1594 26.7421 18.2354 26.8266 18.4972C26.9364 18.818 26.9786 19.1558 26.987 19.4851C26.9955 19.713 26.8688 19.8904 26.6155 19.9157C26.3537 19.9495 26.168 19.8397 26.1089 19.5779C26.0498 19.2824 26.016 18.9784 25.9653 18.6323Z" fill="#004FA8"/>
<path d="M21.8533 24.7457C21.7013 24.7373 21.5324 24.7457 21.372 24.7204C21.1524 24.6866 21.0258 24.5431 21.0258 24.3151C21.0173 24.0702 21.144 23.8929 21.3804 23.876C21.7182 23.8422 22.0559 23.8507 22.3852 23.8591C22.6301 23.8676 22.7736 24.0364 22.7821 24.2729C22.7905 24.5262 22.647 24.695 22.3768 24.7204C22.2079 24.7373 22.039 24.7373 21.8533 24.7457Z" fill="#004FA8"/>
<path d="M16.584 24.7369C16.432 24.7369 16.2716 24.7453 16.1196 24.7369C15.8663 24.72 15.689 24.5849 15.689 24.3147C15.689 24.0276 15.8663 23.8756 16.1365 23.8672C16.4151 23.8503 16.6938 23.8587 16.9808 23.8672C17.2595 23.8756 17.4453 24.0276 17.4537 24.2978C17.4621 24.5764 17.2848 24.7284 17.0062 24.7453C16.8711 24.7453 16.7275 24.7369 16.584 24.7369Z" fill="#004FA8"/>
<path d="M13.9243 24.7374C13.7723 24.7374 13.6204 24.7458 13.4599 24.7374C13.1982 24.7205 13.0293 24.5685 13.0293 24.3152C13.0293 24.045 13.1982 23.8761 13.4768 23.8677C13.7555 23.8592 14.0341 23.8592 14.3127 23.8677C14.5914 23.8761 14.7687 24.0112 14.7771 24.2983C14.7856 24.5854 14.6083 24.7289 14.3296 24.7458C14.203 24.7458 14.0679 24.7374 13.9243 24.7374Z" fill="#004FA8"/>
<path d="M19.2357 24.737C19.0922 24.737 18.9571 24.7455 18.8135 24.737C18.5349 24.7286 18.3491 24.585 18.3491 24.3064C18.3491 24.0277 18.518 23.8673 18.7966 23.8589C19.0753 23.8504 19.3539 23.8504 19.6326 23.8589C19.9112 23.8673 20.0885 24.0109 20.0885 24.2979C20.097 24.585 19.9281 24.7286 19.641 24.737C19.5143 24.737 19.3793 24.737 19.2357 24.737Z" fill="#004FA8"/>
<path d="M2.25586 13.0423C2.25586 11.0412 3.85172 9.44531 5.83598 9.44531C7.83713 9.44531 9.45832 11.0665 9.44988 13.0677C9.44143 15.0435 7.82025 16.6478 5.82754 16.6393C3.84327 16.6309 2.25586 15.035 2.25586 13.0423ZM8.52952 13.0592C8.53796 11.5478 7.3474 10.3488 5.84442 10.3488C4.37522 10.3488 3.15933 11.5562 3.15089 13.0254C3.14245 14.4946 4.39211 15.7527 5.86131 15.7443C7.32207 15.7443 8.52107 14.5369 8.52952 13.0592Z" fill="#004FA8"/>
<path d="M20.7133 4.0925C20.6627 2.87661 21.6337 1.80426 22.9002 1.78738C24.0823 1.77049 25.1463 2.55575 25.1969 3.99118C25.2391 5.28306 24.2597 6.21187 23.0269 6.27097C21.811 6.33852 20.7724 5.35905 20.7133 4.0925ZM24.3019 4.04184C24.3103 3.2988 23.7193 2.69929 22.9762 2.69085C22.2416 2.68241 21.6252 3.27346 21.6084 4.00806C21.5915 4.75111 22.2163 5.38438 22.9593 5.38438C23.6939 5.38438 24.2934 4.78488 24.3019 4.04184Z" fill="#004FA8"/>
</svg>
