<svg width="29" height="28" viewBox="0 0 29 28" fill="none" xmlns="http://www.w3.org/2000/svg">
<path d="M12.1578 15.1703C12.3679 14.8275 12.6112 14.54 12.9539 14.3742C13.1087 14.2968 13.1198 14.2415 13.0203 14.0977C12.578 13.4122 12.578 12.7156 12.9761 12.008C13.0313 11.9084 13.0866 11.8089 13.1751 11.7426C13.4515 11.5436 13.4736 11.2671 13.4736 10.9575C13.4626 8.17116 13.4626 5.38479 13.4736 2.59841C13.4736 2.3441 13.4073 2.24458 13.153 2.27775C12.9761 2.29987 12.7991 2.28881 12.6222 2.2667C12.3679 2.24458 12.2242 2.06767 12.2463 1.83547C12.2684 1.59222 12.4011 1.45953 12.6443 1.44847C12.9318 1.43742 13.2193 1.43742 13.5068 1.44847C14.0044 1.47059 14.3029 1.76913 14.314 2.2667C14.325 2.53207 14.314 2.80849 14.314 3.07386C14.314 5.65015 14.314 8.21539 14.3029 10.7917C14.3029 11.0349 14.3471 11.1455 14.6014 11.0792C14.6457 11.0681 14.701 11.0681 14.7452 11.0792C14.9884 11.1345 15.0216 11.0128 15.0105 10.8027C14.9995 9.57541 15.0105 8.33702 15.0105 7.10968C15.0105 6.92171 15.0105 6.73375 15.0216 6.54578C15.0437 6.19195 15.2317 5.9487 15.5634 5.84918C15.7182 5.80495 15.7624 5.73861 15.7624 5.58381C15.7514 5.07519 15.7514 4.55551 15.7624 4.04688C15.7624 3.73728 15.9172 3.56037 16.1715 3.56037C16.4259 3.56037 16.5917 3.73728 16.5917 4.04688C16.6028 4.55551 16.6028 5.07519 16.5917 5.58381C16.5917 5.77178 16.647 5.83812 16.8239 5.81601C17.3215 5.73861 17.6974 5.93764 18.0291 6.31358C18.3387 6.6674 18.6704 6.98806 19.0132 7.30871C19.2786 7.55197 19.3891 7.83945 19.3891 8.20433C19.3781 9.06678 19.3891 9.94029 19.3781 10.8027C19.3781 11.0239 19.4334 11.0902 19.6545 11.0792C20.0636 11.0681 20.0636 11.0792 20.0636 10.659C20.0636 7.43034 20.0636 4.21274 20.0636 0.984078C20.0636 0.276426 20.34 0.0110571 21.0477 0C21.7554 0 22.463 0 23.1707 0C23.7567 0 24.0442 0.29854 24.0552 0.873507C24.0552 1.27156 24.0663 1.66962 24.0552 2.07873C24.0552 2.23353 24.1105 2.28881 24.2653 2.28881C24.586 2.27775 24.8956 2.27775 25.2162 2.28881C25.6917 2.29987 26.0013 2.59841 26.0123 3.07386C26.0234 3.39452 26.0234 3.70411 26.0123 4.02477C26.0123 4.16851 26.0455 4.23485 26.2113 4.24591C26.6979 4.27908 26.9632 4.55551 26.9743 5.03096C26.9853 6.11455 26.9853 7.19814 26.9743 8.27068C26.9743 8.56922 26.7974 8.75719 26.5541 8.75719C26.3109 8.74613 26.145 8.55816 26.145 8.25962C26.145 7.29766 26.1339 6.33569 26.145 5.38479C26.145 5.13047 26.0787 5.07519 25.8354 5.07519C25.2936 5.0973 25.183 4.96462 25.183 4.42282C25.183 4.069 25.172 3.71517 25.183 3.36134C25.1941 3.18443 25.1388 3.11809 24.9508 3.11809C24.5749 3.12915 24.21 3.11809 23.8341 3.11809C23.3586 3.11809 23.2259 2.9854 23.2259 2.52101C23.2259 2.0345 23.2149 1.54799 23.2259 1.07253C23.2259 0.895621 23.1817 0.829279 22.9937 0.829279C22.3745 0.840336 21.7664 0.840336 21.1472 0.829279C20.9703 0.829279 20.904 0.86245 20.904 1.06148C20.915 4.48916 20.904 7.91685 20.904 11.3556C20.904 11.4883 20.9482 11.5767 21.0366 11.6762C21.678 12.3728 21.7554 13.2906 21.2357 14.0977C21.1472 14.2304 21.1472 14.2857 21.291 14.3631C21.689 14.5621 21.9765 14.8717 22.1423 15.2808C22.1976 15.4025 22.264 15.4356 22.3856 15.4578C23.8562 15.7563 24.4754 17.1827 23.7014 18.4763C23.6129 18.6201 23.6461 18.6532 23.7788 18.7196C24.398 19.0513 24.7297 19.5931 24.796 20.2897C24.8734 21.0416 24.9287 21.7935 24.984 22.5453C25.0282 23.0761 24.7629 23.3746 24.2211 23.3967C24.0331 23.4078 23.9668 23.452 23.9668 23.651C23.9778 24.4471 23.9778 25.2322 23.9668 26.0283C23.9668 26.1942 24.011 26.2273 24.1658 26.2273C25.3489 26.2163 26.532 26.2163 27.7151 26.2273C27.892 26.2273 27.9252 26.172 27.9252 26.0062C27.9252 22.1141 27.9252 18.211 27.9252 14.3189C27.9252 14.1309 27.8588 14.0867 27.6819 14.0867C27.317 14.0977 26.9522 14.0977 26.5873 14.0867C26.2556 14.0867 26.0897 13.9429 26.0897 13.6223C26.0787 12.5387 26.0787 11.4551 26.0897 10.3826C26.0897 10.0951 26.2666 9.91818 26.4988 9.90712C26.7421 9.90712 26.919 10.0951 26.919 10.3936C26.919 11.245 26.9301 12.0854 26.919 12.9368C26.9079 13.2021 26.9964 13.2685 27.2507 13.2574C27.4718 13.2353 27.693 13.2463 27.9252 13.2574C28.4449 13.2685 28.7545 13.5781 28.7545 14.0977C28.7545 15.3582 28.7545 16.6187 28.7545 17.8682C28.7545 20.7209 28.7545 23.5736 28.7545 26.4264C28.7545 26.935 28.6328 27.0566 28.1353 27.0566C19.0021 27.0566 9.86902 27.0566 0.735894 27.0566C0.249384 27.0566 0.116699 26.935 0.116699 26.4485C0.116699 25.1769 0.116699 23.9164 0.116699 22.6448C0.116699 22.3021 0.326783 22.092 0.60321 22.1473C0.857522 22.2026 0.957035 22.3905 0.957035 22.6448C0.957035 23.7284 0.968092 24.812 0.945978 25.8846C0.945978 26.161 1.02338 26.2163 1.28875 26.2163C2.50502 26.2052 3.73236 26.2052 4.94863 26.2163C5.16977 26.2163 5.24717 26.1831 5.24717 25.9288C5.22506 25.1659 5.23611 24.4029 5.24717 23.64C5.24717 23.452 5.20294 23.3857 5.00392 23.3746C4.45106 23.3525 4.19675 23.0318 4.24098 22.4679C4.30732 21.7603 4.37366 21.0526 4.42895 20.356C4.48424 19.6263 4.80489 19.0624 5.45726 18.7085C5.601 18.6311 5.61205 18.5869 5.5236 18.4432C4.7496 17.2158 5.39091 15.7342 6.81727 15.4467C6.97207 15.4135 7.04947 15.3582 7.11581 15.2145C7.28167 14.8386 7.54704 14.54 7.92298 14.3521C8.12201 14.2525 8.08883 14.1862 7.98932 14.0314C7.5581 13.3348 7.5581 12.6161 8.00038 11.9195C8.45372 11.234 9.11714 10.9354 9.92431 11.0571C10.7315 11.1787 11.2622 11.6762 11.5055 12.4613C11.6713 13.0252 11.5718 13.567 11.2512 14.0646C11.1627 14.1973 11.1516 14.2525 11.3064 14.3299C11.6934 14.54 11.9477 14.8275 12.1578 15.1703ZM17.1335 15.1703C17.3546 14.8275 17.5979 14.54 17.9517 14.3742C18.1176 14.2968 18.0955 14.2415 18.007 14.1199C17.4431 13.2353 17.5979 12.207 18.394 11.5325C18.5156 11.433 18.5599 11.3224 18.5599 11.1787C18.5599 10.4379 18.5156 9.70809 18.5709 8.97833C18.6151 8.32596 18.394 7.87262 17.9407 7.39717C17.4099 6.84432 16.8681 6.55683 16.1163 6.67846C16.0941 6.67846 16.0831 6.67846 16.061 6.67846C15.8951 6.65635 15.8619 6.73375 15.8619 6.88854C15.8619 8.37019 15.8619 9.85183 15.8619 11.3335C15.8619 11.4441 15.8841 11.5215 15.9615 11.6099C16.7244 12.4171 16.8018 13.1911 16.2379 14.1641C16.1937 14.2415 16.1494 14.2968 16.2711 14.3521C16.6359 14.5179 16.9124 14.8054 17.1335 15.1703ZM11.7377 24.5356C11.7377 24.0159 11.7377 23.4962 11.7377 22.9655C11.7377 22.7222 11.9146 22.5564 12.1357 22.5453C12.3569 22.5343 12.5338 22.7001 12.5669 22.9323C12.578 23.0097 12.5669 23.0761 12.5669 23.1535C12.5669 24.0933 12.5669 25.0332 12.5669 25.973C12.5669 26.0504 12.5117 26.161 12.6333 26.2163C12.9318 26.349 13.1861 26.172 13.1861 25.8514C13.1861 24.9447 13.1861 24.0491 13.1861 23.1424C13.1861 22.7001 13.3188 22.5674 13.7722 22.5564C13.8385 22.5564 13.9048 22.5453 13.9712 22.5564C14.137 22.5785 14.2034 22.5232 14.1813 22.3352C14.1149 21.6718 14.0707 20.9973 13.9933 20.3339C13.927 19.7147 13.5068 19.3388 12.8876 19.3277C12.379 19.3167 11.8593 19.3167 11.3507 19.3277C10.7425 19.3388 10.3224 19.7479 10.2671 20.356C10.2118 20.9421 10.1565 21.5281 10.1123 22.1141C10.068 22.5453 10.068 22.5453 10.5103 22.5564C10.9637 22.5564 11.0964 22.6891 11.0964 23.1424C11.0964 23.7727 11.0964 24.414 11.0964 25.0442C11.0964 25.3538 11.0964 25.6634 11.0964 25.962C11.0964 26.2826 11.3286 26.1942 11.5165 26.2163C11.7377 26.2494 11.7266 26.1057 11.7266 25.962C11.7377 25.5086 11.7377 25.0221 11.7377 24.5356ZM16.7133 24.5356C16.7133 24.0159 16.7133 23.4962 16.7133 22.9655C16.7133 22.7222 16.8902 22.5564 17.1114 22.5453C17.3325 22.5343 17.5094 22.7001 17.5426 22.9323C17.5537 23.0097 17.5426 23.0761 17.5426 23.1535C17.5426 24.0933 17.5426 25.0332 17.5426 25.973C17.5426 26.0615 17.4763 26.1831 17.6311 26.2273C17.996 26.3158 18.1618 26.1942 18.1618 25.8293C18.1618 24.9337 18.1618 24.038 18.1618 23.1424C18.1618 22.7001 18.2945 22.5674 18.7478 22.5564C18.8031 22.5564 18.8584 22.5453 18.9137 22.5564C19.1017 22.5785 19.1791 22.5122 19.1569 22.3131C19.0906 21.6608 19.0464 20.9973 18.969 20.3339C18.9026 19.7147 18.4825 19.3388 17.8633 19.3277C17.3657 19.3167 16.8571 19.3167 16.3595 19.3277C15.7182 19.3388 15.298 19.7479 15.2427 20.3892C15.1985 20.9642 15.1432 21.5391 15.0879 22.1141C15.0437 22.5453 15.0437 22.5453 15.486 22.5564C15.9393 22.5564 16.072 22.6891 16.072 23.1424C16.072 23.7837 16.072 24.425 16.072 25.0663C16.072 25.3649 16.072 25.6634 16.072 25.962C16.072 26.2826 16.3042 26.1942 16.4922 26.2163C16.7133 26.2494 16.7023 26.1057 16.7023 25.962C16.7133 25.5086 16.7133 25.0221 16.7133 24.5356ZM7.60232 24.5024C7.60232 25 7.60232 25.5086 7.60232 26.0062C7.60232 26.0836 7.5581 26.1831 7.65761 26.2273C7.91192 26.36 8.22152 26.1831 8.22152 25.8956C8.22152 25.0553 8.22152 24.2149 8.22152 23.3857C8.22152 22.6338 8.25469 22.5896 8.99551 22.5785C9.01763 22.5785 9.02868 22.5785 9.0508 22.5785C9.18348 22.5896 9.22771 22.5343 9.21665 22.4016C9.15031 21.6829 9.10608 20.9752 9.00657 20.2565C8.94023 19.7258 8.52006 19.372 7.98932 19.3609C7.43647 19.3498 6.89467 19.3498 6.34182 19.3609C5.80002 19.372 5.3688 19.77 5.31351 20.3229C5.24717 20.9752 5.20294 21.6387 5.1366 22.3021C5.10343 22.5564 5.20294 22.5896 5.42408 22.5896C6.04328 22.5785 6.13174 22.667 6.13174 23.2972C6.13174 24.1818 6.14279 25.0663 6.13174 25.9509C6.13174 26.2716 6.34182 26.2273 6.5519 26.2494C6.79516 26.2716 6.77305 26.1278 6.77305 25.973C6.77305 25.0221 6.77305 24.0712 6.77305 23.1203C6.77305 22.7444 6.92784 22.5453 7.19321 22.5564C7.46964 22.5564 7.61338 22.7554 7.61338 23.1314C7.60232 23.5958 7.60232 24.0491 7.60232 24.5024ZM22.5293 24.5356C22.5293 25.0442 22.5293 25.5418 22.5293 26.0394C22.5293 26.1057 22.4962 26.1942 22.5846 26.2384C22.8389 26.3711 23.1485 26.1942 23.1485 25.9177C23.1485 25 23.1485 24.0933 23.1485 23.1756C23.1485 22.7222 23.2812 22.5896 23.7235 22.5785C23.7898 22.5785 23.8562 22.5674 23.9225 22.5785C24.1105 22.6006 24.1658 22.5343 24.1437 22.3463C24.0773 21.6829 24.0331 21.0084 23.9557 20.345C23.8894 19.7479 23.4692 19.372 22.8611 19.3609C22.3524 19.3498 21.8328 19.3498 21.3241 19.3609C20.716 19.372 20.2848 19.77 20.2295 20.3781C20.1742 20.9863 20.1189 21.6055 20.0636 22.2136C20.0305 22.5785 20.0305 22.5785 20.3953 22.5785C20.9371 22.5785 21.0477 22.6891 21.0477 23.2419C21.0477 24.1375 21.0588 25.0332 21.0477 25.9288C21.0477 26.2273 21.2025 26.2384 21.4347 26.2605C21.7001 26.2826 21.678 26.1278 21.678 25.9509C21.678 24.9889 21.678 24.027 21.678 23.0761C21.678 22.7554 21.8438 22.5564 22.0981 22.5674C22.3524 22.5674 22.5183 22.7554 22.5183 23.0871C22.5404 23.5626 22.5293 24.0491 22.5293 24.5356ZM9.65894 19.5157C9.80268 19.3388 9.91325 19.195 10.0349 19.0624C10.1676 18.9186 10.3334 18.808 10.5103 18.7196C10.632 18.6643 10.632 18.609 10.5656 18.5095C9.9243 17.636 10.1565 16.2096 11.2954 15.6568C11.417 15.6015 11.417 15.5462 11.3507 15.4467C11.1627 15.1813 10.9084 15.0155 10.5877 14.9934C9.97959 14.9602 9.38251 14.9602 8.77437 14.9934C8.49795 15.0044 8.2768 15.1482 8.09989 15.3472C7.96721 15.4909 7.87875 15.6126 8.14412 15.701C8.23258 15.7342 8.32103 15.8005 8.39843 15.8669C9.19454 16.4971 9.37145 17.5807 8.82966 18.4542C8.78543 18.5316 8.63063 18.6201 8.8186 18.7085C9.17243 18.8965 9.43779 19.1619 9.65894 19.5157ZM19.6213 19.5378C19.8314 19.2061 20.0636 18.9297 20.3843 18.7749C20.5833 18.6754 20.5833 18.609 20.4727 18.4321C19.8978 17.5254 20.1631 16.3644 21.0477 15.7784C21.4015 15.5462 21.4015 15.4578 21.0477 15.2034C20.8929 15.0929 20.727 15.0155 20.5391 15.0044C19.9309 14.9713 19.3339 14.9713 18.7257 15.0044C18.4161 15.0265 18.1839 15.1813 17.996 15.4135C17.8964 15.5352 17.8854 15.6015 18.0512 15.6789C18.4382 15.8669 18.7257 16.1765 18.9026 16.5635C19.2012 17.2269 19.1569 17.8682 18.7589 18.4763C18.6925 18.5869 18.6483 18.6532 18.8031 18.7306C19.1459 18.8965 19.4002 19.1729 19.6213 19.5378ZM14.6457 19.5378C14.8447 19.2061 15.0769 18.9297 15.3975 18.7749C15.5855 18.6754 15.5966 18.6201 15.486 18.4321C14.911 17.5254 15.1764 16.3644 16.061 15.7674C16.1605 15.701 16.3706 15.69 16.3485 15.5241C16.3374 15.3804 16.1937 15.2808 16.072 15.1924C15.9172 15.0818 15.7514 15.0044 15.5634 14.9934C14.9553 14.9602 14.3582 14.9602 13.75 14.9934C13.4515 15.0155 13.2193 15.1592 13.0313 15.3804C12.9208 15.513 12.8987 15.5904 13.0866 15.69C13.4183 15.8558 13.6837 16.1101 13.8606 16.4418C14.2255 17.1274 14.2034 17.8019 13.8053 18.4653C13.7611 18.5316 13.6063 18.6201 13.7832 18.7085C14.137 18.8854 14.4135 19.1619 14.6457 19.5378ZM14.6457 14.1309C15.2538 14.1309 15.7514 13.6444 15.7514 13.0363C15.7624 12.4171 15.2538 11.9195 14.6346 11.9195C14.0154 11.9195 13.5178 12.4171 13.5289 13.0363C13.54 13.6555 14.0375 14.142 14.6457 14.1309ZM19.6324 11.9195C19.0132 11.9195 18.5046 12.406 18.5046 13.0252C18.5046 13.6333 19.0021 14.1199 19.5992 14.1309C20.2184 14.142 20.727 13.6333 20.727 13.0252C20.7381 12.4171 20.2405 11.9306 19.6324 11.9195ZM9.65894 11.9195C9.0508 11.9195 8.55323 12.406 8.55323 13.0142C8.54217 13.6333 9.0508 14.1309 9.66999 14.1309C10.2781 14.1309 10.7757 13.6444 10.7868 13.0363C10.7868 12.4281 10.2781 11.9195 9.65894 11.9195ZM8.2768 17.4149C8.2768 16.7846 7.79029 16.2981 7.16004 16.2981C6.5519 16.2981 6.06539 16.7846 6.05434 17.4038C6.05434 18.023 6.5519 18.5316 7.1711 18.5206C7.79029 18.5095 8.2768 18.023 8.2768 17.4149ZM13.2635 17.4149C13.2746 16.7846 12.777 16.2981 12.1578 16.287C11.5497 16.287 11.0632 16.7736 11.0521 17.3817C11.0411 18.0009 11.5386 18.5095 12.1578 18.5095C12.7549 18.5206 13.2525 18.023 13.2635 17.4149ZM18.2392 17.3927C18.2392 16.7846 17.7527 16.2981 17.1446 16.287C16.5254 16.287 16.0278 16.7736 16.0278 17.4038C16.0278 18.0119 16.5143 18.5095 17.1224 18.5095C17.7416 18.5206 18.2392 18.023 18.2392 17.3927ZM23.2149 17.3927C23.2149 16.7846 22.7284 16.2981 22.1202 16.2981C21.501 16.2981 21.0035 16.7957 21.0145 17.4149C21.0145 18.023 21.5121 18.5206 22.1092 18.5206C22.7173 18.5206 23.2149 18.023 23.2149 17.3927ZM10.2671 24.8452C10.2671 24.4471 10.256 24.0491 10.2671 23.64C10.2671 23.4741 10.2118 23.4299 10.0459 23.4078C9.78056 23.3857 9.51519 23.3967 9.24982 23.4078C9.10608 23.4188 9.06186 23.4741 9.06186 23.6068C9.06186 24.425 9.06186 25.2433 9.06186 26.0615C9.06186 26.2052 9.10608 26.2384 9.23877 26.2384C9.51519 26.2273 9.80268 26.2273 10.0791 26.2384C10.2339 26.2494 10.2892 26.1942 10.2781 26.0283C10.256 25.6413 10.2671 25.2433 10.2671 24.8452ZM14.0375 24.8452C14.0375 25.2543 14.0375 25.6634 14.0375 26.0725C14.0375 26.2052 14.0707 26.2494 14.2034 26.2494C14.4909 26.2384 14.7784 26.2384 15.0658 26.2494C15.1875 26.2494 15.2427 26.2273 15.2427 26.0836C15.2317 25.2654 15.2317 24.4471 15.2427 23.6289C15.2427 23.4852 15.1985 23.4299 15.0548 23.4299C14.8005 23.4188 14.5462 23.3967 14.2808 23.4188C14.0928 23.441 14.0265 23.4741 14.0265 23.6732C14.0486 24.0601 14.0375 24.4582 14.0375 24.8452ZM20.2295 24.8673C20.2295 24.4693 20.2184 24.0712 20.2295 23.6621C20.2295 23.4962 20.1963 23.4188 20.0083 23.4078C19.754 23.3857 19.4997 23.3967 19.2343 23.4078C19.0574 23.4188 19.0243 23.4852 19.0243 23.64C19.0353 24.4361 19.0353 25.2433 19.0243 26.0394C19.0243 26.172 19.0464 26.2384 19.2012 26.2384C19.4887 26.2273 19.7761 26.2273 20.0636 26.2384C20.1963 26.2384 20.2405 26.1942 20.2295 26.0615C20.2184 25.6745 20.2295 25.2764 20.2295 24.8673Z" fill="#004FA8"/>
<path d="M3.85402 3.48402C3.85402 3.62776 3.85402 3.72727 3.85402 3.82679C3.85402 6.40308 3.85402 8.99043 3.85402 11.5667C3.85402 12.0753 3.7324 12.1859 3.23483 12.197C2.99157 12.197 2.69303 12.0864 2.53823 12.2523C2.39449 12.396 2.49401 12.6945 2.49401 12.9267C2.49401 13.8445 2.49401 14.7733 2.49401 15.691C2.49401 16.1443 2.35026 16.277 1.91904 16.277C1.6979 16.277 1.4657 16.2881 1.24456 16.277C1.04553 16.266 1.0013 16.3323 1.0013 16.5313C1.01236 17.8361 1.0013 19.1408 1.0013 20.4455C1.0013 20.5561 1.01236 20.6667 0.957075 20.7772C0.868619 20.9542 0.724877 21.0426 0.52585 21.0094C0.315766 20.9763 0.194139 20.8436 0.172024 20.6335C0.14991 20.4677 0.160967 20.3018 0.160967 20.1359C0.160967 18.8865 0.160967 17.637 0.160967 16.3876C0.160967 15.7352 0.437394 15.4477 1.08976 15.4477C1.65367 15.4477 1.65367 15.4477 1.65367 14.8728C1.65367 13.9993 1.65367 13.1258 1.65367 12.2412C1.65367 11.6331 1.94115 11.3566 2.54929 11.3566C3.02474 11.3566 3.02474 11.3566 3.02474 10.8922C3.02474 7.61936 3.02474 4.34647 3.02474 1.08464C3.02474 0.99618 3.02474 0.918781 3.02474 0.830324C3.04686 0.576012 3.22377 0.410156 3.45597 0.410156C3.68817 0.421213 3.85402 0.587069 3.85402 0.852438C3.86508 1.25049 3.85402 1.64855 3.85402 2.05766C3.85402 2.15717 3.85402 2.25668 3.94248 2.33408C4.67225 3.06385 5.40201 3.79361 6.19812 4.58972C6.19812 4.24695 6.19812 3.98158 6.19812 3.72727C6.19812 3.3845 6.34186 3.20759 6.60723 3.19653C6.88366 3.18548 7.03846 3.3845 7.03846 3.72727C7.03846 5.54063 7.03846 7.36504 7.03846 9.1784C7.03846 9.28897 6.96106 9.46588 7.11585 9.49905C7.29277 9.54328 7.48074 9.52117 7.66871 9.49905C7.73505 9.488 7.71294 9.38848 7.71294 9.32214C7.71294 9.06783 7.71294 8.81352 7.71294 8.57026C7.71294 8.00635 8.01148 7.70781 8.57539 7.6857C8.94027 7.67464 8.94027 7.67464 8.94027 7.30976C8.94027 5.66226 8.94027 4.01476 8.94027 2.3562C8.94027 1.71489 9.21669 1.43846 9.858 1.43846C10.1234 1.43846 10.3777 1.42741 10.6431 1.43846C10.9195 1.44952 11.0743 1.60432 11.0743 1.84757C11.0743 2.09083 10.9195 2.24563 10.6431 2.26774C10.4551 2.2788 10.2671 2.28986 10.0791 2.26774C9.84695 2.24563 9.75849 2.31197 9.76955 2.56628C9.79166 4.34647 9.7806 6.1156 9.7806 7.87367C9.7806 7.96212 9.79166 8.03952 9.7806 8.12798C9.74743 8.37123 9.61475 8.52603 9.36044 8.52603C9.16141 8.53709 8.97344 8.53709 8.77441 8.52603C8.60856 8.51498 8.54221 8.55921 8.55327 8.74718C8.56433 9.12311 8.56433 9.488 8.55327 9.86394C8.55327 10.2067 8.39847 10.3615 8.0557 10.3615C7.60236 10.3615 7.13797 10.3726 6.68463 10.3615C6.34186 10.3615 6.19812 10.2067 6.19812 9.85288C6.19812 8.58132 6.19812 7.2987 6.19812 6.02714C6.19812 5.89445 6.19812 5.77283 6.08755 5.67331C5.3799 4.96566 4.67225 4.25801 3.96459 3.56142C3.95354 3.5393 3.92037 3.52825 3.85402 3.48402Z" fill="#004FA8"/>
</svg>
