<svg width="29" height="26" viewBox="0 0 29 26" fill="none" xmlns="http://www.w3.org/2000/svg">
<path d="M13.9689 25.1102C10.5742 25.1102 7.17952 25.1102 3.78481 25.1102C1.47787 25.1102 0.017778 23.6671 0.017778 21.3943C0.017778 20.8531 0.017778 20.312 0.017778 19.7708C0.0250785 19.1503 0.287895 18.8256 0.901132 18.6741C2.58024 18.27 3.28838 16.5383 2.31012 15.2034C1.9816 14.7561 1.53627 14.4819 0.996038 14.3592C0.265993 14.1933 0.0104776 13.8902 0.017778 13.1543C0.017778 12.4183 -0.0406256 11.6823 0.0542803 10.9536C0.287895 9.12805 1.68228 7.94472 3.5731 7.887C3.85051 7.87978 4.13523 7.887 4.41265 7.887C10.9831 7.887 17.5462 7.887 24.1166 7.887C25.2846 7.887 26.2921 8.24055 27.0586 9.14248C27.5551 9.71971 27.8398 10.3908 27.869 11.1484C27.8909 11.8843 27.8909 12.6131 27.8763 13.3491C27.8617 13.9191 27.5624 14.2221 26.9272 14.3592C25.5693 14.6623 24.8174 15.9899 25.2919 17.2743C25.562 18.003 26.1096 18.4504 26.8615 18.6524C27.7011 18.8761 27.8763 19.107 27.8836 19.9728C27.8836 20.514 27.8909 21.0552 27.8836 21.5963C27.8544 23.6383 26.3651 25.1102 24.2918 25.1174C20.8533 25.1174 17.4147 25.1102 13.9689 25.1102ZM13.947 24.1001C17.4001 24.1001 20.8533 24.1073 24.3137 24.1001C25.803 24.1001 26.8396 23.0755 26.8615 21.6107C26.8688 21.0552 26.8542 20.5068 26.8688 19.9512C26.8688 19.7564 26.825 19.6554 26.606 19.6049C26.2118 19.5183 25.8395 19.3667 25.5109 19.1214C24.4159 18.3133 23.9486 17.2238 24.1969 15.9033C24.4451 14.6046 25.2773 13.7892 26.5476 13.4068C26.7082 13.3563 26.8761 13.3563 26.8688 13.1038C26.8469 12.4544 26.8615 11.805 26.8396 11.1556C26.8323 10.8165 26.7301 10.4918 26.5549 10.1959C26.022 9.27957 25.2043 8.89716 24.1604 8.89716C17.349 8.89716 10.5377 8.89716 3.72641 8.89716C3.5658 8.89716 3.41249 8.90437 3.25188 8.92602C2.04 9.0559 1.09094 10.0372 1.04714 11.235C1.02524 11.8627 1.04714 12.4832 1.03254 13.111C1.03254 13.2914 1.09824 13.3491 1.26615 13.3996C2.81385 13.8181 3.77021 15.0086 3.77021 16.5022C3.77021 17.9886 2.80655 19.208 1.28076 19.6193C1.06174 19.677 1.02524 19.778 1.02524 19.9656C1.03984 20.4491 1.03254 20.9253 1.03254 21.4087C1.03984 23.1116 2.0327 24.1001 3.75561 24.1001C7.16492 24.1001 10.5596 24.1001 13.947 24.1001Z" fill="#004FA8"/>
<path d="M23.934 0.000683663C25.489 0.0078991 26.8688 1.01084 27.263 2.49722C27.7448 4.3083 28.1682 6.1338 28.6136 7.9593C28.6866 8.26957 28.526 8.53654 28.2413 8.60869C27.9492 8.68085 27.701 8.52211 27.6134 8.16134C27.2922 6.89142 26.9856 5.61429 26.6717 4.34437C26.5475 3.85372 26.4307 3.36307 26.3066 2.87243C25.9635 1.57365 24.7297 0.772735 23.4084 1.07578C20.6707 1.70353 17.933 2.38178 15.1953 3.03838C11.2166 3.99082 7.23786 4.95047 3.25181 5.90291C2.39036 6.10494 1.74792 6.5523 1.3683 7.34599C1.20769 7.6779 0.937571 7.77892 0.660154 7.64904C0.382737 7.51916 0.295132 7.23055 0.448441 6.90585C0.930271 5.90291 1.71142 5.23909 2.80649 4.97212C5.45655 4.32994 8.11391 3.69498 10.7713 3.06003C14.8449 2.07873 18.9186 1.10464 22.9922 0.123346C23.3061 0.0439763 23.6201 -0.00653177 23.934 0.000683663Z" fill="#004FA8"/>
<path d="M5.95264 16.4959C5.95264 15.8826 5.95264 15.2693 5.95264 14.656C5.95264 14.3024 6.06944 14.0138 6.41256 13.8623C6.75569 13.7108 7.08421 13.7829 7.31052 14.0571C7.98216 14.858 8.82901 15.1539 9.85838 15.0023C10.1723 14.9518 10.5008 15.0745 10.8147 14.9374C10.6906 14.656 10.5665 14.3674 10.4351 14.086C10.2161 13.6314 9.98978 13.1768 9.77077 12.7223C9.50065 12.1594 9.63206 11.5822 10.1066 11.2431C10.5957 10.8967 11.2163 10.9473 11.6616 11.409C12.669 12.4697 13.6765 13.5304 14.6621 14.6127C14.9176 14.8941 15.1731 15.0384 15.5673 15.0095C16.0127 14.9735 16.4653 14.9951 16.9179 15.0023C17.7356 15.0168 18.378 15.6012 18.4364 16.3733C18.5021 17.1886 17.9473 17.8957 17.1077 17.9895C16.5529 18.0545 15.9908 18.0328 15.4286 18.0184C15.1512 18.0112 14.9541 18.0905 14.7643 18.2926C13.7568 19.3821 12.7348 20.4644 11.7127 21.5467C11.2309 22.059 10.6176 22.1456 10.1139 21.7848C9.61746 21.4385 9.50065 20.8613 9.79997 20.2407C10.1139 19.5986 10.4059 18.9564 10.7344 18.3286C10.8804 18.0472 10.7928 18.0112 10.5227 18.0184C9.92408 18.0328 9.33274 18.0256 8.73411 18.0184C8.48589 18.0112 8.28878 18.0905 8.11357 18.2565C7.83615 18.509 7.55143 18.7544 7.27402 18.9997C7.0258 19.2161 6.74109 19.2955 6.42717 19.1584C6.11325 19.0141 5.95264 18.7544 5.95994 18.408C5.95264 17.7731 5.95264 17.1309 5.95264 16.4959ZM6.9966 17.8163C7.0696 17.7947 7.09151 17.7875 7.11341 17.7803C7.16451 17.7442 7.21561 17.7081 7.25212 17.6648C7.72665 17.1381 8.32528 16.9938 9.01882 17.001C11.5448 17.0299 14.078 17.0082 16.604 17.0082C16.7719 17.0082 16.9471 17.0226 17.1077 16.9505C17.3121 16.8567 17.4362 16.698 17.407 16.4671C17.3778 16.2217 17.2391 16.0702 16.9982 16.0269C16.8814 16.0053 16.7573 16.0125 16.6332 16.0125C14.005 16.0125 11.3842 16.0125 8.75601 16.0125C8.23038 16.0125 7.77775 15.8754 7.40543 15.5002C7.29592 15.392 7.18641 15.2477 6.9966 15.2116C6.9966 16.0846 6.9966 16.9288 6.9966 17.8163ZM13.6327 14.9951C12.6837 13.985 11.8076 13.0542 10.9388 12.1234C10.8731 12.0584 10.8001 12.0079 10.7198 12.0656C10.6322 12.1234 10.6687 12.2172 10.7052 12.2965C11.1214 13.148 11.5375 13.9994 11.9536 14.858C12.0047 14.959 12.0704 14.9951 12.1799 14.9951C12.6179 14.9951 13.0706 14.9951 13.6327 14.9951ZM13.6254 18.0184C13.0706 18.0184 12.6398 18.0256 12.2018 18.0184C12.0558 18.0184 11.9828 18.0761 11.9244 18.1988C11.5229 19.0213 11.1214 19.8439 10.7198 20.6664C10.676 20.753 10.6176 20.854 10.7125 20.9262C10.8366 21.02 10.9096 20.9046 10.9826 20.8324C11.4718 20.3129 11.9609 19.7934 12.45 19.2739C12.8151 18.8842 13.1874 18.4946 13.6254 18.0184Z" fill="#004FA8"/>
<path d="M21.2981 10.7516C21.0207 10.7588 20.7871 10.5351 20.7871 10.261C20.7871 10.0012 20.9988 9.79195 21.2689 9.77752C21.5537 9.7703 21.78 9.98677 21.7727 10.2682C21.7727 10.5351 21.5683 10.7444 21.2981 10.7516Z" fill="#004FA8"/>
<path d="M21.2836 13.7819C20.9988 13.7746 20.7725 13.5438 20.7944 13.2696C20.8236 12.981 20.9988 12.815 21.2909 12.8078C21.5756 12.8006 21.7873 13.0315 21.78 13.3129C21.7654 13.587 21.5537 13.7891 21.2836 13.7819Z" fill="#004FA8"/>
<path d="M21.7801 16.3151C21.7874 16.5821 21.5903 16.7985 21.3202 16.813C21.0428 16.8274 20.8019 16.6181 20.7873 16.3439C20.78 16.0698 20.999 15.8461 21.2837 15.8389C21.5611 15.8461 21.7728 16.0481 21.7801 16.3151Z" fill="#004FA8"/>
<path d="M21.7801 19.359C21.7874 19.626 21.583 19.8425 21.3129 19.8569C21.0282 19.8713 20.7946 19.6549 20.7873 19.3807C20.78 19.1065 21.0136 18.8828 21.291 18.8828C21.5611 18.8828 21.7728 19.0921 21.7801 19.359Z" fill="#004FA8"/>
<path d="M20.7954 22.3471C20.8246 22.073 21.0802 21.8854 21.3576 21.9214C21.6204 21.9575 21.8029 22.1884 21.7737 22.4554C21.7445 22.7368 21.4963 22.9244 21.2116 22.8811C20.9561 22.845 20.7662 22.6069 20.7954 22.3471Z" fill="#004FA8"/>
</svg>
