<svg width="29" height="24" viewBox="0 0 29 24" fill="none" xmlns="http://www.w3.org/2000/svg">
<path d="M14.3392 8.65002C10.1123 8.65002 5.87905 8.65635 1.65212 8.64369C1.35471 8.64369 1.28511 8.72595 1.29144 9.0107C1.29776 13.0478 1.29776 17.0912 1.29776 21.1283C1.29776 21.913 1.65212 22.2673 2.43676 22.2673C5.46142 22.2673 8.49241 22.2673 11.5171 22.2673C12.0423 22.2673 12.3144 22.4571 12.3207 22.8178C12.327 23.1912 12.0486 23.3873 11.5044 23.3873C8.49873 23.3873 5.49306 23.3873 2.48738 23.3873C1.032 23.3873 0.184082 22.5394 0.184082 21.0904C0.184082 14.8259 0.184082 8.56143 0.184082 2.29697C0.184082 0.847917 1.032 0 2.48738 0C10.4097 0 18.3257 0 26.248 0C27.6844 0 28.5324 0.854245 28.5324 2.27799C28.5324 8.5551 28.5324 14.8259 28.5324 21.103C28.5324 22.5331 27.6781 23.3873 26.248 23.3873C23.1285 23.3873 20.0026 23.3873 16.883 23.3873C16.7881 23.3873 16.6932 23.3937 16.5982 23.381C16.3072 23.343 16.0794 23.1089 16.073 22.8368C16.0667 22.5584 16.3008 22.3053 16.6109 22.2736C16.7058 22.261 16.8007 22.2673 16.8956 22.2673C20.0089 22.2673 23.1158 22.2673 26.2291 22.2673C27.0833 22.2673 27.425 21.9319 27.425 21.084C27.425 17.0659 27.4187 13.0478 27.4313 9.02969C27.4313 8.69431 27.3301 8.63737 27.0264 8.64369C22.7931 8.65635 18.5662 8.65002 14.3392 8.65002ZM14.3456 7.53001C18.5852 7.53001 22.8184 7.53001 27.058 7.53634C27.3491 7.53634 27.4313 7.46041 27.425 7.16933C27.4124 5.53677 27.4187 3.90422 27.4187 2.26533C27.4187 1.46171 27.0643 1.12001 26.2544 1.12001C18.3194 1.12001 10.3781 1.12001 2.44309 1.12001C1.63946 1.12001 1.29776 1.46804 1.29144 2.27799C1.29144 3.89156 1.29144 5.50513 1.29144 7.11871C1.29144 7.53001 1.29144 7.53001 1.69641 7.53001C5.91702 7.53001 10.1313 7.53001 14.3456 7.53001Z" fill="#004FA8"/>
<path d="M8.25249 10.5732C9.43577 10.5732 10.6127 10.5732 11.796 10.5732C12.7389 10.5732 13.283 11.1238 13.2894 12.0729C13.2894 14.3066 13.2894 16.5466 13.2894 18.7803C13.2894 19.7105 12.7199 20.28 11.7897 20.28C9.42944 20.28 7.06287 20.28 4.70262 20.28C3.77877 20.28 3.19029 19.7042 3.19029 18.7866C3.18396 16.5403 3.18396 14.294 3.19029 12.0476C3.19029 11.1364 3.76612 10.5732 4.68364 10.5732C5.87325 10.5732 7.06287 10.5732 8.25249 10.5732ZM8.23983 19.1663C9.39148 19.1663 10.5368 19.16 11.6884 19.1726C11.9099 19.1726 11.9605 19.1094 11.8909 18.9069C11.7138 18.3753 11.3594 18.0336 10.8469 17.8375C10.4609 17.692 10.0749 17.5527 9.68888 17.4135C9.48639 17.3376 9.23961 17.2553 9.18266 17.0655C8.99283 16.4137 8.49927 16.4897 8.01203 16.515C7.94243 16.5213 7.86017 16.5087 7.79056 16.4897C7.64502 16.4391 7.58174 16.5023 7.54378 16.6352C7.42355 17.0465 7.1388 17.287 6.75281 17.4325C6.37947 17.5717 5.99981 17.7046 5.62647 17.8438C5.13291 18.0273 4.79121 18.3627 4.60138 18.8563C4.51279 19.0967 4.53177 19.1853 4.82285 19.1853C5.96817 19.1537 7.10716 19.1663 8.23983 19.1663ZM9.68256 13.5599C9.68256 13.3828 9.69521 13.1993 9.68256 13.0221C9.63193 12.307 9.05611 11.7312 8.35373 11.6869C7.5944 11.6426 6.94897 12.1299 6.82874 12.8639C6.75914 13.2942 6.76547 13.7245 6.82242 14.1547C6.90468 14.7749 7.34762 15.2368 7.94875 15.3697C8.54356 15.4962 9.13204 15.2431 9.47374 14.7179C9.70787 14.3636 9.69521 13.9649 9.68256 13.5599ZM12.1883 17.3503C12.1883 16.5846 12.1883 15.9139 12.1883 15.2368C12.1883 14.1927 12.1883 13.1486 12.1883 12.1109C12.1883 11.9147 12.1757 11.6996 11.9162 11.6933C11.4164 11.6806 10.9165 11.6869 10.347 11.6869C10.8279 12.3766 10.8089 13.117 10.8026 13.8573C10.7899 14.5787 10.5748 15.2178 10.0685 15.7557C9.84075 15.9961 9.91668 16.2998 10.2204 16.4201C10.8722 16.6795 11.5745 16.8314 12.1883 17.3503ZM4.30397 17.3376C4.91144 16.8314 5.59483 16.6795 6.24026 16.4264C6.58829 16.2872 6.65157 16.0024 6.39846 15.724C5.94286 15.2305 5.69608 14.6546 5.68975 13.9776C5.68342 13.1993 5.61382 12.4146 6.13902 11.6869C5.57585 11.6869 5.08229 11.6869 4.58872 11.6869C4.36725 11.6869 4.30397 11.8325 4.30397 12.0223C4.30397 13.7688 4.30397 15.5089 4.30397 17.3376Z" fill="#004FA8"/>
<path d="M20.2744 10.5743C21.7108 10.5743 23.1408 10.5743 24.5772 10.5743C24.6911 10.5743 24.8114 10.5679 24.9253 10.5932C25.1974 10.6502 25.3492 10.8337 25.3619 11.1058C25.3745 11.3589 25.248 11.5487 25.0012 11.6436C24.862 11.7006 24.7101 11.6879 24.5646 11.6879C21.6855 11.6879 18.8063 11.6879 15.9272 11.6879C15.7817 11.6879 15.6298 11.7006 15.4906 11.6373C15.2375 11.5297 15.0983 11.3462 15.1299 11.0741C15.1616 10.8021 15.3261 10.6375 15.5919 10.5869C15.6931 10.5679 15.8007 10.5743 15.9082 10.5743C17.3636 10.5743 18.819 10.5743 20.2744 10.5743Z" fill="#004FA8"/>
<path d="M22.275 14.648C21.503 14.648 20.7373 14.648 19.9654 14.648C19.8578 14.648 19.7565 14.648 19.649 14.6353C19.3642 14.591 19.1617 14.3633 19.1744 14.0912C19.187 13.8064 19.3516 13.6229 19.63 13.5596C19.7312 13.5343 19.8388 13.5406 19.9464 13.5406C21.4967 13.5406 23.047 13.5406 24.5909 13.5406C24.6732 13.5406 24.7618 13.5343 24.844 13.547C25.1541 13.5849 25.3566 13.8001 25.3629 14.0848C25.3692 14.3822 25.1604 14.629 24.8314 14.6417C24.3378 14.6607 23.8443 14.648 23.3444 14.6543C22.99 14.648 22.6357 14.648 22.275 14.648Z" fill="#004FA8"/>
<path d="M22.5836 20.287C21.8876 20.287 21.1915 20.287 20.4955 20.287C20.0525 20.287 19.7994 20.0845 19.7994 19.7302C19.7931 19.3821 20.0525 19.167 20.4892 19.167C21.8939 19.167 23.2923 19.167 24.6971 19.167C25.1084 19.167 25.3615 19.3821 25.3678 19.7175C25.3678 20.0529 25.1147 20.2807 24.7098 20.2807C23.9947 20.287 23.2923 20.287 22.5836 20.287Z" fill="#004FA8"/>
<path d="M16.5026 14.6428C16.2305 14.6428 15.9584 14.6555 15.6863 14.6428C15.3446 14.6238 15.1168 14.3897 15.1232 14.086C15.1295 13.7949 15.351 13.5608 15.6737 13.5481C16.2179 13.5355 16.7684 13.5291 17.3126 13.5481C17.6416 13.5608 17.8441 13.7822 17.8504 14.0923C17.8504 14.4024 17.6543 14.6112 17.3252 14.6428C17.3062 14.6428 17.2809 14.6491 17.262 14.6491C17.0088 14.6491 16.7557 14.6491 16.5026 14.6428C16.5026 14.6491 16.5026 14.6428 16.5026 14.6428Z" fill="#004FA8"/>
<path d="M14.1996 23.3814C13.9022 23.3814 13.6554 23.1472 13.649 22.8435C13.6427 22.5335 13.8958 22.2614 14.1996 22.2677C14.4906 22.274 14.7374 22.5271 14.7374 22.8245C14.7374 23.1283 14.4906 23.3814 14.1996 23.3814Z" fill="#004FA8"/>
<path d="M15.5726 2.13361C16.0282 2.13361 16.4458 2.27282 16.8128 2.54491C17.0912 2.7474 17.1545 3.03847 17.0026 3.29158C16.8381 3.55102 16.5597 3.62695 16.256 3.49407C16.0914 3.41814 15.9522 3.31057 15.7687 3.2726C15.6422 3.24096 15.5219 3.23463 15.3954 3.27893C15.3131 3.31057 15.2309 3.34853 15.2309 3.44345C15.2245 3.53204 15.3131 3.55102 15.3827 3.58266C15.6422 3.69023 15.9079 3.7978 16.1737 3.90537C16.3699 3.98131 16.5597 4.07622 16.7179 4.21543C17.1229 4.55713 17.3064 4.98742 17.1798 5.51262C17.0406 6.07579 16.6546 6.42381 16.1041 6.56302C15.3637 6.74653 14.7057 6.55037 14.1488 6.0315C13.8641 5.76573 13.8451 5.43669 14.0729 5.19623C14.3007 4.95578 14.5854 4.95578 14.8828 5.20889C15.117 5.41138 15.3764 5.5316 15.6865 5.50629C15.8636 5.49364 16.0408 5.44302 16.0724 5.24686C16.1041 5.06335 15.9269 5.0064 15.794 4.94945C15.4966 4.81657 15.1866 4.709 14.8892 4.57611C14.345 4.33566 14.0855 3.93701 14.1045 3.39916C14.1235 2.86762 14.4842 2.4057 15.0157 2.2222C15.1929 2.15892 15.3764 2.12728 15.5726 2.13361Z" fill="#004FA8"/>
<path d="M21.686 6.0172C21.667 6.32093 21.5468 6.51709 21.2747 6.58669C21.009 6.6563 20.7305 6.58037 20.6673 6.32726C20.528 5.73245 20.1167 5.77674 19.6611 5.77041C19.2878 5.76409 19.0853 5.84635 18.9777 6.22601C18.8828 6.56138 18.5411 6.69427 18.2437 6.56771C17.9653 6.45381 17.8388 6.15008 17.959 5.82736C18.3576 4.75165 18.7689 3.67593 19.1739 2.60654C19.2815 2.31547 19.4776 2.12564 19.813 2.13829C20.1294 2.14462 20.3066 2.32812 20.4141 2.61287C20.8001 3.65062 21.1988 4.68204 21.5848 5.71979C21.6354 5.82104 21.6607 5.93494 21.686 6.0172ZM19.8067 4.21379C19.7244 4.35933 19.5789 4.47956 19.6611 4.6504C19.6801 4.68837 19.8889 4.70103 19.9206 4.65673C20.0345 4.49854 19.8636 4.36566 19.8067 4.21379Z" fill="#004FA8"/>
<path d="M8.82094 4.44099C9.00444 3.88415 9.16896 3.39059 9.33348 2.8907C9.37778 2.75149 9.42207 2.60595 9.48535 2.47307C9.61823 2.19465 9.89032 2.07442 10.1624 2.16301C10.4472 2.25792 10.6054 2.53634 10.5168 2.8464C10.4219 3.18177 10.3016 3.50449 10.1877 3.83986C9.94727 4.56755 9.70682 5.30157 9.46004 6.02926C9.32083 6.44689 9.12467 6.61774 8.80828 6.61141C8.44127 6.60508 8.27675 6.37095 8.16918 6.05457C7.81482 5.02947 7.45414 4.00438 7.09979 2.97929C6.96058 2.58064 7.08081 2.27691 7.39719 2.16301C7.71991 2.04911 7.99833 2.2073 8.14387 2.60595C8.34003 3.13748 8.52353 3.68167 8.70704 4.2132C8.73235 4.27015 8.76399 4.32077 8.82094 4.44099Z" fill="#004FA8"/>
<path d="M11.618 4.3603C11.618 3.8351 11.6117 3.30357 11.618 2.77836C11.6244 2.37972 11.8269 2.13926 12.1622 2.13293C12.5103 2.12661 12.7254 2.36706 12.7254 2.78469C12.7317 3.84142 12.7317 4.89183 12.7254 5.94856C12.7254 6.35987 12.5039 6.61297 12.1686 6.61297C11.8332 6.61297 11.6244 6.35987 11.618 5.94223C11.618 5.4107 11.618 4.8855 11.618 4.3603Z" fill="#004FA8"/>
</svg>
