<svg width="26" height="33" viewBox="0 0 26 33" fill="none" xmlns="http://www.w3.org/2000/svg">
<path d="M12.3937 25.2656C17.2555 25.2656 21.2108 21.3333 21.2108 16.5C21.2108 11.6667 17.2555 7.73438 12.3937 7.73438C7.53195 7.73438 3.57666 11.6667 3.57666 16.5C3.57666 21.3333 7.53195 25.2656 12.3937 25.2656ZM11.8751 8.78322V9.79687C11.8751 10.0816 12.1073 10.3125 12.3937 10.3125C12.6801 10.3125 12.9124 10.0816 12.9124 9.79687V8.78322C16.7897 9.03826 19.8992 12.1296 20.1558 15.9844H19.1362C18.8497 15.9844 18.6175 16.2152 18.6175 16.5C18.6175 16.7848 18.8497 17.0156 19.1362 17.0156H20.1558C19.8992 20.8704 16.7897 23.9618 12.9124 24.2168V23.2031C12.9124 22.9184 12.6801 22.6875 12.3937 22.6875C12.1073 22.6875 11.8751 22.9184 11.8751 23.2031V24.2168C7.99777 23.9617 4.8882 20.8704 4.63166 17.0156H5.65126C5.93769 17.0156 6.16991 16.7848 6.16991 16.5C6.16991 16.2152 5.93769 15.9844 5.65126 15.9844H4.63166C4.88813 12.1296 7.9977 9.0382 11.8751 8.78322Z" fill="#016F3F"/>
<path d="M24.4517 13.9219H23.506C23.4089 13.5082 23.2885 13.1034 23.1471 12.7085L23.873 12.292C24.5541 11.9018 24.7888 11.0332 24.3958 10.355L23.7475 9.23865C23.3532 8.55983 22.4818 8.32773 21.7987 8.71999L21.0679 9.13965C20.9097 8.95557 20.7455 8.77665 20.5759 8.60301L19.7813 4.25842C19.6678 3.63683 19.1579 3.17329 18.5393 3.1038L18.2356 1.29248C18.1101 0.543598 17.4646 0 16.7009 0H8.08532C7.32154 0 6.67608 0.543598 6.55056 1.29254L6.24689 3.1038C5.62827 3.17329 5.11844 3.63683 5.00486 4.25829L4.21022 8.60295C-0.0969135 13.0128 -0.0901064 19.9941 4.21022 24.397L5.00486 28.7415C5.11844 29.3631 5.62827 29.8266 6.24689 29.8961L6.55056 31.7075C6.67608 32.4564 7.32154 33 8.08532 33H16.7009C17.4647 33 18.1101 32.4564 18.2356 31.7075L18.5393 29.8961C19.1579 29.8266 19.6678 29.3631 19.7813 28.7416L20.576 24.397C20.7456 24.2234 20.9097 24.0444 21.068 23.8604C21.798 24.2796 22.0336 24.4709 22.5102 24.4709C23.0025 24.4709 23.4818 24.2187 23.7475 23.7613L24.3961 22.6445C24.7888 21.9669 24.5542 21.0982 23.8734 20.7082L23.1471 20.2915C23.2885 19.8965 23.4089 19.4918 23.506 19.0781H24.4517C25.2382 19.0781 25.878 18.442 25.878 17.6602V15.3398C25.878 14.558 25.2382 13.9219 24.4517 13.9219ZM22.3175 9.61299C22.5027 9.50645 22.741 9.56807 22.8492 9.75427L23.4972 10.8701C23.6044 11.0551 23.5406 11.2921 23.3548 11.3985L22.7511 11.745C22.4584 11.1173 22.1101 10.5204 21.7117 9.96084L22.3175 9.61299ZM7.57373 1.46212C7.61561 1.21249 7.83072 1.03125 8.08532 1.03125H16.7009C16.9555 1.03125 17.1706 1.21249 17.2125 1.46212L17.486 3.09375H7.30021L7.57373 1.46212ZM6.40787 4.125H18.3783C18.5663 4.125 18.7271 4.25861 18.7608 4.44288L19.3182 7.491C15.2271 4.37534 9.55575 4.37791 5.46795 7.491L6.02543 4.44275C6.05908 4.25861 6.21992 4.125 6.40787 4.125ZM12.3931 6.1875C18.1128 6.1875 22.7661 10.8136 22.7661 16.5C22.7661 22.1864 18.1128 26.8125 12.3931 26.8125C6.67342 26.8125 2.02009 22.1864 2.02009 16.5C2.02009 10.8136 6.67342 6.1875 12.3931 6.1875ZM17.2125 31.5379C17.1706 31.7875 16.9555 31.9688 16.7009 31.9688H8.08532C7.83072 31.9688 7.61555 31.7875 7.57373 31.5379L7.30021 29.9062H17.486L17.2125 31.5379ZM18.3783 28.875C17.0737 28.875 7.71163 28.875 6.40787 28.875C6.21992 28.875 6.05908 28.7414 6.02543 28.5571L5.46795 25.509C9.55906 28.6247 15.2304 28.6221 19.3182 25.509L18.7608 28.5572C18.7271 28.7414 18.5662 28.875 18.3783 28.875ZM23.3552 21.6015C23.5407 21.7078 23.6044 21.9447 23.4975 22.1293L22.8493 23.2455C22.7415 23.4311 22.5037 23.4939 22.3176 23.3869L21.7118 23.039C22.1101 22.4795 22.4585 21.8825 22.7511 21.2549L23.3552 21.6015ZM24.8407 17.6602C24.8407 17.8734 24.6662 18.0469 24.4517 18.0469H23.6969C23.8388 17.0168 23.8391 15.985 23.6969 14.9531H24.4517C24.6662 14.9531 24.8407 15.1266 24.8407 15.3398V17.6602Z" fill="#016F3F"/>
<path d="M12.0264 16.8646C12.229 17.0659 12.5573 17.0659 12.7598 16.8646L16.909 12.7396C17.1116 12.5381 17.1116 12.2118 16.909 12.0103C16.7065 11.8091 16.3781 11.8091 16.1756 12.0103L12.3931 15.7708L10.1666 13.5572C9.9641 13.3559 9.63573 13.3559 9.4332 13.5572C9.2306 13.7586 9.2306 14.085 9.4332 14.2864L12.0264 16.8646Z" fill="#016F3F"/>
</svg>
