<svg width="22" height="29" viewBox="0 0 22 29" fill="none" xmlns="http://www.w3.org/2000/svg">
<path d="M9.96924 22.2031C14.2168 22.2031 17.6724 18.7475 17.6724 14.5C17.6724 10.2525 14.2168 6.79688 9.96924 6.79688C5.7217 6.79688 2.26611 10.2525 2.26611 14.5C2.26611 18.7475 5.7217 22.2031 9.96924 22.2031ZM9.51611 7.71859V8.60937C9.51611 8.85961 9.719 9.0625 9.96924 9.0625C10.2195 9.0625 10.4224 8.85961 10.4224 8.60937V7.71859C13.8098 7.94271 16.5265 10.6594 16.7507 14.0469H15.8599C15.6096 14.0469 15.4067 14.2498 15.4067 14.5C15.4067 14.7502 15.6096 14.9531 15.8599 14.9531H16.7507C16.5265 18.3406 13.8098 21.0573 10.4224 21.2814V20.3906C10.4224 20.1404 10.2195 19.9375 9.96924 19.9375C9.719 19.9375 9.51611 20.1404 9.51611 20.3906V21.2814C6.12866 21.0573 3.41195 18.3406 3.18783 14.9531H4.07861C4.32885 14.9531 4.53174 14.7502 4.53174 14.5C4.53174 14.2498 4.32885 14.0469 4.07861 14.0469H3.18783C3.4119 10.6594 6.12861 7.94266 9.51611 7.71859Z" fill="white"/>
<path d="M20.5042 12.2344H19.678C19.5932 11.8709 19.4879 11.5152 19.3644 11.1681L19.9986 10.802C20.5937 10.4592 20.7987 9.6958 20.4554 9.09988L19.8889 8.11881C19.5445 7.52227 18.7832 7.31831 18.1864 7.66302L17.5479 8.03181C17.4097 7.87004 17.2663 7.71281 17.1181 7.56022L16.4239 3.74225C16.3247 3.196 15.8792 2.78864 15.3388 2.72759L15.0735 1.13581C14.9638 0.477707 14.3998 0 13.7326 0H6.20553C5.53824 0 4.97433 0.477707 4.86467 1.13587L4.59937 2.72759C4.0589 2.78864 3.61348 3.196 3.51425 3.74213L2.82 7.56016C-0.942974 11.4355 -0.937027 17.5705 2.82 21.4398L3.51425 25.2577C3.61348 25.8039 4.0589 26.2113 4.59937 26.2724L4.86467 27.8641C4.97433 28.5223 5.53824 29 6.20553 29H13.7326C14.3999 29 14.9638 28.5223 15.0735 27.8641L15.3388 26.2724C15.8792 26.2113 16.3247 25.8039 16.4239 25.2578L17.1181 21.4398C17.2663 21.2872 17.4097 21.13 17.548 20.9682C18.1858 21.3366 18.3916 21.5047 18.808 21.5047C19.2381 21.5047 19.6569 21.2831 19.889 20.8811L20.4556 19.8997C20.7987 19.3042 20.5937 18.5408 19.9989 18.1981L19.3644 17.8319C19.4879 17.4848 19.5932 17.1291 19.678 16.7656H20.5042C21.1913 16.7656 21.7503 16.2066 21.7503 15.5195V13.4805C21.7503 12.7934 21.1913 12.2344 20.5042 12.2344ZM18.6397 8.44778C18.8014 8.35415 19.0096 8.4083 19.1041 8.57194L19.6703 9.55255C19.7639 9.71511 19.7083 9.92332 19.5459 10.0169L19.0184 10.3213C18.7627 9.76977 18.4584 9.24517 18.1104 8.75347L18.6397 8.44778ZM5.75857 1.28489C5.79516 1.06552 5.9831 0.90625 6.20553 0.90625H13.7326C13.955 0.90625 14.143 1.06552 14.1796 1.28489L14.4185 2.71875H5.51961L5.75857 1.28489ZM4.74001 3.625H15.1981C15.3623 3.625 15.5029 3.74242 15.5323 3.90435L16.0193 6.583C12.4451 3.84499 7.49019 3.84726 3.91883 6.583L4.40588 3.90424C4.43528 3.74242 4.57581 3.625 4.74001 3.625ZM9.96907 5.4375C14.9661 5.4375 19.0316 9.50288 19.0316 14.5C19.0316 19.4971 14.9661 23.5625 9.96907 23.5625C4.97201 23.5625 0.906569 19.4971 0.906569 14.5C0.906569 9.50288 4.97201 5.4375 9.96907 5.4375ZM14.1796 27.7151C14.143 27.9345 13.955 28.0938 13.7326 28.0938H6.20553C5.9831 28.0938 5.79511 27.9345 5.75857 27.7151L5.51961 26.2812H14.4185L14.1796 27.7151ZM15.1981 25.375C14.0583 25.375 5.87905 25.375 4.74001 25.375C4.57581 25.375 4.43528 25.2576 4.40588 25.0956L3.91883 22.417C7.49308 25.155 12.4479 25.1527 16.0193 22.417L15.5323 25.0958C15.5028 25.2576 15.3623 25.375 15.1981 25.375ZM19.5462 18.9832C19.7083 19.0766 19.764 19.2848 19.6706 19.4469L19.1042 20.4279C19.01 20.591 18.8023 20.6461 18.6397 20.5521L18.1104 20.2464C18.4585 19.7547 18.7628 19.2301 19.0185 18.6785L19.5462 18.9832ZM20.8441 15.5195C20.8441 15.707 20.6916 15.8594 20.5042 15.8594H19.8448C19.9687 14.9541 19.969 14.0474 19.8448 13.1406H20.5042C20.6916 13.1406 20.8441 13.293 20.8441 13.4805V15.5195Z" fill="white"/>
<path d="M9.64881 14.8204C9.82581 14.9974 10.1126 14.9973 10.2896 14.8204L13.9146 11.1954C14.0916 11.0184 14.0916 10.7316 13.9146 10.5546C13.7376 10.3777 13.4508 10.3777 13.2738 10.5546L9.96922 13.8592L8.02402 11.9139C7.84707 11.7371 7.56019 11.7371 7.38324 11.9139C7.20624 12.0909 7.20624 12.3778 7.38324 12.5548L9.64881 14.8204Z" fill="white"/>
</svg>
