<svg xmlns="http://www.w3.org/2000/svg" width="46.98" height="46.978" viewBox="0 0 46.98 46.978">
  <path id="Icon_awesome-facebook-messenger" data-name="Icon awesome-facebook-messenger" d="M24.1.563C10.841.563.563,10.256.563,23.349A22.27,22.27,0,0,0,7.957,40.2c.791.711.628,1.123.762,5.515a1.887,1.887,0,0,0,2.641,1.664c5.012-2.207,5.076-2.381,5.926-2.15,14.519,4,30.257-5.3,30.257-21.884C47.543,10.256,37.369.563,24.1.563ZM38.24,18.1,31.326,29.044a3.54,3.54,0,0,1-5.106.941l-5.5-4.117a1.421,1.421,0,0,0-1.7,0L11.59,31.5A1.117,1.117,0,0,1,9.97,30.013l6.914-10.947a3.539,3.539,0,0,1,5.106-.941l5.5,4.116a1.421,1.421,0,0,0,1.7,0l7.427-5.624A1.114,1.114,0,0,1,38.24,18.1Z" transform="translate(-0.563 -0.563)" fill="#006df0"/>
</svg>
