<svg xmlns="http://www.w3.org/2000/svg" xmlns:xlink="http://www.w3.org/1999/xlink" width="67.99" height="80" viewBox="0 0 67.99 80">
  <defs>
    <clipPath id="clip-path">
      <path id="Path_19" data-name="Path 19" d="M340.346,278.746a25.417,25.417,0,0,1-32.636,38.308,28.864,28.864,0,0,0,37.531-43.625Z" transform="translate(-307.71 -273.43)" fill="none"/>
    </clipPath>
    <linearGradient id="linear-gradient" x1="-0.369" y1="2.956" x2="-0.365" y2="2.956" gradientUnits="objectBoundingBox">
      <stop offset="0" stop-color="#b18435"/>
      <stop offset="0.03" stop-color="#b48835"/>
      <stop offset="0.06" stop-color="#ba8c38"/>
      <stop offset="0.28" stop-color="#f9c25e"/>
      <stop offset="0.43" stop-color="#f9c25e"/>
      <stop offset="0.58" stop-color="#cd9b4a"/>
      <stop offset="0.63" stop-color="#c59448"/>
      <stop offset="0.75" stop-color="#9d793a"/>
      <stop offset="0.84" stop-color="#9d793a"/>
      <stop offset="0.98" stop-color="#a87e3e"/>
      <stop offset="1" stop-color="#af8240"/>
    </linearGradient>
    <clipPath id="clip-path-2">
      <path id="Path_20" data-name="Path 20" d="M349.1,319.795l.024-2.365c-.125-.561.167-.823.766-.8.656.036,1.317,0,1.975,0a8.574,8.574,0,0,1,3.4.4c.624.253.63.493.241.957a6.33,6.33,0,0,1-5.8,2.359h-.064a.555.555,0,0,1-.553-.559m-10.966-15.513a1.973,1.973,0,0,0-1.969,1.975v2.188a.338.338,0,0,0,.338.338h1.79a.338.338,0,0,0,.338-.34v-1.01a.754.754,0,0,1,.28-.6,1.818,1.818,0,0,1,1.219-.386q2.258.018,4.517,0c1.8,0,3.6,0,5.406.014a7.09,7.09,0,0,1,7.018,7.649c-.093.784-.169,1.319-1.243.833a9.036,9.036,0,0,0-4.27-.483c-.539.026-1.078.052-1.613.04-3.015-.056-3.017-.014-3.017,3v4.216c0,.354-.1.831.479.81s1.167,0,1.754.012a9.559,9.559,0,0,0,4.827-.694,8.307,8.307,0,0,0,3.26-2.6c.555-.811.859-.567,1.35,0a6.5,6.5,0,0,1-.014,8.341,6.733,6.733,0,0,1-5.648,2.818c-2.025-.062-4.051-.012-6.076-.012-2.273,0-4.548-.024-6.82.01a1.376,1.376,0,0,1-1.392-1.372l-.02-15.712a.34.34,0,0,0-.34-.34H336.5a.34.34,0,0,0-.338.34v17.279a1.973,1.973,0,0,0,1.975,1.975h15.372a9.311,9.311,0,0,0,8.124-5.951,8.389,8.389,0,0,0-2.029-9.445,1.576,1.576,0,0,1-.583-1.78,9.139,9.139,0,0,0-8.95-11.127c-.724-.012-2.293-.016-4.139-.016-2.586,0-5.7,0-7.808.01" transform="translate(-336.16 -304.25)" fill="none"/>
    </clipPath>
    <linearGradient id="linear-gradient-2" x1="-0.844" y1="4.917" x2="-0.836" y2="4.917" xlink:href="#linear-gradient"/>
    <clipPath id="clip-path-3">
      <path id="Path_21" data-name="Path 21" d="M361.339,348c-.909,0-1.094.33-1.08,1.156.044,2.647.016,1.732.016,4.375h0c0,2.689.032,5.37-.018,8.063-.016.853.215,1.128,1.1,1.12q6.635-.062,13.271,0c.9,0,1.084-.308,1.1-1.138.016-.889-.276-1.108-1.13-1.1-1.573.02-3.148.018-4.721.016-2.023,0-4.045,0-6.068.042-1.124.024-1.36-.312-1.344-1.392.062-4.507,0-5.453.044-9.958.01-.895-.2-1.207-1.118-1.207h-.046" transform="translate(-360.256 -347.98)" fill="none"/>
    </clipPath>
    <linearGradient id="linear-gradient-3" x1="-1.767" y1="8.863" x2="-1.754" y2="8.863" xlink:href="#linear-gradient"/>
    <clipPath id="clip-path-4">
      <rect id="Rectangle_7" data-name="Rectangle 7" width="15.936" height="2.233" rx="1.117" fill="none"/>
    </clipPath>
    <linearGradient id="linear-gradient-4" x1="-1.419" y1="59.906" x2="-1.407" y2="59.906" xlink:href="#linear-gradient"/>
    <clipPath id="clip-path-5">
      <path id="Path_22" data-name="Path 22" d="M248.27,259.33a28.77,28.77,0,0,0,8.371,20.326l4.9-5.316a25.419,25.419,0,0,1,32.63-38.309,28.864,28.864,0,0,0-45.9,23.3" transform="translate(-248.27 -230.466)" fill="none"/>
    </clipPath>
    <linearGradient id="linear-gradient-5" x1="-0.112" y1="3.131" x2="-0.107" y2="3.131" xlink:href="#linear-gradient"/>
  </defs>
  <g id="Cty_Bảo_Lộc_Logo_done" data-name="Cty Bảo Lộc Logo done" transform="translate(0.01 0)">
    <path id="Path_1" data-name="Path 1" d="M256.447,204.69a33.995,33.995,0,1,0,33.993,33.994,34,34,0,0,0-33.993-33.994m29.784,54.931a3.694,3.694,0,0,1,.672-.056,1.1,1.1,0,0,1,.784.221.676.676,0,0,1,.215.515.712.712,0,0,1-.511.692v.012a.678.678,0,0,1,.4.547,4.556,4.556,0,0,0,.2.746h-.362a3.7,3.7,0,0,1-.181-.648c-.08-.374-.225-.515-.543-.527h-.33V262.3h-.35Zm.35,1.235h.358c.374,0,.613-.2.613-.515,0-.35-.255-.5-.625-.505a1.461,1.461,0,0,0-.346.032Zm.428,3.011a2.753,2.753,0,1,1,2.753-2.753,2.753,2.753,0,0,1-2.753,2.753m0-5.171a2.418,2.418,0,1,0,2.416,2.416,2.418,2.418,0,0,0-2.416-2.416m-30.562,10.73A30.743,30.743,0,1,1,287.2,238.682a30.742,30.742,0,0,1-30.749,30.744" transform="translate(-222.46 -204.69)" fill="#092169"/>
    <path id="Path_2" data-name="Path 2" d="M269.577,221a30.752,30.752,0,1,1-.007,0" transform="translate(-235.59 -217.756)" fill="#fff"/>
    <path id="Path_3" data-name="Path 3" d="M545.256,482a1.468,1.468,0,0,0-.346.032v.995h.358c.374,0,.613-.2.613-.515,0-.35-.255-.5-.625-.505" transform="translate(-480.789 -426.846)" fill="#fff"/>
    <path id="Path_4" data-name="Path 4" d="M537.31,476.25a2.418,2.418,0,1,0,2.417,2.416,2.418,2.418,0,0,0-2.417-2.416m.626,3.6a3.7,3.7,0,0,1-.181-.648c-.079-.374-.225-.515-.543-.527h-.33v1.176h-.35v-2.677a3.7,3.7,0,0,1,.672-.056,1.106,1.106,0,0,1,.784.221.677.677,0,0,1,.215.515.712.712,0,0,1-.511.692v.012a.678.678,0,0,1,.4.547,4.553,4.553,0,0,0,.2.746Z" transform="translate(-472.762 -422.242)" fill="#fff"/>
    <path id="Path_5" data-name="Path 5" d="M236.985,573.563a1.692,1.692,0,0,1-1.008-.269,1.439,1.439,0,0,1-.531-.76,3.684,3.684,0,0,1-.159-1.143v-2.1a3.673,3.673,0,0,1,.163-1.163,1.381,1.381,0,0,1,.569-.752,2.009,2.009,0,0,1,1.106-.264,2.148,2.148,0,0,1,1.066.225,1.288,1.288,0,0,1,.563.636,2.55,2.55,0,0,1,.171.976v.366h-1.249v-.437a2.612,2.612,0,0,0-.032-.438.5.5,0,0,0-.143-.3.51.51,0,0,0-.36-.109.465.465,0,0,0-.372.133.647.647,0,0,0-.149.336,3.071,3.071,0,0,0-.03.44v2.784a2.289,2.289,0,0,0,.046.473.6.6,0,0,0,.175.324.532.532,0,0,0,.368.117.526.526,0,0,0,.372-.123.659.659,0,0,0,.183-.338,2.123,2.123,0,0,0,.05-.485v-.666h-.613v-.776h1.77v3.22H238.1l-.078-.567a1.132,1.132,0,0,1-.372.473A1.076,1.076,0,0,1,236.985,573.563Z" transform="translate(-232.743 -495.028)" fill="#27115a"/>
    <path id="Path_6" data-name="Path 6" d="M261.948,565.482a2.107,2.107,0,0,1-1.108-.245,1.291,1.291,0,0,1-.555-.706,3.465,3.465,0,0,1-.159-1.12v-4.3h1.265v4.473a2.942,2.942,0,0,0,.034.459.725.725,0,0,0,.155.364.457.457,0,0,0,.368.139.473.473,0,0,0,.378-.139.705.705,0,0,0,.151-.364,3.5,3.5,0,0,0,.03-.459v-4.475h1.265v4.3a3.467,3.467,0,0,1-.159,1.12,1.291,1.291,0,0,1-.555.706A2.113,2.113,0,0,1,261.948,565.482Zm0-6.762-.4-.38a3.144,3.144,0,0,0,.384-.213.314.314,0,0,0,.159-.277.221.221,0,0,0-.123-.217.727.727,0,0,0-.326-.062,1.943,1.943,0,0,0-.237.016,1.06,1.06,0,0,0-.221.038v-.5a3,3,0,0,1,.752-.093,1.374,1.374,0,0,1,.461.073.722.722,0,0,1,.342.237.683.683,0,0,1,.127.434.741.741,0,0,1-.127.444.993.993,0,0,1-.338.294,3.15,3.15,0,0,1-.455.207Zm1.032.885v-.489h.078a.342.342,0,0,0,.326-.163.994.994,0,0,0,.093-.481h.829a1.034,1.034,0,0,1-.342.849,1.372,1.372,0,0,1-.907.284Z" transform="translate(-252.643 -486.956)" fill="#27115a"/>
    <path id="Path_7" data-name="Path 7" d="M285.36,573.793V567.51h1.273v6.283Z" transform="translate(-272.858 -495.352)" fill="#27115a"/>
    <path id="Path_8" data-name="Path 8" d="M309.976,573.793v-5.328H309v-.955h3.212v.955h-.955v5.328Z" transform="translate(-291.797 -495.352)" fill="#27115a"/>
    <path id="Path_9" data-name="Path 9" d="M330.37,573.789v-6.283H332a3.645,3.645,0,0,1,1.09.143,1.275,1.275,0,0,1,.7.509,1.791,1.791,0,0,1,.243,1.008,3.214,3.214,0,0,1-.066.686,1.318,1.318,0,0,1-.233.519,1.155,1.155,0,0,1-.469.354l.869,3.063H332.82l-.722-2.846h-.449v2.846Zm1.279-3.6h.372a.992.992,0,0,0,.489-.1.555.555,0,0,0,.253-.306,1.5,1.5,0,0,0,.074-.509,1.163,1.163,0,0,0-.153-.674.672.672,0,0,0-.6-.229h-.437Z" transform="translate(-308.917 -495.349)" fill="#27115a"/>
    <path id="Path_10" data-name="Path 10" d="M356.562,573.557a2.088,2.088,0,0,1-1.094-.249,1.373,1.373,0,0,1-.577-.71,3.091,3.091,0,0,1-.175-1.1v-2.343a3.078,3.078,0,0,1,.175-1.1,1.345,1.345,0,0,1,.577-.7,2.613,2.613,0,0,1,2.2,0,1.363,1.363,0,0,1,.583.7,3.087,3.087,0,0,1,.173,1.1v2.343a3.135,3.135,0,0,1-.173,1.1,1.374,1.374,0,0,1-.583.71A2.116,2.116,0,0,1,356.562,573.557Zm0-.923a.508.508,0,0,0,.366-.113.557.557,0,0,0,.155-.3,2.025,2.025,0,0,0,.038-.4v-2.979a1.986,1.986,0,0,0-.038-.4.566.566,0,0,0-.155-.3.507.507,0,0,0-.366-.114.48.48,0,0,0-.348.114.567.567,0,0,0-.155.3,2,2,0,0,0-.04.4v2.971a2.192,2.192,0,0,0,.036.4.54.54,0,0,0,.151.3A.493.493,0,0,0,356.562,572.635Zm-.511,2.4v-1.024h1.04v1.024Z" transform="translate(-328.42 -495.031)" fill="#27115a"/>
    <path id="Path_11" data-name="Path 11" d="M380,573.793V567.51h.893l1.392,3.274V567.51h1.054v6.283h-.853l-1.392-3.474v3.474Z" transform="translate(-348.676 -495.352)" fill="#27115a"/>
    <path id="Path_12" data-name="Path 12" d="M416,573.793V567.51h.893l1.392,3.274V567.51h1.056v6.283h-.853l-1.392-3.474v3.474Z" transform="translate(-377.517 -495.352)" fill="#27115a"/>
    <path id="Path_13" data-name="Path 13" d="M440,573.793V567.51h1.273v6.283Z" transform="translate(-396.743 -495.352)" fill="#27115a"/>
    <path id="Path_14" data-name="Path 14" d="M453.57,564.3v-6.283h2.737v.893h-1.458v1.667h1.126v.893h-1.126v1.969h1.474v.869Zm.161-6.81.722-1.273h.994l.738,1.273h-.839l-.4-.776-.388.776Zm2.476-.891-.668-.939h.9l.41.939Z" transform="translate(-407.615 -485.859)" fill="#27115a"/>
    <path id="Path_15" data-name="Path 15" d="M472.87,573.793l.109-6.283h1.356l.776,3.964.829-3.964h1.313l.107,6.283h-.931l-.1-4.258-.8,4.258h-.8l-.847-4.29-.086,4.29Z" transform="translate(-423.076 -495.352)" fill="#27115a"/>
    <path id="Path_16" data-name="Path 16" d="M513.19,573.793v-5.328h-.971v-.955h3.212v.955h-.955v5.328Z" transform="translate(-454.6 -495.352)" fill="#27115a"/>
    <path id="Path_17" data-name="Path 17" d="M533.63,573.793V567.51H534.9v6.283Z" transform="translate(-471.752 -495.352)" fill="#27115a"/>
    <path id="Path_18" data-name="Path 18" d="M547.16,573.793V567.51h.893l1.392,3.274V567.51h1.064v6.283h-.853l-1.392-3.474v3.474Z" transform="translate(-482.591 -495.352)" fill="#27115a"/>
    <g id="Group_1" data-name="Group 1" transform="translate(16.947 13.671)" clip-path="url(#clip-path)">
      <rect id="Rectangle_3" data-name="Rectangle 3" width="45.902" height="49.187" transform="translate(-0.002 0)" fill="url(#linear-gradient)"/>
    </g>
    <g id="Group_2" data-name="Group 2" transform="translate(22.605 19.801)" clip-path="url(#clip-path-2)">
      <rect id="Rectangle_4" data-name="Rectangle 4" width="26.807" height="28.327" transform="translate(0.006 0.03)" fill="url(#linear-gradient-2)"/>
    </g>
    <g id="Group_3" data-name="Group 3" transform="translate(27.397 28.498)" clip-path="url(#clip-path-3)">
      <rect id="Rectangle_5" data-name="Rectangle 5" width="15.501" height="14.733" transform="translate(-0.019 0.018)" fill="url(#linear-gradient-3)"/>
    </g>
    <g id="Group_4" data-name="Group 4" transform="translate(22.613 25.333)" clip-path="url(#clip-path-4)">
      <rect id="Rectangle_6" data-name="Rectangle 6" width="15.936" height="2.233" transform="translate(-0.002 0)" fill="url(#linear-gradient-4)"/>
    </g>
    <g id="Group_5" data-name="Group 5" transform="translate(5.125 5.126)" clip-path="url(#clip-path-5)">
      <rect id="Rectangle_8" data-name="Rectangle 8" width="45.902" height="49.187" transform="translate(-0.002 0.001)" fill="url(#linear-gradient-5)"/>
    </g>
  </g>
</svg>
