<svg width="44" height="44" viewBox="0 0 44 44" fill="none" xmlns="http://www.w3.org/2000/svg"><path d="M0 22C0 9.84974 9.84974 0 22 0V0C34.1503 0 44 9.84974 44 22V22C44 34.1503 34.1503 44 22 44V44C9.84974 44 0 34.1503 0 22V22Z" fill="#F9E7DC"></path><mask id="mask0" mask-type="alpha" maskUnits="userSpaceOnUse" x="0" y="0" width="44" height="44"><circle cx="22" cy="22" r="22" fill="#C4C4C4"></circle></mask><g mask="url(#mask0)"><path d="M21.892 12.2015C21.892 13.8764 20.5482 15.2341 18.8904 15.2341C17.2328 15.2341 15.8887 13.8764 15.8887 12.2015C15.8887 10.5269 17.2328 9.16919 18.8904 9.16919C20.5482 9.16919 21.892 10.5269 21.892 12.2015Z" fill="#FFB69E"></path><path d="M21.8887 12.3441C21.9103 11.8948 21.8331 11.4335 21.6439 10.9929C20.9843 9.45645 19.2166 8.75146 17.6958 9.41785C16.5184 9.934 15.8347 11.1213 15.892 12.3441H21.8887Z" fill="#16884A"></path><path d="M23.6455 12.3571L19.585 12.3453C19.5886 11.5371 20.2398 10.8847 21.0398 10.8881L23.6516 10.8993C24.0501 10.9009 24.3719 11.2288 24.3702 11.6314C24.3685 12.034 24.044 12.3588 23.6455 12.3571Z" fill="#074B1F"></path><path d="M22.8288 36.8333C21.9706 36.4343 21.5948 35.4079 21.9897 34.5409C21.9897 34.5409 23.3903 30.8798 23.3903 29.1689C23.3903 27.4581 15.8728 29.1124 15.8728 29.1124C14.9391 28.967 14.2989 28.084 14.4431 27.1407C14.5871 26.1973 15.4605 25.5505 16.3948 25.6963L25.7701 26.1022C26.8957 26.2779 27.6323 27.4935 27.1588 28.5328L25.0977 35.9859C24.702 36.8551 23.6849 37.2314 22.8288 36.8333Z" fill="#074B1F"></path><path d="M34.6639 31.2907C35.017 26.6036 30.7579 24.6866 30.7579 24.6866L29.4005 21.275H30.7269C31.387 21.275 31.9478 20.7292 31.9356 20.0622C31.9234 19.4154 31.4009 18.8948 30.7579 18.8948H27.9182C27.646 18.8948 27.3768 18.9781 27.1636 19.1485C26.7909 19.4459 26.6372 19.9268 26.7483 20.3744L30.7919 36.4839L30.9008 36.9841H23.378C22.0904 33.254 18.5786 30.5773 14.4475 30.5773C9.62344 30.5773 5.64316 34.2267 5.06387 38.9421C4.98551 39.5788 5.4784 40.1412 6.11363 40.1412H30.9908C31.3399 40.1412 31.642 40.3865 31.7171 40.7309C31.7924 41.0756 32.0945 41.3209 32.4437 41.3209H39.1543C39.7959 41.3209 40.3176 40.8028 40.332 40.1582C40.3323 40.1459 40.3325 40.1328 40.3325 40.1219C40.3325 36.1929 38.0018 32.8036 34.6639 31.2907Z" fill="#DB6D2E"></path><path d="M19.4872 40.1311C19.4872 42.9429 17.231 45.2222 14.4481 45.2222C11.6651 45.2222 9.40918 42.9429 9.40918 40.1311C9.40918 37.3195 11.6651 35.0403 14.4481 35.0403C17.231 35.0403 19.4872 37.3195 19.4872 40.1311Z" fill="#545454"></path><path d="M16.1122 40.1287C16.1122 41.0575 15.367 41.8104 14.4477 41.8104C13.5284 41.8104 12.7832 41.0575 12.7832 40.1287C12.7832 39.2002 13.5284 38.4474 14.4477 38.4474C15.367 38.4474 16.1122 39.2002 16.1122 40.1287Z" fill="white"></path><path d="M14.4193 28.7317C10.36 27.4274 13.9949 18.4302 14.4193 17.7119C14.8437 16.9936 15.304 15.8777 16.3712 15.3413C17.0111 15.0197 17.4436 14.9427 18.1582 14.9427C18.8729 14.9427 19.3054 15.0197 19.9453 15.3413C21.0125 15.8777 21.541 16.595 21.8972 17.7119C22.2534 18.8288 22.7372 24.9029 21.8972 25.9304C21.0572 26.9579 20.6625 27.2569 19.5776 27.8547C18.4926 28.4526 16.366 29.3572 14.4193 28.7317Z" fill="#16884A"></path><path d="M36.6611 40.1311C36.6611 42.9429 34.4051 45.2222 31.6222 45.2222C28.839 45.2222 26.583 42.9429 26.583 40.1311C26.583 37.3195 28.839 35.0403 31.6222 35.0403C34.4051 35.0403 36.6611 37.3195 36.6611 40.1311Z" fill="#545454"></path><path d="M33.2857 40.1287C33.2857 41.0575 32.5406 41.8104 31.6215 41.8104C30.7022 41.8104 29.957 41.0575 29.957 40.1287C29.957 39.2002 30.7022 38.4474 31.6215 38.4474C32.5406 38.4474 33.2857 39.2002 33.2857 40.1287Z" fill="white"></path><path d="M26.8886 22L21.9708 22.0472C21.7462 22.0201 21.3886 22 21.3886 22C21.3886 22 17.722 21.3888 17.1106 20.1666C16.4992 18.9444 16.0597 17.7685 16.4994 17.111C16.9389 16.4536 18.905 16.6671 19.5555 17.1111C19.5555 17.1111 20.5969 18.8205 22.6108 19.5555C24.4666 20.2328 26.8886 20.1666 26.8886 20.1666C27.6684 20.2609 29.0029 20.6515 28.9098 21.439C28.8171 22.2212 27.6742 22.0945 26.8886 22Z" fill="#FFB69E"></path><path d="M20.6554 18.0271C20.4651 17.4924 18.9441 16.5 18.3033 16.4219C17.6626 16.3438 16.5877 16.4219 16.3293 16.8082C15.8895 17.4657 15.8891 18.3332 16.5 19.5554C16.5 19.5554 17.7497 21.419 18.3335 21.3888C18.9173 21.3585 20.8457 18.5618 20.6554 18.0271Z" fill="#39AE96"></path><rect x="3.6665" y="18.3333" width="9.77778" height="11" rx="2" fill="#DB6D2E"></rect><path d="M15.2779 28.7221C19.2124 28.2302 21.057 28.456 21.057 30.0503C21.057 31.6445 18.5913 31.3456 13.364 31.6445C8.1368 31.9434 4.88844 31.1664 5.49988 29.9443C6.86692 27.212 10.389 29.3332 15.2779 28.7221Z" fill="#EDB697"></path></g></svg>