<svg width="36" height="36" fill="none" xmlns="http://www.w3.org/2000/svg"><rect x="1" y="1" width="34" height="34" rx="6.8" fill="#AEDECF"></rect><path d="M3 18h30V8.95A5.95 5.95 0 0 0 27.05 3H8.95A5.95 5.95 0 0 0 3 8.95V18z" fill="#16884A"></path><path d="M9.857 29.188c1.73 0 3.003-1.02 3.218-2.551h-1.198c-.215.875-.994 1.428-2.02 1.428-1.396 0-2.266-1.133-2.266-2.938 0-1.81.87-2.943 2.261-2.943 1.02 0 1.8.612 2.025 1.563h1.198c-.194-1.579-1.515-2.686-3.223-2.686-2.154 0-3.491 1.553-3.491 4.066 0 2.509 1.343 4.061 3.496 4.061zm8.105-8.127c-2.223 0-3.62 1.558-3.62 4.061 0 2.498 1.37 4.066 3.62 4.066 2.245 0 3.61-1.574 3.61-4.066 0-2.497-1.375-4.06-3.61-4.06zm0 1.123c1.472 0 2.38 1.139 2.38 2.938 0 1.789-.908 2.943-2.38 2.943-1.487 0-2.39-1.154-2.39-2.943 0-1.8.93-2.938 2.39-2.938zm5.237-.934V29h2.799c2.31 0 3.646-1.423 3.646-3.9 0-2.438-1.348-3.85-3.646-3.85h-2.799zm1.203 1.095h1.461c1.606 0 2.557 1.02 2.557 2.772 0 1.777-.935 2.787-2.557 2.787h-1.46v-5.559z" fill="#1D5251"></path><path d="M5.25 8.65a1.7 1.7 0 0 1 1.7-1.7H26.5a1.7 1.7 0 0 1 1.7 1.7V18H5.25V8.65z" fill="#EEB300"></path><path d="M6.95 9.5c0-.47.38-.85.85-.85h17.85c.47 0 .85.38.85.85V18H6.95V9.5z" fill="#FFEDBE"></path><path d="M12.05 12.05c0-.47.38-.85.85-.85h17.85c.47 0 .85.38.85.85V18H12.05v-5.95z" fill="#EEB300"></path><path d="M13.75 13.75c0-.47.38-.85.85-.85h14.45c.47 0 .85.38.85.85V18H13.75v-4.25z" fill="#FFF4D7"></path></svg>