<svg width="44" height="44" viewBox="0 0 44 44" fill="none" xmlns="http://www.w3.org/2000/svg"><path d="M0 22C0 9.84974 9.84974 0 22 0V0C34.1503 0 44 9.84974 44 22V22C44 34.1503 34.1503 44 22 44V44C9.84974 44 0 34.1503 0 22V22Z" fill="#F9E7DC"></path><mask id="mask0" mask-type="alpha" maskUnits="userSpaceOnUse" x="0" y="0" width="44" height="44"><circle cx="22" cy="22" r="22" fill="#C4C4C4"></circle></mask><g mask="url(#mask0)"><path d="M31.9446 26.9358V43.1014C31.9431 43.5964 31.6052 43.9985 31.1879 43.9992H10.7567C10.3394 43.9977 10.0015 43.5964 10 43.1014V26.9358L12.8376 18.521C12.9512 18.1806 13.2284 17.956 13.5375 17.9552H28.5397L31.9446 26.9358Z" fill="#E49262"></path><path d="M31.9446 26.9358V43.1014C31.9431 43.5964 31.6052 43.9984 31.1878 43.9992H25.5127V26.9358H31.9446Z" fill="#DB6D2E"></path><path d="M31.9446 26.9358H25.5127L28.5396 17.9552L31.9446 26.9358Z" fill="#DF8048"></path><path d="M28.5397 17.9552L25.5127 26.9358H10L12.8376 18.521C12.9512 18.1806 13.2284 17.956 13.5375 17.9552H28.5397Z" fill="#E79F74"></path><path d="M21.7042 23.793H15.8836C15.5018 23.793 15.1458 23.5653 14.936 23.1876C14.7262 22.8091 14.6898 22.3316 14.8405 21.9151C15.1178 21.1474 15.7533 20.6494 16.457 20.6494H22.2776C22.6586 20.6494 23.0154 20.8771 23.2252 21.2548C23.4351 21.6325 23.4714 22.1108 23.3207 22.5266C23.0442 23.2949 22.4079 23.793 21.7042 23.793Z" fill="#545454"></path><path d="M11.5132 39.9586C11.3042 39.9586 11.1353 39.7576 11.1353 39.5093V28.7323C11.1353 28.484 11.3042 28.283 11.5132 28.283C11.7223 28.283 11.892 28.484 11.892 28.7323V39.5093C11.8912 39.7576 11.7223 39.9586 11.5132 39.9586Z" fill="#E0834D"></path><path d="M11.5132 42.6529C11.3042 42.6529 11.1353 42.4518 11.1353 42.2043V41.3057C11.1353 41.0575 11.3042 40.8564 11.5132 40.8564C11.7223 40.8564 11.892 41.0575 11.892 41.3057V42.2036C11.8912 42.4518 11.7223 42.6529 11.5132 42.6529Z" fill="#E0834D"></path><path d="M38.0001 14.0418V19.2765C38.0001 19.8522 37.5357 20.3182 36.9638 20.3182H35.0655C34.4929 20.3182 34.0293 19.8514 34.0293 19.2765V14.0418C34.0293 13.4668 34.4929 13 35.0655 13H36.9631C37.5357 13 38.0001 13.4668 38.0001 14.0418Z" fill="#16884A"></path><path d="M34.0227 13.8735V19.2361H32.432C31.8487 19.2369 31.3768 19.7121 31.3753 20.2984C31.3738 21.5481 30.3663 22.5617 29.1225 22.5632H27.4962C27.2894 22.5632 27.0894 22.6325 26.9265 22.7597L22.7959 25.99C22.1028 26.5322 21.1037 26.4073 20.5643 25.7106C20.0712 25.0732 20.1265 24.1677 20.6954 23.5973L25.2259 19.0427C25.4842 18.783 25.485 18.3619 25.2259 18.1022C25.1017 17.9765 24.9328 17.9065 24.7578 17.9065H14.7778C14.7778 17.9065 15.9618 16.123 16.9465 15.3615C17.9313 14.6 19.3735 13.9108 20.2053 13.8742C21.037 13.8377 34.0227 13.8735 34.0227 13.8735Z" fill="#FFB69E"></path></g></svg>