<svg xmlns="http://www.w3.org/2000/svg" viewBox="0 0 446.85 420.56"><defs><style>.cls-1{fill:#fff;}</style></defs><title>Asset 1</title><g id="Layer_2" data-name="Layer 2"><g id="Capa_1" data-name="Capa 1"><path class="cls-1" d="M444.27,80.21a14.32,14.32,0,0,0-11.14-6.12l-277.19-12a14.34,14.34,0,0,0-1.23,28.65l258.42,11.14L362.32,260.46H136.21L95.35,38a14.31,14.31,0,0,0-8.86-10.75L19.59,1A14.34,14.34,0,0,0,9.1,27.68L68.59,51.05l41.57,226.34a14.34,14.34,0,0,0,14.1,11.75h6.9l-15.75,43.74a12,12,0,0,0,11.24,16h11a43,43,0,1,0,63.93,0h93.78a43,43,0,1,0,63.93,0h13.44a12,12,0,0,0,0-23.9H143.65l12.9-35.84H372.77a14.34,14.34,0,0,0,13.66-10L446.16,92.78A14.27,14.27,0,0,0,444.27,80.21ZM169.66,396.67a19.12,19.12,0,1,1,19.12-19.12A19.14,19.14,0,0,1,169.66,396.67Zm157.71,0a19.12,19.12,0,1,1,19.12-19.12A19.14,19.14,0,0,1,327.37,396.67Z"/></g></g></svg>