<svg width="21" height="20" viewBox="0 0 21 20" fill="none" xmlns="http://www.w3.org/2000/svg">
<path d="M20.4016 7.8722V8.82641C20.4016 9.1246 20.2028 9.32339 19.9245 9.32339C19.6263 9.32339 19.4474 9.1246 19.4474 8.78665C19.4474 7.87221 19.4474 6.95776 19.4474 6.02343V4.57224C19.4474 3.31984 18.6721 2.52467 17.4197 2.52467H17.2209C17.0618 2.52467 16.9227 2.52467 16.7835 2.52467C16.6245 2.52467 16.5052 2.56443 16.4058 2.64395C16.2667 2.7831 16.2667 2.96202 16.2866 3.02165C16.2866 3.20057 16.2866 3.41924 16.2667 3.63791C16.2468 3.89634 16.048 4.07526 15.7896 4.07526C15.5311 4.07526 15.3522 3.89634 15.3125 3.63791C15.2926 3.41924 15.2926 3.20057 15.2926 3.00178C15.2926 2.94214 15.2926 2.7831 15.1733 2.64395C15.054 2.50479 14.8751 2.50479 14.8155 2.50479C13.6227 2.50479 12.5691 2.50479 11.6149 2.50479C11.5553 2.50479 11.3764 2.50479 11.2571 2.64395C11.1179 2.80298 11.1179 2.9819 11.1179 3.04153C11.1179 3.18069 11.1179 3.31984 11.1179 3.459V3.5584C11.1179 3.87646 10.939 4.07526 10.6607 4.09514C10.3824 4.09514 10.1836 3.87646 10.1637 3.59815C10.1637 3.41924 10.1637 3.22045 10.1637 3.02165C10.1637 2.96202 10.1637 2.80298 10.0445 2.66383C9.92518 2.52467 9.74627 2.52467 9.68663 2.52467C8.61315 2.52467 7.53966 2.52467 6.5457 2.52467C6.48606 2.52467 6.30715 2.52467 6.18787 2.66383C6.06859 2.80298 6.06859 2.96202 6.06859 3.02165C6.06859 3.24033 6.06859 3.41924 6.06859 3.59815C6.04872 3.89634 5.84992 4.11502 5.57161 4.09514C5.23366 4.09514 5.11439 3.81683 5.11439 3.5584C5.11439 3.49876 5.11439 3.43912 5.13427 3.3596C5.15415 3.14093 5.1939 2.82286 4.95535 2.62407C4.75656 2.46503 4.49813 2.48491 4.27946 2.50479C4.19994 2.50479 4.1403 2.52467 4.08066 2.50479C3.16622 2.50479 2.5102 2.86262 2.13249 3.57827C1.99334 3.83671 1.9337 4.1349 1.9337 4.47284V6.87824C1.9337 10.0788 1.9337 13.2993 1.9337 16.4998C1.9337 17.6329 2.72887 18.4281 3.88187 18.4281C5.81016 18.4281 7.75834 18.4281 9.68663 18.4281C10.0047 18.4281 10.124 18.5474 10.1836 18.6667C10.2631 18.8257 10.283 18.9847 10.1836 19.1438C10.1041 19.3028 9.94506 19.3823 9.74627 19.3823C9.38844 19.3823 9.01073 19.3823 8.67278 19.3823C8.51375 19.3823 8.35471 19.3823 8.19568 19.3823H6.86377C5.84992 19.3823 4.83608 19.3823 3.82223 19.3823C2.47044 19.3823 1.31744 18.4679 1.03913 17.1757C0.999371 16.9769 0.979492 16.7384 0.979492 16.4799C0.979492 14.9691 0.979492 13.4583 0.979492 11.9475V8.70714C0.979492 7.2957 0.979492 5.86439 0.979492 4.43308C0.979492 3.08129 1.89394 1.92829 3.1861 1.6301C3.5638 1.55059 3.96139 1.55059 4.37885 1.57047H4.55777C4.67704 1.57047 4.83608 1.57047 4.97523 1.43131C5.11439 1.29215 5.09451 1.07348 5.09451 1.01384C5.09451 0.894569 5.09451 0.775293 5.09451 0.656017V0.536741C5.09451 0.238552 5.27342 0.0397586 5.55173 0.0198793C5.81016 0.0198793 6.04872 0.218672 6.06859 0.516862C6.08847 0.715655 6.06859 0.914448 6.06859 1.11324C6.06859 1.17288 6.06859 1.33191 6.18787 1.47107C6.30715 1.59034 6.48606 1.59034 6.52582 1.59034C7.57942 1.59034 8.63303 1.59034 9.70651 1.59034C9.76615 1.59034 9.92518 1.59034 10.0445 1.47107C10.1637 1.33191 10.1637 1.17288 10.1637 1.11324C10.1637 0.934327 10.1637 0.755414 10.1637 0.556621C10.1637 0.238552 10.3824 0.0198793 10.6607 0.0198793C10.9987 0 11.1179 0.27831 11.1179 0.536741C11.1179 0.596379 11.1179 0.656017 11.1179 0.735534C11.0981 0.954207 11.0583 1.23252 11.2571 1.43131C11.4758 1.6301 11.7541 1.61022 11.9727 1.57047C12.0324 1.57047 12.1119 1.55059 12.1517 1.55059C12.5691 1.55059 12.9667 1.55059 13.3842 1.55059C13.8414 1.55059 14.2986 1.55059 14.7757 1.55059C14.895 1.55059 15.054 1.53071 15.1733 1.41143C15.3125 1.27228 15.2926 1.07348 15.2926 1.01384C15.2727 0.834931 15.2926 0.636138 15.2926 0.496983C15.3125 0.198793 15.4914 0 15.7697 0C16.048 0 16.2269 0.198793 16.2468 0.516862C16.2468 0.675896 16.2667 0.85481 16.2468 0.993965C16.2468 1.0536 16.2269 1.2524 16.3661 1.39155C16.4854 1.53071 16.6643 1.55059 16.7835 1.55059C16.8829 1.55059 16.9625 1.55059 17.0618 1.55059C17.3998 1.55059 17.698 1.55059 18.0161 1.59034C19.3281 1.78914 20.3817 2.96202 20.4016 4.25417C20.4016 5.46681 20.4016 6.69933 20.4016 7.8722Z" fill="#004FA8"/>
<path d="M15.9697 10.5566H15.9299C13.5245 10.5566 11.5565 12.5247 11.5167 14.9698C11.4969 16.1228 11.9541 17.2361 12.789 18.0909C13.6239 18.9457 14.7372 19.4228 15.9101 19.4228C17.0829 19.4228 18.2161 18.9855 19.051 18.1505C19.9058 17.3156 20.363 16.2024 20.3829 15.0295C20.4028 12.5645 18.4347 10.5765 15.9697 10.5566ZM18.3552 17.4746C17.6992 18.1108 16.8444 18.4487 15.9498 18.4487C15.9101 18.4487 15.8902 18.4487 15.8703 18.4487C14.0016 18.409 12.4709 16.7987 12.5107 14.95C12.5107 14.4729 12.63 14.0156 12.8089 13.5982C12.9878 13.1807 13.2462 12.803 13.5842 12.4849C14.2402 11.8488 15.1149 11.5108 16.0095 11.5307C17.9179 11.5705 19.4685 13.1608 19.4287 15.0692C19.4088 15.9837 19.0311 16.8385 18.3552 17.4746Z" fill="#004FA8"/>
<path d="M6.0483 11.3121C6.0483 11.4313 5.98867 11.5506 5.88927 11.65C5.78987 11.7494 5.6706 11.809 5.55132 11.809C5.29289 11.809 5.07422 11.5904 5.07422 11.3121C5.07422 11.0338 5.27301 10.835 5.55132 10.835C5.82963 10.835 6.0483 11.0536 6.0483 11.3121Z" fill="#004FA8"/>
<path d="M9.44786 14.7115C9.44786 14.8506 9.38822 14.95 9.3087 15.0494C9.22919 15.1488 9.10991 15.1886 8.97076 15.1886C8.71232 15.1886 8.49365 14.9699 8.49365 14.7115C8.49365 14.5922 8.53341 14.453 8.63281 14.3735C8.7322 14.2741 8.85148 14.2344 8.97076 14.2344C9.22919 14.2344 9.44786 14.453 9.44786 14.7115Z" fill="#004FA8"/>
<path d="M9.44772 11.3121C9.44772 11.5705 9.22905 11.809 8.97062 11.809C8.85134 11.809 8.73206 11.7693 8.63267 11.6699C8.53327 11.5705 8.47363 11.4512 8.47363 11.3121C8.47363 11.0536 8.6923 10.835 8.95074 10.835C9.24893 10.835 9.44772 11.0338 9.44772 11.3121Z" fill="#004FA8"/>
<path d="M6.0483 14.7118C6.0483 14.8311 5.98867 14.9504 5.88927 15.0498C5.78987 15.1492 5.6706 15.2088 5.53144 15.1889C5.27301 15.1889 5.07422 14.9703 5.07422 14.6919C5.07422 14.4335 5.29289 14.2148 5.55132 14.2148C5.82963 14.2347 6.0483 14.4534 6.0483 14.7118Z" fill="#004FA8"/>
<path d="M6.04893 7.91167C6.04893 8.1701 5.83026 8.38878 5.57183 8.38878C5.3134 8.38878 5.09473 8.18998 5.09473 7.93155C5.09473 7.65324 5.29352 7.45445 5.55195 7.43457H5.57183C5.69111 7.43457 5.83026 7.49421 5.92966 7.57372C6.00917 7.67312 6.04893 7.7924 6.04893 7.91167Z" fill="#004FA8"/>
<path d="M9.44737 7.91202C9.44737 8.17045 9.2287 8.36925 8.97027 8.36925C8.71184 8.36925 8.49316 8.15057 8.49316 7.89214C8.49316 7.77287 8.5528 7.63371 8.63232 7.55419C8.73172 7.47468 8.85099 7.41504 8.97027 7.41504H8.99015C9.24858 7.43492 9.44737 7.65359 9.44737 7.91202Z" fill="#004FA8"/>
<path d="M12.8473 7.91167C12.8473 8.18998 12.6286 8.38878 12.3702 8.38878C12.1117 8.38878 11.8931 8.1701 11.8931 7.91167C11.8931 7.7924 11.9328 7.67312 12.0322 7.57372C12.1316 7.47433 12.2509 7.43457 12.39 7.43457C12.6485 7.43457 12.8473 7.63336 12.8473 7.91167Z" fill="#004FA8"/>
<path d="M16.2472 7.91167C16.2472 8.18998 16.0484 8.38878 15.79 8.38878C15.6707 8.38878 15.5315 8.34902 15.4321 8.24962C15.3327 8.15022 15.293 8.03095 15.293 7.91167C15.293 7.65324 15.5116 7.43457 15.7701 7.43457C15.9092 7.43457 16.0285 7.49421 16.108 7.57372C16.1875 7.65324 16.2472 7.77252 16.2472 7.91167Z" fill="#004FA8"/>
<path d="M17.48 15.267C17.4005 15.3863 17.2812 15.4459 17.142 15.4459C16.8438 15.4658 16.5258 15.4459 16.2276 15.4459H16.0089C15.671 15.4459 15.492 15.267 15.4722 14.9291C15.4722 14.7501 15.4722 14.5911 15.4722 14.4122C15.4722 14.3327 15.4722 14.2532 15.4722 14.1538V13.9351C15.4722 13.7761 15.4722 13.5971 15.4722 13.4381C15.4722 13.1002 15.671 12.9014 15.9692 12.9014C16.2475 12.9014 16.4264 13.1002 16.4264 13.458C16.4264 13.4977 16.4264 13.5574 16.4264 13.617C16.4264 13.7363 16.4264 13.8556 16.4264 13.955C16.4264 14.0146 16.4065 14.2134 16.5457 14.3526C16.6649 14.4917 16.8637 14.5116 16.9432 14.5116H16.9631C17.3806 14.5116 17.48 14.6905 17.5396 14.8694C17.5993 15.0086 17.5794 15.1477 17.48 15.267Z" fill="#004FA8"/>
</svg>
