<svg width="17" height="16" viewBox="0 0 17 16" fill="none" xmlns="http://www.w3.org/2000/svg">
<path d="M15.6131 11.6815C15.1488 11.315 12.4256 9.69197 11.973 9.76647C11.7605 9.80197 11.5979 9.97247 11.1628 10.461C10.9616 10.7014 10.7406 10.9266 10.5019 11.1345C10.0646 11.035 9.64126 10.8873 9.24074 10.6945C7.66998 9.97471 6.40101 8.78004 5.63673 7.30147C5.4318 6.9245 5.27488 6.52607 5.16923 6.11447C5.39009 5.88981 5.62936 5.68184 5.88483 5.49247C6.40333 5.08297 6.58502 4.93097 6.62274 4.72997C6.70189 4.30297 4.97586 1.74096 4.58805 1.30396C4.42548 1.12296 4.2778 1.00146 4.08867 1.00146C3.54042 1.00146 1.06055 3.88747 1.06055 4.26147C1.06055 4.29197 1.11367 7.29647 5.14533 11.157C9.24711 14.9515 12.4394 15.0015 12.4718 15.0015C12.8692 15.0015 15.9355 12.6675 15.9355 12.1515C15.9355 11.9735 15.8065 11.8345 15.6131 11.6815Z" fill="white"/>
<path d="M12.2172 7.5004H13.2791C13.2778 6.44057 12.8299 5.42449 12.0336 4.67508C11.2374 3.92566 10.1578 3.50412 9.03174 3.50293V4.5023C9.87632 4.50309 10.6861 4.81922 11.2833 5.3813C11.8805 5.94338 12.2164 6.7055 12.2172 7.5004Z" fill="white"/>
<path d="M14.8755 7.50293H15.938C15.9359 5.77963 15.2076 4.12748 13.9129 2.90893C12.6181 1.69037 10.8627 1.00491 9.03174 1.00293V2.00293C10.581 2.00465 12.0664 2.58467 13.1619 3.61574C14.2574 4.64682 14.8737 6.04477 14.8755 7.50293Z" fill="white"/>
</svg>
