<svg width="21" height="20" viewBox="0 0 21 20" fill="none" xmlns="http://www.w3.org/2000/svg">
<path d="M0.535156 6.89615V15.5942C0.535156 16.9218 1.62903 18 2.97597 18H18.0943C19.4413 18 20.5352 16.9218 20.5352 15.5942V6.89615C20.5352 5.63289 19.4943 4.60699 18.2127 4.60699H14.9637L14.8862 4.27307C14.5719 2.93337 13.376 2 11.9801 2H9.08618C7.69434 2 6.49842 2.93337 6.18005 4.27307L6.1025 4.60699H2.85761C1.57597 4.60699 0.535156 5.63691 0.535156 6.89615ZM6.5025 5.59266C6.73516 5.59266 6.93516 5.43576 6.98822 5.21046L7.15556 4.49434C7.36781 3.60523 8.15965 2.98567 9.08618 2.98567H11.9801C12.9066 2.98567 13.6984 3.60523 13.9107 4.49434L14.078 5.21046C14.1311 5.43173 14.3311 5.59266 14.5637 5.59266H18.2086C18.9392 5.59266 19.5311 6.17601 19.5311 6.89615V15.5942C19.5311 16.3787 18.8862 17.0143 18.0903 17.0143H2.97597C2.18005 17.0143 1.53516 16.3787 1.53516 15.5942V6.89615C1.53516 6.17601 2.12699 5.59266 2.85761 5.59266H6.5025Z" fill="#828282"/>
<path d="M3.74951 7.99414C4.02565 7.99414 4.24951 7.77028 4.24951 7.49414C4.24951 7.218 4.02565 6.99414 3.74951 6.99414C3.47337 6.99414 3.24951 7.218 3.24951 7.49414C3.24951 7.77028 3.47337 7.99414 3.74951 7.99414Z" fill="#828282"/>
<circle cx="10.5352" cy="11" r="3.5" stroke="#828282"/>
</svg>
