<svg width="32" height="30" viewBox="0 0 32 30" fill="none" xmlns="http://www.w3.org/2000/svg">
<path d="M12.0207 28.3568C12.7125 28.3568 13.2733 27.796 13.2733 27.1042C13.2733 26.4124 12.7125 25.8516 12.0207 25.8516C11.3289 25.8516 10.7681 26.4124 10.7681 27.1042C10.7681 27.796 11.3289 28.3568 12.0207 28.3568Z" stroke="#004FA8" stroke-width="3" stroke-linecap="round" stroke-linejoin="round"/>
<path d="M25.7995 28.3568C26.4913 28.3568 27.0521 27.796 27.0521 27.1042C27.0521 26.4124 26.4913 25.8516 25.7995 25.8516C25.1077 25.8516 24.5469 26.4124 24.5469 27.1042C24.5469 27.796 25.1077 28.3568 25.7995 28.3568Z" stroke="#004FA8" stroke-width="3" stroke-linecap="round" stroke-linejoin="round"/>
<path d="M2 2.05273H7.01042L10.3674 18.8251C10.4819 19.4018 10.7957 19.9198 11.2537 20.2885C11.7117 20.6572 12.2848 20.8531 12.8726 20.8418H25.0479C25.6358 20.8531 26.2089 20.6572 26.6669 20.2885C27.1249 19.9198 27.4386 19.4018 27.5531 18.8251L29.5573 8.31576H8.26303" stroke="#004FA8" stroke-width="3" stroke-linecap="round" stroke-linejoin="round"/>
</svg>
