<svg width="27" height="26" viewBox="0 0 27 26" fill="none" xmlns="http://www.w3.org/2000/svg">
<path d="M10.3816 23.9995C10.9602 23.9995 11.4292 23.5305 11.4292 22.9519C11.4292 22.3733 10.9602 21.9043 10.3816 21.9043C9.80302 21.9043 9.33398 22.3733 9.33398 22.9519C9.33398 23.5305 9.80302 23.9995 10.3816 23.9995Z" stroke="white" stroke-width="3" stroke-linecap="round" stroke-linejoin="round"/>
<path d="M21.905 23.9995C22.4836 23.9995 22.9527 23.5305 22.9527 22.9519C22.9527 22.3733 22.4836 21.9043 21.905 21.9043C21.3265 21.9043 20.8574 22.3733 20.8574 22.9519C20.8574 23.5305 21.3265 23.9995 21.905 23.9995Z" stroke="white" stroke-width="3" stroke-linecap="round" stroke-linejoin="round"/>
<path d="M2 2H6.19047L8.99809 16.0276C9.09389 16.5099 9.35628 16.9432 9.73932 17.2515C10.1224 17.5599 10.6017 17.7237 11.0933 17.7143H21.2762C21.7678 17.7237 22.2471 17.5599 22.6302 17.2515C23.0132 16.9432 23.2756 16.5099 23.3714 16.0276L25.0476 7.23809H7.23809" stroke="white" stroke-width="3" stroke-linecap="round" stroke-linejoin="round"/>
</svg>
