<svg width="21" height="21" viewBox="0 0 21 21" fill="none" xmlns="http://www.w3.org/2000/svg">
<path d="M2.75451e-05 10.4806C0.0131527 4.67267 4.74478 -0.0261409 10.5395 0.000109454C16.3343 0.0263598 21.0134 4.7383 21.0003 10.5199C20.9872 16.3213 16.2556 21.0266 10.4608 21.0004C4.66603 20.9741 -0.0130976 16.2622 2.75451e-05 10.4806ZM10.5067 0.918872C5.21072 0.918872 0.925352 5.19112 0.91879 10.474C0.912227 15.7897 5.17791 20.0751 10.4805 20.0816C15.7896 20.0882 20.075 15.8159 20.0815 10.5134C20.0815 5.20424 15.8093 0.918872 10.5067 0.918872Z" fill="#004FA8"/>
<path d="M10.9598 8.20319C10.9598 8.76101 10.9795 9.31883 10.9532 9.87665C10.9401 10.1982 11.032 10.4213 11.2617 10.651C12.7317 12.1014 14.1886 13.5648 15.6455 15.0217C15.7308 15.107 15.8227 15.1923 15.8817 15.2908C15.9933 15.4811 15.9605 15.6714 15.7964 15.8224C15.6455 15.9667 15.4617 15.993 15.2845 15.888C15.1861 15.8289 15.1008 15.737 15.0155 15.6517C13.4601 14.103 11.9114 12.5476 10.356 10.9989C10.1329 10.7757 10.0279 10.5395 10.0345 10.2179C10.0476 8.96445 10.041 7.70444 10.041 6.45098C10.041 6.37223 10.0345 6.30004 10.041 6.22129C10.0607 5.91941 10.2379 5.72254 10.4939 5.71597C10.7629 5.70941 10.9598 5.91285 10.9664 6.23442C10.9664 6.89068 10.9598 7.54694 10.9598 8.20319Z" fill="#004FA8"/>
<path d="M10.9599 2.85457C10.9599 3.18926 10.7828 3.41239 10.5071 3.41895C10.2184 3.42551 10.0346 3.18926 10.0412 2.83488C10.0477 2.50019 10.2315 2.28362 10.5137 2.29018C10.7893 2.29675 10.9665 2.51987 10.9599 2.85457Z" fill="#004FA8"/>
<path d="M5.63745 5.1973C5.63089 5.43356 5.39464 5.65012 5.15838 5.637C4.909 5.61731 4.56775 5.26293 4.57431 5.01355C4.58087 4.76417 4.804 4.56073 5.05338 4.58042C5.30932 4.59355 5.64401 4.94792 5.63745 5.1973Z" fill="#004FA8"/>
<path d="M16.4259 5.0337C16.4193 5.28307 16.078 5.63089 15.8287 5.63745C15.5924 5.64402 15.3627 5.41433 15.3693 5.17807C15.3758 4.90901 15.7433 4.56119 16.0058 4.58088C16.2355 4.58744 16.4324 4.79744 16.4259 5.0337Z" fill="#004FA8"/>
<path d="M2.86839 10.9597C2.52713 10.9662 2.31057 10.7956 2.29744 10.5134C2.28432 10.2312 2.50088 10.0409 2.82901 10.0343C3.18339 10.0278 3.41964 10.2115 3.41964 10.4937C3.41964 10.7759 3.20308 10.9597 2.86839 10.9597Z" fill="#004FA8"/>
<path d="M18.1584 10.0412C18.4931 10.0478 18.7097 10.2315 18.7097 10.5071C18.7097 10.7828 18.4865 10.9665 18.1518 10.9665C17.804 10.9665 17.5743 10.7696 17.5874 10.4809C17.594 10.2053 17.8237 10.0346 18.1584 10.0412Z" fill="#004FA8"/>
<path d="M5.63732 15.8417C5.62419 16.1108 5.24356 16.4455 4.98762 16.4258C4.75137 16.4061 4.56761 16.1961 4.58074 15.9599C4.59387 15.7039 4.94824 15.3627 5.19762 15.3692C5.42731 15.3692 5.65044 15.6055 5.63732 15.8417Z" fill="#004FA8"/>
<path d="M10.9597 18.1454C10.9597 18.4867 10.789 18.7033 10.5069 18.7098C10.2247 18.7164 10.0409 18.4998 10.0343 18.1651C10.0278 17.8107 10.2181 17.5811 10.5003 17.5811C10.7825 17.5876 10.9597 17.8042 10.9597 18.1454Z" fill="#004FA8"/>
</svg>
