<svg width="21" height="20" viewBox="0 0 21 20" fill="none" xmlns="http://www.w3.org/2000/svg">
<path fill-rule="evenodd" clip-rule="evenodd" d="M15.961 15.3536C15.7657 15.5488 15.4491 15.5488 15.2539 15.3536L6.25387 6.35355C6.05861 6.15829 6.05861 5.84171 6.25387 5.64645C6.44913 5.45118 6.76571 5.45118 6.96098 5.64645L15.961 14.6464C16.1562 14.8417 16.1562 15.1583 15.961 15.3536Z" fill="#828282"/>
<path fill-rule="evenodd" clip-rule="evenodd" d="M6.25387 15.3536C6.05861 15.1583 6.05861 14.8417 6.25387 14.6464L15.2539 5.64645C15.4491 5.45118 15.7657 5.45118 15.961 5.64645C16.1562 5.84171 16.1562 6.15829 15.961 6.35355L6.96098 15.3536C6.76571 15.5488 6.44913 15.5488 6.25387 15.3536Z" fill="#828282"/>
</svg>
