<svg width="17" height="17" viewBox="0 0 17 17" fill="none" xmlns="http://www.w3.org/2000/svg">
<path d="M8.5 17C3.80923 17 0.00808754 13.1989 0 8.5081C0 3.80924 3.81732 -0.00807471 8.50809 1.28273e-05C13.2069 0.00810036 17 3.81733 17 8.5081C16.9919 13.1989 13.1908 17 8.5 17ZM6.38107 8.00667C6.86632 8.00667 7.35157 7.99859 7.83682 8.00667C7.96622 8.00667 8.00666 7.97432 8.00666 7.83683C7.99857 7.10896 7.99857 6.38108 8.00666 5.66129C8.00666 5.51571 7.97431 5.46719 7.82065 5.46719C6.97146 5.45101 6.11418 5.40249 5.27307 5.28926C5.15176 5.27309 5.1275 5.32161 5.10324 5.42675C4.91722 6.21933 4.82826 7.02808 4.77973 7.84492C4.77165 7.97432 4.804 8.01476 4.94148 8.01476C5.41865 7.99859 5.89581 8.00667 6.38107 8.00667ZM10.6028 8.00667C11.0799 8.00667 11.5652 7.99859 12.0423 8.00667C12.196 8.00667 12.2284 7.95815 12.2203 7.81257C12.1717 7.02808 12.0909 6.25168 11.921 5.48336C11.8887 5.3297 11.8321 5.28926 11.6865 5.30544C10.8454 5.41057 9.99619 5.45101 9.15509 5.4591C9.02569 5.4591 9.00143 5.50762 9.00143 5.62894C9.00952 6.3649 9.00952 7.09278 9.00143 7.82875C9.00143 7.98241 9.05804 7.99859 9.18744 7.99859C9.64843 7.99859 10.1256 8.00667 10.6028 8.00667ZM2.38582 8.00667C2.79829 8.00667 3.21075 7.99859 3.61513 8.00667C3.73644 8.00667 3.77688 7.96624 3.78497 7.84492C3.80923 6.97956 3.91437 6.12228 4.10847 5.27309C4.13273 5.15986 4.10038 5.11942 3.99524 5.09516C3.38868 4.98193 2.78211 4.85253 2.19172 4.66652C2.11085 4.64226 2.05423 4.65035 2.00571 4.73931C1.45576 5.69364 1.14034 6.72884 1.02712 7.82066C1.01094 7.95815 1.04329 8.00667 1.18887 8.00667C1.58516 7.99859 1.98953 8.00667 2.38582 8.00667ZM10.6189 8.99335C10.1337 8.99335 9.64843 8.99335 9.16318 8.99335C9.04995 8.99335 8.99334 9.00953 8.99334 9.14702C9.00143 9.87489 9.00143 10.6028 8.99334 11.3226C8.99334 11.4277 9.0176 11.4843 9.13892 11.4843C10.0124 11.4924 10.8777 11.5571 11.7431 11.6542C11.8402 11.6622 11.8725 11.6299 11.8968 11.5409C12.0909 10.7564 12.1717 9.94768 12.2203 9.13893C12.2284 9.0257 12.196 8.98526 12.0747 8.98526C11.5894 9.00144 11.1042 8.99335 10.6189 8.99335ZM14.598 8.00667C14.9943 8.00667 15.3906 7.99859 15.795 8.00667C15.9405 8.00667 15.9891 7.97432 15.9729 7.82066C15.8597 6.7531 15.5604 5.74216 15.0266 4.80401C14.9781 4.71505 14.9215 4.69078 14.8325 4.72313C14.2422 4.90915 13.6356 5.03046 13.0209 5.12751C12.8996 5.15177 12.8673 5.19221 12.8996 5.31352C13.0856 6.14654 13.1908 6.99573 13.215 7.84492C13.215 7.97432 13.2716 7.99859 13.3849 7.99859C13.7892 7.99859 14.1936 8.00667 14.598 8.00667ZM14.6061 8.99335C14.1936 8.99335 13.7812 8.99335 13.3768 8.99335C13.2716 8.99335 13.215 9.00953 13.215 9.13084C13.1908 9.99621 13.0775 10.8454 12.8915 11.6865C12.8673 11.7836 12.8915 11.824 12.9886 11.8402C13.6194 11.9534 14.2422 12.0828 14.8487 12.285C14.9215 12.3092 14.9781 12.2931 15.0186 12.2203C15.5685 11.2659 15.8758 10.2307 15.981 9.13084C15.9891 9.01761 15.9567 8.99335 15.8435 8.99335C15.431 9.00144 15.0186 8.99335 14.6061 8.99335ZM6.39724 8.99335C5.91199 8.99335 5.42674 8.99335 4.94148 8.99335C4.82826 8.99335 4.77165 9.00953 4.77973 9.14702C4.82826 9.94768 4.90913 10.7483 5.10324 11.5247C5.1275 11.6137 5.15176 11.6542 5.2569 11.638C6.12226 11.5328 6.99572 11.4924 7.86917 11.4762C7.99049 11.4762 8.01475 11.4358 8.01475 11.3226C8.00666 10.5947 8.00666 9.86681 8.01475 9.13893C8.01475 9.0257 7.9824 8.98526 7.86917 8.98526C7.36775 9.00144 6.88249 8.99335 6.39724 8.99335ZM2.41009 8.99335C1.99762 8.99335 1.58516 9.00144 1.18078 8.99335C1.05947 8.99335 1.01903 9.0257 1.02712 9.1551C1.13225 10.2227 1.43149 11.2336 1.95718 12.1718C2.00571 12.2607 2.05423 12.2688 2.1432 12.2365C2.74167 12.0585 3.35633 11.921 3.97098 11.824C4.10038 11.7997 4.13273 11.7593 4.10847 11.6299C3.92245 10.813 3.81732 9.98812 3.79305 9.1551C3.79305 9.03379 3.74453 8.99335 3.62322 8.99335C3.21884 9.00144 2.81446 8.99335 2.41009 8.99335ZM8.99334 2.76595C8.99334 3.28355 8.99334 3.80115 8.99334 4.31876C8.99334 4.39963 8.98525 4.48051 9.11465 4.47242C9.89914 4.44007 10.6755 4.40772 11.46 4.33493C11.5652 4.32684 11.5814 4.28641 11.549 4.18936C11.2659 3.42104 10.9182 2.68507 10.3925 2.05425C10.0528 1.64987 9.66461 1.30211 9.15509 1.11609C9.02569 1.06757 9.00143 1.09992 9.00143 1.22932C8.99334 1.74692 8.99334 2.25644 8.99334 2.76595ZM8.00666 14.1855C8.00666 13.6679 8.00666 13.1503 8.00666 12.6327C8.00666 12.5276 7.99857 12.471 7.86917 12.4791C7.10086 12.4953 6.33254 12.5519 5.56423 12.6166C5.451 12.6247 5.42674 12.6651 5.46717 12.7702C5.75024 13.5305 6.098 14.2583 6.62369 14.8892C6.95528 15.2935 7.34348 15.6332 7.84491 15.8192C7.97431 15.8678 8.01475 15.8597 8.01475 15.706C7.99857 15.1965 8.00666 14.687 8.00666 14.1855ZM8.00666 2.77404C8.00666 2.27261 7.99857 1.7631 8.00666 1.26167C8.00666 1.11609 7.99049 1.06757 7.83682 1.13227C7.57802 1.23741 7.33539 1.37489 7.12512 1.55282C6.2921 2.25644 5.83111 3.20268 5.45909 4.19744C5.41056 4.32684 5.49952 4.31067 5.57231 4.31876C6.32445 4.39963 7.08468 4.43198 7.83682 4.47242C7.97431 4.48051 8.00666 4.44007 8.00666 4.31067C7.99857 3.79307 8.00666 3.28355 8.00666 2.77404ZM8.99334 15.8597C9.24405 15.8111 9.43815 15.706 9.61608 15.5847C10.6189 14.8892 11.1204 13.8459 11.5409 12.746C11.5814 12.6489 11.5167 12.6408 11.452 12.6327C10.6755 12.56 9.90723 12.5033 9.13083 12.4791C8.99334 12.471 8.99334 12.5438 8.99334 12.6408C8.99334 13.1584 8.99334 13.676 8.99334 14.1936C8.99334 14.7436 8.99334 15.2935 8.99334 15.8597ZM5.7745 15.4634C5.16794 14.6708 4.75547 13.7893 4.44006 12.8592C4.40771 12.7541 4.33492 12.7702 4.26213 12.7864C3.7607 12.8754 3.25928 12.9724 2.75785 13.1018C2.62036 13.1342 2.63654 13.1746 2.70932 13.2717C3.04091 13.676 3.41294 14.04 3.81732 14.3635C4.40771 14.8326 5.04662 15.2046 5.7745 15.4634ZM11.2255 15.4634C12.471 14.9862 13.5062 14.226 14.3473 13.1827C13.8054 13.0209 13.2716 12.9077 12.746 12.8107C12.6166 12.7864 12.568 12.8188 12.5276 12.9401C12.3335 13.5143 12.0909 14.0723 11.7916 14.598C11.6218 14.8973 11.4196 15.1803 11.2255 15.4634ZM11.274 1.53664C11.2902 1.57708 11.2902 1.60134 11.2983 1.60943C11.8644 2.36157 12.2607 3.1865 12.5599 4.07613C12.6004 4.18936 12.6651 4.17318 12.754 4.16509C13.2312 4.08422 13.7084 3.98717 14.1775 3.87394C14.323 3.84159 14.3554 3.80924 14.2502 3.67984C13.676 3.00049 13.0128 2.44245 12.2445 1.99763C11.9372 1.81971 11.6218 1.66605 11.274 1.53664ZM5.71789 1.56899C4.50476 2.0219 3.5019 2.76595 2.66889 3.77689C3.21884 3.92247 3.73644 4.04378 4.25404 4.14083C4.37536 4.16509 4.41579 4.11657 4.45623 4.01143C4.68268 3.34825 4.96575 2.70934 5.34586 2.11086C5.47526 1.92485 5.59657 1.74692 5.71789 1.56899Z" fill="white"/>
</svg>
