<svg width="23" height="23" viewBox="0 0 23 23" fill="none" xmlns="http://www.w3.org/2000/svg">
<path d="M22.4219 9.08811V10.1897C22.4219 10.5339 22.1924 10.7634 21.8711 10.7634C21.5269 10.7634 21.3203 10.5339 21.3203 10.1438C21.3203 9.08811 21.3203 8.03242 21.3203 6.95378V5.27845C21.3203 3.83261 20.4253 2.91462 18.9795 2.91462H18.75C18.5664 2.91462 18.4057 2.91462 18.2451 2.91462C18.0615 2.91462 17.9238 2.96052 17.809 3.05232C17.6484 3.21297 17.6484 3.41952 17.6713 3.48837C17.6713 3.69491 17.6713 3.94736 17.6484 4.19981C17.6254 4.49816 17.3959 4.70471 17.0976 4.70471C16.7992 4.70471 16.5927 4.49816 16.5468 4.19981C16.5238 3.94736 16.5238 3.69492 16.5238 3.46542C16.5238 3.39657 16.5238 3.21297 16.3861 3.05232C16.2484 2.89167 16.0419 2.89167 15.973 2.89167C14.5961 2.89167 13.3797 2.89167 12.2781 2.89167C12.2093 2.89167 12.0027 2.89167 11.865 3.05232C11.7044 3.23592 11.7044 3.44247 11.7044 3.51132C11.7044 3.67197 11.7044 3.83261 11.7044 3.99326V4.10801C11.7044 4.47521 11.4978 4.70471 11.1765 4.72766C10.8552 4.72766 10.6257 4.47521 10.6028 4.15391C10.6028 3.94736 10.6028 3.71786 10.6028 3.48837C10.6028 3.41952 10.6028 3.23592 10.4651 3.07527C10.3274 2.91462 10.1209 2.91462 10.052 2.91462C8.81272 2.91462 7.57343 2.91462 6.42594 2.91462C6.35709 2.91462 6.15054 2.91462 6.01284 3.07527C5.87514 3.23592 5.87514 3.41952 5.87514 3.48837C5.87514 3.74081 5.87514 3.94736 5.87514 4.15391C5.85219 4.49816 5.6227 4.75061 5.3014 4.72766C4.91125 4.72766 4.77355 4.40636 4.77355 4.10801C4.77355 4.03916 4.77355 3.97031 4.7965 3.87851C4.81945 3.62607 4.86535 3.25887 4.58996 3.02937C4.36046 2.84577 4.06211 2.86872 3.80966 2.89167C3.71786 2.89167 3.64902 2.91462 3.58017 2.89167C2.52448 2.89167 1.76713 3.30477 1.33109 4.13096C1.17044 4.42931 1.10159 4.77355 1.10159 5.1637V7.94062C1.10159 11.6355 1.10159 15.3534 1.10159 19.0483C1.10159 20.3565 2.01958 21.2744 3.35067 21.2744C5.5768 21.2744 7.82588 21.2744 10.052 21.2744C10.4192 21.2744 10.5569 21.4121 10.6257 21.5498C10.7175 21.7334 10.7405 21.917 10.6257 22.1006C10.534 22.2842 10.3504 22.376 10.1209 22.376C9.70776 22.376 9.27171 22.376 8.88157 22.376C8.69797 22.376 8.51437 22.376 8.33077 22.376H6.79314C5.6227 22.376 4.45226 22.376 3.28182 22.376C1.72123 22.376 0.390146 21.3203 0.0688494 19.8286C0.0229498 19.5991 0 19.3237 0 19.0254C0 17.2812 0 15.537 0 13.7928V10.052C0 8.42257 0 6.77019 0 5.1178C0 3.55722 1.05569 2.22613 2.54743 1.88188C2.98347 1.79008 3.44247 1.79008 3.92441 1.81303H4.13096C4.26866 1.81303 4.45226 1.81303 4.61291 1.65238C4.77356 1.49174 4.75061 1.23929 4.75061 1.17044C4.75061 1.03274 4.75061 0.895041 4.75061 0.757343V0.619644C4.75061 0.275397 4.95715 0.0458996 5.27845 0.0229498C5.5768 0.0229498 5.85219 0.252448 5.87514 0.596694C5.89809 0.826192 5.87514 1.05569 5.87514 1.28519C5.87514 1.35404 5.87514 1.53764 6.01284 1.69828C6.15054 1.83598 6.35709 1.83598 6.40299 1.83598C7.61933 1.83598 8.83567 1.83598 10.075 1.83598C10.1438 1.83598 10.3274 1.83598 10.4651 1.69828C10.6028 1.53764 10.6028 1.35404 10.6028 1.28519C10.6028 1.07864 10.6028 0.872092 10.6028 0.642594C10.6028 0.275397 10.8552 0.0229498 11.1765 0.0229498C11.5667 0 11.7044 0.321297 11.7044 0.619644C11.7044 0.688493 11.7044 0.757343 11.7044 0.849142C11.6814 1.10159 11.6355 1.42289 11.865 1.65238C12.1175 1.88188 12.4388 1.85893 12.6912 1.81303C12.7601 1.81303 12.8519 1.79008 12.8978 1.79008C13.3797 1.79008 13.8387 1.79008 14.3207 1.79008C14.8485 1.79008 15.3764 1.79008 15.9271 1.79008C16.0648 1.79008 16.2484 1.76713 16.3861 1.62943C16.5468 1.46879 16.5238 1.23929 16.5238 1.17044C16.5009 0.963891 16.5238 0.734393 16.5238 0.573745C16.5468 0.229498 16.7533 0 17.0746 0C17.3959 0 17.6025 0.229498 17.6254 0.596694C17.6254 0.780293 17.6484 0.986841 17.6254 1.14749C17.6254 1.21634 17.6025 1.44584 17.7631 1.60648C17.9008 1.76713 18.1074 1.79008 18.2451 1.79008C18.3598 1.79008 18.4516 1.79008 18.5664 1.79008C18.9565 1.79008 19.3008 1.79008 19.668 1.83598C21.1826 2.06548 22.399 3.41952 22.4219 4.91125C22.4219 6.31119 22.4219 7.73408 22.4219 9.08811Z" fill="#004FA8"/>
<path d="M17.3055 12.1865H17.2596C14.4827 12.1865 12.2107 14.4586 12.1648 17.2814C12.1418 18.6125 12.6697 19.8977 13.6336 20.8845C14.5975 21.8713 15.8826 22.4221 17.2367 22.4221C18.5907 22.4221 19.8989 21.9172 20.8627 20.9533C21.8496 19.9895 22.3774 18.7043 22.4004 17.3502C22.4233 14.5045 20.1513 12.2095 17.3055 12.1865ZM20.0595 20.173C19.3022 20.9074 18.3153 21.2976 17.2826 21.2976C17.2367 21.2976 17.2137 21.2976 17.1908 21.2976C15.0335 21.2517 13.2664 19.3928 13.3123 17.2584C13.3123 16.7076 13.45 16.1798 13.6565 15.6978C13.8631 15.2159 14.1614 14.7798 14.5516 14.4127C15.3089 13.6783 16.3187 13.2881 17.3514 13.3111C19.5546 13.357 21.3447 15.1929 21.2988 17.3961C21.2758 18.4518 20.8398 19.4387 20.0595 20.173Z" fill="#004FA8"/>
<path d="M5.8511 13.0586C5.8511 13.1963 5.78225 13.334 5.6675 13.4488C5.55275 13.5635 5.41506 13.6324 5.27736 13.6324C4.97901 13.6324 4.72656 13.3799 4.72656 13.0586C4.72656 12.7373 4.95606 12.5078 5.27736 12.5078C5.59865 12.5078 5.8511 12.7603 5.8511 13.0586Z" fill="#004FA8"/>
<path d="M9.77639 16.9844C9.77639 17.145 9.70755 17.2598 9.61575 17.3745C9.52395 17.4893 9.38625 17.5352 9.2256 17.5352C8.92725 17.5352 8.6748 17.2827 8.6748 16.9844C8.6748 16.8467 8.7207 16.686 8.83545 16.5942C8.9502 16.4795 9.0879 16.4336 9.2256 16.4336C9.52395 16.4336 9.77639 16.686 9.77639 16.9844Z" fill="#004FA8"/>
<path d="M9.77688 13.0586C9.77688 13.357 9.52444 13.6324 9.22609 13.6324C9.08839 13.6324 8.95069 13.5865 8.83594 13.4717C8.72119 13.357 8.65234 13.2193 8.65234 13.0586C8.65234 12.7603 8.90479 12.5078 9.20314 12.5078C9.54738 12.5078 9.77688 12.7373 9.77688 13.0586Z" fill="#004FA8"/>
<path d="M5.8511 16.9849C5.8511 17.1226 5.78225 17.2603 5.6675 17.375C5.55275 17.4898 5.41506 17.5586 5.25441 17.5357C4.95606 17.5357 4.72656 17.2832 4.72656 16.9619C4.72656 16.6636 4.97901 16.4111 5.27736 16.4111C5.59865 16.4341 5.8511 16.6865 5.8511 16.9849Z" fill="#004FA8"/>
<path d="M5.85257 9.1338C5.85257 9.43215 5.60012 9.6846 5.30177 9.6846C5.00342 9.6846 4.75098 9.4551 4.75098 9.15675C4.75098 8.83546 4.98047 8.60596 5.27882 8.58301H5.30177C5.43947 8.58301 5.60012 8.65186 5.71487 8.74366C5.80667 8.8584 5.85257 8.9961 5.85257 9.1338Z" fill="#004FA8"/>
<path d="M9.77639 9.13429C9.77639 9.43264 9.52395 9.66214 9.2256 9.66214C8.92725 9.66214 8.6748 9.40969 8.6748 9.11134C8.6748 8.97364 8.74365 8.81299 8.83545 8.7212C8.9502 8.6294 9.0879 8.56055 9.2256 8.56055H9.24855C9.5469 8.5835 9.77639 8.83594 9.77639 9.13429Z" fill="#004FA8"/>
<path d="M13.7012 9.1338C13.7012 9.4551 13.4488 9.6846 13.1504 9.6846C12.8521 9.6846 12.5996 9.43215 12.5996 9.1338C12.5996 8.9961 12.6455 8.8584 12.7603 8.74366C12.875 8.62891 13.0127 8.58301 13.1734 8.58301C13.4717 8.58301 13.7012 8.81251 13.7012 9.1338Z" fill="#004FA8"/>
<path d="M17.626 9.1338C17.626 9.4551 17.3965 9.6846 17.0982 9.6846C16.9605 9.6846 16.7998 9.6387 16.6851 9.52395C16.5703 9.4092 16.5244 9.2715 16.5244 9.1338C16.5244 8.83545 16.7769 8.58301 17.0752 8.58301C17.2359 8.58301 17.3736 8.65186 17.4654 8.74366C17.5572 8.83545 17.626 8.97315 17.626 9.1338Z" fill="#004FA8"/>
<path d="M19.0503 17.6246C18.9586 17.7623 18.8209 17.8311 18.6602 17.8311C18.316 17.8541 17.9488 17.8311 17.6045 17.8311H17.3521C16.9619 17.8311 16.7554 17.6246 16.7324 17.2344C16.7324 17.0279 16.7324 16.8443 16.7324 16.6377C16.7324 16.5459 16.7324 16.4541 16.7324 16.3394V16.0869C16.7324 15.9033 16.7324 15.6968 16.7324 15.5132C16.7324 15.1231 16.9619 14.8936 17.3062 14.8936C17.6275 14.8936 17.834 15.1231 17.834 15.5361C17.834 15.582 17.834 15.6509 17.834 15.7197C17.834 15.8574 17.834 15.9951 17.834 16.1099C17.834 16.1787 17.8111 16.4082 17.9717 16.5689C18.1094 16.7295 18.3389 16.7525 18.4307 16.7525H18.4537C18.9356 16.7525 19.0504 16.959 19.1192 17.1656C19.188 17.3262 19.1651 17.4869 19.0503 17.6246Z" fill="#004FA8"/>
</svg>
