<svg width="25" height="27" viewBox="0 0 25 27" fill="none" xmlns="http://www.w3.org/2000/svg">
<path d="M21.4271 15.198C21.4271 18.2469 21.4271 21.2957 21.4271 24.3446C21.4271 25.8615 20.5124 26.7762 19.0029 26.7762C13.4852 26.7762 7.97493 26.7762 2.45726 26.7762C0.940269 26.7762 0.0107412 25.8392 0.00330499 24.3148C0.00330499 23.6827 -0.00413123 23.0507 0.00330499 22.4186C0.0107412 21.7939 0.375116 21.4221 0.999759 21.4221C6.29435 21.4221 11.5815 21.4221 16.8761 21.4221C17.5007 21.4221 17.8428 21.7716 17.8502 22.3814C17.8577 23.0878 17.8428 23.7943 17.8577 24.5007C17.8725 25.1849 18.2815 25.6831 18.9285 25.8392C19.4862 25.9731 20.0737 25.7054 20.3786 25.1774C20.5347 24.9023 20.5347 24.6123 20.5347 24.3148C20.5347 19.9646 20.5347 15.6144 20.5347 11.2642C20.5347 9.49443 20.5347 7.71717 20.5347 5.94735C20.5347 4.98808 20.0067 4.46011 19.04 4.46011C14.6898 4.46011 10.3397 4.46011 5.98946 4.46011C5.02276 4.46754 4.47247 5.02526 4.47247 5.99197C4.47247 10.4314 4.47247 14.8634 4.47247 19.3028C4.47247 19.4143 4.47247 19.5259 4.47247 19.6374C4.46504 19.9051 4.30888 20.0539 4.05605 20.0687C3.81065 20.0836 3.66193 19.9274 3.60244 19.7044C3.57269 19.5854 3.58013 19.459 3.58013 19.3325C3.58013 14.908 3.58013 10.4834 3.58013 6.05889C3.58013 4.49729 4.50966 3.5752 6.0787 3.5752C10.3768 3.5752 14.675 3.5752 18.9805 3.5752C20.5273 3.5752 21.4345 4.47498 21.4345 6.01428C21.4271 9.078 21.4271 12.1343 21.4271 15.198ZM17.3966 25.8839C17.0992 25.3485 16.943 24.8205 16.9653 24.233C16.9802 23.7274 16.9505 23.2143 16.9802 22.7086C16.9951 22.3888 16.9133 22.2996 16.5786 22.2996C12.1243 22.3145 7.68492 22.3145 3.23806 22.3145C2.55393 22.3145 1.87723 22.3219 1.1931 22.307C0.962578 22.2996 0.895652 22.3665 0.903088 22.597C0.91796 23.1548 0.910524 23.7125 0.910524 24.2702C0.903088 25.3633 1.42362 25.8839 2.52418 25.8839C7.34286 25.8839 12.1615 25.8839 16.9728 25.8839C17.0917 25.8839 17.2182 25.8839 17.3966 25.8839Z" fill="#004FA8"/>
<path d="M24.9968 11.6358C24.9968 14.7367 25.0042 17.8302 24.9968 20.9311C24.9968 22.1432 24.2086 23.0207 23.0188 23.1917C22.6395 23.2438 22.3421 23.0876 22.3421 22.7976C22.3421 22.463 22.5652 22.344 22.8775 22.3068C23.6657 22.2101 24.1119 21.697 24.1119 20.9014C24.1119 14.707 24.1119 8.51261 24.1119 2.31081C24.1119 1.4482 23.5616 0.897924 22.6916 0.897924C18.2893 0.890487 13.8945 0.897924 9.49228 0.897924C8.68916 0.897924 8.17606 1.36641 8.05709 2.16208C8.00503 2.51902 7.81913 2.71236 7.55886 2.66774C7.28372 2.62313 7.13499 2.36286 7.18705 2.00592C7.36552 0.771508 8.24299 0.0130134 9.49971 0.00557717C13.8871 -0.00185906 18.2745 -0.00185906 22.6618 0.00557717C24.0524 0.00557717 24.9968 0.942541 24.9968 2.33311C25.0042 5.43402 24.9968 8.53492 24.9968 11.6358Z" fill="#004FA8"/>
<path d="M12.281 10.7141C13.7533 10.7141 15.2331 10.7141 16.7055 10.7141C16.817 10.7141 16.9286 10.7066 17.0401 10.729C17.2707 10.781 17.4119 10.9149 17.4119 11.1677C17.4119 11.4205 17.2558 11.5469 17.0253 11.599C16.9286 11.6213 16.8245 11.6064 16.7278 11.6064C13.7682 11.6064 10.8011 11.6064 7.84153 11.6064C7.80435 11.6064 7.76717 11.6064 7.72999 11.6064C7.38792 11.599 7.14996 11.4131 7.1574 11.1528C7.16483 10.8925 7.39536 10.7141 7.74486 10.7141C9.25441 10.7141 10.7714 10.7141 12.281 10.7141Z" fill="#004FA8"/>
<path d="M12.281 13.3908C13.7533 13.3908 15.2331 13.3908 16.7055 13.3908C16.817 13.3908 16.9286 13.3834 17.0401 13.4057C17.2707 13.4578 17.4194 13.5916 17.4119 13.8444C17.4119 14.0973 17.2558 14.2237 17.0253 14.2757C16.9286 14.2981 16.8245 14.2832 16.7278 14.2832C13.7682 14.2832 10.8011 14.2832 7.84153 14.2832C7.80435 14.2832 7.76717 14.2832 7.72999 14.2832C7.38792 14.2757 7.14996 14.0898 7.1574 13.8296C7.16483 13.5693 7.39536 13.3908 7.73742 13.3908C9.25441 13.3908 10.764 13.3908 12.281 13.3908Z" fill="#004FA8"/>
<path d="M12.3183 16.9611C10.846 16.9611 9.36616 16.9611 7.89379 16.9611C7.78225 16.9611 7.6707 16.9685 7.55916 16.9536C7.32864 16.909 7.17248 16.7603 7.16504 16.5223C7.16504 16.2844 7.31376 16.1356 7.54429 16.0836C7.62609 16.0613 7.71532 16.0761 7.80455 16.0761C10.7939 16.0761 13.7758 16.0761 16.7652 16.0761C16.8619 16.0761 16.966 16.0687 17.0627 16.091C17.2709 16.1505 17.4047 16.2769 17.4122 16.5149C17.4122 16.7528 17.2857 16.8867 17.0775 16.9462C16.9734 16.9759 16.8544 16.9685 16.7429 16.9685C15.2631 16.9611 13.7907 16.9611 12.3183 16.9611Z" fill="#004FA8"/>
<path d="M11.3881 19.6377C10.2132 19.6377 9.03081 19.6377 7.85589 19.6377C7.75921 19.6377 7.65511 19.6452 7.55844 19.6303C7.32791 19.5857 7.17175 19.437 7.16432 19.199C7.15688 18.9611 7.31304 18.8123 7.54356 18.7603C7.61793 18.7454 7.69229 18.7528 7.76665 18.7528C10.1834 18.7528 12.6002 18.7528 15.017 18.7528C15.0765 18.7528 15.1434 18.7454 15.2029 18.7603C15.4483 18.7975 15.6193 18.9239 15.6267 19.1916C15.6342 19.4593 15.4706 19.5931 15.2177 19.6377C15.1211 19.6526 15.017 19.6452 14.9203 19.6452C13.7454 19.6377 12.563 19.6377 11.3881 19.6377Z" fill="#004FA8"/>
<path d="M13.4334 8.92883C12.3179 8.92883 11.2025 8.92883 10.0871 8.92883C9.99041 8.92883 9.8863 8.93627 9.78963 8.92139C9.5591 8.87678 9.40294 8.72805 9.39551 8.49009C9.39551 8.25213 9.54423 8.10341 9.77476 8.05135C9.85655 8.02905 9.94579 8.04392 10.035 8.04392C12.2808 8.04392 14.5191 8.04392 16.7648 8.04392C16.8243 8.04392 16.8912 8.03648 16.9507 8.04392C17.2184 8.07366 17.4043 8.19264 17.4043 8.48266C17.4043 8.77267 17.2258 8.90652 16.9581 8.92883C16.8243 8.9437 16.683 8.93627 16.5492 8.93627C15.5155 8.92883 14.4744 8.92883 13.4334 8.92883Z" fill="#004FA8"/>
</svg>
