<svg width="16" height="16" viewBox="0 0 16 16" fill="none" xmlns="http://www.w3.org/2000/svg">
<path fill-rule="evenodd" clip-rule="evenodd" d="M9.33301 3.3335V6.00016H13.1063C13.2996 5.99797 13.4911 6.03783 13.6674 6.11697C13.8437 6.19612 14.0008 6.31265 14.1276 6.45851C14.2544 6.60436 14.348 6.77604 14.4019 6.96166C14.4558 7.14728 14.4687 7.3424 14.4397 7.5335L13.5197 13.5335C13.4715 13.8514 13.31 14.1412 13.0649 14.3495C12.8199 14.5578 12.5079 14.6705 12.1863 14.6668L5.66634 14.6668L5.66634 5.0835L7.33301 1.3335C7.86344 1.3335 8.37215 1.54421 8.74722 1.91928C9.12229 2.29436 9.33301 2.80306 9.33301 3.3335ZM3.66634 14.6668L3.66634 7.3335H2.66634C2.31272 7.3335 1.97358 7.47397 1.72353 7.72402C1.47348 7.97407 1.33301 8.31321 1.33301 8.66683V13.3335C1.33301 13.6871 1.47348 14.0263 1.72353 14.2763C1.97358 14.5264 2.31272 14.6668 2.66634 14.6668H3.66634Z" fill="white"/>
</svg>
