<svg width="17" height="19" viewBox="0 0 17 19" fill="none" xmlns="http://www.w3.org/2000/svg">
<path d="M8.33091 18.8745C6.58171 18.8564 4.89886 18.7056 3.25824 18.2291C2.43189 17.9878 1.62968 17.6862 0.929997 17.1554C0.556031 16.8719 0.248414 16.5342 0.0976207 16.0878C-0.149679 15.358 0.091589 14.7488 0.610316 14.2361C1.21952 13.6329 1.98555 13.3072 2.78173 13.0358C3.46332 12.8066 4.16299 12.6316 4.87474 12.517C5.06775 12.4869 5.14013 12.4507 5.0014 12.2396C4.31982 11.1901 3.62014 10.1526 2.99284 9.0669C1.38841 6.29835 2.35951 2.619 5.08585 0.924091C8.02329 -0.897486 11.9258 0.0313976 13.6268 3.20408C14.7366 5.27296 14.6521 7.37199 13.4096 9.39261C12.8245 10.3396 12.2153 11.2685 11.6122 12.2094C11.4433 12.4688 11.4493 12.4748 11.763 12.5291C12.6134 12.6739 13.4398 12.891 14.248 13.1986C14.8512 13.4339 15.4302 13.7234 15.9128 14.1758C16.8597 15.0685 16.8115 16.2326 15.7921 17.0529C15.0623 17.644 14.2118 17.9757 13.3312 18.2291C11.6845 18.6995 9.98963 18.8564 8.33091 18.8745ZM8.29472 15.3459C8.33694 15.2856 8.36107 15.2615 8.37916 15.2313C9.65788 13.2288 10.9306 11.2263 12.2093 9.22976C12.5471 8.705 12.8788 8.18024 13.0598 7.57707C14.1274 4.03645 11.1598 0.610442 7.51663 1.17139C3.99411 1.71425 2.17253 5.80978 4.11474 8.80754C5.00743 10.1828 5.88203 11.564 6.76266 12.9453C7.26329 13.7294 7.76996 14.5256 8.29472 15.3459ZM8.25853 17.7465C8.51186 17.7465 8.76519 17.7526 9.01852 17.7465C10.6712 17.6862 12.2998 17.4751 13.8499 16.878C14.3807 16.6729 14.8934 16.4316 15.2734 15.9973C15.5388 15.6958 15.5328 15.4243 15.2794 15.1167C15.0744 14.8754 14.821 14.6945 14.5436 14.5497C13.4156 13.9405 12.1791 13.6932 10.9306 13.5123C10.7979 13.4942 10.7436 13.5605 10.6833 13.657C10.068 14.6342 9.44678 15.6053 8.82551 16.5764C8.51789 17.0589 8.06551 17.0589 7.7579 16.5764C7.14869 15.6234 6.53949 14.6764 5.94235 13.7174C5.83378 13.5424 5.71918 13.4881 5.52616 13.5243C5.06172 13.6208 4.59125 13.6872 4.1268 13.7958C3.25824 14.0008 2.40173 14.2602 1.66587 14.791C0.917934 15.3278 0.929997 15.8104 1.68999 16.3411C2.2811 16.7573 2.95062 16.9926 3.63824 17.1856C5.1522 17.6078 6.69631 17.7586 8.25853 17.7465Z" fill="#104A93"/>
<path d="M11.0513 6.12945C11.0452 7.64341 9.80873 8.87991 8.29477 8.88594C6.76875 8.88594 5.52622 7.62531 5.53225 6.08722C5.54431 4.57326 6.79288 3.33676 8.3008 3.3428C9.82683 3.34883 11.0573 4.60342 11.0513 6.12945ZM8.29477 7.76404C9.20556 7.76404 9.95953 7.02214 9.95953 6.11738C9.95953 5.21263 9.21159 4.47073 8.29477 4.47073C7.38398 4.47073 6.63002 5.21263 6.63002 6.11738C6.63605 7.02214 7.38398 7.76404 8.29477 7.76404Z" fill="#104A93"/>
</svg>
