<svg width="16" height="16" viewBox="0 0 16 16" fill="none" xmlns="http://www.w3.org/2000/svg">
<g clip-path="url(#clip0)">
<path d="M13.5996 6.66699C13.5996 11.3337 7.59961 15.3337 7.59961 15.3337C7.59961 15.3337 1.59961 11.3337 1.59961 6.66699C1.59961 5.07569 2.23175 3.54957 3.35697 2.42435C4.48219 1.29913 6.00831 0.666992 7.59961 0.666992C9.19091 0.666992 10.717 1.29913 11.8422 2.42435C12.9675 3.54957 13.5996 5.07569 13.5996 6.66699Z" stroke="#828282" stroke-width="1.5" stroke-linecap="round" stroke-linejoin="round"/>
<path d="M7.59961 8.66699C8.70418 8.66699 9.59961 7.77156 9.59961 6.66699C9.59961 5.56242 8.70418 4.66699 7.59961 4.66699C6.49504 4.66699 5.59961 5.56242 5.59961 6.66699C5.59961 7.77156 6.49504 8.66699 7.59961 8.66699Z" stroke="#828282" stroke-width="1.5" stroke-linecap="round" stroke-linejoin="round"/>
</g>
<defs>
<clipPath id="clip0">
<rect width="16" height="16" fill="white"/>
</clipPath>
</defs>
</svg>
