<svg width="20" height="21" viewBox="0 0 20 21" fill="none" xmlns="http://www.w3.org/2000/svg">
<path fill-rule="evenodd" clip-rule="evenodd" d="M9.5 19.5208C9.5 19.5208 17 14.5208 17 8.6875C17 6.69838 16.2098 4.79072 14.8033 3.3842C13.3968 1.97768 11.4891 1.1875 9.5 1.1875C7.51088 1.1875 5.60322 1.97768 4.1967 3.3842C2.79018 4.79072 2 6.69838 2 8.6875C2 14.5208 9.5 19.5208 9.5 19.5208ZM12 8.6875C12 10.0682 10.8807 11.1875 9.5 11.1875C8.11929 11.1875 7 10.0682 7 8.6875C7 7.30679 8.11929 6.1875 9.5 6.1875C10.8807 6.1875 12 7.30679 12 8.6875Z" fill="#016F3F"/>
</svg>
