<svg width="16" height="12" viewBox="0 0 16 12" fill="none" xmlns="http://www.w3.org/2000/svg">
<path d="M7.91418 5.1525L15.4033 0.99C15.1878 0.687792 14.8978 0.439772 14.5586 0.267308C14.2193 0.094844 13.8409 0.0031069 13.4558 2.14767e-07H2.37251C1.98553 -0.000159952 1.60437 0.0892677 1.26219 0.260502C0.920009 0.431737 0.62718 0.679591 0.40918 0.9825L7.91418 5.1525Z" fill="white"/>
<path d="M8.70833 6.44207C8.4678 6.57426 8.19475 6.6441 7.91667 6.64457C7.63931 6.64639 7.36631 6.57914 7.125 6.44957L0 2.49707V9.74957C0 10.3463 0.250223 10.9186 0.695622 11.3406C1.14102 11.7625 1.74511 11.9996 2.375 11.9996H13.4583C14.0882 11.9996 14.6923 11.7625 15.1377 11.3406C15.5831 10.9186 15.8333 10.3463 15.8333 9.74957V2.49707L8.70833 6.44207Z" fill="white"/>
</svg>
