<svg width="26" height="15" viewBox="0 0 26 15" fill="none" xmlns="http://www.w3.org/2000/svg">
<path d="M0.00224675 9.73768C0.00224675 9.29282 0.00224675 8.84291 0.00224675 8.39805C0.00730195 7.39712 0.613925 6.62874 1.58958 6.38103C1.98894 6.27993 2.3883 6.17882 2.78766 6.08277C3.18702 5.98673 3.48022 5.75924 3.68243 5.40032C4.28905 4.32357 4.90578 3.25187 5.52252 2.17511C6.27069 0.87087 7.398 0.21875 8.90444 0.21875C11.063 0.21875 13.2165 0.21875 15.3751 0.21875C16.8815 0.21875 18.0038 0.875925 18.752 2.18016C19.3434 3.21142 19.9399 4.23763 20.5162 5.27394C20.7639 5.72386 21.1127 5.97661 21.6233 6.04233C22.0833 6.10299 22.5383 6.18893 22.9933 6.27993C24.6514 6.61862 25.8545 8.0543 25.8848 9.73768C25.8949 10.3241 25.9506 10.9206 25.8495 11.5019C25.6826 12.4574 24.8687 13.1398 23.8981 13.155C23.4533 13.1651 23.0034 13.16 22.5585 13.155C22.4372 13.155 22.3664 13.1904 22.3007 13.3016C21.1431 15.2782 18.5245 15.2731 17.3466 13.2915C17.286 13.1904 17.2253 13.155 17.109 13.155C14.3388 13.16 11.5635 13.16 8.79323 13.155C8.66179 13.155 8.60619 13.2106 8.54552 13.3168C7.40811 15.2731 4.74907 15.2681 3.60154 13.3016C3.53583 13.1904 3.47011 13.155 3.34373 13.155C2.90393 13.16 2.46918 13.16 2.02938 13.155C0.891961 13.1449 0.0174123 12.2653 0.00224675 11.1279C-0.00280844 10.6678 0.00224675 10.2028 0.00224675 9.73768ZM23.8274 7.49823C23.5847 7.32635 23.3977 7.23536 23.1955 7.16964C22.7405 7.01293 22.2603 6.94721 21.7851 6.89666C20.8296 6.80061 20.1472 6.36081 19.6973 5.48626C19.1817 4.49039 18.5952 3.54001 18.0442 2.56436C17.4578 1.53816 16.5782 1.02253 15.3953 1.02253C13.2367 1.02758 11.0832 1.02758 8.92466 1.02253C7.71142 1.01747 6.81159 1.53816 6.22013 2.59469C5.61857 3.66639 5.00183 4.71787 4.40027 5.77946C4.07673 6.35575 3.60154 6.71973 2.95954 6.87644C2.54501 6.97754 2.12543 7.0837 1.7109 7.18986C1.52892 7.23536 1.35704 7.31119 1.20538 7.49823C1.49858 7.49823 1.74123 7.49317 1.98388 7.49823C2.30742 7.50834 2.48435 7.72066 2.40852 8.03408C2.28719 8.54971 2.15576 9.06028 2.02432 9.57591C1.96366 9.81351 1.81201 9.92978 1.5643 9.92472C1.37726 9.92472 1.19527 9.93483 1.00823 9.91967C0.856574 9.90956 0.800967 9.95 0.806023 10.1118C0.821188 10.4505 0.806023 10.7841 0.811078 11.1228C0.821188 11.8154 1.33682 12.336 2.02938 12.3462C2.35797 12.3512 2.68655 12.336 3.01514 12.3512C3.21229 12.3613 3.25779 12.3057 3.24768 12.1035C3.16174 10.4404 4.42554 9.10073 6.05837 9.09567C7.70131 9.09061 8.98027 10.4404 8.88928 12.1136C8.87917 12.331 8.94488 12.3563 9.12687 12.3563C11.6646 12.3512 14.1972 12.3512 16.7349 12.3563C16.9422 12.3563 17.013 12.331 16.9978 12.0883C16.9068 10.1876 18.5851 8.76708 20.4303 9.16139C21.7952 9.45459 22.7203 10.6881 22.6394 12.1338C22.6293 12.3158 22.6697 12.3613 22.8467 12.3563C23.1854 12.3411 23.519 12.3563 23.8577 12.3512C24.5402 12.3411 25.0558 11.8305 25.071 11.1531C25.076 10.9004 25.071 10.6476 25.071 10.3949C25.071 9.93989 25.071 9.93989 24.621 9.92472C23.5493 9.89439 22.6596 9.01479 22.6495 7.97847C22.6445 7.66505 22.7961 7.50834 23.1045 7.50328C23.3219 7.49317 23.5392 7.49823 23.8274 7.49823ZM8.09056 11.9519C8.09561 10.8498 7.19579 9.93483 6.09375 9.92472C4.9715 9.91461 4.05651 10.8144 4.0464 11.9266C4.03629 13.0438 4.94117 13.9638 6.05331 13.9689C7.17557 13.9739 8.0855 13.0691 8.09056 11.9519ZM19.8186 9.92472C18.7014 9.92472 17.7965 10.8347 17.7965 11.9519C17.8016 13.0589 18.7014 13.9638 19.8034 13.9638C20.9307 13.9689 21.8407 13.0488 21.8356 11.9215C21.8356 10.8245 20.9257 9.92472 19.8186 9.92472ZM24.98 9.09567C24.9446 8.99962 24.9193 8.90357 24.8839 8.81258C24.6918 8.31211 24.6868 8.31211 24.1509 8.31211C24.0094 8.31211 23.8678 8.31717 23.7263 8.31211C23.5594 8.302 23.5392 8.35256 23.6151 8.4941C23.8526 8.94401 24.3531 9.1715 24.98 9.09567ZM1.49858 8.32222C1.42276 8.31717 1.36715 8.31211 1.30649 8.30706C0.811078 8.302 0.811078 8.302 0.811078 8.80247C0.811078 9.126 0.811078 9.12094 1.13461 9.11589C1.25088 9.11589 1.3166 9.09061 1.34187 8.96423C1.38737 8.75192 1.44298 8.54465 1.49858 8.32222Z" fill="#004FA8"/>
<path d="M8.27725 6.28509C7.31676 6.28509 6.35627 6.28509 5.39579 6.28509C5.20369 6.28509 5.0217 6.26487 4.91554 6.07783C4.80433 5.89079 4.88016 5.72397 4.97621 5.55714C5.60305 4.52083 6.21978 3.47946 6.84663 2.44315C7.2561 1.7708 7.85767 1.43211 8.64628 1.42705C9.49555 1.422 10.3448 1.42705 11.1991 1.42705C11.5935 1.42705 11.7299 1.56354 11.7299 1.95785C11.7299 3.22165 11.7299 4.48544 11.7299 5.74419C11.7299 6.1486 11.5935 6.28004 11.1789 6.28004C10.2134 6.28509 9.24279 6.28509 8.27725 6.28509ZM5.97713 5.47626C7.61502 5.47626 9.19729 5.47626 10.7745 5.48132C10.9363 5.48132 10.9211 5.39032 10.9211 5.28416C10.9211 4.33379 10.9161 3.38341 10.9262 2.43303C10.9262 2.27127 10.8706 2.24094 10.724 2.24094C10.0415 2.24599 9.35906 2.24599 8.68166 2.24094C8.17614 2.24094 7.79195 2.45326 7.53413 2.888C7.29149 3.29242 7.04884 3.69683 6.80619 4.10125C6.53826 4.54105 6.27034 4.99096 5.97713 5.47626Z" fill="#004FA8"/>
<path d="M18.2919 5.47575C18.0947 5.14211 17.9178 4.84891 17.7409 4.55065C17.5791 4.27261 17.6145 4.04008 17.8369 3.9137C18.0543 3.78732 18.2717 3.86314 18.4435 4.14118C18.7367 4.62142 19.0249 5.10672 19.313 5.59202C19.5405 5.98127 19.3686 6.27953 18.9137 6.27953C16.9522 6.27953 14.9908 6.27953 13.0244 6.27953C12.6806 6.27953 12.5391 6.13293 12.5391 5.77906C12.5391 4.48999 12.5391 3.20091 12.5391 1.91184C12.5391 1.56809 12.6857 1.42654 13.0345 1.42149C13.909 1.42149 14.7886 1.41138 15.6632 1.42149C16.4012 1.4316 16.9725 1.75007 17.3769 2.36681C17.478 2.52352 17.574 2.68023 17.66 2.84705C17.7661 3.05937 17.6954 3.28685 17.5033 3.39301C17.3162 3.49411 17.109 3.44862 16.9725 3.25652C16.8714 3.10992 16.7905 2.95321 16.6944 2.80661C16.4568 2.44263 16.1181 2.24548 15.6834 2.23537C14.9656 2.22526 14.2528 2.23537 13.5349 2.23032C13.3984 2.23032 13.3479 2.2657 13.3479 2.4123C13.3529 3.37279 13.3529 4.33328 13.3479 5.29376C13.3479 5.41509 13.3732 5.4707 13.5147 5.4707C15.0869 5.47575 16.6641 5.47575 18.2919 5.47575Z" fill="#004FA8"/>
<path d="M5.68257 6.69492C5.81906 6.69492 5.95049 6.68481 6.08698 6.69492C6.30941 6.71009 6.46612 6.87691 6.47118 7.08417C6.47623 7.30155 6.31952 7.48859 6.08193 7.4987C5.79884 7.50881 5.51069 7.51386 5.2276 7.4987C5.00517 7.48859 4.85352 7.3066 4.85352 7.09934C4.85352 6.88702 5.00517 6.7202 5.2276 6.69998C5.37926 6.68481 5.53091 6.69492 5.68257 6.69492Z" fill="#004FA8"/>
<path d="M13.3517 7.49886C13.2102 7.49886 13.0687 7.50897 12.9271 7.49886C12.7047 7.48369 12.548 7.31687 12.548 7.10455C12.5429 6.88718 12.7047 6.70519 12.9372 6.69508C13.2153 6.68497 13.4882 6.68497 13.7663 6.69508C14.0039 6.70519 14.1656 6.88212 14.1606 7.0995C14.1555 7.31687 13.9938 7.48369 13.7562 7.49886C13.6197 7.50391 13.4832 7.49886 13.3517 7.49886Z" fill="#004FA8"/>
<path d="M7.28015 11.9255C7.2852 12.6029 6.7443 13.1539 6.07196 13.1589C5.40973 13.164 4.86377 12.6231 4.85366 11.9659C4.84354 11.2936 5.38445 10.7426 6.06185 10.7325C6.72408 10.7274 7.27509 11.2683 7.28015 11.9255ZM6.07196 11.5413C5.85458 11.5362 5.66754 11.7182 5.66249 11.9406C5.65743 12.158 5.83942 12.3451 6.05679 12.3501C6.27416 12.3552 6.46121 12.1732 6.46626 11.9508C6.47637 11.7334 6.29439 11.5463 6.07196 11.5413Z" fill="#004FA8"/>
<path d="M19.838 10.7325C20.4952 10.7375 21.0361 11.2936 21.031 11.9508C21.026 12.6231 20.4699 13.1691 19.7976 13.1589C19.1404 13.1488 18.5995 12.6029 18.6045 11.9406C18.6096 11.2683 19.1657 10.7274 19.838 10.7325ZM20.2222 11.9356C20.2171 11.7182 20.0301 11.5362 19.8127 11.5413C19.5953 11.5463 19.4134 11.7334 19.4184 11.9508C19.4235 12.1681 19.6105 12.3501 19.8279 12.3451C20.0453 12.3451 20.2272 12.153 20.2222 11.9356Z" fill="#004FA8"/>
</svg>
