<svg width="40" height="40" viewBox="0 0 40 40" fill="none" xmlns="http://www.w3.org/2000/svg">
<path d="M28.3337 35V31.6667C28.3337 29.8986 27.6313 28.2029 26.381 26.9526C25.1308 25.7024 23.4351 25 21.667 25H8.33366C6.56555 25 4.86986 25.7024 3.61961 26.9526C2.36937 28.2029 1.66699 29.8986 1.66699 31.6667V35" stroke="#0C784C" stroke-width="2" stroke-linecap="round" stroke-linejoin="round"/>
<path d="M14.9997 18.3333C18.6816 18.3333 21.6663 15.3486 21.6663 11.6667C21.6663 7.98477 18.6816 5 14.9997 5C11.3178 5 8.33301 7.98477 8.33301 11.6667C8.33301 15.3486 11.3178 18.3333 14.9997 18.3333Z" stroke="#0C784C" stroke-width="2" stroke-linecap="round" stroke-linejoin="round"/>
<path d="M38.333 35.0001V31.6668C38.3319 30.1897 37.8403 28.7548 36.9353 27.5873C36.0303 26.4199 34.7632 25.5861 33.333 25.2168" stroke="#0C784C" stroke-width="2" stroke-linecap="round" stroke-linejoin="round"/>
<path d="M26.667 5.2168C28.101 5.58397 29.3721 6.41797 30.2797 7.58731C31.1874 8.75666 31.6801 10.1948 31.6801 11.6751C31.6801 13.1554 31.1874 14.5936 30.2797 15.7629C29.3721 16.9323 28.101 17.7663 26.667 18.1335" stroke="#0C784C" stroke-width="2" stroke-linecap="round" stroke-linejoin="round"/>
</svg>
