<svg width="17" height="17" viewBox="0 0 17 17" fill="none" xmlns="http://www.w3.org/2000/svg">
<path d="M8.35815 16.1586C6.39462 16.1586 4.43109 16.1586 2.47411 16.1586C1.8916 16.1586 1.74761 16.0211 1.75415 15.4517C1.76724 14.5288 1.69525 13.5994 1.8196 12.6766C2.01596 11.1647 2.67701 9.88182 3.71768 8.78225C4.13002 8.34373 4.562 7.92484 4.9547 7.47323C5.22305 7.16561 5.51758 7.04126 5.92337 7.05435C6.54516 7.08053 6.54516 7.06089 6.57788 6.44565C6.59752 6.09222 6.79387 5.88277 7.0884 5.88932C7.38293 5.89586 7.57274 6.11185 7.58583 6.46529C7.61201 7.06744 7.61201 7.06744 8.21416 7.06744C8.2927 7.06744 8.36469 7.06744 8.44323 7.06744C8.67231 7.05435 8.94721 7.15907 9.11083 7.02162C9.27446 6.89072 9.1501 6.60928 9.16974 6.39984C9.20247 6.09876 9.39227 5.89586 9.66717 5.88932C9.94206 5.88277 10.1384 6.07913 10.1711 6.3802C10.1711 6.39329 10.1711 6.39984 10.1711 6.41293C10.2039 6.62237 10.0664 6.91035 10.2562 7.02162C10.4133 7.1198 10.6817 7.07398 10.8976 7.05435C11.2576 7.02816 11.5129 7.15252 11.7551 7.42087C12.3572 8.09501 13.0379 8.70371 13.5877 9.42367C14.5498 10.6738 15.008 12.1072 15.0014 13.6845C15.0014 14.2212 15.0014 14.7514 15.0014 15.2881C15.0014 16.0735 14.9229 16.1586 14.1506 16.1586C12.2198 16.1586 10.2889 16.1586 8.35815 16.1586ZM8.35815 9.1095C6.91168 9.11605 5.74666 10.2942 5.75975 11.7406C5.76629 13.1675 6.94441 14.3259 8.37124 14.3325C9.8177 14.3325 10.9893 13.1544 10.9893 11.7144C10.9893 10.268 9.80461 9.09641 8.35815 9.1095Z" fill="white"/>
<path d="M14.2293 6.71384C13.8889 6.71384 13.5551 6.72039 13.2148 6.71384C12.2461 6.69421 11.6178 5.89571 11.8599 4.95976C11.9319 4.69141 11.873 4.58669 11.6243 4.47542C9.4448 3.53947 7.27183 3.52638 5.09231 4.47542C4.86323 4.5736 4.82396 4.67177 4.88287 4.91394C5.13158 5.88262 4.49671 6.68766 3.48876 6.70075C2.89971 6.7073 2.31065 6.70075 1.72159 6.70075C0.60238 6.70075 0.0133217 6.12478 0.00023155 4.99248C-0.0128586 3.906 0.530384 3.08132 1.29616 2.38754C2.507 1.30105 3.95347 0.692359 5.51774 0.338924C8.39104 -0.315585 11.1727 -0.0341462 13.8235 1.28796C14.7987 1.7723 15.6692 2.41372 16.2648 3.35621C16.7229 4.08272 16.8931 4.85504 16.6378 5.69935C16.4546 6.31459 15.9833 6.69421 15.3485 6.71384C14.9754 6.72693 14.6023 6.71384 14.2293 6.71384Z" fill="white"/>
<path d="M8.38465 13.3247C7.48798 13.3313 6.74838 12.5917 6.75493 11.7081C6.76147 10.8376 7.49452 10.1045 8.36502 10.1045C9.25515 10.098 10.0013 10.8376 9.99475 11.7212C9.9882 12.5982 9.2617 13.3247 8.38465 13.3247Z" fill="white"/>
</svg>
