<svg width="25" height="26" viewBox="0 0 25 26" fill="none" xmlns="http://www.w3.org/2000/svg">
<path d="M10.5523 0.500977C13.1887 0.500977 15.825 0.500977 18.4706 0.500977C20.0394 0.500977 21.0698 1.53138 21.0698 3.10018C21.0698 7.24035 21.0698 11.3898 21.0605 15.53C21.0605 15.762 21.1255 15.8363 21.3483 15.892C23.307 16.384 24.7273 18.092 24.9501 20.1993C25.1543 22.1115 24.0682 24.0609 22.2766 24.9242C20.5593 25.7504 18.8883 25.6854 17.2917 24.5901C17.1525 24.4972 17.0132 24.5065 16.8647 24.5065C13.4114 24.5065 9.95821 24.4972 6.4957 24.5065C5.57669 24.5065 4.83406 24.1816 4.30494 23.4111C4.00788 22.9841 3.88721 22.5014 3.88721 21.9909C3.88721 20.5799 3.88721 19.1689 3.88721 17.7579C3.88721 13.4228 3.88721 9.07836 3.89649 4.74325C3.89649 4.45549 3.81294 4.39979 3.54374 4.39979C2.59689 4.41835 1.63147 4.40907 0.666047 4.40907C0.164771 4.40907 0.00696216 4.25126 0.00696216 3.7407C0.00696216 3.37867 -0.0208865 3.00736 0.0348108 2.65461C0.211186 1.355 1.19517 0.510259 2.50406 0.500977C5.18681 0.500977 7.86956 0.500977 10.5523 0.500977ZM4.88048 12.448C4.88048 15.5578 4.88048 18.6676 4.88048 21.7866C4.88048 21.9444 4.88048 22.1022 4.89904 22.2601C4.99187 22.9748 5.53956 23.4761 6.28219 23.5132C6.98769 23.5504 7.5818 23.0955 7.75817 22.3993C7.84172 22.0373 7.80458 21.6752 7.80458 21.3132C7.81387 20.7284 7.94383 20.5891 8.52865 20.5891C10.6451 20.5891 12.7616 20.5891 14.8874 20.5984C15.1381 20.5984 15.2309 20.552 15.2402 20.2735C15.3887 17.8136 17.3752 15.8549 19.8352 15.7249C20.0301 15.7156 20.1044 15.6878 20.1044 15.465C20.0951 11.3155 20.0951 7.1568 20.0951 3.00736C20.0951 2.7103 20.0394 2.43182 19.8816 2.18118C19.5474 1.66134 19.0647 1.4664 18.4613 1.4664C13.8942 1.47568 9.31769 1.4664 4.75052 1.4664C4.7041 1.4664 4.65769 1.4664 4.61127 1.4664C4.47203 1.45711 4.41633 1.49425 4.50916 1.64277C4.82478 2.13476 4.88976 2.67317 4.88976 3.23943C4.88048 6.32134 4.88048 9.3847 4.88048 12.448ZM20.0858 16.7182C17.8579 16.7182 16.187 18.4169 16.1963 20.6541C16.2056 22.7613 17.9693 24.4972 20.1044 24.4879C22.2302 24.4879 23.9939 22.7428 23.9939 20.6356C23.9939 18.3984 22.323 16.7182 20.0858 16.7182ZM16.1406 23.5132C16.1499 23.4111 16.0849 23.3647 16.0478 23.309C15.7415 22.8449 15.5001 22.3529 15.3887 21.8145C15.3423 21.6195 15.2587 21.5731 15.0731 21.5731C13.068 21.5824 11.0629 21.5731 9.05777 21.5731C9.02064 21.5731 8.98351 21.5731 8.94638 21.5731C8.84427 21.5638 8.78857 21.6103 8.79785 21.7216C8.8257 22.3529 8.72359 22.9563 8.32443 23.5132C10.9515 23.5132 13.5414 23.5132 16.1406 23.5132ZM2.43908 3.42509C2.82896 3.42509 3.21884 3.4158 3.60872 3.43437C3.83151 3.44365 3.9429 3.39724 3.90577 3.1466C3.89649 3.06305 3.90577 2.97951 3.90577 2.89596C3.87792 2.15333 3.31167 1.54994 2.57832 1.48496C1.58505 1.40142 0.768159 2.3297 0.981665 3.30441C1.00951 3.44365 1.09306 3.42509 1.18589 3.42509C1.60362 3.42509 2.02135 3.42509 2.43908 3.42509Z" fill="#104A93"/>
<path d="M9.75399 11.4919C9.75399 11.8632 9.75399 12.2345 9.75399 12.6058C9.75399 12.9957 9.57761 13.1814 9.19701 13.1814C8.42653 13.1907 7.65605 13.1907 6.88557 13.1814C6.51426 13.1814 6.34717 12.9957 6.34717 12.6244C6.34717 11.8539 6.34717 11.0834 6.34717 10.313C6.34717 9.95093 6.53283 9.76527 6.89486 9.75599C7.66534 9.7467 8.43582 9.7467 9.2063 9.75599C9.55905 9.75599 9.75399 9.95093 9.75399 10.313C9.76327 10.7121 9.75399 11.102 9.75399 11.4919ZM8.05522 12.2067C8.24088 12.2067 8.42653 12.1974 8.61219 12.2067C8.75143 12.2159 8.78857 12.151 8.78857 12.0303C8.77928 11.6683 8.77928 11.3062 8.78857 10.9442C8.78857 10.7771 8.72359 10.74 8.57506 10.7493C8.22231 10.7585 7.86956 10.7585 7.51681 10.7493C7.359 10.7493 7.31259 10.805 7.31259 10.9628C7.32187 11.3062 7.32187 11.6497 7.31259 11.9932C7.30331 12.1603 7.34972 12.2345 7.52609 12.2159C7.70247 12.1974 7.87884 12.2067 8.05522 12.2067Z" fill="#104A93"/>
<path d="M8.04593 4.90088C8.43581 4.90088 8.82569 4.90088 9.21557 4.90088C9.56832 4.91017 9.75398 5.08654 9.75398 5.43001C9.76326 6.20977 9.76326 6.98953 9.75398 7.7693C9.75398 8.11276 9.55904 8.29842 9.21557 8.29842C8.44509 8.3077 7.67462 8.3077 6.90414 8.29842C6.5421 8.29842 6.35645 8.11276 6.35645 7.75073C6.35645 6.98025 6.35645 6.20977 6.35645 5.43929C6.35645 5.06798 6.53282 4.90088 6.90414 4.8916C7.28473 4.8916 7.66533 4.90088 8.04593 4.90088ZM8.05521 7.333C8.23159 7.333 8.40796 7.32372 8.58434 7.333C8.72358 7.34228 8.77928 7.28659 8.77928 7.13806C8.76999 6.77603 8.76999 6.41399 8.77928 6.05196C8.77928 5.91272 8.73286 5.85702 8.58434 5.85702C8.2223 5.8663 7.86027 5.8663 7.49824 5.85702C7.359 5.85702 7.3033 5.90344 7.3033 6.04268C7.31258 6.40471 7.31258 6.76674 7.3033 7.12878C7.3033 7.26802 7.34971 7.333 7.49824 7.32372C7.6839 7.32372 7.86956 7.333 8.05521 7.333Z" fill="#104A93"/>
<path d="M6.34717 16.3561C6.34717 15.9755 6.34717 15.5949 6.34717 15.2143C6.34717 14.8337 6.51426 14.6574 6.88557 14.6574C7.66534 14.6481 8.4451 14.6481 9.22486 14.6574C9.55905 14.6574 9.7447 14.843 9.75399 15.1772C9.76327 15.9662 9.76327 16.7553 9.75399 17.5443C9.75399 17.8692 9.55905 18.0642 9.22486 18.0642C8.4451 18.0735 7.66534 18.0735 6.88557 18.0642C6.53283 18.0642 6.35645 17.8785 6.34717 17.5258C6.34717 17.1359 6.34717 16.746 6.34717 16.3561ZM8.03665 17.0895C8.78857 17.0895 8.78857 17.0895 8.78857 16.3376C8.78857 15.6228 8.78857 15.6135 8.0645 15.6228C7.82315 15.6228 7.51681 15.5207 7.36829 15.6692C7.21976 15.8177 7.32187 16.124 7.32187 16.3654C7.31259 17.0895 7.31259 17.0895 8.03665 17.0895Z" fill="#104A93"/>
<path d="M14.9156 5.13303C15.9553 5.13303 16.9949 5.13303 18.0346 5.13303C18.2203 5.13303 18.3874 5.16088 18.5173 5.30941C18.7587 5.58789 18.6195 6.01491 18.2574 6.09845C18.1553 6.11702 18.0532 6.11702 17.9511 6.11702C15.9367 6.11702 13.9223 6.11702 11.9079 6.11702C11.8522 6.11702 11.7965 6.11702 11.7408 6.11702C11.4252 6.09845 11.2117 5.88495 11.221 5.60646C11.2303 5.33726 11.4345 5.14231 11.7408 5.13303C11.9915 5.12375 12.2421 5.13303 12.4927 5.13303C13.3004 5.13303 14.108 5.13303 14.9156 5.13303Z" fill="#104A93"/>
<path d="M14.08 14.8892C14.8412 14.8892 15.6024 14.8892 16.3636 14.8892C16.7164 14.8892 16.9392 15.0934 16.9299 15.3997C16.9206 15.6875 16.7071 15.8732 16.3544 15.8732C15.6953 15.8824 15.0362 15.8732 14.3771 15.8732C13.5324 15.8732 12.6876 15.8732 11.8429 15.8732C11.6943 15.8732 11.5458 15.8639 11.4159 15.771C11.2488 15.6411 11.1745 15.4647 11.2302 15.2512C11.3045 14.9913 11.4994 14.8799 11.7593 14.8799C12.5391 14.8799 13.3096 14.8892 14.08 14.8892Z" fill="#104A93"/>
<path d="M14.0703 7.08274C14.813 7.08274 15.5556 7.08274 16.2982 7.08274C16.4096 7.08274 16.521 7.08274 16.6231 7.12916C16.8274 7.2127 16.9295 7.37051 16.9202 7.58402C16.9109 7.80681 16.7995 7.9739 16.5767 8.0296C16.4746 8.05745 16.3539 8.05745 16.2425 8.05745C14.7944 8.05745 13.3463 8.05745 11.8981 8.05745C11.861 8.05745 11.8239 8.05745 11.7867 8.05745C11.434 8.04816 11.2019 7.84394 11.2112 7.55617C11.2205 7.2684 11.4433 7.08274 11.7867 7.07346C12.1395 7.06418 12.4922 7.07346 12.845 7.07346C13.2534 7.08274 13.6619 7.08274 14.0703 7.08274Z" fill="#104A93"/>
<path d="M16.0294 10.9813C15.3425 10.9813 14.6555 10.9813 13.9686 10.9813C13.6158 10.9813 13.4209 10.7956 13.4209 10.4893C13.4209 10.1922 13.6158 10.0158 13.95 10.0158C14.7298 10.0066 15.5095 10.0158 16.2893 10.0158C16.8463 10.0158 17.4033 10.0158 17.9602 10.0158C18.4151 10.0158 18.6193 10.1737 18.6193 10.5078C18.6193 10.8327 18.4058 10.9813 17.9695 10.9813C17.329 10.9813 16.6792 10.9813 16.0294 10.9813Z" fill="#104A93"/>
<path d="M13.0956 16.8379C13.5226 16.8379 13.9497 16.8379 14.3767 16.8379C14.7294 16.8379 14.9429 17.0235 14.9429 17.3113C14.9522 17.6177 14.7387 17.8219 14.3767 17.8219C13.5134 17.8312 12.6501 17.8312 11.7867 17.8219C11.434 17.8219 11.2019 17.6084 11.2112 17.3206C11.2205 17.0328 11.4433 16.8379 11.8053 16.8379C12.2416 16.8379 12.6686 16.8379 13.0956 16.8379Z" fill="#104A93"/>
<path d="M13.0776 11.9653C13.5231 11.9653 13.9687 11.9561 14.4143 11.9653C14.7671 11.9746 14.962 12.1603 14.9527 12.4573C14.9434 12.7451 14.7485 12.9215 14.4143 12.9215C13.5324 12.9215 12.6506 12.9215 11.778 12.9215C11.4531 12.9215 11.2396 12.7265 11.2303 12.448C11.221 12.1603 11.4345 11.9561 11.778 11.9561C12.205 11.9653 12.6413 11.9653 13.0776 11.9653Z" fill="#104A93"/>
<path d="M12.1959 10.5084C12.1959 10.7776 11.9638 10.9911 11.6853 10.9818C11.4254 10.9725 11.2119 10.759 11.2119 10.4991C11.2119 10.2206 11.444 10.0164 11.7225 10.0257C12.001 10.035 12.2052 10.2485 12.1959 10.5084Z" fill="#104A93"/>
<path d="M21.3203 18.8721C21.3203 19.132 21.0233 19.3641 20.7077 19.2713C20.6055 19.2434 20.5034 19.1877 20.4013 19.1506C20.1321 19.0578 19.8722 19.1692 19.7701 19.4012C19.668 19.6426 19.7608 19.9025 20.0207 20.0325C20.1971 20.116 20.3827 20.181 20.5591 20.2645C21.0975 20.5059 21.4039 20.9329 21.441 21.5177C21.4781 22.0654 21.2553 22.5203 20.7912 22.8266C20.6241 22.9287 20.5684 23.0401 20.5777 23.2258C20.587 23.5414 20.4477 23.7178 20.2064 23.7642C19.9 23.8199 19.6308 23.6342 19.6308 23.3186C19.6308 23.068 19.5287 22.9751 19.3152 22.9194C19.2317 22.9009 19.1574 22.8637 19.0924 22.8173C18.8882 22.6874 18.8139 22.4182 18.9161 22.2047C19.0182 21.9912 19.2595 21.8798 19.5009 21.9447C19.603 21.9726 19.7051 22.0376 19.8072 22.0654C20.0671 22.149 20.3178 22.0469 20.4199 21.8241C20.5313 21.5827 20.4477 21.3228 20.1878 21.1928C20.0207 21.1093 19.8443 21.0443 19.6772 20.97C19.111 20.7287 18.7861 20.2924 18.749 19.689C18.7118 19.132 18.9439 18.6679 19.4359 18.3708C19.603 18.2687 19.6123 18.1388 19.6216 17.981C19.6308 17.6096 19.8443 17.4054 20.1785 17.4518C20.4384 17.489 20.587 17.656 20.5777 17.9067C20.5684 18.1388 20.6705 18.2316 20.8747 18.2966C21.1254 18.3615 21.3203 18.5008 21.3203 18.8721Z" fill="#104A93"/>
</svg>
