<svg width="20" height="19" viewBox="0 0 20 19" fill="none" xmlns="http://www.w3.org/2000/svg">
<path fill-rule="evenodd" clip-rule="evenodd" d="M8.3125 2.13333C4.89524 2.13333 2.125 4.92409 2.125 8.36666C2.125 11.8092 4.89524 14.6 8.3125 14.6C10.1605 14.6 11.8187 13.7846 12.9533 12.4896C13.9163 11.3904 14.5 9.9479 14.5 8.36666C14.5 4.92409 11.7298 2.13333 8.3125 2.13333ZM1 8.36666C1 4.29817 4.27392 1 8.3125 1C12.3511 1 15.625 4.29817 15.625 8.36666C15.625 10.0322 15.0758 11.5696 14.1504 12.8035L18.8128 17.0113C19.0442 17.2201 19.0638 17.5783 18.8565 17.8114C18.6492 18.0445 18.2936 18.0642 18.0622 17.8554L13.4055 13.6528C12.0893 14.9399 10.2926 15.7333 8.3125 15.7333C4.27392 15.7333 1 12.4352 1 8.36666Z" fill="white" stroke="white" stroke-linecap="round" stroke-linejoin="round"/>
</svg>
