<svg width="17" height="16" viewBox="0 0 17 16" fill="none" xmlns="http://www.w3.org/2000/svg">
<g clip-path="url(#clip0)">
<path d="M2.1423 5.46948C2.34163 5.63421 2.94248 6.12347 3.9449 6.93701C4.94734 7.75055 5.71528 8.37695 6.24875 8.81626C6.30736 8.86441 6.43188 8.96909 6.62237 9.13043C6.81289 9.29188 6.9712 9.42235 7.09717 9.52187C7.22323 9.62135 7.37562 9.73295 7.5545 9.8565C7.73332 9.97993 7.90188 10.0728 8.06016 10.1342C8.21847 10.1962 8.36501 10.2269 8.49981 10.2269H8.50865H8.51752C8.65233 10.2269 8.79893 10.1962 8.95724 10.1342C9.11545 10.0728 9.28417 9.97982 9.46284 9.8565C9.64159 9.73281 9.79399 9.62132 9.92005 9.52187C10.0461 9.42235 10.2043 9.29188 10.3949 9.13043C10.5853 8.96894 10.71 8.86441 10.7686 8.81626C11.3078 8.37695 12.6797 7.26125 14.8838 5.46926C15.3117 5.11927 15.6693 4.69695 15.9565 4.2026C16.2439 3.70847 16.3874 3.1901 16.3874 2.64778C16.3874 2.19459 16.2481 1.80665 15.9696 1.484C15.6912 1.16127 15.3614 1 14.9805 1H2.03675C1.58539 1 1.23804 1.17848 0.994758 1.53543C0.751508 1.89246 0.629883 2.33873 0.629883 2.87419C0.629883 3.30672 0.791146 3.77542 1.11352 4.28001C1.43586 4.78464 1.7789 5.18116 2.1423 5.46948Z" fill="#52575C"/>
<path d="M15.508 6.5717C13.5854 8.09572 12.1255 9.28014 11.1291 10.1247C10.795 10.4129 10.5239 10.6379 10.3157 10.7992C10.1076 10.9605 9.8307 11.1253 9.48477 11.2934C9.13896 11.4618 8.81668 11.5457 8.51765 11.5457H8.50869H8.49985C8.20088 11.5457 7.87842 11.4618 7.53261 11.2934C7.18679 11.1253 6.90976 10.9605 6.70165 10.7992C6.4936 10.6379 6.22245 10.4129 5.88834 10.1247C5.0969 9.44506 3.64017 8.26057 1.51809 6.5717C1.18386 6.31099 0.887824 6.01214 0.629883 5.67578V13.8525C0.629883 14.3059 0.767585 14.6936 1.04314 15.0163C1.31864 15.3391 1.64991 15.5004 2.03684 15.5004H14.9806C15.3674 15.5004 15.6987 15.3391 15.9742 15.0163C16.2498 14.6935 16.3875 14.3059 16.3875 13.8525V5.67578C16.1353 6.00518 15.8423 6.30402 15.508 6.5717Z" fill="#52575C"/>
</g>
<defs>
<clipPath id="clip0">
<rect width="15.7576" height="16" fill="white" transform="translate(0.629883)"/>
</clipPath>
</defs>
</svg>
