<svg width="16" height="16" viewBox="0 0 16 16" fill="none" xmlns="http://www.w3.org/2000/svg">
<g clip-path="url(#clip0)">
<path d="M2.93853 13.9579C2.87662 13.9286 2.83191 13.8956 2.90414 13.8296C2.94885 13.7929 2.997 13.7599 3.04515 13.7269C3.49572 13.4152 3.91878 13.0742 4.19737 12.5719C4.43126 12.1539 4.39342 11.9082 4.10107 11.6002C2.47076 9.86213 1.75536 7.78307 2.11306 5.32633C2.31599 3.94029 2.91102 2.74126 3.77776 1.69989C4.30056 1.06921 4.9231 0.559526 5.60411 0.13418C5.64539 0.108513 5.70386 0.101179 5.71074 0.0351774C5.69698 -0.00149027 5.6729 0.00951004 5.65227 0.00951004C4.49317 0.00951004 3.33407 -0.0161574 2.17841 0.0168436C1.0709 0.0535113 0.114734 0.966537 0.118173 2.27558C0.125052 6.10002 0.118173 9.92446 0.118173 13.7526C0.118173 14.9406 0.96772 15.9343 2.07867 15.9783C3.01764 16.0186 3.95661 15.9856 4.89902 15.982C4.96781 15.9856 5.0366 15.9893 5.10539 15.9893H10.072C11.3102 15.9893 12.5484 15.9966 13.7866 15.9893C14.9354 15.9893 15.8675 14.9993 15.8675 13.7782V13.7562V11.6112C15.8675 11.5598 15.8847 11.5048 15.8537 11.4498C15.7918 11.4535 15.7677 11.5085 15.7333 11.5452C15.0661 12.2602 14.2784 12.8359 13.4151 13.2429C11.2999 14.2366 9.14676 14.3063 6.9627 13.5069C6.77353 13.4336 6.56716 13.4262 6.37111 13.4776C6.0822 13.5546 5.79672 13.6462 5.51125 13.7379C4.67202 14.0166 3.81559 14.1412 2.93853 13.9579ZM5.43214 7.7794C5.49061 7.69873 5.52157 7.65106 5.55596 7.60339C6.00653 6.99471 6.4571 6.38603 6.90767 5.77368C7.03837 5.59767 7.16907 5.418 7.25161 5.20533C7.34792 4.96332 7.24474 4.73598 7.01085 4.64798C6.90767 4.61498 6.79761 4.60031 6.68754 4.60764C6.07532 4.60398 5.45966 4.60398 4.84743 4.60764C4.76145 4.60764 4.67546 4.61864 4.59291 4.64064C4.4003 4.69198 4.28336 4.90098 4.33151 5.10999C4.36591 5.24933 4.46909 5.35933 4.59979 5.39233C4.68234 5.41433 4.76832 5.42533 4.85431 5.42167C5.22577 5.42533 5.60067 5.42167 5.97214 5.42533C6.01341 5.42533 6.065 5.396 6.09596 5.462C6.065 5.506 6.03405 5.55 6.00309 5.59034C5.46997 6.30902 4.9403 7.03138 4.40718 7.75007C4.27648 7.92974 4.20769 8.12774 4.304 8.34775C4.4003 8.56776 4.59635 8.60809 4.79584 8.62276C4.95406 8.63376 5.11571 8.62642 5.27736 8.62642C5.83456 8.62642 6.38831 8.63009 6.9455 8.62276C7.2413 8.61909 7.39951 8.42842 7.36856 8.13508C7.34448 7.90407 7.19658 7.78307 6.92143 7.7794C6.43646 7.77573 5.9515 7.7794 5.43214 7.7794ZM9.42192 5.85068C8.99198 5.451 8.51734 5.42533 8.05301 5.71867C7.48894 6.07068 7.28257 6.64637 7.35136 7.31372C7.41671 7.93707 7.67123 8.44675 8.28345 8.65576C8.66523 8.78776 9.0195 8.74009 9.33249 8.46875C9.41504 8.39908 9.43911 8.41375 9.49758 8.49075C9.61108 8.64476 9.80713 8.70343 9.97911 8.63376C10.1511 8.57876 10.2646 8.41008 10.2646 8.21941C10.268 7.48606 10.2715 6.7527 10.2646 6.01935C10.2611 5.72601 10.0032 5.539 9.73491 5.59767C9.58701 5.63067 9.50446 5.73701 9.42192 5.85068ZM11.8055 7.21105C11.7917 8.12774 12.5037 8.82076 13.3979 8.72543C14.22 8.63742 14.7531 7.98107 14.7256 7.05338C14.698 6.13669 14.0583 5.50967 13.1812 5.539C12.3592 5.56467 11.7779 6.26869 11.8055 7.21105ZM11.5028 6.48136C11.5028 5.90568 11.5062 5.33366 11.5028 4.75798C11.5028 4.46464 11.3274 4.2813 11.066 4.28497C10.8115 4.28863 10.6429 4.47197 10.6395 4.75431C10.636 4.92665 10.6395 5.09532 10.6395 5.26766V8.18274C10.6395 8.41008 10.7702 8.60809 10.9422 8.65576C11.1795 8.72543 11.4237 8.57509 11.4856 8.32208C11.4959 8.27808 11.5028 8.23408 11.4993 8.18641C11.5062 7.61806 11.5028 7.04971 11.5028 6.48136Z" fill="#52575C"/>
<path d="M4.89511 15.9851C3.95614 15.9851 3.01372 16.0181 2.07475 15.9815C0.963805 15.9338 0.114258 14.9401 0.114258 13.7557C0.114258 9.9313 0.121137 6.10685 0.114258 2.27874C0.114258 0.969707 1.07387 0.0566805 2.17793 0.0236795C3.33359 -0.00932143 4.49269 0.016346 5.65179 0.016346C5.67243 0.016346 5.69994 0.00534566 5.71026 0.0420134C5.70338 0.108015 5.64147 0.115349 5.60364 0.141016C4.92262 0.566362 4.30008 1.07604 3.77728 1.70673C2.91398 2.74809 2.31551 3.94346 2.11258 5.33317C1.75488 7.78624 2.47373 9.86896 4.10059 11.607C4.38951 11.9187 4.42734 12.1607 4.1969 12.5787C3.9183 13.0811 3.49525 13.4221 3.04468 13.7337C2.99653 13.7631 2.94837 13.7997 2.90022 13.8327C2.82799 13.8987 2.8727 13.9317 2.93462 13.9611C2.94837 13.9941 2.96557 14.0234 2.98621 14.0527C3.38175 14.4268 3.75665 14.8264 4.14531 15.2078C4.3276 15.3875 4.50989 15.5745 4.6853 15.7615C4.75753 15.8311 4.87791 15.8531 4.89511 15.9851Z" fill="#52575C"/>
<path d="M4.89508 15.9855C4.87788 15.8572 4.7575 15.8352 4.68527 15.7582C4.50986 15.5675 4.32756 15.3841 4.14527 15.2045C3.75661 14.8231 3.3817 14.4234 2.98616 14.0494C2.96553 14.0201 2.94833 13.9908 2.93457 13.9578C3.81164 14.1411 4.66807 14.0164 5.51075 13.7414C5.79623 13.6498 6.0817 13.5581 6.37062 13.4811C6.56667 13.4261 6.77304 13.4371 6.96221 13.5104C9.14285 14.3098 11.296 14.2364 13.4147 13.2464C14.278 12.8394 15.0657 12.2674 15.7329 11.5524C15.7673 11.5157 15.7914 11.4607 15.8533 11.457C15.8843 11.5084 15.8671 11.5634 15.8671 11.6184V13.7634C15.8739 14.9881 14.9522 15.9855 13.8034 15.9965H13.7862C12.5479 16.0038 11.3097 15.9965 10.0715 15.9965H5.10145C5.03266 15.9892 4.96387 15.9855 4.89508 15.9855Z" fill="#52575C"/>
<path d="M5.43153 7.77929C5.95088 7.77929 6.43927 7.77562 6.92423 7.77929C7.19594 7.78295 7.34383 7.90396 7.37135 8.13497C7.4023 8.42465 7.24409 8.61899 6.9483 8.62266C6.39112 8.62999 5.83738 8.62633 5.28019 8.62633C5.11854 8.62633 4.96033 8.63366 4.79868 8.62266C4.59919 8.61166 4.40315 8.56766 4.30684 8.34765C4.21054 8.12764 4.27933 7.92963 4.41003 7.74995C4.93969 7.03126 5.4728 6.30889 6.00591 5.59019C6.03686 5.54619 6.06781 5.50219 6.09877 5.46185C6.06438 5.39952 6.01622 5.42885 5.97495 5.42518C5.6035 5.42152 5.2286 5.42518 4.85715 5.42152C4.77116 5.42152 4.68518 5.41052 4.60263 5.39218C4.40659 5.34451 4.28621 5.1355 4.33092 4.93016C4.36187 4.79082 4.46506 4.67715 4.59575 4.64415C4.6783 4.62215 4.76428 4.61115 4.85027 4.61115C5.46248 4.60748 6.07813 4.60748 6.69035 4.61115C6.80041 4.60748 6.90703 4.62215 7.01365 4.65148C7.24753 4.73582 7.34727 4.96683 7.25441 5.20884C7.17186 5.41785 7.04116 5.59753 6.91047 5.7772C6.45991 6.38956 6.00935 6.99825 5.55878 7.60328C5.52095 7.65095 5.48656 7.69862 5.43153 7.77929Z" fill="#52575C"/>
<path d="M9.4207 5.85019C9.50324 5.73652 9.58923 5.63018 9.73024 5.60084C10.002 5.54218 10.2565 5.72918 10.2599 6.02252C10.2702 6.75588 10.2668 7.48923 10.2599 8.22259C10.2599 8.41326 10.143 8.58193 9.97444 8.63693C9.80247 8.7066 9.60642 8.6516 9.49292 8.49393C9.43445 8.41692 9.41038 8.40226 9.32783 8.47193C9.01485 8.74327 8.66059 8.79094 8.27881 8.65893C7.6666 8.44626 7.41552 7.93658 7.34673 7.31689C7.27451 6.64587 7.48431 6.07386 8.04837 5.72185C8.51613 5.42484 8.99077 5.45051 9.4207 5.85019ZM8.20315 7.18856C8.21002 7.34989 8.25818 7.5039 8.3476 7.63224C8.53333 7.89624 8.88759 7.95125 9.13866 7.75324C9.17994 7.72024 9.21777 7.6799 9.25217 7.63224C9.44477 7.35356 9.44477 6.89521 9.25217 6.61654C9.15586 6.47354 9.00453 6.3892 8.84288 6.38553C8.46454 6.35987 8.19971 6.67154 8.20315 7.18856ZM11.8042 7.21056C11.7767 6.2682 12.3579 5.56418 13.1834 5.53851C14.0605 5.50918 14.7002 6.13619 14.7277 7.05289C14.7552 7.98058 14.2221 8.63693 13.4001 8.72493C12.5024 8.82027 11.7904 8.12725 11.8042 7.21056ZM12.6675 7.12255C12.6606 7.30589 12.7122 7.48557 12.8154 7.6359C13.0046 7.89991 13.3588 7.95125 13.6065 7.74591C13.6443 7.71657 13.6752 7.6799 13.7062 7.64324C13.9057 7.36456 13.9057 6.89521 13.7096 6.61654C13.6133 6.4772 13.462 6.3892 13.3003 6.38553C12.9289 6.36353 12.6675 6.66421 12.6675 7.12255ZM11.5015 6.48087C11.5015 7.04922 11.505 7.61757 11.5015 8.18592C11.505 8.44626 11.3124 8.6626 11.0682 8.66993C11.0269 8.66993 10.9822 8.66627 10.9409 8.65527C10.7689 8.6076 10.6382 8.41326 10.6382 8.18225V5.26717C10.6382 5.09483 10.6348 4.92616 10.6382 4.75382C10.6417 4.47148 10.8102 4.28814 11.0647 4.28814C11.3261 4.28447 11.5015 4.46781 11.5015 4.76115C11.505 5.33317 11.5015 5.90885 11.5015 6.48087Z" fill="#52575C"/>
<path d="M8.20413 7.18817C8.2007 6.67146 8.46554 6.35996 8.84045 6.38195C9.00211 6.38928 9.15345 6.47357 9.24975 6.61649C9.44237 6.89134 9.44237 7.35308 9.24975 7.63159C9.06402 7.89545 8.70975 7.95042 8.45866 7.75253C8.41739 7.71955 8.37955 7.67923 8.34516 7.63159C8.25917 7.50333 8.21101 7.34942 8.20413 7.18817ZM12.6686 7.12221C12.6686 6.66779 12.93 6.36363 13.3015 6.38562C13.4632 6.38928 13.6145 6.47723 13.7108 6.61649C13.9069 6.895 13.9069 7.36774 13.7074 7.64259C13.5148 7.90278 13.1571 7.94675 12.9129 7.74153C12.875 7.71222 12.8441 7.67557 12.8165 7.63526C12.7134 7.48501 12.6652 7.30544 12.6686 7.12221Z" fill="white"/>
</g>
<defs>
<clipPath id="clip0">
<rect width="15.7576" height="16" fill="white" transform="translate(0.114258)"/>
</clipPath>
</defs>
</svg>
