<svg width="19" height="19" viewBox="0 0 19 19" fill="none" xmlns="http://www.w3.org/2000/svg">
<path d="M18.9545 14.0387C18.9196 14.0806 18.8917 14.1225 18.8568 14.1574C18.1098 14.9672 17.1953 15.5326 16.1901 15.9445C14.8707 16.489 13.4814 16.7403 12.0573 16.7962C11.4779 16.8241 10.8985 16.8032 10.3191 16.7473C9.73965 16.6915 9.16023 16.6007 8.58779 16.4681C7.53366 16.2238 6.53539 15.8398 5.6139 15.2604C5.53013 15.2045 5.4673 15.2045 5.37655 15.2394C4.90184 15.4349 4.40619 15.5675 3.8896 15.6164C3.62432 15.6443 3.35905 15.6234 3.09377 15.6304C3.00302 15.5745 2.99604 15.5257 3.07283 15.4349C3.35207 15.1277 3.5615 14.7717 3.66621 14.3668C3.77092 13.9829 3.81281 13.6129 3.5615 13.2568C3.17056 12.6914 2.88434 12.0701 2.66095 11.4278C2.1304 9.90598 1.94889 8.34225 2.06059 6.74361C2.13738 5.67552 2.33983 4.64234 2.7168 3.64406C3.1566 2.48522 3.77791 1.43808 4.72034 0.614325C4.85297 0.495648 4.99259 0.383953 5.13221 0.272257C5.22296 0.202448 5.31372 0.132638 5.41145 0.0837715C5.46032 0.0628286 5.5022 0.0349048 5.55805 0.0279238C5.58597 0.0209429 5.62088 0.0209429 5.6488 0.0209429C5.67673 0.0209429 5.71163 0 5.73257 0C5.66277 0 5.59296 0 5.51616 0C5.1741 0 4.82505 0 4.48298 0C4.4411 0 4.39223 0 4.35034 0C3.86866 0.0139619 3.39395 0.0698096 2.93321 0.202448C2.5702 0.314143 2.21417 0.467724 1.89305 0.670172C1.5789 0.865639 1.29966 1.10997 1.05533 1.39619C0.797036 1.69637 0.594588 2.03146 0.427045 2.38749C0.406102 2.43636 0.378178 2.4922 0.357235 2.54107C0.0919588 3.15539 0.00120631 3.80462 0.0221492 4.46781C0.0151682 4.46781 0.0151682 4.46781 0.00818727 4.46781C0.00818727 4.88667 0.00818727 5.31251 0.00818727 5.73137C0.00818727 6.15023 0.00818727 6.57606 0.00818727 6.99492C0.00818727 7.41378 0.00818727 7.83962 0.00818727 8.25848C0.00818727 8.67733 0.00818727 9.10317 0.00818727 9.52203C0.00818727 9.94089 0.00818727 10.3667 0.00818727 10.7856C0.00818727 11.2044 0.00818727 11.6303 0.00818727 12.0491C0.00818727 12.6006 0.00120631 13.1591 0.00120631 13.7106C0.00120631 14.3668 -0.0197366 15.023 0.112902 15.6723C0.294407 16.5588 0.75515 17.3756 1.43928 17.962C2.26304 18.6741 3.29622 18.9393 4.36431 18.9742C5.43937 19.0092 6.52142 18.9742 7.59649 18.9742C8.72043 18.9742 9.84436 18.9742 10.9753 18.9742C12.19 18.9742 13.4046 18.9742 14.6193 18.9742C14.6612 18.9463 14.7031 18.9603 14.745 18.9603C15.2476 18.9603 15.7433 18.8905 16.225 18.7229C17.3559 18.318 18.1657 17.5641 18.6334 16.4541C18.773 16.119 18.8707 15.77 18.9266 15.414C18.9824 15.044 18.9755 14.674 18.9824 14.304C18.9824 14.2761 18.9894 14.2272 18.9894 14.1783C19.0034 14.1295 18.9964 14.0597 18.9545 14.0387Z" fill="white"/>
<path d="M7.02411 7.05042C6.22828 7.05042 5.43943 7.05042 4.65058 7.05042C4.53191 7.05042 4.497 7.0225 4.50398 6.90382C4.51795 6.7293 4.51096 6.55477 4.50398 6.38025C4.497 6.2895 4.53191 6.26855 4.62266 6.26855C4.87397 6.27554 5.13227 6.26855 5.38358 6.26855C6.27715 6.26855 7.17071 6.26855 8.06427 6.26855C8.15503 6.26855 8.18993 6.2895 8.18295 6.38723C8.16201 6.63855 8.0922 6.85496 7.93163 7.0574C7.13581 8.0487 6.34696 9.04698 5.55811 10.0453C5.54415 10.0592 5.53717 10.0732 5.53018 10.0941C5.57905 10.122 5.62094 10.1081 5.66282 10.1081C6.45865 10.1081 7.26146 10.1081 8.05729 10.1081C8.14804 10.1081 8.18993 10.122 8.18295 10.2268C8.17597 10.3454 8.19691 10.4711 8.16899 10.5898C8.1271 10.7573 8.02937 10.8411 7.86183 10.8411C6.75185 10.8411 5.64188 10.8411 4.52493 10.8411C4.42021 10.8411 4.40625 10.8062 4.40625 10.7015C4.41323 10.4502 4.497 10.2477 4.65058 10.0522C5.43245 9.08188 6.20734 8.11153 6.98921 7.13419C6.99619 7.12023 7.03807 7.09929 7.02411 7.05042Z" fill="white"/>
<path d="M11.9309 7.47772C11.9309 7.40791 11.91 7.38697 11.8402 7.38697C11.6866 7.38697 11.54 7.38697 11.3864 7.38697C11.1839 7.38697 11.1839 7.38697 11.1979 7.5964C11.1979 7.60338 11.1909 7.60338 11.177 7.61734C10.779 7.35905 10.3462 7.22641 9.86454 7.31018C9.38285 7.39395 8.9989 7.63828 8.7057 8.02922C8.23798 8.6575 8.22402 9.68371 8.90815 10.3609C9.44568 10.8914 10.4091 11.0799 11.17 10.5354C11.1839 10.5703 11.1979 10.5912 11.2049 10.6192C11.2677 10.7867 11.3794 10.8635 11.5609 10.8495C11.6517 10.8425 11.7424 10.8425 11.8332 10.8495C11.903 10.8495 11.9239 10.8356 11.9239 10.7658C11.9309 9.66974 11.9309 8.57373 11.9309 7.47772ZM10.1717 10.1305C9.57832 10.1305 9.10362 9.66276 9.10362 9.08334C9.10362 8.48996 9.57134 8.01526 10.1438 8.01526C10.7302 8.01526 11.2119 8.49694 11.2049 9.0624C11.2049 9.66276 10.7441 10.1305 10.1717 10.1305Z" fill="white"/>
<path d="M15.6732 7.25977C14.6888 7.25977 13.8721 8.08352 13.8721 9.06783C13.8721 10.0731 14.6749 10.8829 15.6732 10.8829C16.6435 10.8899 17.4812 10.0382 17.4742 9.05387C17.4742 8.0905 16.6435 7.25977 15.6732 7.25977ZM15.6662 10.1429C15.0798 10.1429 14.6051 9.6682 14.6051 9.0818C14.6051 8.4954 15.0868 8.00673 15.6592 8.00673C16.2456 8.00673 16.7273 8.48841 16.7273 9.07482C16.7273 9.67518 16.2596 10.1429 15.6662 10.1429Z" fill="white"/>
<path d="M13.3488 8.53145C13.3488 9.26445 13.3488 9.99745 13.3488 10.7235C13.3488 10.8142 13.3348 10.8491 13.2371 10.8421C13.1254 10.8352 13.0067 10.8491 12.895 10.8491C12.6646 10.8421 12.5669 10.7444 12.5669 10.514C12.5669 9.45992 12.5669 8.40579 12.5669 7.34469C12.5669 7.00262 12.5669 6.66754 12.5669 6.32547C12.5669 6.2417 12.5878 6.21377 12.6716 6.22075C12.8671 6.22773 13.0625 6.22773 13.251 6.22075C13.3418 6.22075 13.3557 6.24868 13.3557 6.33245C13.3488 7.06545 13.3488 7.79845 13.3488 8.53145Z" fill="white"/>
</svg>
