<svg width="19" height="19" viewBox="0 0 19 19" fill="none" xmlns="http://www.w3.org/2000/svg">
<path d="M14.0738 8.557C13.9423 8.58103 13.9636 8.46775 13.9529 8.40939C13.8534 7.9425 13.6792 7.49965 13.4197 7.09456C12.7159 5.98914 11.7135 5.29568 10.3912 5.05194C10.2277 5.02448 10.1637 4.96955 10.2099 4.81506C10.2206 4.78073 10.2206 4.7464 10.2277 4.71551C10.2597 4.58849 10.2064 4.40997 10.3201 4.35161C10.4126 4.30698 10.569 4.37564 10.6969 4.40311C12.6555 4.79447 14.2977 6.42513 14.6603 8.33386C14.671 8.39909 14.703 8.45745 14.5999 8.47118C14.4257 8.49864 14.2515 8.52954 14.0738 8.557Z" fill="white"/>
<path d="M10.1035 6.68598C10.1284 6.50746 10.1533 6.33581 10.1746 6.1676C10.1853 6.07491 10.2421 6.09894 10.3026 6.10924C11.2374 6.27402 11.9412 6.75807 12.4389 7.53049C12.6237 7.81886 12.7446 8.13469 12.8192 8.46426C12.837 8.54665 12.8263 8.57754 12.7375 8.58784C12.5562 8.61187 12.3536 8.708 12.2007 8.65994C12.0337 8.60844 12.0763 8.36127 12.0052 8.20678C11.6604 7.45839 11.0881 6.97778 10.2528 6.79583C10.1035 6.76493 10.1035 6.76493 10.1035 6.68598Z" fill="white"/>
<path d="M18.996 9.25361C18.996 14.3639 14.821 18.5066 9.66987 18.5066C8.0352 18.5066 6.49964 18.0885 5.16292 17.3563L0 18.996L1.68298 14.03C0.834367 12.6363 0.34564 10.9998 0.34564 9.25299C0.346259 4.14272 4.51995 0 9.6711 0C14.8216 0.00123885 18.996 4.14334 18.996 9.25361ZM9.66925 1.47547C5.34627 1.47547 1.82979 4.96532 1.82979 9.25547C1.82979 10.9577 2.38479 12.5335 3.32322 13.8157L2.34453 16.7041L5.35618 15.7471C6.59503 16.5597 8.07732 17.033 9.66925 17.033C13.9922 17.033 17.5099 13.5438 17.5099 9.25361C17.5112 4.96532 13.9928 1.47547 9.66925 1.47547ZM14.3794 11.3851C14.3211 11.2915 14.1688 11.2345 13.9408 11.1206C13.7135 11.0066 12.588 10.4584 12.3792 10.3841C12.1686 10.3079 12.0163 10.2695 11.8639 10.4968C11.7134 10.7241 11.2748 11.2345 11.1404 11.3869C11.0072 11.5387 10.874 11.5579 10.6455 11.4458C10.4169 11.3305 9.67978 11.0927 8.80639 10.3203C8.12687 9.71818 7.66788 8.97673 7.53532 8.7494C7.40091 8.52269 7.5217 8.40004 7.63505 8.28731C7.73726 8.1851 7.86362 8.02219 7.97821 7.88902C8.09281 7.75708 8.13059 7.66354 8.20678 7.51178C8.28173 7.36002 8.24395 7.22809 8.18758 7.11349C8.13059 6.99952 7.67407 5.88455 7.48267 5.43051C7.29251 4.97709 7.10234 5.05204 6.96855 5.05204C6.83537 5.05204 6.68299 5.03346 6.53061 5.03346C6.37823 5.03346 6.13046 5.08859 5.92172 5.31592C5.71297 5.54325 5.12204 6.09144 5.12204 7.20765C5.12204 8.32509 5.9403 9.40227 6.05489 9.55341C6.17011 9.70393 7.63691 12.0695 9.96038 12.9776C12.2851 13.8851 12.2851 13.5822 12.7038 13.5438C13.1238 13.5054 14.0566 12.9956 14.2462 12.4666C14.437 11.9351 14.437 11.4798 14.3794 11.3851Z" fill="white"/>
</svg>
