<svg width="25" height="25" viewBox="0 0 25 25" fill="none" xmlns="http://www.w3.org/2000/svg">
<path d="M12.4817 22.6528C8.72861 22.6528 4.97555 22.6528 1.22249 22.6528C1.02689 22.6528 0.96577 22.7017 0.977995 22.8973C0.99022 23.2029 0.99022 23.5086 0.977995 23.8142C0.96577 23.9976 1.02689 24.022 1.19804 24.022C3.92421 24.022 6.65037 24.022 9.37653 24.022C9.6577 24.022 9.9511 24.022 10.2323 24.022C10.5746 24.022 10.7824 24.2176 10.7824 24.511C10.7824 24.7922 10.5623 24.9878 10.2323 24.9878C7.00489 24.9878 3.77751 24.9878 0.550122 24.9878C0.195599 24.9878 0 24.7922 0 24.4377C0 23.6919 0 22.9584 0 22.2127C0 21.8704 0.195599 21.6748 0.525672 21.6748C0.782396 21.6748 1.05134 21.6626 1.30807 21.6748C1.43032 21.6748 1.46699 21.6381 1.46699 21.5159C1.46699 21.4548 1.46699 21.3814 1.46699 21.3203C1.46699 15.1956 1.46699 9.08313 1.46699 2.95844C1.46699 2.86064 1.46699 2.76284 1.47922 2.66504C1.51589 2.39609 1.71149 2.24939 2.02934 2.24939C3.10513 2.24939 4.18093 2.24939 5.2445 2.24939C5.5379 2.24939 5.5379 2.24939 5.5379 1.95599C5.5379 1.49144 5.5379 1.02689 5.5379 0.574572C5.5379 0.183374 5.72127 0 6.11247 0C10.3545 0 14.5966 0 18.8386 0C19.2421 0 19.4254 0.183374 19.4254 0.586797C19.4254 1.06357 19.4377 1.54034 19.4254 2.00489C19.4254 2.18826 19.4743 2.24939 19.6577 2.24939C20.7335 2.23716 21.8093 2.24939 22.8729 2.24939C23.3374 2.24939 23.5086 2.40831 23.5086 2.88509C23.5086 9.04646 23.5086 15.22 23.5086 21.3814C23.5086 21.7115 23.4841 21.6626 23.7897 21.6626C24.0098 21.6626 24.2298 21.6626 24.4499 21.6626C24.7677 21.6626 24.9633 21.8704 24.9633 22.176C24.9633 22.9462 24.9633 23.7164 24.9633 24.4743C24.9633 24.7677 24.7555 24.9756 24.4621 24.9756C21.2103 24.9756 17.9584 24.9756 14.7066 24.9756C14.401 24.9756 14.1932 24.7677 14.1932 24.4866C14.1932 24.2054 14.4132 24.0098 14.7433 24.0098C17.2005 24.0098 19.6577 24.0098 22.1149 24.0098C22.6895 24.0098 23.2641 24.0098 23.8264 24.0098C23.9487 24.0098 23.9976 23.9731 23.9976 23.8509C23.9853 23.5086 23.9853 23.1785 23.9976 22.8362C23.9976 22.6773 23.9609 22.6406 23.802 22.6406C22.2861 22.6406 20.7702 22.6406 19.2543 22.6406C17.0049 22.6528 14.7433 22.6528 12.4817 22.6528ZM12.4939 3.23961C9.2176 3.23961 5.95355 3.23961 2.67726 3.23961C2.53056 3.23961 2.44499 3.23961 2.44499 3.43521C2.44499 9.44988 2.44499 15.4645 2.44499 21.4792C2.44499 21.6259 2.48166 21.6748 2.64059 21.6748C4.53545 21.6748 6.43032 21.6748 8.31296 21.6748C8.45966 21.6748 8.49633 21.6259 8.49633 21.4914C8.49633 20.6235 8.49633 19.7433 8.49633 18.8753C8.49633 18.643 8.50856 18.4108 8.54523 18.1785C8.86308 15.8557 11.2103 14.2787 13.4841 14.8778C15.2567 15.3423 16.467 16.8826 16.4914 18.7164C16.5037 19.6333 16.5037 20.5501 16.4914 21.467C16.4914 21.6381 16.5281 21.687 16.6993 21.687C18.5575 21.6748 20.4157 21.687 22.2738 21.687C22.5306 21.687 22.5306 21.687 22.5306 21.4181C22.5306 15.4523 22.5306 9.47433 22.5306 3.50856C22.5306 3.23961 22.5306 3.23961 22.2738 3.23961C19.022 3.23961 15.7579 3.23961 12.4939 3.23961ZM12.4939 2.26161C13.2763 2.26161 14.0587 2.26161 14.8289 2.26161C15.9658 2.26161 17.1027 2.26161 18.2396 2.26161C18.4108 2.26161 18.4597 2.21271 18.4597 2.04156C18.4474 1.77262 18.4474 1.49144 18.4597 1.22249C18.4719 1.02689 18.4108 0.99022 18.2274 0.99022C15.0245 0.99022 11.8215 0.99022 8.61858 0.99022C7.98289 1.00245 7.34719 1.00244 6.71149 1.00244C6.57702 1.00244 6.52812 1.03912 6.54034 1.17359C6.55257 1.45477 6.54034 1.73594 6.54034 2.01712C6.54034 2.27384 6.54034 2.27384 6.79707 2.27384C8.69193 2.26161 10.599 2.26161 12.4939 2.26161ZM12.0171 18.7408C12.0171 17.824 12.0171 16.8949 12.0171 15.978C12.0171 15.8191 11.9804 15.7824 11.8215 15.8191C10.4523 16.1369 9.49878 17.3227 9.48655 18.7775C9.47433 19.6822 9.48655 20.599 9.48655 21.5037C9.48655 21.6504 9.52323 21.687 9.66993 21.687C10.3912 21.6748 11.1125 21.6748 11.8337 21.687C11.9927 21.687 12.0293 21.6381 12.0293 21.4914C12.0049 20.5746 12.0171 19.6577 12.0171 18.7408ZM12.9829 18.7286C12.9829 19.6455 12.9829 20.5746 12.9829 21.4914C12.9829 21.6381 13.0196 21.6748 13.1663 21.6748C13.8998 21.6626 14.621 21.6748 15.3545 21.6748C15.4523 21.6748 15.5257 21.6748 15.5257 21.5403C15.5134 20.5379 15.5501 19.5355 15.5012 18.533C15.4523 17.2249 14.4499 16.088 13.1785 15.8068C12.9951 15.7702 12.9707 15.8191 12.9707 15.978C12.9951 16.8949 12.9829 17.8117 12.9829 18.7286Z" fill="#004FA8"/>
<path d="M12.9824 24.5105C12.9824 24.7794 12.7623 24.9995 12.5056 24.9995C12.2367 24.9995 12.0166 24.7794 12.0166 24.4983C12.0166 24.2293 12.2367 24.0215 12.5056 24.0215C12.7623 24.0215 12.9824 24.2415 12.9824 24.5105Z" fill="#004FA8"/>
<path d="M5.48927 5.39113C5.85602 5.39113 6.22277 5.39113 6.57729 5.39113C6.94404 5.39113 7.12741 5.58673 7.12741 5.95348C7.12741 6.68697 7.12741 7.42047 7.12741 8.15397C7.12741 8.52072 6.94404 8.70409 6.57729 8.70409C5.83157 8.70409 5.09807 8.70409 4.35235 8.70409C3.99783 8.70409 3.81445 8.50849 3.81445 8.15397C3.81445 7.40825 3.81445 6.67475 3.81445 5.92903C3.81445 5.57451 4.01005 5.39113 4.35235 5.37891C4.73132 5.39113 5.1103 5.39113 5.48927 5.39113ZM6.16164 7.0415C6.16164 6.85812 6.16164 6.67475 6.16164 6.49138C6.16164 6.39358 6.12497 6.3569 6.02717 6.3569C5.66042 6.3569 5.3059 6.3569 4.93915 6.3569C4.84135 6.3569 4.79245 6.38135 4.79245 6.49138C4.79245 6.85812 4.79245 7.2371 4.79245 7.60385C4.79245 7.68942 4.82912 7.73832 4.9147 7.72609C5.28145 7.72609 5.66042 7.72609 6.02717 7.72609C6.12497 7.72609 6.16164 7.68942 6.16164 7.59162C6.14942 7.40825 6.16164 7.22487 6.16164 7.0415Z" fill="#004FA8"/>
<path d="M11.8217 7.02927C11.8217 7.39602 11.8217 7.77499 11.8217 8.14174C11.8217 8.52072 11.6384 8.70409 11.2594 8.70409C10.5259 8.70409 9.79241 8.70409 9.05891 8.70409C8.69216 8.70409 8.50879 8.50849 8.50879 8.14174C8.50879 7.40825 8.50879 6.67475 8.50879 5.94125C8.50879 5.57451 8.69216 5.39113 9.05891 5.37891C9.80463 5.37891 10.5381 5.37891 11.2838 5.37891C11.6384 5.37891 11.8217 5.57451 11.8217 5.92903C11.8217 6.29578 11.8217 6.66252 11.8217 7.02927ZM10.8438 7.0415C10.8438 6.85812 10.8438 6.67475 10.8438 6.49138C10.8438 6.39358 10.8071 6.3569 10.7093 6.3569C10.3425 6.3569 9.98801 6.3569 9.62126 6.3569C9.52346 6.3569 9.47456 6.38135 9.47456 6.49138C9.47456 6.85812 9.47456 7.2371 9.47456 7.60385C9.47456 7.68942 9.51123 7.73832 9.59681 7.72609C9.96356 7.72609 10.3425 7.72609 10.7093 7.72609C10.8071 7.72609 10.8438 7.68942 10.8438 7.59162C10.8315 7.40825 10.8438 7.22487 10.8438 7.0415Z" fill="#004FA8"/>
<path d="M14.8413 8.70456C14.4746 8.70456 14.0956 8.70456 13.7288 8.70456C13.3621 8.70456 13.1787 8.50896 13.1787 8.14221C13.1787 7.40872 13.1787 6.67522 13.1787 5.94172C13.1787 5.57498 13.3621 5.3916 13.7288 5.3916C14.4746 5.3916 15.2081 5.3916 15.9538 5.3916C16.3083 5.3916 16.4917 5.5872 16.4917 5.94172C16.4917 6.68745 16.4917 7.42094 16.4917 8.16666C16.4917 8.52119 16.2961 8.70456 15.9538 8.71678C15.587 8.70456 15.2203 8.70456 14.8413 8.70456ZM14.8291 6.3696C14.6579 6.3696 14.4746 6.3696 14.3034 6.3696C14.1934 6.3696 14.1567 6.39405 14.1567 6.5163C14.1567 6.88304 14.1567 7.23757 14.1567 7.60432C14.1567 7.70211 14.1934 7.73879 14.2912 7.73879C14.6579 7.73879 15.0125 7.73879 15.3792 7.73879C15.477 7.73879 15.5259 7.71434 15.5137 7.60432C15.5137 7.23757 15.5137 6.85859 15.5137 6.49185C15.5137 6.39405 15.477 6.3696 15.3914 6.3696C15.2081 6.3696 15.0247 6.3696 14.8291 6.3696Z" fill="#004FA8"/>
<path d="M19.5229 8.70456C19.1562 8.70456 18.7772 8.70456 18.4105 8.70456C18.056 8.70456 17.8604 8.50896 17.8604 8.16666C17.8604 7.42094 17.8604 6.67522 17.8604 5.9295C17.8604 5.5872 18.0559 5.40383 18.3982 5.3916C19.144 5.3916 19.8897 5.3916 20.6354 5.3916C20.9777 5.3916 21.1733 5.5872 21.1733 5.91727C21.1733 6.67522 21.1733 7.42094 21.1733 8.17889C21.1733 8.50896 20.9777 8.69234 20.6476 8.70456C20.2809 8.71678 19.9019 8.70456 19.5229 8.70456ZM19.5474 6.3696C19.364 6.3696 19.1684 6.3696 18.985 6.3696C18.8872 6.3696 18.8506 6.39405 18.8506 6.50407C18.8506 6.87082 18.8506 7.24979 18.8506 7.61654C18.8506 7.71434 18.8872 7.73879 18.9728 7.73879C19.3396 7.73879 19.7185 7.73879 20.0853 7.73879C20.1953 7.73879 20.2198 7.68989 20.2198 7.59209C20.2198 7.22534 20.2198 6.87082 20.2198 6.50407C20.2198 6.40627 20.1831 6.3696 20.0853 6.3696C19.8897 6.3696 19.7185 6.3696 19.5474 6.3696Z" fill="#004FA8"/>
<path d="M5.47654 13.3862C5.10979 13.3862 4.74304 13.3862 4.38852 13.3862C4.00955 13.3862 3.82617 13.2028 3.82617 12.8239C3.82617 12.0904 3.82617 11.3569 3.82617 10.6234C3.82617 10.2566 4.02177 10.0732 4.38852 10.0732C5.12202 10.0732 5.85551 10.0732 6.58901 10.0732C6.95576 10.0732 7.13913 10.2566 7.13913 10.6234C7.13913 11.3569 7.13913 12.0904 7.13913 12.8239C7.13913 13.2028 6.95576 13.3862 6.57678 13.3862C6.19781 13.3862 5.84329 13.3862 5.47654 13.3862ZM6.16114 11.7481C6.16114 11.5647 6.16114 11.3691 6.16114 11.1857C6.16114 11.0879 6.13669 11.0512 6.02666 11.0512C5.65991 11.0512 5.28094 11.0512 4.91419 11.0512C4.81639 11.0512 4.79194 11.0879 4.79194 11.1735C4.79194 11.5402 4.79194 11.9192 4.79194 12.286C4.79194 12.396 4.84084 12.4204 4.93864 12.4204C5.30539 12.4204 5.65991 12.4204 6.02666 12.4204C6.12446 12.4204 6.16114 12.3838 6.16114 12.286C6.14891 12.1026 6.16114 11.9314 6.16114 11.7481Z" fill="#004FA8"/>
<path d="M11.8217 11.7114C11.8217 12.0781 11.8217 12.4571 11.8217 12.8239C11.8217 13.2028 11.6384 13.3862 11.2594 13.3862C10.5259 13.3862 9.79241 13.3862 9.05891 13.3862C8.69216 13.3862 8.50879 13.1906 8.50879 12.8239C8.50879 12.0904 8.50879 11.3569 8.50879 10.6234C8.50879 10.2566 8.69216 10.0732 9.05891 10.0732C9.80463 10.0732 10.5381 10.0732 11.2838 10.0732C11.6384 10.0732 11.8217 10.2688 11.8217 10.6234C11.8217 10.9779 11.8217 11.3446 11.8217 11.7114ZM10.8438 11.7236C10.8438 11.5525 10.8438 11.3691 10.8438 11.1979C10.8438 11.1001 10.8193 11.039 10.7093 11.039C10.3425 11.039 9.98801 11.039 9.62126 11.039C9.52346 11.039 9.48678 11.0757 9.48678 11.1735C9.48678 11.5402 9.48678 11.8948 9.48678 12.2615C9.48678 12.3715 9.53568 12.4082 9.63348 12.4082C9.98801 12.4082 10.3425 12.4082 10.7093 12.4082C10.8193 12.4082 10.856 12.3715 10.856 12.2615C10.8315 12.0904 10.8438 11.907 10.8438 11.7236Z" fill="#004FA8"/>
<path d="M14.8169 13.3862C14.4501 13.3862 14.0834 13.3862 13.7288 13.3862C13.3743 13.3862 13.1787 13.1906 13.1787 12.8483C13.1787 12.1026 13.1787 11.3569 13.1787 10.6111C13.1787 10.2688 13.3743 10.0855 13.7166 10.0732C14.4623 10.0732 15.2081 10.0732 15.9538 10.0732C16.2961 10.0732 16.4917 10.2688 16.4917 10.5989C16.4917 11.3569 16.4917 12.1026 16.4917 12.8605C16.4917 13.1906 16.2961 13.374 15.966 13.3862C15.587 13.3984 15.2081 13.3862 14.8169 13.3862ZM14.8413 12.4082C15.0247 12.4082 15.2081 12.4082 15.3914 12.4082C15.4892 12.4082 15.5259 12.3715 15.5259 12.2737C15.5259 11.907 15.5259 11.5525 15.5259 11.1857C15.5259 11.0757 15.477 11.039 15.3792 11.039C15.0247 11.039 14.6702 11.039 14.3034 11.039C14.1934 11.039 14.1567 11.0757 14.1567 11.1857C14.1567 11.5402 14.1567 11.8948 14.1567 12.2615C14.1567 12.3838 14.2056 12.4204 14.3156 12.4082C14.499 12.4082 14.6702 12.4082 14.8413 12.4082Z" fill="#004FA8"/>
<path d="M21.1855 11.7354C21.1855 12.0899 21.1855 12.4444 21.1855 12.8112C21.1855 13.2024 21.0022 13.3857 20.611 13.3857C19.8775 13.3857 19.1562 13.3857 18.4227 13.3857C18.0437 13.3857 17.8604 13.2024 17.8604 12.8234C17.8604 12.0899 17.8604 11.3686 17.8604 10.6351C17.8604 10.2439 18.0437 10.0728 18.4349 10.0605C19.1562 10.0605 19.8775 10.0605 20.5987 10.0605C20.9899 10.0605 21.1733 10.2439 21.1733 10.6351C21.1855 11.0141 21.1855 11.3686 21.1855 11.7354ZM19.5229 11.0508C19.3518 11.0508 19.1684 11.0508 18.9973 11.0508C18.8995 11.0508 18.8383 11.0752 18.8506 11.1852C18.8506 11.552 18.8506 11.9065 18.8506 12.2733C18.8506 12.3711 18.8872 12.4077 18.985 12.4077C19.3518 12.4077 19.7063 12.4077 20.0731 12.4077C20.1709 12.4077 20.2198 12.3833 20.2198 12.2733C20.2198 11.9065 20.2198 11.5275 20.2198 11.1608C20.2198 11.0508 20.1709 11.0263 20.0731 11.0385C19.8775 11.0508 19.6941 11.0508 19.5229 11.0508Z" fill="#004FA8"/>
<path d="M7.13913 16.4307C7.13913 16.7974 7.13913 17.1642 7.13913 17.5187C7.13913 17.8854 6.94353 18.0688 6.58901 18.0688C5.85551 18.0688 5.12202 18.0688 4.38852 18.0688C4.02177 18.0688 3.82617 17.8854 3.82617 17.5187C3.82617 16.773 3.82617 16.0395 3.82617 15.2938C3.82617 14.9392 4.02177 14.7559 4.37629 14.7559C5.12202 14.7559 5.85551 14.7559 6.60123 14.7559C6.96798 14.7559 7.15136 14.9515 7.15136 15.3182C7.13913 15.685 7.13913 16.0517 7.13913 16.4307ZM6.16114 16.4307C6.16114 16.2473 6.16114 16.0517 6.16114 15.8683C6.16114 15.7705 6.13669 15.7216 6.02666 15.7339C5.65991 15.7339 5.28094 15.7339 4.91419 15.7339C4.81639 15.7339 4.79194 15.7705 4.79194 15.8561C4.79194 16.2229 4.79194 16.6018 4.79194 16.9686C4.79194 17.0786 4.84084 17.103 4.93864 17.103C5.30539 17.103 5.65991 17.103 6.02666 17.103C6.12446 17.103 6.16114 17.0664 6.16114 16.9686C6.14891 16.7852 6.16114 16.614 6.16114 16.4307Z" fill="#004FA8"/>
<path d="M19.5229 14.7559C19.8897 14.7559 20.2564 14.7559 20.611 14.7559C20.9899 14.7559 21.1733 14.9392 21.1733 15.3182C21.1733 16.0517 21.1733 16.773 21.1733 17.5065C21.1733 17.8854 20.9899 18.0688 20.611 18.0688C19.8775 18.0688 19.144 18.0688 18.4105 18.0688C18.0437 18.0688 17.8604 17.8732 17.8604 17.5187C17.8604 16.7852 17.8604 16.0517 17.8604 15.3182C17.8604 14.9515 18.0437 14.7681 18.4105 14.7559C18.7894 14.7559 19.1562 14.7559 19.5229 14.7559ZM19.5229 17.0908C19.7063 17.0908 19.8897 17.0908 20.0731 17.0908C20.1709 17.0908 20.2075 17.0541 20.2075 16.9563C20.2075 16.5896 20.2075 16.2351 20.2075 15.8683C20.2075 15.7705 20.1831 15.7216 20.0731 15.7216C19.7063 15.7216 19.3273 15.7216 18.9606 15.7216C18.875 15.7216 18.8261 15.7583 18.8383 15.8439C18.8383 16.2106 18.8383 16.5896 18.8383 16.9563C18.8383 17.0541 18.875 17.0908 18.9728 17.0908C19.1562 17.0908 19.3396 17.0908 19.5229 17.0908Z" fill="#004FA8"/>
</svg>
