<svg width="22" height="19" viewBox="0 0 22 19" fill="none" xmlns="http://www.w3.org/2000/svg">
<path d="M10.9853 6.71295C7.70491 6.71295 4.41964 6.71786 1.13929 6.70804C0.908482 6.70804 0.854464 6.77187 0.859375 6.99286C0.864286 10.1259 0.864286 13.2638 0.864286 16.3969C0.864286 17.0058 1.13929 17.2808 1.74821 17.2808C4.09554 17.2808 6.44777 17.2808 8.79509 17.2808C9.20268 17.2808 9.41384 17.4281 9.41875 17.708C9.42366 17.9978 9.20759 18.15 8.78527 18.15C6.45268 18.15 4.12009 18.15 1.7875 18.15C0.658036 18.15 0 17.492 0 16.3674C0 11.5058 0 6.6442 0 1.78259C0 0.658036 0.658036 0 1.7875 0C7.93571 0 14.079 0 20.2272 0C21.342 0 22 0.662946 22 1.76786C22 6.63929 22 11.5058 22 16.3772C22 17.4871 21.3371 18.15 20.2272 18.15C17.8062 18.15 15.3804 18.15 12.9594 18.15C12.8857 18.15 12.8121 18.1549 12.7384 18.1451C12.5125 18.1156 12.3357 17.9339 12.3308 17.7228C12.3259 17.5067 12.5076 17.3103 12.7482 17.2857C12.8219 17.2759 12.8955 17.2808 12.9692 17.2808C15.3853 17.2808 17.7964 17.2808 20.2125 17.2808C20.8754 17.2808 21.1406 17.0205 21.1406 16.3625C21.1406 13.2442 21.1357 10.1259 21.1455 7.00759C21.1455 6.74732 21.067 6.70312 20.8312 6.70804C17.546 6.71786 14.2656 6.71295 10.9853 6.71295ZM10.9902 5.84375C14.2804 5.84375 17.5656 5.84375 20.8558 5.84866C21.0817 5.84866 21.1455 5.78973 21.1406 5.56384C21.1308 4.29688 21.1357 3.02991 21.1357 1.75804C21.1357 1.13437 20.8607 0.869196 20.2321 0.869196C14.0741 0.869196 7.91116 0.869196 1.75312 0.869196C1.12946 0.869196 0.864286 1.13929 0.859375 1.76786C0.859375 3.02009 0.859375 4.27232 0.859375 5.52455C0.859375 5.84375 0.859375 5.84375 1.17366 5.84375C4.44911 5.84375 7.71964 5.84375 10.9902 5.84375Z" fill="#004FA8"/>
<path d="M6.26136 8.20605C7.17966 8.20605 8.09305 8.20605 9.01136 8.20605C9.74305 8.20605 10.1654 8.63329 10.1703 9.36989C10.1703 11.1034 10.1703 12.8418 10.1703 14.5753C10.1703 15.2971 9.72832 15.7391 9.00644 15.7391C7.17475 15.7391 5.33814 15.7391 3.50645 15.7391C2.78948 15.7391 2.33278 15.2922 2.33278 14.5802C2.32787 12.8369 2.32787 11.0936 2.33278 9.35025C2.33278 8.64311 2.77966 8.20605 3.49171 8.20605C4.41493 8.20605 5.33814 8.20605 6.26136 8.20605ZM6.25153 14.8748C7.14528 14.8748 8.03412 14.8699 8.92787 14.8797C9.09975 14.8797 9.13903 14.8306 9.08502 14.6735C8.94752 14.261 8.67252 13.9958 8.27475 13.8436C7.97519 13.7306 7.67564 13.6226 7.37609 13.5145C7.21894 13.4556 7.02743 13.3918 6.98323 13.2444C6.83591 12.7386 6.45287 12.7976 6.07475 12.8172C6.02073 12.8221 5.95689 12.8123 5.90287 12.7976C5.78993 12.7583 5.74082 12.8074 5.71136 12.9105C5.61805 13.2297 5.39707 13.4163 5.09752 13.5293C4.80778 13.6373 4.51314 13.7404 4.22341 13.8485C3.84037 13.9909 3.5752 14.2511 3.42787 14.6342C3.35912 14.8208 3.37386 14.8895 3.59975 14.8895C4.48859 14.865 5.37252 14.8748 6.25153 14.8748ZM7.37118 10.5239C7.37118 10.3864 7.381 10.244 7.37118 10.1065C7.33189 9.55159 6.88502 9.10471 6.33993 9.07034C5.75064 9.03596 5.24975 9.41409 5.15645 9.98373C5.10243 10.3177 5.10734 10.6516 5.15153 10.9855C5.21537 11.4668 5.55912 11.8253 6.02564 11.9284C6.48725 12.0266 6.94394 11.8302 7.20912 11.4226C7.39082 11.1476 7.381 10.8382 7.37118 10.5239ZM9.31582 13.4654C9.31582 12.8712 9.31582 12.3507 9.31582 11.8253C9.31582 11.015 9.31582 10.2047 9.31582 9.39936C9.31582 9.24713 9.306 9.08016 9.10466 9.07525C8.71671 9.06543 8.32877 9.07034 7.8868 9.07034C8.26002 9.60561 8.24528 10.1802 8.24037 10.7547C8.23055 11.3145 8.06359 11.8105 7.67073 12.2279C7.49394 12.4145 7.55287 12.6503 7.78859 12.7436C8.29439 12.9449 8.83948 13.0628 9.31582 13.4654ZM3.19707 13.4556C3.6685 13.0628 4.19886 12.9449 4.69975 12.7485C4.96984 12.6404 5.01894 12.4194 4.82252 12.2034C4.46895 11.8203 4.27743 11.3735 4.27252 10.848C4.26761 10.244 4.21359 9.63507 4.62118 9.07034C4.18412 9.07034 3.80109 9.07034 3.41805 9.07034C3.24618 9.07034 3.19707 9.18329 3.19707 9.33061C3.19707 10.686 3.19707 12.0364 3.19707 13.4556Z" fill="#004FA8"/>
<path d="M15.5906 8.20684C16.7053 8.20684 17.8151 8.20684 18.9299 8.20684C19.0183 8.20684 19.1116 8.20193 19.2 8.22157C19.4111 8.26577 19.529 8.40818 19.5388 8.61934C19.5486 8.81577 19.4504 8.96309 19.2589 9.03675C19.1509 9.08095 19.033 9.07113 18.92 9.07113C16.6857 9.07113 14.4513 9.07113 12.2169 9.07113C12.104 9.07113 11.9861 9.08095 11.8781 9.03184C11.6817 8.94836 11.5736 8.80595 11.5982 8.59479C11.6227 8.38363 11.7504 8.25595 11.9567 8.21666C12.0352 8.20193 12.1187 8.20684 12.2022 8.20684C13.3317 8.20684 14.4611 8.20684 15.5906 8.20684Z" fill="#004FA8"/>
<path d="M17.144 11.3674C16.5449 11.3674 15.9507 11.3674 15.3516 11.3674C15.2681 11.3674 15.1895 11.3674 15.106 11.3576C14.8851 11.3232 14.7279 11.1465 14.7377 10.9353C14.7476 10.7143 14.8752 10.5719 15.0913 10.5228C15.1699 10.5032 15.2534 10.5081 15.3368 10.5081C16.54 10.5081 17.7431 10.5081 18.9413 10.5081C19.0052 10.5081 19.0739 10.5032 19.1377 10.513C19.3784 10.5424 19.5355 10.7094 19.5404 10.9304C19.5453 11.1612 19.3833 11.3527 19.1279 11.3625C18.7449 11.3773 18.3618 11.3674 17.9739 11.3723C17.6989 11.3674 17.4239 11.3674 17.144 11.3674Z" fill="#004FA8"/>
<path d="M17.3835 15.7432C16.8433 15.7432 16.3031 15.7432 15.7629 15.7432C15.4192 15.7432 15.2227 15.5861 15.2227 15.3111C15.2178 15.041 15.4192 14.874 15.758 14.874C16.8482 14.874 17.9335 14.874 19.0236 14.874C19.3428 14.874 19.5393 15.041 19.5442 15.3013C19.5442 15.5615 19.3477 15.7383 19.0335 15.7383C18.4785 15.7432 17.9335 15.7432 17.3835 15.7432Z" fill="#004FA8"/>
<path d="M12.6644 11.3637C12.4532 11.3637 12.2421 11.3736 12.0309 11.3637C11.7657 11.349 11.5889 11.1673 11.5938 10.9316C11.5988 10.7057 11.7706 10.524 12.0211 10.5142C12.4434 10.5044 12.8706 10.4994 13.293 10.5142C13.5483 10.524 13.7055 10.6959 13.7104 10.9365C13.7104 11.1771 13.5581 11.3392 13.3028 11.3637C13.288 11.3637 13.2684 11.3686 13.2537 11.3686C13.0572 11.3686 12.8608 11.3686 12.6644 11.3637C12.6644 11.3686 12.6644 11.3637 12.6644 11.3637Z" fill="#004FA8"/>
<path d="M10.8765 18.1446C10.6457 18.1446 10.4542 17.9629 10.4493 17.7272C10.4444 17.4866 10.6408 17.2754 10.8765 17.2804C11.1024 17.2853 11.294 17.4817 11.294 17.7125C11.294 17.9482 11.1024 18.1446 10.8765 18.1446Z" fill="#004FA8"/>
<path d="M11.942 1.65491C12.2956 1.65491 12.6197 1.76295 12.9045 1.97411C13.1206 2.13125 13.1697 2.35715 13.0519 2.55357C12.9242 2.75491 12.7081 2.81384 12.4724 2.71072C12.3447 2.65179 12.2367 2.56831 12.0943 2.53884C11.9961 2.51429 11.9028 2.50938 11.8045 2.54375C11.7407 2.56831 11.6769 2.59777 11.6769 2.67143C11.672 2.74018 11.7407 2.75491 11.7947 2.77947C11.9961 2.86295 12.2023 2.94643 12.4086 3.02991C12.5608 3.08884 12.7081 3.1625 12.8309 3.27054C13.1452 3.53572 13.2876 3.86965 13.1894 4.27723C13.0813 4.71429 12.7818 4.98438 12.3545 5.09241C11.78 5.23482 11.2693 5.08259 10.8371 4.67991C10.6162 4.47366 10.6014 4.21831 10.7782 4.0317C10.955 3.84509 11.176 3.84509 11.4068 4.04152C11.5885 4.19866 11.7898 4.29197 12.0304 4.27232C12.1679 4.2625 12.3054 4.22322 12.33 4.07098C12.3545 3.92857 12.217 3.88438 12.1139 3.84018C11.8831 3.73706 11.6425 3.65357 11.4117 3.55045C10.9894 3.36384 10.788 3.05447 10.8028 2.63706C10.8175 2.22456 11.0974 1.86607 11.5099 1.72366C11.6474 1.67456 11.7898 1.65 11.942 1.65491Z" fill="#004FA8"/>
<path d="M16.6864 4.66991C16.6717 4.90562 16.5784 5.05786 16.3672 5.11187C16.161 5.16589 15.9449 5.10696 15.8958 4.91054C15.7878 4.44893 15.4686 4.4833 15.115 4.47839C14.8253 4.47348 14.6681 4.53732 14.5847 4.83196C14.511 5.09223 14.2458 5.19536 14.015 5.09714C13.7989 5.00875 13.7007 4.77304 13.794 4.52259C14.1034 3.68777 14.4226 2.85295 14.7369 2.02304C14.8204 1.79714 14.9726 1.64982 15.2329 1.65964C15.4784 1.66455 15.6159 1.80696 15.6994 2.02795C15.9989 2.8333 16.3083 3.63375 16.6079 4.43911C16.6472 4.51768 16.6668 4.60607 16.6864 4.66991ZM15.228 3.27036C15.1641 3.3833 15.0512 3.47661 15.115 3.6092C15.1297 3.63866 15.2918 3.64848 15.3163 3.61411C15.4047 3.49134 15.2722 3.38821 15.228 3.27036Z" fill="#004FA8"/>
<path d="M6.70343 3.44623C6.84584 3.01409 6.97352 2.63105 7.1012 2.2431C7.13558 2.13507 7.16995 2.02212 7.21906 1.919C7.32218 1.70292 7.53334 1.60962 7.7445 1.67837C7.96549 1.75203 8.08825 1.9681 8.0195 2.20873C7.94584 2.469 7.85254 2.71944 7.76415 2.97971C7.57754 3.54444 7.39093 4.11409 7.19941 4.67882C7.09138 5.00292 6.93915 5.13551 6.69361 5.1306C6.40879 5.12569 6.28111 4.944 6.19763 4.69846C5.92263 3.90292 5.64272 3.10739 5.36772 2.31185C5.25968 2.00248 5.35299 1.76676 5.59852 1.67837C5.84897 1.58998 6.06504 1.71275 6.17799 2.02212C6.33022 2.43462 6.47263 2.85694 6.61504 3.26944C6.63468 3.31364 6.65924 3.35292 6.70343 3.44623Z" fill="#004FA8"/>
<path d="M8.87328 3.38296C8.87328 2.97537 8.86837 2.56287 8.87328 2.15528C8.87819 1.84591 9.03533 1.6593 9.2956 1.65439C9.56569 1.64948 9.73265 1.83609 9.73265 2.16019C9.73756 2.98028 9.73756 3.79546 9.73265 4.61555C9.73265 4.93475 9.56078 5.13118 9.30051 5.13118C9.04024 5.13118 8.87819 4.93475 8.87328 4.61064C8.87328 4.19814 8.87328 3.79055 8.87328 3.38296Z" fill="#004FA8"/>
</svg>
