<svg width="16" height="18" viewBox="0 0 16 18" fill="none" xmlns="http://www.w3.org/2000/svg">
<path d="M7.97454 17.8019C6.57901 17.8019 5.1779 17.8019 3.78237 17.8019C3.20183 17.8019 2.64362 17.7237 2.12448 17.4502C1.19227 16.9646 0.673134 16.1775 0.600567 15.1448C0.505671 13.7716 0.66197 12.4151 1.1532 11.1145C1.52162 10.1488 2.07425 9.3338 3.06228 8.89281C3.50885 8.69186 3.97775 8.61371 4.45781 8.59696C4.6476 8.59138 4.82065 8.66953 4.97695 8.76442C5.20581 8.90398 5.43468 9.0547 5.66355 9.19983C6.53436 9.76362 7.47215 10.0651 8.51601 9.91434C9.26401 9.80828 9.92828 9.4901 10.5479 9.06586C10.8549 8.85374 11.1564 8.59138 11.5583 8.59696C12.2281 8.60813 12.8533 8.77559 13.4171 9.15517C14.0981 9.61849 14.5224 10.2716 14.8071 11.0196C15.3318 12.3872 15.5272 13.8162 15.3764 15.2732C15.2369 16.6185 14.1874 17.6121 12.8422 17.7572C12.5742 17.7851 12.3063 17.7963 12.0327 17.7963C10.6819 17.8019 9.331 17.8019 7.97454 17.8019ZM7.99129 16.758C8.90117 16.758 9.81664 16.758 10.7265 16.758C11.3573 16.758 11.9937 16.7692 12.6244 16.7357C13.646 16.6743 14.3382 15.943 14.3661 14.9271C14.3772 14.581 14.3717 14.2293 14.3493 13.8832C14.2935 13.0068 14.1595 12.1472 13.8079 11.3378C13.5455 10.7237 13.1938 10.1711 12.5575 9.87527C12.0607 9.64082 11.5638 9.51801 11.1005 9.95342C11.0615 9.98691 11.0112 10.0148 10.9666 10.0427C9.76082 10.8466 8.44902 11.1982 7.00884 10.9024C6.1771 10.7349 5.43468 10.3553 4.75924 9.85852C4.49688 9.66873 4.23453 9.61849 3.93309 9.70222C3.74888 9.75246 3.56467 9.80828 3.39163 9.89759C2.84458 10.1711 2.51523 10.6456 2.26962 11.1759C1.69466 12.3928 1.5886 13.699 1.63326 15.0164C1.65559 15.6472 1.95702 16.1496 2.52082 16.4733C2.92273 16.7022 3.36371 16.7524 3.81587 16.7524C5.20581 16.7524 6.59576 16.758 7.99129 16.758Z" fill="#004FA8"/>
<path d="M12.1721 4.28148C12.1777 6.65388 10.2686 8.56297 7.89059 8.56855C5.50145 8.57413 3.59795 6.66505 3.60353 4.2759C3.60911 1.89792 5.50703 0 7.88501 0C10.263 0 12.1721 1.90908 12.1721 4.28148ZM7.87385 1.04386C6.08199 1.04944 4.63622 2.49521 4.63622 4.28707C4.63622 6.07893 6.10432 7.54144 7.89618 7.53028C9.71595 7.51911 11.1394 6.07893 11.1226 4.26474C11.1115 2.46171 9.67687 1.03827 7.87385 1.04386Z" fill="#004FA8"/>
</svg>
