<svg width="22" height="17" viewBox="0 0 22 17" fill="none" xmlns="http://www.w3.org/2000/svg">
<path d="M2.33613 8.94628C3.27038 8.68524 4.17716 8.79515 5.07707 8.78828C6.08002 8.78141 6.71889 9.35845 6.87689 10.3545C6.91811 10.6362 6.95932 10.9178 7.00741 11.1995C7.11045 11.7765 7.11045 12.3398 6.7395 12.8344C6.84941 12.9375 6.95245 12.9031 7.04863 12.9031C9.67279 12.9031 12.2901 12.9031 14.9142 12.91C15.1615 12.91 15.2715 12.855 15.3127 12.5871C15.5462 11.1445 16.6454 10.0042 18.0811 9.7088C18.3215 9.66071 18.3902 9.56454 18.3353 9.34472C18.246 8.94628 18.1635 8.54098 18.0742 8.14255C18.0261 7.90898 17.9849 7.65481 18.2872 7.58611C18.5688 7.52429 18.6513 7.74411 18.7062 7.97081C18.8093 8.41733 18.9192 8.85698 18.9673 9.31724C18.9879 9.51645 19.0566 9.6195 19.297 9.64697C19.8328 9.70193 20.3412 9.88741 20.8014 10.1897C21.0556 10.3545 21.2273 10.5881 21.2205 10.8904C21.2136 11.1171 21.3098 11.2751 21.4266 11.4468C22.1135 12.491 22.1959 13.5901 21.6052 14.6961C21.0144 15.8021 20.0389 16.3791 18.8024 16.3448C17.4766 16.3173 16.5011 15.6509 15.979 14.4144C15.821 14.0435 15.3951 13.9404 15.2715 13.5695C15.2577 13.5351 15.1203 13.542 15.0448 13.542C12.345 13.542 9.63844 13.542 6.93871 13.5351C6.69828 13.5351 6.61585 13.6176 6.60211 13.8443C6.58837 14.0641 6.49906 14.2633 6.40976 14.4625C6.32733 14.6549 6.1762 14.7167 5.99072 14.648C5.79837 14.5793 5.75028 14.4213 5.80524 14.229C5.80524 14.2152 5.81898 14.2083 5.81898 14.1946C6.03881 13.5077 5.9495 13.4183 5.22133 13.5283C5.08394 13.5489 5.06333 13.6313 5.02211 13.7275C4.7542 14.4007 4.26647 14.7785 3.53143 14.7716C2.81013 14.7716 2.32239 14.4007 2.06135 13.7412C1.99265 13.5763 1.91709 13.5008 1.73848 13.5283C1.66291 13.5351 1.58048 13.5283 1.49804 13.5145C1.02405 13.4596 1.02405 13.4596 1.16144 13.9061C1.66291 15.4929 3.41464 16.1662 4.84351 15.3143C4.87098 15.2937 4.89846 15.2731 4.92594 15.2594C5.10455 15.1563 5.28316 15.1289 5.41368 15.3143C5.55107 15.5136 5.46176 15.6716 5.27629 15.8021C4.23899 16.5577 2.69334 16.5165 1.6217 15.6784C0.8317 15.0602 0.419528 14.2358 0.412659 13.2191C0.412659 13.0405 0.385181 12.8894 0.282138 12.7383C-0.0269912 12.2711 -0.0750779 11.7628 0.10353 11.227C0.330224 10.5469 0.721788 9.97671 1.29196 9.54393C1.43622 9.43402 1.51865 9.31037 1.58048 9.13863C1.77283 8.58907 1.99265 8.04637 2.19874 7.50368C2.24682 7.37316 2.28804 7.28385 2.10256 7.18081C1.54613 6.85794 1.37439 6.29464 1.60796 5.66951C1.84152 5.02378 2.40482 4.591 3.09178 4.58413C4.9122 4.57039 6.73263 4.56352 8.55305 4.58413C9.43922 4.591 10.1262 5.33978 10.1193 6.21221C10.1124 6.6656 9.91322 7.02281 9.49418 7.19455C9.24688 7.29759 9.2194 7.43498 9.2194 7.65481C9.20566 8.29368 9.29496 8.93254 9.1507 9.57141C9.04766 10.0385 8.79349 10.437 8.5874 10.856C8.46375 11.0964 8.47062 11.2064 8.78662 11.1995C10.2773 11.1926 11.7611 11.1926 13.2518 11.1995C13.5129 11.1995 13.7533 11.1171 13.8426 10.8698C14.2067 9.88741 14.6875 8.94628 14.8043 7.8815C14.9005 7.01594 14.6601 6.20534 14.4677 5.38099C14.296 4.64596 14.1105 3.91778 13.9456 3.18274C13.9044 2.9904 13.8289 2.90796 13.6228 2.86675C12.874 2.71562 12.4069 1.98745 12.5305 1.20432C12.6198 0.517366 13.3205 -0.0390657 14.0143 0.00215147C14.77 0.0502382 15.3676 0.668496 15.3951 1.41041C15.402 1.59588 15.8691 2.06988 16.034 2.03553C16.1027 2.02179 16.1508 1.93249 16.2057 1.87753C16.5973 1.44475 17.0713 1.21806 17.6621 1.2318C17.9506 1.23867 18.2322 1.22493 18.5207 1.23867C18.8917 1.25241 19.1733 1.52032 19.1733 1.89814C19.1871 2.6744 19.1871 3.45753 19.1733 4.23378C19.1665 4.591 18.8986 4.85204 18.5482 4.88639C18.5139 4.89326 18.4795 4.88639 18.4452 4.89326C18.191 4.92074 17.8338 4.76961 17.7101 4.96195C17.6071 5.12682 17.875 5.4016 17.9506 5.64204C18.0193 5.85499 18.1223 6.06795 18.1979 6.2809C18.2666 6.48012 18.2322 6.65873 18.0193 6.73429C17.8132 6.80299 17.6689 6.69994 17.5934 6.50073C17.1949 5.41534 16.6591 4.39178 16.192 3.34074C16.0134 2.94231 15.7523 2.61944 15.3676 2.40649C15.2302 2.33092 15.1547 2.36527 15.0173 2.4477C14.5227 2.72936 14.5639 3.0797 14.6875 3.56744C14.9555 4.62535 15.2646 5.68325 15.4157 6.76864C15.5462 7.68229 15.4157 8.56846 15.0928 9.42715C14.8936 9.94923 14.7013 10.4713 14.4952 10.9934C14.2822 11.5498 13.8907 11.8246 13.2862 11.8246C11.7543 11.8315 10.2155 11.8315 8.68357 11.8246C7.96914 11.8246 7.59132 11.2682 7.96914 10.6774C8.5874 9.7088 8.62862 8.65776 8.5874 7.57237C8.58053 7.37316 8.51184 7.3182 8.32636 7.3182C6.60898 7.32507 4.89159 7.3182 3.17421 7.3182C3.05743 7.3182 2.95439 7.32507 2.89943 7.46933C2.72082 7.94333 2.53534 8.41733 2.33613 8.94628ZM3.52456 12.8963C4.09473 12.8963 4.67177 12.9031 5.24194 12.8963C6.04567 12.8825 6.48532 12.3742 6.39602 11.5842C6.34793 11.1858 6.29985 10.7873 6.23802 10.3958C6.14185 9.79123 5.71594 9.42028 5.11142 9.41341C4.54812 9.40654 3.99168 9.40654 3.42838 9.41341C2.26056 9.43402 1.17518 10.2103 0.763005 11.3025C0.440137 12.175 0.914135 12.8757 1.84839 12.8963C2.40482 12.9031 2.96125 12.8963 3.52456 12.8963ZM5.77089 6.6656C6.81506 6.6656 7.85236 6.6656 8.89653 6.6656C9.37053 6.6656 9.56288 6.40455 9.43235 5.95117C9.31557 5.53899 8.97209 5.23673 8.53244 5.22986C6.71202 5.223 4.89159 5.223 3.07117 5.22986C2.65213 5.22986 2.31552 5.53212 2.19874 5.93056C2.06135 6.39769 2.25369 6.65873 2.7483 6.65873C3.75812 6.6656 4.76107 6.6656 5.77089 6.6656ZM16.5354 13.5283C16.8308 13.5077 17.1056 13.5008 17.3735 13.4596C17.8407 13.3909 18.3009 13.3153 18.6513 12.9512C19.2352 12.3536 19.8328 11.7697 20.4236 11.1789C20.6572 10.9453 20.6366 10.8079 20.3412 10.6499C19.3657 10.121 18.3765 10.0935 17.401 10.6362C16.4324 11.1789 15.9653 12.0376 15.8897 13.1298C15.8691 13.3977 15.9996 13.542 16.2813 13.5283C16.3706 13.5214 16.4599 13.5283 16.5354 13.5283ZM16.611 14.1809C16.6248 14.3663 16.7209 14.49 16.8034 14.6068C17.5247 15.6647 18.9329 15.9944 20.0526 15.3762C21.1861 14.751 21.6464 13.3634 21.1106 12.1818C20.8701 11.646 20.8633 11.6391 20.4511 12.065C20.3274 12.1887 20.142 12.2643 20.2656 12.539C20.6091 13.3016 20.3686 14.0916 19.7092 14.5243C19.0566 14.9571 18.2391 14.8403 17.6621 14.229C17.5796 14.1396 17.5109 14.071 17.3735 14.0916C17.1331 14.1328 16.8789 14.1534 16.611 14.1809ZM13.9525 0.675366C13.506 0.675366 13.135 1.02571 13.1282 1.45849C13.1213 1.8844 13.4991 2.2691 13.9319 2.2691C14.3715 2.27597 14.7425 1.91188 14.7494 1.47223C14.7562 1.02571 14.4059 0.675366 13.9525 0.675366ZM17.6621 3.07283C17.6621 2.84614 17.6621 2.61257 17.6621 2.38588C17.6621 1.80197 17.5384 1.73327 17.0094 2.03553C16.8446 2.12484 16.7209 2.25536 16.611 2.40649C16.5561 2.48205 16.5148 2.56449 16.5629 2.66066C16.7965 3.14153 17.0232 3.62926 17.2568 4.11013C17.3186 4.23378 17.4354 4.24065 17.5521 4.23378C17.717 4.22004 17.6621 4.08265 17.6621 3.99335C17.6689 3.69109 17.6621 3.38196 17.6621 3.07283ZM18.3009 13.9198C18.7406 14.2221 19.1321 14.2015 19.4687 13.9061C19.7847 13.6313 19.8603 13.2397 19.6748 12.8619C19.2489 13.2329 18.9123 13.7206 18.3009 13.9198ZM4.39012 13.5557C3.80621 13.5557 3.25664 13.5557 2.67273 13.5557C2.87195 13.9473 3.16734 14.1465 3.5589 14.1396C3.92986 14.1259 4.22525 13.9473 4.39012 13.5557ZM18.3078 3.02475C18.3078 3.36822 18.3078 3.70483 18.3078 4.04831C18.3078 4.12387 18.3009 4.22691 18.4108 4.23378C18.5482 4.24065 18.5414 4.13074 18.5414 4.04144C18.5414 3.38196 18.5414 2.72249 18.5414 2.06301C18.5414 1.98058 18.5414 1.8844 18.4383 1.87753C18.294 1.86379 18.3147 1.98745 18.3147 2.06988C18.3009 2.38588 18.3078 2.70875 18.3078 3.02475Z" fill="#004FA8"/>
</svg>
