<svg width="38" height="38" viewBox="0 0 38 38" fill="none" xmlns="http://www.w3.org/2000/svg">
<path d="M19 38C29.4934 38 38 29.4934 38 19C38 8.50659 29.4934 0 19 0C8.50659 0 0 8.50659 0 19C0 29.4934 8.50659 38 19 38Z" fill="#EB5757"/>
<g clip-path="url(#clip0)">
<path d="M28.0362 26.5865H11.9638C10.8793 26.5865 10 25.7072 10 24.6227V13.3779C10 12.2934 10.8793 11.4141 11.9638 11.4141H28.0362C29.1207 11.4141 30 12.2934 30 13.3779V24.6227C30 25.7072 29.1207 26.5865 28.0362 26.5865Z" fill="white"/>
<path d="M17.2412 22.6313V15.3692C17.2412 14.993 17.6505 14.7592 17.9747 14.9506L24.1195 18.5816C24.4378 18.7699 24.4378 19.2306 24.1195 19.4185L17.9747 23.0495C17.6505 23.2413 17.2412 23.0075 17.2412 22.6313Z" fill="#EB5757"/>
</g>
<defs>
<clipPath id="clip0">
<rect width="20" height="20" fill="white" transform="translate(10 9)"/>
</clipPath>
</defs>
</svg>
