<svg id="vuesax_bold_send-square" data-name="vuesax/bold/send-square" xmlns="http://www.w3.org/2000/svg" width="52" height="52" viewBox="0 0 52 52">
  <g id="send-square">
    <path id="Vector" d="M0,0H52V52H0Z" fill="none" opacity="0"/>
    <path id="Vector-2" data-name="Vector" d="M30.745,0H12.588C4.7,0,0,4.7,0,12.588V30.723c0,7.908,4.7,12.61,12.588,12.61H30.723c7.887,0,12.588-4.7,12.588-12.588V12.588C43.333,4.7,38.632,0,30.745,0ZM14.018,15.123l6.5-6.5a1.681,1.681,0,0,1,.52-.347,1.532,1.532,0,0,1,1.235,0,1.681,1.681,0,0,1,.52.347l6.5,6.5a1.635,1.635,0,0,1,0,2.3,1.622,1.622,0,0,1-2.3,0L23.27,13.693V27.105a1.625,1.625,0,0,1-3.25,0V13.693L16.293,17.42a1.616,1.616,0,1,1-2.275-2.3ZM35.187,32.977a42.779,42.779,0,0,1-13.52,2.188,42.779,42.779,0,0,1-13.52-2.188,1.632,1.632,0,0,1-1.018-2.058A1.614,1.614,0,0,1,9.187,29.9a39.722,39.722,0,0,0,24.982,0,1.632,1.632,0,0,1,2.058,1.018A1.652,1.652,0,0,1,35.187,32.977Z" transform="translate(4.333 4.333)" fill="#c5013c"/>
  </g>
</svg>
